G04 #@! TF.GenerationSoftware,KiCad,Pcbnew,6.0.10-86aedd382b~118~ubuntu18.04.1*
G04 #@! TF.CreationDate,2025-04-04T14:58:15-06:00*
G04 #@! TF.ProjectId,mss-xcade,6d73732d-7863-4616-9465-2e6b69636164,rev?*
G04 #@! TF.SameCoordinates,Original*
G04 #@! TF.FileFunction,Paste,Top*
G04 #@! TF.FilePolarity,Positive*
%FSLAX46Y46*%
G04 Gerber Fmt 4.6, Leading zero omitted, Abs format (unit mm)*
G04 Created by KiCad (PCBNEW 6.0.10-86aedd382b~118~ubuntu18.04.1) date 2025-04-04 14:58:15*
%MOMM*%
%LPD*%
G01*
G04 APERTURE LIST*
%ADD10R,5.562600X2.108200*%
%ADD11R,1.400000X1.900000*%
%ADD12R,1.500000X0.900000*%
%ADD13R,0.900000X1.500000*%
%ADD14R,0.900000X0.900000*%
%ADD15R,2.108200X5.562600*%
%ADD16R,2.489200X1.193800*%
%ADD17R,1.900000X1.400000*%
%ADD18R,0.500000X2.300000*%
%ADD19R,2.000000X2.500000*%
%ADD20R,2.000000X1.500000*%
%ADD21R,2.000000X3.800000*%
%ADD22R,0.550000X1.600000*%
%ADD23R,1.600000X0.550000*%
%ADD24R,1.120000X2.440000*%
G04 APERTURE END LIST*
G36*
G01*
X139250000Y-54391500D02*
X140150000Y-54391500D01*
G75*
G02*
X140400000Y-54641500I0J-250000D01*
G01*
X140400000Y-55166500D01*
G75*
G02*
X140150000Y-55416500I-250000J0D01*
G01*
X139250000Y-55416500D01*
G75*
G02*
X139000000Y-55166500I0J250000D01*
G01*
X139000000Y-54641500D01*
G75*
G02*
X139250000Y-54391500I250000J0D01*
G01*
G37*
G36*
G01*
X139250000Y-56216500D02*
X140150000Y-56216500D01*
G75*
G02*
X140400000Y-56466500I0J-250000D01*
G01*
X140400000Y-56991500D01*
G75*
G02*
X140150000Y-57241500I-250000J0D01*
G01*
X139250000Y-57241500D01*
G75*
G02*
X139000000Y-56991500I0J250000D01*
G01*
X139000000Y-56466500D01*
G75*
G02*
X139250000Y-56216500I250000J0D01*
G01*
G37*
G36*
G01*
X103914000Y-108262000D02*
X103914000Y-109162000D01*
G75*
G02*
X103664000Y-109412000I-250000J0D01*
G01*
X103139000Y-109412000D01*
G75*
G02*
X102889000Y-109162000I0J250000D01*
G01*
X102889000Y-108262000D01*
G75*
G02*
X103139000Y-108012000I250000J0D01*
G01*
X103664000Y-108012000D01*
G75*
G02*
X103914000Y-108262000I0J-250000D01*
G01*
G37*
G36*
G01*
X102089000Y-108262000D02*
X102089000Y-109162000D01*
G75*
G02*
X101839000Y-109412000I-250000J0D01*
G01*
X101314000Y-109412000D01*
G75*
G02*
X101064000Y-109162000I0J250000D01*
G01*
X101064000Y-108262000D01*
G75*
G02*
X101314000Y-108012000I250000J0D01*
G01*
X101839000Y-108012000D01*
G75*
G02*
X102089000Y-108262000I0J-250000D01*
G01*
G37*
G36*
G01*
X103914000Y-88958000D02*
X103914000Y-89858000D01*
G75*
G02*
X103664000Y-90108000I-250000J0D01*
G01*
X103139000Y-90108000D01*
G75*
G02*
X102889000Y-89858000I0J250000D01*
G01*
X102889000Y-88958000D01*
G75*
G02*
X103139000Y-88708000I250000J0D01*
G01*
X103664000Y-88708000D01*
G75*
G02*
X103914000Y-88958000I0J-250000D01*
G01*
G37*
G36*
G01*
X102089000Y-88958000D02*
X102089000Y-89858000D01*
G75*
G02*
X101839000Y-90108000I-250000J0D01*
G01*
X101314000Y-90108000D01*
G75*
G02*
X101064000Y-89858000I0J250000D01*
G01*
X101064000Y-88958000D01*
G75*
G02*
X101314000Y-88708000I250000J0D01*
G01*
X101839000Y-88708000D01*
G75*
G02*
X102089000Y-88958000I0J-250000D01*
G01*
G37*
G36*
G01*
X161618000Y-74198500D02*
X161618000Y-73248500D01*
G75*
G02*
X161868000Y-72998500I250000J0D01*
G01*
X162368000Y-72998500D01*
G75*
G02*
X162618000Y-73248500I0J-250000D01*
G01*
X162618000Y-74198500D01*
G75*
G02*
X162368000Y-74448500I-250000J0D01*
G01*
X161868000Y-74448500D01*
G75*
G02*
X161618000Y-74198500I0J250000D01*
G01*
G37*
G36*
G01*
X163518000Y-74198500D02*
X163518000Y-73248500D01*
G75*
G02*
X163768000Y-72998500I250000J0D01*
G01*
X164268000Y-72998500D01*
G75*
G02*
X164518000Y-73248500I0J-250000D01*
G01*
X164518000Y-74198500D01*
G75*
G02*
X164268000Y-74448500I-250000J0D01*
G01*
X163768000Y-74448500D01*
G75*
G02*
X163518000Y-74198500I0J250000D01*
G01*
G37*
G36*
G01*
X103914000Y-92260000D02*
X103914000Y-93160000D01*
G75*
G02*
X103664000Y-93410000I-250000J0D01*
G01*
X103139000Y-93410000D01*
G75*
G02*
X102889000Y-93160000I0J250000D01*
G01*
X102889000Y-92260000D01*
G75*
G02*
X103139000Y-92010000I250000J0D01*
G01*
X103664000Y-92010000D01*
G75*
G02*
X103914000Y-92260000I0J-250000D01*
G01*
G37*
G36*
G01*
X102089000Y-92260000D02*
X102089000Y-93160000D01*
G75*
G02*
X101839000Y-93410000I-250000J0D01*
G01*
X101314000Y-93410000D01*
G75*
G02*
X101064000Y-93160000I0J250000D01*
G01*
X101064000Y-92260000D01*
G75*
G02*
X101314000Y-92010000I250000J0D01*
G01*
X101839000Y-92010000D01*
G75*
G02*
X102089000Y-92260000I0J-250000D01*
G01*
G37*
G36*
G01*
X103914000Y-38158000D02*
X103914000Y-39058000D01*
G75*
G02*
X103664000Y-39308000I-250000J0D01*
G01*
X103139000Y-39308000D01*
G75*
G02*
X102889000Y-39058000I0J250000D01*
G01*
X102889000Y-38158000D01*
G75*
G02*
X103139000Y-37908000I250000J0D01*
G01*
X103664000Y-37908000D01*
G75*
G02*
X103914000Y-38158000I0J-250000D01*
G01*
G37*
G36*
G01*
X102089000Y-38158000D02*
X102089000Y-39058000D01*
G75*
G02*
X101839000Y-39308000I-250000J0D01*
G01*
X101314000Y-39308000D01*
G75*
G02*
X101064000Y-39058000I0J250000D01*
G01*
X101064000Y-38158000D01*
G75*
G02*
X101314000Y-37908000I250000J0D01*
G01*
X101839000Y-37908000D01*
G75*
G02*
X102089000Y-38158000I0J-250000D01*
G01*
G37*
G36*
G01*
X103914000Y-82862000D02*
X103914000Y-83762000D01*
G75*
G02*
X103664000Y-84012000I-250000J0D01*
G01*
X103139000Y-84012000D01*
G75*
G02*
X102889000Y-83762000I0J250000D01*
G01*
X102889000Y-82862000D01*
G75*
G02*
X103139000Y-82612000I250000J0D01*
G01*
X103664000Y-82612000D01*
G75*
G02*
X103914000Y-82862000I0J-250000D01*
G01*
G37*
G36*
G01*
X102089000Y-82862000D02*
X102089000Y-83762000D01*
G75*
G02*
X101839000Y-84012000I-250000J0D01*
G01*
X101314000Y-84012000D01*
G75*
G02*
X101064000Y-83762000I0J250000D01*
G01*
X101064000Y-82862000D01*
G75*
G02*
X101314000Y-82612000I250000J0D01*
G01*
X101839000Y-82612000D01*
G75*
G02*
X102089000Y-82862000I0J-250000D01*
G01*
G37*
G36*
G01*
X184747000Y-72414000D02*
X184447000Y-72414000D01*
G75*
G02*
X184297000Y-72264000I0J150000D01*
G01*
X184297000Y-71089000D01*
G75*
G02*
X184447000Y-70939000I150000J0D01*
G01*
X184747000Y-70939000D01*
G75*
G02*
X184897000Y-71089000I0J-150000D01*
G01*
X184897000Y-72264000D01*
G75*
G02*
X184747000Y-72414000I-150000J0D01*
G01*
G37*
G36*
G01*
X186647000Y-72414000D02*
X186347000Y-72414000D01*
G75*
G02*
X186197000Y-72264000I0J150000D01*
G01*
X186197000Y-71089000D01*
G75*
G02*
X186347000Y-70939000I150000J0D01*
G01*
X186647000Y-70939000D01*
G75*
G02*
X186797000Y-71089000I0J-150000D01*
G01*
X186797000Y-72264000D01*
G75*
G02*
X186647000Y-72414000I-150000J0D01*
G01*
G37*
G36*
G01*
X185697000Y-70539000D02*
X185397000Y-70539000D01*
G75*
G02*
X185247000Y-70389000I0J150000D01*
G01*
X185247000Y-69214000D01*
G75*
G02*
X185397000Y-69064000I150000J0D01*
G01*
X185697000Y-69064000D01*
G75*
G02*
X185847000Y-69214000I0J-150000D01*
G01*
X185847000Y-70389000D01*
G75*
G02*
X185697000Y-70539000I-150000J0D01*
G01*
G37*
D10*
X177038000Y-128028700D03*
X177038000Y-123431300D03*
G36*
G01*
X171920000Y-77938500D02*
X171620000Y-77938500D01*
G75*
G02*
X171470000Y-77788500I0J150000D01*
G01*
X171470000Y-76613500D01*
G75*
G02*
X171620000Y-76463500I150000J0D01*
G01*
X171920000Y-76463500D01*
G75*
G02*
X172070000Y-76613500I0J-150000D01*
G01*
X172070000Y-77788500D01*
G75*
G02*
X171920000Y-77938500I-150000J0D01*
G01*
G37*
G36*
G01*
X173820000Y-77938500D02*
X173520000Y-77938500D01*
G75*
G02*
X173370000Y-77788500I0J150000D01*
G01*
X173370000Y-76613500D01*
G75*
G02*
X173520000Y-76463500I150000J0D01*
G01*
X173820000Y-76463500D01*
G75*
G02*
X173970000Y-76613500I0J-150000D01*
G01*
X173970000Y-77788500D01*
G75*
G02*
X173820000Y-77938500I-150000J0D01*
G01*
G37*
G36*
G01*
X172870000Y-76063500D02*
X172570000Y-76063500D01*
G75*
G02*
X172420000Y-75913500I0J150000D01*
G01*
X172420000Y-74738500D01*
G75*
G02*
X172570000Y-74588500I150000J0D01*
G01*
X172870000Y-74588500D01*
G75*
G02*
X173020000Y-74738500I0J-150000D01*
G01*
X173020000Y-75913500D01*
G75*
G02*
X172870000Y-76063500I-150000J0D01*
G01*
G37*
G36*
G01*
X81302000Y-36079000D02*
X82502000Y-36079000D01*
G75*
G02*
X82702000Y-36279000I0J-200000D01*
G01*
X82702000Y-36679000D01*
G75*
G02*
X82502000Y-36879000I-200000J0D01*
G01*
X81302000Y-36879000D01*
G75*
G02*
X81102000Y-36679000I0J200000D01*
G01*
X81102000Y-36279000D01*
G75*
G02*
X81302000Y-36079000I200000J0D01*
G01*
G37*
G36*
G01*
X81302000Y-37329000D02*
X82502000Y-37329000D01*
G75*
G02*
X82702000Y-37529000I0J-200000D01*
G01*
X82702000Y-37929000D01*
G75*
G02*
X82502000Y-38129000I-200000J0D01*
G01*
X81302000Y-38129000D01*
G75*
G02*
X81102000Y-37929000I0J200000D01*
G01*
X81102000Y-37529000D01*
G75*
G02*
X81302000Y-37329000I200000J0D01*
G01*
G37*
G36*
G01*
X81302000Y-38579000D02*
X82502000Y-38579000D01*
G75*
G02*
X82702000Y-38779000I0J-200000D01*
G01*
X82702000Y-39179000D01*
G75*
G02*
X82502000Y-39379000I-200000J0D01*
G01*
X81302000Y-39379000D01*
G75*
G02*
X81102000Y-39179000I0J200000D01*
G01*
X81102000Y-38779000D01*
G75*
G02*
X81302000Y-38579000I200000J0D01*
G01*
G37*
G36*
G01*
X81302000Y-39829000D02*
X82502000Y-39829000D01*
G75*
G02*
X82702000Y-40029000I0J-200000D01*
G01*
X82702000Y-40429000D01*
G75*
G02*
X82502000Y-40629000I-200000J0D01*
G01*
X81302000Y-40629000D01*
G75*
G02*
X81102000Y-40429000I0J200000D01*
G01*
X81102000Y-40029000D01*
G75*
G02*
X81302000Y-39829000I200000J0D01*
G01*
G37*
G36*
G01*
X77752001Y-41729000D02*
X80251999Y-41729000D01*
G75*
G02*
X80502000Y-41979001I0J-250001D01*
G01*
X80502000Y-43578999D01*
G75*
G02*
X80251999Y-43829000I-250001J0D01*
G01*
X77752001Y-43829000D01*
G75*
G02*
X77502000Y-43578999I0J250001D01*
G01*
X77502000Y-41979001D01*
G75*
G02*
X77752001Y-41729000I250001J0D01*
G01*
G37*
G36*
G01*
X77752001Y-32879000D02*
X80251999Y-32879000D01*
G75*
G02*
X80502000Y-33129001I0J-250001D01*
G01*
X80502000Y-34728999D01*
G75*
G02*
X80251999Y-34979000I-250001J0D01*
G01*
X77752001Y-34979000D01*
G75*
G02*
X77502000Y-34728999I0J250001D01*
G01*
X77502000Y-33129001D01*
G75*
G02*
X77752001Y-32879000I250001J0D01*
G01*
G37*
G36*
G01*
X137630000Y-77938500D02*
X137330000Y-77938500D01*
G75*
G02*
X137180000Y-77788500I0J150000D01*
G01*
X137180000Y-76613500D01*
G75*
G02*
X137330000Y-76463500I150000J0D01*
G01*
X137630000Y-76463500D01*
G75*
G02*
X137780000Y-76613500I0J-150000D01*
G01*
X137780000Y-77788500D01*
G75*
G02*
X137630000Y-77938500I-150000J0D01*
G01*
G37*
G36*
G01*
X139530000Y-77938500D02*
X139230000Y-77938500D01*
G75*
G02*
X139080000Y-77788500I0J150000D01*
G01*
X139080000Y-76613500D01*
G75*
G02*
X139230000Y-76463500I150000J0D01*
G01*
X139530000Y-76463500D01*
G75*
G02*
X139680000Y-76613500I0J-150000D01*
G01*
X139680000Y-77788500D01*
G75*
G02*
X139530000Y-77938500I-150000J0D01*
G01*
G37*
G36*
G01*
X138580000Y-76063500D02*
X138280000Y-76063500D01*
G75*
G02*
X138130000Y-75913500I0J150000D01*
G01*
X138130000Y-74738500D01*
G75*
G02*
X138280000Y-74588500I150000J0D01*
G01*
X138580000Y-74588500D01*
G75*
G02*
X138730000Y-74738500I0J-150000D01*
G01*
X138730000Y-75913500D01*
G75*
G02*
X138580000Y-76063500I-150000J0D01*
G01*
G37*
G36*
G01*
X204746000Y-139087000D02*
X203496000Y-139087000D01*
G75*
G02*
X203346000Y-138937000I0J150000D01*
G01*
X203346000Y-138637000D01*
G75*
G02*
X203496000Y-138487000I150000J0D01*
G01*
X204746000Y-138487000D01*
G75*
G02*
X204896000Y-138637000I0J-150000D01*
G01*
X204896000Y-138937000D01*
G75*
G02*
X204746000Y-139087000I-150000J0D01*
G01*
G37*
G36*
G01*
X204746000Y-138087000D02*
X203496000Y-138087000D01*
G75*
G02*
X203346000Y-137937000I0J150000D01*
G01*
X203346000Y-137637000D01*
G75*
G02*
X203496000Y-137487000I150000J0D01*
G01*
X204746000Y-137487000D01*
G75*
G02*
X204896000Y-137637000I0J-150000D01*
G01*
X204896000Y-137937000D01*
G75*
G02*
X204746000Y-138087000I-150000J0D01*
G01*
G37*
G36*
G01*
X204746000Y-137087000D02*
X203496000Y-137087000D01*
G75*
G02*
X203346000Y-136937000I0J150000D01*
G01*
X203346000Y-136637000D01*
G75*
G02*
X203496000Y-136487000I150000J0D01*
G01*
X204746000Y-136487000D01*
G75*
G02*
X204896000Y-136637000I0J-150000D01*
G01*
X204896000Y-136937000D01*
G75*
G02*
X204746000Y-137087000I-150000J0D01*
G01*
G37*
G36*
G01*
X204746000Y-136087000D02*
X203496000Y-136087000D01*
G75*
G02*
X203346000Y-135937000I0J150000D01*
G01*
X203346000Y-135637000D01*
G75*
G02*
X203496000Y-135487000I150000J0D01*
G01*
X204746000Y-135487000D01*
G75*
G02*
X204896000Y-135637000I0J-150000D01*
G01*
X204896000Y-135937000D01*
G75*
G02*
X204746000Y-136087000I-150000J0D01*
G01*
G37*
G36*
G01*
X208646000Y-140687000D02*
X207346000Y-140687000D01*
G75*
G02*
X207096000Y-140437000I0J250000D01*
G01*
X207096000Y-139737000D01*
G75*
G02*
X207346000Y-139487000I250000J0D01*
G01*
X208646000Y-139487000D01*
G75*
G02*
X208896000Y-139737000I0J-250000D01*
G01*
X208896000Y-140437000D01*
G75*
G02*
X208646000Y-140687000I-250000J0D01*
G01*
G37*
G36*
G01*
X208646000Y-135087000D02*
X207346000Y-135087000D01*
G75*
G02*
X207096000Y-134837000I0J250000D01*
G01*
X207096000Y-134137000D01*
G75*
G02*
X207346000Y-133887000I250000J0D01*
G01*
X208646000Y-133887000D01*
G75*
G02*
X208896000Y-134137000I0J-250000D01*
G01*
X208896000Y-134837000D01*
G75*
G02*
X208646000Y-135087000I-250000J0D01*
G01*
G37*
G36*
G01*
X179037000Y-57266500D02*
X178087000Y-57266500D01*
G75*
G02*
X177837000Y-57016500I0J250000D01*
G01*
X177837000Y-56516500D01*
G75*
G02*
X178087000Y-56266500I250000J0D01*
G01*
X179037000Y-56266500D01*
G75*
G02*
X179287000Y-56516500I0J-250000D01*
G01*
X179287000Y-57016500D01*
G75*
G02*
X179037000Y-57266500I-250000J0D01*
G01*
G37*
G36*
G01*
X179037000Y-55366500D02*
X178087000Y-55366500D01*
G75*
G02*
X177837000Y-55116500I0J250000D01*
G01*
X177837000Y-54616500D01*
G75*
G02*
X178087000Y-54366500I250000J0D01*
G01*
X179037000Y-54366500D01*
G75*
G02*
X179287000Y-54616500I0J-250000D01*
G01*
X179287000Y-55116500D01*
G75*
G02*
X179037000Y-55366500I-250000J0D01*
G01*
G37*
G36*
G01*
X150711000Y-72350500D02*
X150411000Y-72350500D01*
G75*
G02*
X150261000Y-72200500I0J150000D01*
G01*
X150261000Y-71025500D01*
G75*
G02*
X150411000Y-70875500I150000J0D01*
G01*
X150711000Y-70875500D01*
G75*
G02*
X150861000Y-71025500I0J-150000D01*
G01*
X150861000Y-72200500D01*
G75*
G02*
X150711000Y-72350500I-150000J0D01*
G01*
G37*
G36*
G01*
X152611000Y-72350500D02*
X152311000Y-72350500D01*
G75*
G02*
X152161000Y-72200500I0J150000D01*
G01*
X152161000Y-71025500D01*
G75*
G02*
X152311000Y-70875500I150000J0D01*
G01*
X152611000Y-70875500D01*
G75*
G02*
X152761000Y-71025500I0J-150000D01*
G01*
X152761000Y-72200500D01*
G75*
G02*
X152611000Y-72350500I-150000J0D01*
G01*
G37*
G36*
G01*
X151661000Y-70475500D02*
X151361000Y-70475500D01*
G75*
G02*
X151211000Y-70325500I0J150000D01*
G01*
X151211000Y-69150500D01*
G75*
G02*
X151361000Y-69000500I150000J0D01*
G01*
X151661000Y-69000500D01*
G75*
G02*
X151811000Y-69150500I0J-150000D01*
G01*
X151811000Y-70325500D01*
G75*
G02*
X151661000Y-70475500I-150000J0D01*
G01*
G37*
G36*
G01*
X156522000Y-54391500D02*
X157422000Y-54391500D01*
G75*
G02*
X157672000Y-54641500I0J-250000D01*
G01*
X157672000Y-55166500D01*
G75*
G02*
X157422000Y-55416500I-250000J0D01*
G01*
X156522000Y-55416500D01*
G75*
G02*
X156272000Y-55166500I0J250000D01*
G01*
X156272000Y-54641500D01*
G75*
G02*
X156522000Y-54391500I250000J0D01*
G01*
G37*
G36*
G01*
X156522000Y-56216500D02*
X157422000Y-56216500D01*
G75*
G02*
X157672000Y-56466500I0J-250000D01*
G01*
X157672000Y-56991500D01*
G75*
G02*
X157422000Y-57241500I-250000J0D01*
G01*
X156522000Y-57241500D01*
G75*
G02*
X156272000Y-56991500I0J250000D01*
G01*
X156272000Y-56466500D01*
G75*
G02*
X156522000Y-56216500I250000J0D01*
G01*
G37*
G36*
G01*
X167729000Y-72350500D02*
X167429000Y-72350500D01*
G75*
G02*
X167279000Y-72200500I0J150000D01*
G01*
X167279000Y-71025500D01*
G75*
G02*
X167429000Y-70875500I150000J0D01*
G01*
X167729000Y-70875500D01*
G75*
G02*
X167879000Y-71025500I0J-150000D01*
G01*
X167879000Y-72200500D01*
G75*
G02*
X167729000Y-72350500I-150000J0D01*
G01*
G37*
G36*
G01*
X169629000Y-72350500D02*
X169329000Y-72350500D01*
G75*
G02*
X169179000Y-72200500I0J150000D01*
G01*
X169179000Y-71025500D01*
G75*
G02*
X169329000Y-70875500I150000J0D01*
G01*
X169629000Y-70875500D01*
G75*
G02*
X169779000Y-71025500I0J-150000D01*
G01*
X169779000Y-72200500D01*
G75*
G02*
X169629000Y-72350500I-150000J0D01*
G01*
G37*
G36*
G01*
X168679000Y-70475500D02*
X168379000Y-70475500D01*
G75*
G02*
X168229000Y-70325500I0J150000D01*
G01*
X168229000Y-69150500D01*
G75*
G02*
X168379000Y-69000500I150000J0D01*
G01*
X168679000Y-69000500D01*
G75*
G02*
X168829000Y-69150500I0J-150000D01*
G01*
X168829000Y-70325500D01*
G75*
G02*
X168679000Y-70475500I-150000J0D01*
G01*
G37*
G36*
G01*
X81302000Y-132091000D02*
X82502000Y-132091000D01*
G75*
G02*
X82702000Y-132291000I0J-200000D01*
G01*
X82702000Y-132691000D01*
G75*
G02*
X82502000Y-132891000I-200000J0D01*
G01*
X81302000Y-132891000D01*
G75*
G02*
X81102000Y-132691000I0J200000D01*
G01*
X81102000Y-132291000D01*
G75*
G02*
X81302000Y-132091000I200000J0D01*
G01*
G37*
G36*
G01*
X81302000Y-133341000D02*
X82502000Y-133341000D01*
G75*
G02*
X82702000Y-133541000I0J-200000D01*
G01*
X82702000Y-133941000D01*
G75*
G02*
X82502000Y-134141000I-200000J0D01*
G01*
X81302000Y-134141000D01*
G75*
G02*
X81102000Y-133941000I0J200000D01*
G01*
X81102000Y-133541000D01*
G75*
G02*
X81302000Y-133341000I200000J0D01*
G01*
G37*
G36*
G01*
X81302000Y-134591000D02*
X82502000Y-134591000D01*
G75*
G02*
X82702000Y-134791000I0J-200000D01*
G01*
X82702000Y-135191000D01*
G75*
G02*
X82502000Y-135391000I-200000J0D01*
G01*
X81302000Y-135391000D01*
G75*
G02*
X81102000Y-135191000I0J200000D01*
G01*
X81102000Y-134791000D01*
G75*
G02*
X81302000Y-134591000I200000J0D01*
G01*
G37*
G36*
G01*
X81302000Y-135841000D02*
X82502000Y-135841000D01*
G75*
G02*
X82702000Y-136041000I0J-200000D01*
G01*
X82702000Y-136441000D01*
G75*
G02*
X82502000Y-136641000I-200000J0D01*
G01*
X81302000Y-136641000D01*
G75*
G02*
X81102000Y-136441000I0J200000D01*
G01*
X81102000Y-136041000D01*
G75*
G02*
X81302000Y-135841000I200000J0D01*
G01*
G37*
G36*
G01*
X77752001Y-128891000D02*
X80251999Y-128891000D01*
G75*
G02*
X80502000Y-129141001I0J-250001D01*
G01*
X80502000Y-130740999D01*
G75*
G02*
X80251999Y-130991000I-250001J0D01*
G01*
X77752001Y-130991000D01*
G75*
G02*
X77502000Y-130740999I0J250001D01*
G01*
X77502000Y-129141001D01*
G75*
G02*
X77752001Y-128891000I250001J0D01*
G01*
G37*
G36*
G01*
X77752001Y-137741000D02*
X80251999Y-137741000D01*
G75*
G02*
X80502000Y-137991001I0J-250001D01*
G01*
X80502000Y-139590999D01*
G75*
G02*
X80251999Y-139841000I-250001J0D01*
G01*
X77752001Y-139841000D01*
G75*
G02*
X77502000Y-139590999I0J250001D01*
G01*
X77502000Y-137991001D01*
G75*
G02*
X77752001Y-137741000I250001J0D01*
G01*
G37*
G36*
G01*
X125977776Y-27664000D02*
X125977776Y-28914000D01*
G75*
G02*
X125827776Y-29064000I-150000J0D01*
G01*
X125527776Y-29064000D01*
G75*
G02*
X125377776Y-28914000I0J150000D01*
G01*
X125377776Y-27664000D01*
G75*
G02*
X125527776Y-27514000I150000J0D01*
G01*
X125827776Y-27514000D01*
G75*
G02*
X125977776Y-27664000I0J-150000D01*
G01*
G37*
G36*
G01*
X124977776Y-27664000D02*
X124977776Y-28914000D01*
G75*
G02*
X124827776Y-29064000I-150000J0D01*
G01*
X124527776Y-29064000D01*
G75*
G02*
X124377776Y-28914000I0J150000D01*
G01*
X124377776Y-27664000D01*
G75*
G02*
X124527776Y-27514000I150000J0D01*
G01*
X124827776Y-27514000D01*
G75*
G02*
X124977776Y-27664000I0J-150000D01*
G01*
G37*
G36*
G01*
X123977776Y-27664000D02*
X123977776Y-28914000D01*
G75*
G02*
X123827776Y-29064000I-150000J0D01*
G01*
X123527776Y-29064000D01*
G75*
G02*
X123377776Y-28914000I0J150000D01*
G01*
X123377776Y-27664000D01*
G75*
G02*
X123527776Y-27514000I150000J0D01*
G01*
X123827776Y-27514000D01*
G75*
G02*
X123977776Y-27664000I0J-150000D01*
G01*
G37*
G36*
G01*
X122977776Y-27664000D02*
X122977776Y-28914000D01*
G75*
G02*
X122827776Y-29064000I-150000J0D01*
G01*
X122527776Y-29064000D01*
G75*
G02*
X122377776Y-28914000I0J150000D01*
G01*
X122377776Y-27664000D01*
G75*
G02*
X122527776Y-27514000I150000J0D01*
G01*
X122827776Y-27514000D01*
G75*
G02*
X122977776Y-27664000I0J-150000D01*
G01*
G37*
G36*
G01*
X121977776Y-23764000D02*
X121977776Y-25064000D01*
G75*
G02*
X121727776Y-25314000I-250000J0D01*
G01*
X121027776Y-25314000D01*
G75*
G02*
X120777776Y-25064000I0J250000D01*
G01*
X120777776Y-23764000D01*
G75*
G02*
X121027776Y-23514000I250000J0D01*
G01*
X121727776Y-23514000D01*
G75*
G02*
X121977776Y-23764000I0J-250000D01*
G01*
G37*
G36*
G01*
X127577776Y-23764000D02*
X127577776Y-25064000D01*
G75*
G02*
X127327776Y-25314000I-250000J0D01*
G01*
X126627776Y-25314000D01*
G75*
G02*
X126377776Y-25064000I0J250000D01*
G01*
X126377776Y-23764000D01*
G75*
G02*
X126627776Y-23514000I250000J0D01*
G01*
X127327776Y-23514000D01*
G75*
G02*
X127577776Y-23764000I0J-250000D01*
G01*
G37*
G36*
G01*
X184194000Y-86406000D02*
X184194000Y-86606000D01*
G75*
G02*
X184094000Y-86706000I-100000J0D01*
G01*
X182819000Y-86706000D01*
G75*
G02*
X182719000Y-86606000I0J100000D01*
G01*
X182719000Y-86406000D01*
G75*
G02*
X182819000Y-86306000I100000J0D01*
G01*
X184094000Y-86306000D01*
G75*
G02*
X184194000Y-86406000I0J-100000D01*
G01*
G37*
G36*
G01*
X184194000Y-85756000D02*
X184194000Y-85956000D01*
G75*
G02*
X184094000Y-86056000I-100000J0D01*
G01*
X182819000Y-86056000D01*
G75*
G02*
X182719000Y-85956000I0J100000D01*
G01*
X182719000Y-85756000D01*
G75*
G02*
X182819000Y-85656000I100000J0D01*
G01*
X184094000Y-85656000D01*
G75*
G02*
X184194000Y-85756000I0J-100000D01*
G01*
G37*
G36*
G01*
X184194000Y-85106000D02*
X184194000Y-85306000D01*
G75*
G02*
X184094000Y-85406000I-100000J0D01*
G01*
X182819000Y-85406000D01*
G75*
G02*
X182719000Y-85306000I0J100000D01*
G01*
X182719000Y-85106000D01*
G75*
G02*
X182819000Y-85006000I100000J0D01*
G01*
X184094000Y-85006000D01*
G75*
G02*
X184194000Y-85106000I0J-100000D01*
G01*
G37*
G36*
G01*
X184194000Y-84456000D02*
X184194000Y-84656000D01*
G75*
G02*
X184094000Y-84756000I-100000J0D01*
G01*
X182819000Y-84756000D01*
G75*
G02*
X182719000Y-84656000I0J100000D01*
G01*
X182719000Y-84456000D01*
G75*
G02*
X182819000Y-84356000I100000J0D01*
G01*
X184094000Y-84356000D01*
G75*
G02*
X184194000Y-84456000I0J-100000D01*
G01*
G37*
G36*
G01*
X184194000Y-83806000D02*
X184194000Y-84006000D01*
G75*
G02*
X184094000Y-84106000I-100000J0D01*
G01*
X182819000Y-84106000D01*
G75*
G02*
X182719000Y-84006000I0J100000D01*
G01*
X182719000Y-83806000D01*
G75*
G02*
X182819000Y-83706000I100000J0D01*
G01*
X184094000Y-83706000D01*
G75*
G02*
X184194000Y-83806000I0J-100000D01*
G01*
G37*
G36*
G01*
X184194000Y-83156000D02*
X184194000Y-83356000D01*
G75*
G02*
X184094000Y-83456000I-100000J0D01*
G01*
X182819000Y-83456000D01*
G75*
G02*
X182719000Y-83356000I0J100000D01*
G01*
X182719000Y-83156000D01*
G75*
G02*
X182819000Y-83056000I100000J0D01*
G01*
X184094000Y-83056000D01*
G75*
G02*
X184194000Y-83156000I0J-100000D01*
G01*
G37*
G36*
G01*
X184194000Y-82506000D02*
X184194000Y-82706000D01*
G75*
G02*
X184094000Y-82806000I-100000J0D01*
G01*
X182819000Y-82806000D01*
G75*
G02*
X182719000Y-82706000I0J100000D01*
G01*
X182719000Y-82506000D01*
G75*
G02*
X182819000Y-82406000I100000J0D01*
G01*
X184094000Y-82406000D01*
G75*
G02*
X184194000Y-82506000I0J-100000D01*
G01*
G37*
G36*
G01*
X184194000Y-81856000D02*
X184194000Y-82056000D01*
G75*
G02*
X184094000Y-82156000I-100000J0D01*
G01*
X182819000Y-82156000D01*
G75*
G02*
X182719000Y-82056000I0J100000D01*
G01*
X182719000Y-81856000D01*
G75*
G02*
X182819000Y-81756000I100000J0D01*
G01*
X184094000Y-81756000D01*
G75*
G02*
X184194000Y-81856000I0J-100000D01*
G01*
G37*
G36*
G01*
X184194000Y-81206000D02*
X184194000Y-81406000D01*
G75*
G02*
X184094000Y-81506000I-100000J0D01*
G01*
X182819000Y-81506000D01*
G75*
G02*
X182719000Y-81406000I0J100000D01*
G01*
X182719000Y-81206000D01*
G75*
G02*
X182819000Y-81106000I100000J0D01*
G01*
X184094000Y-81106000D01*
G75*
G02*
X184194000Y-81206000I0J-100000D01*
G01*
G37*
G36*
G01*
X184194000Y-80556000D02*
X184194000Y-80756000D01*
G75*
G02*
X184094000Y-80856000I-100000J0D01*
G01*
X182819000Y-80856000D01*
G75*
G02*
X182719000Y-80756000I0J100000D01*
G01*
X182719000Y-80556000D01*
G75*
G02*
X182819000Y-80456000I100000J0D01*
G01*
X184094000Y-80456000D01*
G75*
G02*
X184194000Y-80556000I0J-100000D01*
G01*
G37*
G36*
G01*
X184194000Y-79906000D02*
X184194000Y-80106000D01*
G75*
G02*
X184094000Y-80206000I-100000J0D01*
G01*
X182819000Y-80206000D01*
G75*
G02*
X182719000Y-80106000I0J100000D01*
G01*
X182719000Y-79906000D01*
G75*
G02*
X182819000Y-79806000I100000J0D01*
G01*
X184094000Y-79806000D01*
G75*
G02*
X184194000Y-79906000I0J-100000D01*
G01*
G37*
G36*
G01*
X184194000Y-79256000D02*
X184194000Y-79456000D01*
G75*
G02*
X184094000Y-79556000I-100000J0D01*
G01*
X182819000Y-79556000D01*
G75*
G02*
X182719000Y-79456000I0J100000D01*
G01*
X182719000Y-79256000D01*
G75*
G02*
X182819000Y-79156000I100000J0D01*
G01*
X184094000Y-79156000D01*
G75*
G02*
X184194000Y-79256000I0J-100000D01*
G01*
G37*
G36*
G01*
X178469000Y-79256000D02*
X178469000Y-79456000D01*
G75*
G02*
X178369000Y-79556000I-100000J0D01*
G01*
X177094000Y-79556000D01*
G75*
G02*
X176994000Y-79456000I0J100000D01*
G01*
X176994000Y-79256000D01*
G75*
G02*
X177094000Y-79156000I100000J0D01*
G01*
X178369000Y-79156000D01*
G75*
G02*
X178469000Y-79256000I0J-100000D01*
G01*
G37*
G36*
G01*
X178469000Y-79906000D02*
X178469000Y-80106000D01*
G75*
G02*
X178369000Y-80206000I-100000J0D01*
G01*
X177094000Y-80206000D01*
G75*
G02*
X176994000Y-80106000I0J100000D01*
G01*
X176994000Y-79906000D01*
G75*
G02*
X177094000Y-79806000I100000J0D01*
G01*
X178369000Y-79806000D01*
G75*
G02*
X178469000Y-79906000I0J-100000D01*
G01*
G37*
G36*
G01*
X178469000Y-80556000D02*
X178469000Y-80756000D01*
G75*
G02*
X178369000Y-80856000I-100000J0D01*
G01*
X177094000Y-80856000D01*
G75*
G02*
X176994000Y-80756000I0J100000D01*
G01*
X176994000Y-80556000D01*
G75*
G02*
X177094000Y-80456000I100000J0D01*
G01*
X178369000Y-80456000D01*
G75*
G02*
X178469000Y-80556000I0J-100000D01*
G01*
G37*
G36*
G01*
X178469000Y-81206000D02*
X178469000Y-81406000D01*
G75*
G02*
X178369000Y-81506000I-100000J0D01*
G01*
X177094000Y-81506000D01*
G75*
G02*
X176994000Y-81406000I0J100000D01*
G01*
X176994000Y-81206000D01*
G75*
G02*
X177094000Y-81106000I100000J0D01*
G01*
X178369000Y-81106000D01*
G75*
G02*
X178469000Y-81206000I0J-100000D01*
G01*
G37*
G36*
G01*
X178469000Y-81856000D02*
X178469000Y-82056000D01*
G75*
G02*
X178369000Y-82156000I-100000J0D01*
G01*
X177094000Y-82156000D01*
G75*
G02*
X176994000Y-82056000I0J100000D01*
G01*
X176994000Y-81856000D01*
G75*
G02*
X177094000Y-81756000I100000J0D01*
G01*
X178369000Y-81756000D01*
G75*
G02*
X178469000Y-81856000I0J-100000D01*
G01*
G37*
G36*
G01*
X178469000Y-82506000D02*
X178469000Y-82706000D01*
G75*
G02*
X178369000Y-82806000I-100000J0D01*
G01*
X177094000Y-82806000D01*
G75*
G02*
X176994000Y-82706000I0J100000D01*
G01*
X176994000Y-82506000D01*
G75*
G02*
X177094000Y-82406000I100000J0D01*
G01*
X178369000Y-82406000D01*
G75*
G02*
X178469000Y-82506000I0J-100000D01*
G01*
G37*
G36*
G01*
X178469000Y-83156000D02*
X178469000Y-83356000D01*
G75*
G02*
X178369000Y-83456000I-100000J0D01*
G01*
X177094000Y-83456000D01*
G75*
G02*
X176994000Y-83356000I0J100000D01*
G01*
X176994000Y-83156000D01*
G75*
G02*
X177094000Y-83056000I100000J0D01*
G01*
X178369000Y-83056000D01*
G75*
G02*
X178469000Y-83156000I0J-100000D01*
G01*
G37*
G36*
G01*
X178469000Y-83806000D02*
X178469000Y-84006000D01*
G75*
G02*
X178369000Y-84106000I-100000J0D01*
G01*
X177094000Y-84106000D01*
G75*
G02*
X176994000Y-84006000I0J100000D01*
G01*
X176994000Y-83806000D01*
G75*
G02*
X177094000Y-83706000I100000J0D01*
G01*
X178369000Y-83706000D01*
G75*
G02*
X178469000Y-83806000I0J-100000D01*
G01*
G37*
G36*
G01*
X178469000Y-84456000D02*
X178469000Y-84656000D01*
G75*
G02*
X178369000Y-84756000I-100000J0D01*
G01*
X177094000Y-84756000D01*
G75*
G02*
X176994000Y-84656000I0J100000D01*
G01*
X176994000Y-84456000D01*
G75*
G02*
X177094000Y-84356000I100000J0D01*
G01*
X178369000Y-84356000D01*
G75*
G02*
X178469000Y-84456000I0J-100000D01*
G01*
G37*
G36*
G01*
X178469000Y-85106000D02*
X178469000Y-85306000D01*
G75*
G02*
X178369000Y-85406000I-100000J0D01*
G01*
X177094000Y-85406000D01*
G75*
G02*
X176994000Y-85306000I0J100000D01*
G01*
X176994000Y-85106000D01*
G75*
G02*
X177094000Y-85006000I100000J0D01*
G01*
X178369000Y-85006000D01*
G75*
G02*
X178469000Y-85106000I0J-100000D01*
G01*
G37*
G36*
G01*
X178469000Y-85756000D02*
X178469000Y-85956000D01*
G75*
G02*
X178369000Y-86056000I-100000J0D01*
G01*
X177094000Y-86056000D01*
G75*
G02*
X176994000Y-85956000I0J100000D01*
G01*
X176994000Y-85756000D01*
G75*
G02*
X177094000Y-85656000I100000J0D01*
G01*
X178369000Y-85656000D01*
G75*
G02*
X178469000Y-85756000I0J-100000D01*
G01*
G37*
G36*
G01*
X178469000Y-86406000D02*
X178469000Y-86606000D01*
G75*
G02*
X178369000Y-86706000I-100000J0D01*
G01*
X177094000Y-86706000D01*
G75*
G02*
X176994000Y-86606000I0J100000D01*
G01*
X176994000Y-86406000D01*
G75*
G02*
X177094000Y-86306000I100000J0D01*
G01*
X178369000Y-86306000D01*
G75*
G02*
X178469000Y-86406000I0J-100000D01*
G01*
G37*
G36*
G01*
X173540000Y-54391500D02*
X174440000Y-54391500D01*
G75*
G02*
X174690000Y-54641500I0J-250000D01*
G01*
X174690000Y-55166500D01*
G75*
G02*
X174440000Y-55416500I-250000J0D01*
G01*
X173540000Y-55416500D01*
G75*
G02*
X173290000Y-55166500I0J250000D01*
G01*
X173290000Y-54641500D01*
G75*
G02*
X173540000Y-54391500I250000J0D01*
G01*
G37*
G36*
G01*
X173540000Y-56216500D02*
X174440000Y-56216500D01*
G75*
G02*
X174690000Y-56466500I0J-250000D01*
G01*
X174690000Y-56991500D01*
G75*
G02*
X174440000Y-57241500I-250000J0D01*
G01*
X173540000Y-57241500D01*
G75*
G02*
X173290000Y-56991500I0J250000D01*
G01*
X173290000Y-56466500D01*
G75*
G02*
X173540000Y-56216500I250000J0D01*
G01*
G37*
G36*
G01*
X182085000Y-134419000D02*
X181135000Y-134419000D01*
G75*
G02*
X180885000Y-134169000I0J250000D01*
G01*
X180885000Y-133669000D01*
G75*
G02*
X181135000Y-133419000I250000J0D01*
G01*
X182085000Y-133419000D01*
G75*
G02*
X182335000Y-133669000I0J-250000D01*
G01*
X182335000Y-134169000D01*
G75*
G02*
X182085000Y-134419000I-250000J0D01*
G01*
G37*
G36*
G01*
X182085000Y-132519000D02*
X181135000Y-132519000D01*
G75*
G02*
X180885000Y-132269000I0J250000D01*
G01*
X180885000Y-131769000D01*
G75*
G02*
X181135000Y-131519000I250000J0D01*
G01*
X182085000Y-131519000D01*
G75*
G02*
X182335000Y-131769000I0J-250000D01*
G01*
X182335000Y-132269000D01*
G75*
G02*
X182085000Y-132519000I-250000J0D01*
G01*
G37*
G36*
G01*
X178636000Y-74198500D02*
X178636000Y-73248500D01*
G75*
G02*
X178886000Y-72998500I250000J0D01*
G01*
X179386000Y-72998500D01*
G75*
G02*
X179636000Y-73248500I0J-250000D01*
G01*
X179636000Y-74198500D01*
G75*
G02*
X179386000Y-74448500I-250000J0D01*
G01*
X178886000Y-74448500D01*
G75*
G02*
X178636000Y-74198500I0J250000D01*
G01*
G37*
G36*
G01*
X180536000Y-74198500D02*
X180536000Y-73248500D01*
G75*
G02*
X180786000Y-72998500I250000J0D01*
G01*
X181286000Y-72998500D01*
G75*
G02*
X181536000Y-73248500I0J-250000D01*
G01*
X181536000Y-74198500D01*
G75*
G02*
X181286000Y-74448500I-250000J0D01*
G01*
X180786000Y-74448500D01*
G75*
G02*
X180536000Y-74198500I0J250000D01*
G01*
G37*
G36*
G01*
X128169250Y-45524400D02*
X128169250Y-46474400D01*
G75*
G02*
X127919250Y-46724400I-250000J0D01*
G01*
X127419250Y-46724400D01*
G75*
G02*
X127169250Y-46474400I0J250000D01*
G01*
X127169250Y-45524400D01*
G75*
G02*
X127419250Y-45274400I250000J0D01*
G01*
X127919250Y-45274400D01*
G75*
G02*
X128169250Y-45524400I0J-250000D01*
G01*
G37*
G36*
G01*
X126269250Y-45524400D02*
X126269250Y-46474400D01*
G75*
G02*
X126019250Y-46724400I-250000J0D01*
G01*
X125519250Y-46724400D01*
G75*
G02*
X125269250Y-46474400I0J250000D01*
G01*
X125269250Y-45524400D01*
G75*
G02*
X125519250Y-45274400I250000J0D01*
G01*
X126019250Y-45274400D01*
G75*
G02*
X126269250Y-45524400I0J-250000D01*
G01*
G37*
G36*
G01*
X178764500Y-50932500D02*
X178764500Y-50032500D01*
G75*
G02*
X179014500Y-49782500I250000J0D01*
G01*
X179539500Y-49782500D01*
G75*
G02*
X179789500Y-50032500I0J-250000D01*
G01*
X179789500Y-50932500D01*
G75*
G02*
X179539500Y-51182500I-250000J0D01*
G01*
X179014500Y-51182500D01*
G75*
G02*
X178764500Y-50932500I0J250000D01*
G01*
G37*
G36*
G01*
X180589500Y-50932500D02*
X180589500Y-50032500D01*
G75*
G02*
X180839500Y-49782500I250000J0D01*
G01*
X181364500Y-49782500D01*
G75*
G02*
X181614500Y-50032500I0J-250000D01*
G01*
X181614500Y-50932500D01*
G75*
G02*
X181364500Y-51182500I-250000J0D01*
G01*
X180839500Y-51182500D01*
G75*
G02*
X180589500Y-50932500I0J250000D01*
G01*
G37*
G36*
G01*
X179472000Y-70906500D02*
X179472000Y-71206500D01*
G75*
G02*
X179322000Y-71356500I-150000J0D01*
G01*
X177872000Y-71356500D01*
G75*
G02*
X177722000Y-71206500I0J150000D01*
G01*
X177722000Y-70906500D01*
G75*
G02*
X177872000Y-70756500I150000J0D01*
G01*
X179322000Y-70756500D01*
G75*
G02*
X179472000Y-70906500I0J-150000D01*
G01*
G37*
G36*
G01*
X179472000Y-69636500D02*
X179472000Y-69936500D01*
G75*
G02*
X179322000Y-70086500I-150000J0D01*
G01*
X177872000Y-70086500D01*
G75*
G02*
X177722000Y-69936500I0J150000D01*
G01*
X177722000Y-69636500D01*
G75*
G02*
X177872000Y-69486500I150000J0D01*
G01*
X179322000Y-69486500D01*
G75*
G02*
X179472000Y-69636500I0J-150000D01*
G01*
G37*
G36*
G01*
X179472000Y-68366500D02*
X179472000Y-68666500D01*
G75*
G02*
X179322000Y-68816500I-150000J0D01*
G01*
X177872000Y-68816500D01*
G75*
G02*
X177722000Y-68666500I0J150000D01*
G01*
X177722000Y-68366500D01*
G75*
G02*
X177872000Y-68216500I150000J0D01*
G01*
X179322000Y-68216500D01*
G75*
G02*
X179472000Y-68366500I0J-150000D01*
G01*
G37*
G36*
G01*
X179472000Y-67096500D02*
X179472000Y-67396500D01*
G75*
G02*
X179322000Y-67546500I-150000J0D01*
G01*
X177872000Y-67546500D01*
G75*
G02*
X177722000Y-67396500I0J150000D01*
G01*
X177722000Y-67096500D01*
G75*
G02*
X177872000Y-66946500I150000J0D01*
G01*
X179322000Y-66946500D01*
G75*
G02*
X179472000Y-67096500I0J-150000D01*
G01*
G37*
G36*
G01*
X179472000Y-65826500D02*
X179472000Y-66126500D01*
G75*
G02*
X179322000Y-66276500I-150000J0D01*
G01*
X177872000Y-66276500D01*
G75*
G02*
X177722000Y-66126500I0J150000D01*
G01*
X177722000Y-65826500D01*
G75*
G02*
X177872000Y-65676500I150000J0D01*
G01*
X179322000Y-65676500D01*
G75*
G02*
X179472000Y-65826500I0J-150000D01*
G01*
G37*
G36*
G01*
X179472000Y-64556500D02*
X179472000Y-64856500D01*
G75*
G02*
X179322000Y-65006500I-150000J0D01*
G01*
X177872000Y-65006500D01*
G75*
G02*
X177722000Y-64856500I0J150000D01*
G01*
X177722000Y-64556500D01*
G75*
G02*
X177872000Y-64406500I150000J0D01*
G01*
X179322000Y-64406500D01*
G75*
G02*
X179472000Y-64556500I0J-150000D01*
G01*
G37*
G36*
G01*
X179472000Y-63286500D02*
X179472000Y-63586500D01*
G75*
G02*
X179322000Y-63736500I-150000J0D01*
G01*
X177872000Y-63736500D01*
G75*
G02*
X177722000Y-63586500I0J150000D01*
G01*
X177722000Y-63286500D01*
G75*
G02*
X177872000Y-63136500I150000J0D01*
G01*
X179322000Y-63136500D01*
G75*
G02*
X179472000Y-63286500I0J-150000D01*
G01*
G37*
G36*
G01*
X179472000Y-62016500D02*
X179472000Y-62316500D01*
G75*
G02*
X179322000Y-62466500I-150000J0D01*
G01*
X177872000Y-62466500D01*
G75*
G02*
X177722000Y-62316500I0J150000D01*
G01*
X177722000Y-62016500D01*
G75*
G02*
X177872000Y-61866500I150000J0D01*
G01*
X179322000Y-61866500D01*
G75*
G02*
X179472000Y-62016500I0J-150000D01*
G01*
G37*
G36*
G01*
X174322000Y-62016500D02*
X174322000Y-62316500D01*
G75*
G02*
X174172000Y-62466500I-150000J0D01*
G01*
X172722000Y-62466500D01*
G75*
G02*
X172572000Y-62316500I0J150000D01*
G01*
X172572000Y-62016500D01*
G75*
G02*
X172722000Y-61866500I150000J0D01*
G01*
X174172000Y-61866500D01*
G75*
G02*
X174322000Y-62016500I0J-150000D01*
G01*
G37*
G36*
G01*
X174322000Y-63286500D02*
X174322000Y-63586500D01*
G75*
G02*
X174172000Y-63736500I-150000J0D01*
G01*
X172722000Y-63736500D01*
G75*
G02*
X172572000Y-63586500I0J150000D01*
G01*
X172572000Y-63286500D01*
G75*
G02*
X172722000Y-63136500I150000J0D01*
G01*
X174172000Y-63136500D01*
G75*
G02*
X174322000Y-63286500I0J-150000D01*
G01*
G37*
G36*
G01*
X174322000Y-64556500D02*
X174322000Y-64856500D01*
G75*
G02*
X174172000Y-65006500I-150000J0D01*
G01*
X172722000Y-65006500D01*
G75*
G02*
X172572000Y-64856500I0J150000D01*
G01*
X172572000Y-64556500D01*
G75*
G02*
X172722000Y-64406500I150000J0D01*
G01*
X174172000Y-64406500D01*
G75*
G02*
X174322000Y-64556500I0J-150000D01*
G01*
G37*
G36*
G01*
X174322000Y-65826500D02*
X174322000Y-66126500D01*
G75*
G02*
X174172000Y-66276500I-150000J0D01*
G01*
X172722000Y-66276500D01*
G75*
G02*
X172572000Y-66126500I0J150000D01*
G01*
X172572000Y-65826500D01*
G75*
G02*
X172722000Y-65676500I150000J0D01*
G01*
X174172000Y-65676500D01*
G75*
G02*
X174322000Y-65826500I0J-150000D01*
G01*
G37*
G36*
G01*
X174322000Y-67096500D02*
X174322000Y-67396500D01*
G75*
G02*
X174172000Y-67546500I-150000J0D01*
G01*
X172722000Y-67546500D01*
G75*
G02*
X172572000Y-67396500I0J150000D01*
G01*
X172572000Y-67096500D01*
G75*
G02*
X172722000Y-66946500I150000J0D01*
G01*
X174172000Y-66946500D01*
G75*
G02*
X174322000Y-67096500I0J-150000D01*
G01*
G37*
G36*
G01*
X174322000Y-68366500D02*
X174322000Y-68666500D01*
G75*
G02*
X174172000Y-68816500I-150000J0D01*
G01*
X172722000Y-68816500D01*
G75*
G02*
X172572000Y-68666500I0J150000D01*
G01*
X172572000Y-68366500D01*
G75*
G02*
X172722000Y-68216500I150000J0D01*
G01*
X174172000Y-68216500D01*
G75*
G02*
X174322000Y-68366500I0J-150000D01*
G01*
G37*
G36*
G01*
X174322000Y-69636500D02*
X174322000Y-69936500D01*
G75*
G02*
X174172000Y-70086500I-150000J0D01*
G01*
X172722000Y-70086500D01*
G75*
G02*
X172572000Y-69936500I0J150000D01*
G01*
X172572000Y-69636500D01*
G75*
G02*
X172722000Y-69486500I150000J0D01*
G01*
X174172000Y-69486500D01*
G75*
G02*
X174322000Y-69636500I0J-150000D01*
G01*
G37*
G36*
G01*
X174322000Y-70906500D02*
X174322000Y-71206500D01*
G75*
G02*
X174172000Y-71356500I-150000J0D01*
G01*
X172722000Y-71356500D01*
G75*
G02*
X172572000Y-71206500I0J150000D01*
G01*
X172572000Y-70906500D01*
G75*
G02*
X172722000Y-70756500I150000J0D01*
G01*
X174172000Y-70756500D01*
G75*
G02*
X174322000Y-70906500I0J-150000D01*
G01*
G37*
G36*
G01*
X152875000Y-57266500D02*
X151925000Y-57266500D01*
G75*
G02*
X151675000Y-57016500I0J250000D01*
G01*
X151675000Y-56516500D01*
G75*
G02*
X151925000Y-56266500I250000J0D01*
G01*
X152875000Y-56266500D01*
G75*
G02*
X153125000Y-56516500I0J-250000D01*
G01*
X153125000Y-57016500D01*
G75*
G02*
X152875000Y-57266500I-250000J0D01*
G01*
G37*
G36*
G01*
X152875000Y-55366500D02*
X151925000Y-55366500D01*
G75*
G02*
X151675000Y-55116500I0J250000D01*
G01*
X151675000Y-54616500D01*
G75*
G02*
X151925000Y-54366500I250000J0D01*
G01*
X152875000Y-54366500D01*
G75*
G02*
X153125000Y-54616500I0J-250000D01*
G01*
X153125000Y-55116500D01*
G75*
G02*
X152875000Y-55366500I-250000J0D01*
G01*
G37*
G36*
G01*
X176751000Y-57266500D02*
X175801000Y-57266500D01*
G75*
G02*
X175551000Y-57016500I0J250000D01*
G01*
X175551000Y-56516500D01*
G75*
G02*
X175801000Y-56266500I250000J0D01*
G01*
X176751000Y-56266500D01*
G75*
G02*
X177001000Y-56516500I0J-250000D01*
G01*
X177001000Y-57016500D01*
G75*
G02*
X176751000Y-57266500I-250000J0D01*
G01*
G37*
G36*
G01*
X176751000Y-55366500D02*
X175801000Y-55366500D01*
G75*
G02*
X175551000Y-55116500I0J250000D01*
G01*
X175551000Y-54616500D01*
G75*
G02*
X175801000Y-54366500I250000J0D01*
G01*
X176751000Y-54366500D01*
G75*
G02*
X177001000Y-54616500I0J-250000D01*
G01*
X177001000Y-55116500D01*
G75*
G02*
X176751000Y-55366500I-250000J0D01*
G01*
G37*
G36*
G01*
X135918000Y-43428500D02*
X135918000Y-44328500D01*
G75*
G02*
X135668000Y-44578500I-250000J0D01*
G01*
X135143000Y-44578500D01*
G75*
G02*
X134893000Y-44328500I0J250000D01*
G01*
X134893000Y-43428500D01*
G75*
G02*
X135143000Y-43178500I250000J0D01*
G01*
X135668000Y-43178500D01*
G75*
G02*
X135918000Y-43428500I0J-250000D01*
G01*
G37*
G36*
G01*
X134093000Y-43428500D02*
X134093000Y-44328500D01*
G75*
G02*
X133843000Y-44578500I-250000J0D01*
G01*
X133318000Y-44578500D01*
G75*
G02*
X133068000Y-44328500I0J250000D01*
G01*
X133068000Y-43428500D01*
G75*
G02*
X133318000Y-43178500I250000J0D01*
G01*
X133843000Y-43178500D01*
G75*
G02*
X134093000Y-43428500I0J-250000D01*
G01*
G37*
G36*
G01*
X144474500Y-50932500D02*
X144474500Y-50032500D01*
G75*
G02*
X144724500Y-49782500I250000J0D01*
G01*
X145249500Y-49782500D01*
G75*
G02*
X145499500Y-50032500I0J-250000D01*
G01*
X145499500Y-50932500D01*
G75*
G02*
X145249500Y-51182500I-250000J0D01*
G01*
X144724500Y-51182500D01*
G75*
G02*
X144474500Y-50932500I0J250000D01*
G01*
G37*
G36*
G01*
X146299500Y-50932500D02*
X146299500Y-50032500D01*
G75*
G02*
X146549500Y-49782500I250000J0D01*
G01*
X147074500Y-49782500D01*
G75*
G02*
X147324500Y-50032500I0J-250000D01*
G01*
X147324500Y-50932500D01*
G75*
G02*
X147074500Y-51182500I-250000J0D01*
G01*
X146549500Y-51182500D01*
G75*
G02*
X146299500Y-50932500I0J250000D01*
G01*
G37*
G36*
G01*
X204746000Y-72440216D02*
X203496000Y-72440216D01*
G75*
G02*
X203346000Y-72290216I0J150000D01*
G01*
X203346000Y-71990216D01*
G75*
G02*
X203496000Y-71840216I150000J0D01*
G01*
X204746000Y-71840216D01*
G75*
G02*
X204896000Y-71990216I0J-150000D01*
G01*
X204896000Y-72290216D01*
G75*
G02*
X204746000Y-72440216I-150000J0D01*
G01*
G37*
G36*
G01*
X204746000Y-71440216D02*
X203496000Y-71440216D01*
G75*
G02*
X203346000Y-71290216I0J150000D01*
G01*
X203346000Y-70990216D01*
G75*
G02*
X203496000Y-70840216I150000J0D01*
G01*
X204746000Y-70840216D01*
G75*
G02*
X204896000Y-70990216I0J-150000D01*
G01*
X204896000Y-71290216D01*
G75*
G02*
X204746000Y-71440216I-150000J0D01*
G01*
G37*
G36*
G01*
X204746000Y-70440216D02*
X203496000Y-70440216D01*
G75*
G02*
X203346000Y-70290216I0J150000D01*
G01*
X203346000Y-69990216D01*
G75*
G02*
X203496000Y-69840216I150000J0D01*
G01*
X204746000Y-69840216D01*
G75*
G02*
X204896000Y-69990216I0J-150000D01*
G01*
X204896000Y-70290216D01*
G75*
G02*
X204746000Y-70440216I-150000J0D01*
G01*
G37*
G36*
G01*
X204746000Y-69440216D02*
X203496000Y-69440216D01*
G75*
G02*
X203346000Y-69290216I0J150000D01*
G01*
X203346000Y-68990216D01*
G75*
G02*
X203496000Y-68840216I150000J0D01*
G01*
X204746000Y-68840216D01*
G75*
G02*
X204896000Y-68990216I0J-150000D01*
G01*
X204896000Y-69290216D01*
G75*
G02*
X204746000Y-69440216I-150000J0D01*
G01*
G37*
G36*
G01*
X208646000Y-74040216D02*
X207346000Y-74040216D01*
G75*
G02*
X207096000Y-73790216I0J250000D01*
G01*
X207096000Y-73090216D01*
G75*
G02*
X207346000Y-72840216I250000J0D01*
G01*
X208646000Y-72840216D01*
G75*
G02*
X208896000Y-73090216I0J-250000D01*
G01*
X208896000Y-73790216D01*
G75*
G02*
X208646000Y-74040216I-250000J0D01*
G01*
G37*
G36*
G01*
X208646000Y-68440216D02*
X207346000Y-68440216D01*
G75*
G02*
X207096000Y-68190216I0J250000D01*
G01*
X207096000Y-67490216D01*
G75*
G02*
X207346000Y-67240216I250000J0D01*
G01*
X208646000Y-67240216D01*
G75*
G02*
X208896000Y-67490216I0J-250000D01*
G01*
X208896000Y-68190216D01*
G75*
G02*
X208646000Y-68440216I-250000J0D01*
G01*
G37*
G36*
G01*
X161746500Y-50932500D02*
X161746500Y-50032500D01*
G75*
G02*
X161996500Y-49782500I250000J0D01*
G01*
X162521500Y-49782500D01*
G75*
G02*
X162771500Y-50032500I0J-250000D01*
G01*
X162771500Y-50932500D01*
G75*
G02*
X162521500Y-51182500I-250000J0D01*
G01*
X161996500Y-51182500D01*
G75*
G02*
X161746500Y-50932500I0J250000D01*
G01*
G37*
G36*
G01*
X163571500Y-50932500D02*
X163571500Y-50032500D01*
G75*
G02*
X163821500Y-49782500I250000J0D01*
G01*
X164346500Y-49782500D01*
G75*
G02*
X164596500Y-50032500I0J-250000D01*
G01*
X164596500Y-50932500D01*
G75*
G02*
X164346500Y-51182500I-250000J0D01*
G01*
X163821500Y-51182500D01*
G75*
G02*
X163571500Y-50932500I0J250000D01*
G01*
G37*
G36*
G01*
X81302000Y-63511000D02*
X82502000Y-63511000D01*
G75*
G02*
X82702000Y-63711000I0J-200000D01*
G01*
X82702000Y-64111000D01*
G75*
G02*
X82502000Y-64311000I-200000J0D01*
G01*
X81302000Y-64311000D01*
G75*
G02*
X81102000Y-64111000I0J200000D01*
G01*
X81102000Y-63711000D01*
G75*
G02*
X81302000Y-63511000I200000J0D01*
G01*
G37*
G36*
G01*
X81302000Y-64761000D02*
X82502000Y-64761000D01*
G75*
G02*
X82702000Y-64961000I0J-200000D01*
G01*
X82702000Y-65361000D01*
G75*
G02*
X82502000Y-65561000I-200000J0D01*
G01*
X81302000Y-65561000D01*
G75*
G02*
X81102000Y-65361000I0J200000D01*
G01*
X81102000Y-64961000D01*
G75*
G02*
X81302000Y-64761000I200000J0D01*
G01*
G37*
G36*
G01*
X81302000Y-66011000D02*
X82502000Y-66011000D01*
G75*
G02*
X82702000Y-66211000I0J-200000D01*
G01*
X82702000Y-66611000D01*
G75*
G02*
X82502000Y-66811000I-200000J0D01*
G01*
X81302000Y-66811000D01*
G75*
G02*
X81102000Y-66611000I0J200000D01*
G01*
X81102000Y-66211000D01*
G75*
G02*
X81302000Y-66011000I200000J0D01*
G01*
G37*
G36*
G01*
X81302000Y-67261000D02*
X82502000Y-67261000D01*
G75*
G02*
X82702000Y-67461000I0J-200000D01*
G01*
X82702000Y-67861000D01*
G75*
G02*
X82502000Y-68061000I-200000J0D01*
G01*
X81302000Y-68061000D01*
G75*
G02*
X81102000Y-67861000I0J200000D01*
G01*
X81102000Y-67461000D01*
G75*
G02*
X81302000Y-67261000I200000J0D01*
G01*
G37*
G36*
G01*
X77752001Y-60311000D02*
X80251999Y-60311000D01*
G75*
G02*
X80502000Y-60561001I0J-250001D01*
G01*
X80502000Y-62160999D01*
G75*
G02*
X80251999Y-62411000I-250001J0D01*
G01*
X77752001Y-62411000D01*
G75*
G02*
X77502000Y-62160999I0J250001D01*
G01*
X77502000Y-60561001D01*
G75*
G02*
X77752001Y-60311000I250001J0D01*
G01*
G37*
G36*
G01*
X77752001Y-69161000D02*
X80251999Y-69161000D01*
G75*
G02*
X80502000Y-69411001I0J-250001D01*
G01*
X80502000Y-71010999D01*
G75*
G02*
X80251999Y-71261000I-250001J0D01*
G01*
X77752001Y-71261000D01*
G75*
G02*
X77502000Y-71010999I0J250001D01*
G01*
X77502000Y-69411001D01*
G75*
G02*
X77752001Y-69161000I250001J0D01*
G01*
G37*
G36*
G01*
X167729000Y-66762500D02*
X167429000Y-66762500D01*
G75*
G02*
X167279000Y-66612500I0J150000D01*
G01*
X167279000Y-65437500D01*
G75*
G02*
X167429000Y-65287500I150000J0D01*
G01*
X167729000Y-65287500D01*
G75*
G02*
X167879000Y-65437500I0J-150000D01*
G01*
X167879000Y-66612500D01*
G75*
G02*
X167729000Y-66762500I-150000J0D01*
G01*
G37*
G36*
G01*
X169629000Y-66762500D02*
X169329000Y-66762500D01*
G75*
G02*
X169179000Y-66612500I0J150000D01*
G01*
X169179000Y-65437500D01*
G75*
G02*
X169329000Y-65287500I150000J0D01*
G01*
X169629000Y-65287500D01*
G75*
G02*
X169779000Y-65437500I0J-150000D01*
G01*
X169779000Y-66612500D01*
G75*
G02*
X169629000Y-66762500I-150000J0D01*
G01*
G37*
G36*
G01*
X168679000Y-64887500D02*
X168379000Y-64887500D01*
G75*
G02*
X168229000Y-64737500I0J150000D01*
G01*
X168229000Y-63562500D01*
G75*
G02*
X168379000Y-63412500I150000J0D01*
G01*
X168679000Y-63412500D01*
G75*
G02*
X168829000Y-63562500I0J-150000D01*
G01*
X168829000Y-64737500D01*
G75*
G02*
X168679000Y-64887500I-150000J0D01*
G01*
G37*
G36*
G01*
X123455750Y-41217000D02*
X123455750Y-40317000D01*
G75*
G02*
X123705750Y-40067000I250000J0D01*
G01*
X124230750Y-40067000D01*
G75*
G02*
X124480750Y-40317000I0J-250000D01*
G01*
X124480750Y-41217000D01*
G75*
G02*
X124230750Y-41467000I-250000J0D01*
G01*
X123705750Y-41467000D01*
G75*
G02*
X123455750Y-41217000I0J250000D01*
G01*
G37*
G36*
G01*
X125280750Y-41217000D02*
X125280750Y-40317000D01*
G75*
G02*
X125530750Y-40067000I250000J0D01*
G01*
X126055750Y-40067000D01*
G75*
G02*
X126305750Y-40317000I0J-250000D01*
G01*
X126305750Y-41217000D01*
G75*
G02*
X126055750Y-41467000I-250000J0D01*
G01*
X125530750Y-41467000D01*
G75*
G02*
X125280750Y-41217000I0J250000D01*
G01*
G37*
G36*
G01*
X103914000Y-76258000D02*
X103914000Y-77158000D01*
G75*
G02*
X103664000Y-77408000I-250000J0D01*
G01*
X103139000Y-77408000D01*
G75*
G02*
X102889000Y-77158000I0J250000D01*
G01*
X102889000Y-76258000D01*
G75*
G02*
X103139000Y-76008000I250000J0D01*
G01*
X103664000Y-76008000D01*
G75*
G02*
X103914000Y-76258000I0J-250000D01*
G01*
G37*
G36*
G01*
X102089000Y-76258000D02*
X102089000Y-77158000D01*
G75*
G02*
X101839000Y-77408000I-250000J0D01*
G01*
X101314000Y-77408000D01*
G75*
G02*
X101064000Y-77158000I0J250000D01*
G01*
X101064000Y-76258000D01*
G75*
G02*
X101314000Y-76008000I250000J0D01*
G01*
X101839000Y-76008000D01*
G75*
G02*
X102089000Y-76258000I0J-250000D01*
G01*
G37*
G36*
G01*
X161770000Y-44328500D02*
X161770000Y-43428500D01*
G75*
G02*
X162020000Y-43178500I250000J0D01*
G01*
X162545000Y-43178500D01*
G75*
G02*
X162795000Y-43428500I0J-250000D01*
G01*
X162795000Y-44328500D01*
G75*
G02*
X162545000Y-44578500I-250000J0D01*
G01*
X162020000Y-44578500D01*
G75*
G02*
X161770000Y-44328500I0J250000D01*
G01*
G37*
G36*
G01*
X163595000Y-44328500D02*
X163595000Y-43428500D01*
G75*
G02*
X163845000Y-43178500I250000J0D01*
G01*
X164370000Y-43178500D01*
G75*
G02*
X164620000Y-43428500I0J-250000D01*
G01*
X164620000Y-44328500D01*
G75*
G02*
X164370000Y-44578500I-250000J0D01*
G01*
X163845000Y-44578500D01*
G75*
G02*
X163595000Y-44328500I0J250000D01*
G01*
G37*
G36*
G01*
X144498000Y-47630500D02*
X144498000Y-46730500D01*
G75*
G02*
X144748000Y-46480500I250000J0D01*
G01*
X145273000Y-46480500D01*
G75*
G02*
X145523000Y-46730500I0J-250000D01*
G01*
X145523000Y-47630500D01*
G75*
G02*
X145273000Y-47880500I-250000J0D01*
G01*
X144748000Y-47880500D01*
G75*
G02*
X144498000Y-47630500I0J250000D01*
G01*
G37*
G36*
G01*
X146323000Y-47630500D02*
X146323000Y-46730500D01*
G75*
G02*
X146573000Y-46480500I250000J0D01*
G01*
X147098000Y-46480500D01*
G75*
G02*
X147348000Y-46730500I0J-250000D01*
G01*
X147348000Y-47630500D01*
G75*
G02*
X147098000Y-47880500I-250000J0D01*
G01*
X146573000Y-47880500D01*
G75*
G02*
X146323000Y-47630500I0J250000D01*
G01*
G37*
G36*
G01*
X142461000Y-57266500D02*
X141511000Y-57266500D01*
G75*
G02*
X141261000Y-57016500I0J250000D01*
G01*
X141261000Y-56516500D01*
G75*
G02*
X141511000Y-56266500I250000J0D01*
G01*
X142461000Y-56266500D01*
G75*
G02*
X142711000Y-56516500I0J-250000D01*
G01*
X142711000Y-57016500D01*
G75*
G02*
X142461000Y-57266500I-250000J0D01*
G01*
G37*
G36*
G01*
X142461000Y-55366500D02*
X141511000Y-55366500D01*
G75*
G02*
X141261000Y-55116500I0J250000D01*
G01*
X141261000Y-54616500D01*
G75*
G02*
X141511000Y-54366500I250000J0D01*
G01*
X142461000Y-54366500D01*
G75*
G02*
X142711000Y-54616500I0J-250000D01*
G01*
X142711000Y-55116500D01*
G75*
G02*
X142461000Y-55366500I-250000J0D01*
G01*
G37*
G36*
G01*
X144747000Y-57266500D02*
X143797000Y-57266500D01*
G75*
G02*
X143547000Y-57016500I0J250000D01*
G01*
X143547000Y-56516500D01*
G75*
G02*
X143797000Y-56266500I250000J0D01*
G01*
X144747000Y-56266500D01*
G75*
G02*
X144997000Y-56516500I0J-250000D01*
G01*
X144997000Y-57016500D01*
G75*
G02*
X144747000Y-57266500I-250000J0D01*
G01*
G37*
G36*
G01*
X144747000Y-55366500D02*
X143797000Y-55366500D01*
G75*
G02*
X143547000Y-55116500I0J250000D01*
G01*
X143547000Y-54616500D01*
G75*
G02*
X143797000Y-54366500I250000J0D01*
G01*
X144747000Y-54366500D01*
G75*
G02*
X144997000Y-54616500I0J-250000D01*
G01*
X144997000Y-55116500D01*
G75*
G02*
X144747000Y-55366500I-250000J0D01*
G01*
G37*
G36*
G01*
X193769000Y-57330000D02*
X192819000Y-57330000D01*
G75*
G02*
X192569000Y-57080000I0J250000D01*
G01*
X192569000Y-56580000D01*
G75*
G02*
X192819000Y-56330000I250000J0D01*
G01*
X193769000Y-56330000D01*
G75*
G02*
X194019000Y-56580000I0J-250000D01*
G01*
X194019000Y-57080000D01*
G75*
G02*
X193769000Y-57330000I-250000J0D01*
G01*
G37*
G36*
G01*
X193769000Y-55430000D02*
X192819000Y-55430000D01*
G75*
G02*
X192569000Y-55180000I0J250000D01*
G01*
X192569000Y-54680000D01*
G75*
G02*
X192819000Y-54430000I250000J0D01*
G01*
X193769000Y-54430000D01*
G75*
G02*
X194019000Y-54680000I0J-250000D01*
G01*
X194019000Y-55180000D01*
G75*
G02*
X193769000Y-55430000I-250000J0D01*
G01*
G37*
G36*
G01*
X150711000Y-66762500D02*
X150411000Y-66762500D01*
G75*
G02*
X150261000Y-66612500I0J150000D01*
G01*
X150261000Y-65437500D01*
G75*
G02*
X150411000Y-65287500I150000J0D01*
G01*
X150711000Y-65287500D01*
G75*
G02*
X150861000Y-65437500I0J-150000D01*
G01*
X150861000Y-66612500D01*
G75*
G02*
X150711000Y-66762500I-150000J0D01*
G01*
G37*
G36*
G01*
X152611000Y-66762500D02*
X152311000Y-66762500D01*
G75*
G02*
X152161000Y-66612500I0J150000D01*
G01*
X152161000Y-65437500D01*
G75*
G02*
X152311000Y-65287500I150000J0D01*
G01*
X152611000Y-65287500D01*
G75*
G02*
X152761000Y-65437500I0J-150000D01*
G01*
X152761000Y-66612500D01*
G75*
G02*
X152611000Y-66762500I-150000J0D01*
G01*
G37*
G36*
G01*
X151661000Y-64887500D02*
X151361000Y-64887500D01*
G75*
G02*
X151211000Y-64737500I0J150000D01*
G01*
X151211000Y-63562500D01*
G75*
G02*
X151361000Y-63412500I150000J0D01*
G01*
X151661000Y-63412500D01*
G75*
G02*
X151811000Y-63562500I0J-150000D01*
G01*
X151811000Y-64737500D01*
G75*
G02*
X151661000Y-64887500I-150000J0D01*
G01*
G37*
G36*
G01*
X122804250Y-49847400D02*
X122804250Y-50147400D01*
G75*
G02*
X122654250Y-50297400I-150000J0D01*
G01*
X121629250Y-50297400D01*
G75*
G02*
X121479250Y-50147400I0J150000D01*
G01*
X121479250Y-49847400D01*
G75*
G02*
X121629250Y-49697400I150000J0D01*
G01*
X122654250Y-49697400D01*
G75*
G02*
X122804250Y-49847400I0J-150000D01*
G01*
G37*
G36*
G01*
X122804250Y-48897400D02*
X122804250Y-49197400D01*
G75*
G02*
X122654250Y-49347400I-150000J0D01*
G01*
X121629250Y-49347400D01*
G75*
G02*
X121479250Y-49197400I0J150000D01*
G01*
X121479250Y-48897400D01*
G75*
G02*
X121629250Y-48747400I150000J0D01*
G01*
X122654250Y-48747400D01*
G75*
G02*
X122804250Y-48897400I0J-150000D01*
G01*
G37*
G36*
G01*
X122804250Y-47947400D02*
X122804250Y-48247400D01*
G75*
G02*
X122654250Y-48397400I-150000J0D01*
G01*
X121629250Y-48397400D01*
G75*
G02*
X121479250Y-48247400I0J150000D01*
G01*
X121479250Y-47947400D01*
G75*
G02*
X121629250Y-47797400I150000J0D01*
G01*
X122654250Y-47797400D01*
G75*
G02*
X122804250Y-47947400I0J-150000D01*
G01*
G37*
G36*
G01*
X120529250Y-47947400D02*
X120529250Y-48247400D01*
G75*
G02*
X120379250Y-48397400I-150000J0D01*
G01*
X119354250Y-48397400D01*
G75*
G02*
X119204250Y-48247400I0J150000D01*
G01*
X119204250Y-47947400D01*
G75*
G02*
X119354250Y-47797400I150000J0D01*
G01*
X120379250Y-47797400D01*
G75*
G02*
X120529250Y-47947400I0J-150000D01*
G01*
G37*
G36*
G01*
X120529250Y-49847400D02*
X120529250Y-50147400D01*
G75*
G02*
X120379250Y-50297400I-150000J0D01*
G01*
X119354250Y-50297400D01*
G75*
G02*
X119204250Y-50147400I0J150000D01*
G01*
X119204250Y-49847400D01*
G75*
G02*
X119354250Y-49697400I150000J0D01*
G01*
X120379250Y-49697400D01*
G75*
G02*
X120529250Y-49847400I0J-150000D01*
G01*
G37*
G36*
G01*
X119452250Y-41217000D02*
X119452250Y-40317000D01*
G75*
G02*
X119702250Y-40067000I250000J0D01*
G01*
X120227250Y-40067000D01*
G75*
G02*
X120477250Y-40317000I0J-250000D01*
G01*
X120477250Y-41217000D01*
G75*
G02*
X120227250Y-41467000I-250000J0D01*
G01*
X119702250Y-41467000D01*
G75*
G02*
X119452250Y-41217000I0J250000D01*
G01*
G37*
G36*
G01*
X121277250Y-41217000D02*
X121277250Y-40317000D01*
G75*
G02*
X121527250Y-40067000I250000J0D01*
G01*
X122052250Y-40067000D01*
G75*
G02*
X122302250Y-40317000I0J-250000D01*
G01*
X122302250Y-41217000D01*
G75*
G02*
X122052250Y-41467000I-250000J0D01*
G01*
X121527250Y-41467000D01*
G75*
G02*
X121277250Y-41217000I0J250000D01*
G01*
G37*
G36*
G01*
X153190000Y-46730500D02*
X153190000Y-47630500D01*
G75*
G02*
X152940000Y-47880500I-250000J0D01*
G01*
X152415000Y-47880500D01*
G75*
G02*
X152165000Y-47630500I0J250000D01*
G01*
X152165000Y-46730500D01*
G75*
G02*
X152415000Y-46480500I250000J0D01*
G01*
X152940000Y-46480500D01*
G75*
G02*
X153190000Y-46730500I0J-250000D01*
G01*
G37*
G36*
G01*
X151365000Y-46730500D02*
X151365000Y-47630500D01*
G75*
G02*
X151115000Y-47880500I-250000J0D01*
G01*
X150590000Y-47880500D01*
G75*
G02*
X150340000Y-47630500I0J250000D01*
G01*
X150340000Y-46730500D01*
G75*
G02*
X150590000Y-46480500I250000J0D01*
G01*
X151115000Y-46480500D01*
G75*
G02*
X151365000Y-46730500I0J-250000D01*
G01*
G37*
G36*
G01*
X119427250Y-46093400D02*
X119427250Y-45143400D01*
G75*
G02*
X119677250Y-44893400I250000J0D01*
G01*
X120177250Y-44893400D01*
G75*
G02*
X120427250Y-45143400I0J-250000D01*
G01*
X120427250Y-46093400D01*
G75*
G02*
X120177250Y-46343400I-250000J0D01*
G01*
X119677250Y-46343400D01*
G75*
G02*
X119427250Y-46093400I0J250000D01*
G01*
G37*
G36*
G01*
X121327250Y-46093400D02*
X121327250Y-45143400D01*
G75*
G02*
X121577250Y-44893400I250000J0D01*
G01*
X122077250Y-44893400D01*
G75*
G02*
X122327250Y-45143400I0J-250000D01*
G01*
X122327250Y-46093400D01*
G75*
G02*
X122077250Y-46343400I-250000J0D01*
G01*
X121577250Y-46343400D01*
G75*
G02*
X121327250Y-46093400I0J250000D01*
G01*
G37*
G36*
G01*
X133439000Y-77938500D02*
X133139000Y-77938500D01*
G75*
G02*
X132989000Y-77788500I0J150000D01*
G01*
X132989000Y-76613500D01*
G75*
G02*
X133139000Y-76463500I150000J0D01*
G01*
X133439000Y-76463500D01*
G75*
G02*
X133589000Y-76613500I0J-150000D01*
G01*
X133589000Y-77788500D01*
G75*
G02*
X133439000Y-77938500I-150000J0D01*
G01*
G37*
G36*
G01*
X135339000Y-77938500D02*
X135039000Y-77938500D01*
G75*
G02*
X134889000Y-77788500I0J150000D01*
G01*
X134889000Y-76613500D01*
G75*
G02*
X135039000Y-76463500I150000J0D01*
G01*
X135339000Y-76463500D01*
G75*
G02*
X135489000Y-76613500I0J-150000D01*
G01*
X135489000Y-77788500D01*
G75*
G02*
X135339000Y-77938500I-150000J0D01*
G01*
G37*
G36*
G01*
X134389000Y-76063500D02*
X134089000Y-76063500D01*
G75*
G02*
X133939000Y-75913500I0J150000D01*
G01*
X133939000Y-74738500D01*
G75*
G02*
X134089000Y-74588500I150000J0D01*
G01*
X134389000Y-74588500D01*
G75*
G02*
X134539000Y-74738500I0J-150000D01*
G01*
X134539000Y-75913500D01*
G75*
G02*
X134389000Y-76063500I-150000J0D01*
G01*
G37*
G36*
G01*
X176091000Y-99723000D02*
X175191000Y-99723000D01*
G75*
G02*
X174941000Y-99473000I0J250000D01*
G01*
X174941000Y-98948000D01*
G75*
G02*
X175191000Y-98698000I250000J0D01*
G01*
X176091000Y-98698000D01*
G75*
G02*
X176341000Y-98948000I0J-250000D01*
G01*
X176341000Y-99473000D01*
G75*
G02*
X176091000Y-99723000I-250000J0D01*
G01*
G37*
G36*
G01*
X176091000Y-97898000D02*
X175191000Y-97898000D01*
G75*
G02*
X174941000Y-97648000I0J250000D01*
G01*
X174941000Y-97123000D01*
G75*
G02*
X175191000Y-96873000I250000J0D01*
G01*
X176091000Y-96873000D01*
G75*
G02*
X176341000Y-97123000I0J-250000D01*
G01*
X176341000Y-97648000D01*
G75*
G02*
X176091000Y-97898000I-250000J0D01*
G01*
G37*
G36*
G01*
X150711000Y-77938500D02*
X150411000Y-77938500D01*
G75*
G02*
X150261000Y-77788500I0J150000D01*
G01*
X150261000Y-76613500D01*
G75*
G02*
X150411000Y-76463500I150000J0D01*
G01*
X150711000Y-76463500D01*
G75*
G02*
X150861000Y-76613500I0J-150000D01*
G01*
X150861000Y-77788500D01*
G75*
G02*
X150711000Y-77938500I-150000J0D01*
G01*
G37*
G36*
G01*
X152611000Y-77938500D02*
X152311000Y-77938500D01*
G75*
G02*
X152161000Y-77788500I0J150000D01*
G01*
X152161000Y-76613500D01*
G75*
G02*
X152311000Y-76463500I150000J0D01*
G01*
X152611000Y-76463500D01*
G75*
G02*
X152761000Y-76613500I0J-150000D01*
G01*
X152761000Y-77788500D01*
G75*
G02*
X152611000Y-77938500I-150000J0D01*
G01*
G37*
G36*
G01*
X151661000Y-76063500D02*
X151361000Y-76063500D01*
G75*
G02*
X151211000Y-75913500I0J150000D01*
G01*
X151211000Y-74738500D01*
G75*
G02*
X151361000Y-74588500I150000J0D01*
G01*
X151661000Y-74588500D01*
G75*
G02*
X151811000Y-74738500I0J-150000D01*
G01*
X151811000Y-75913500D01*
G75*
G02*
X151661000Y-76063500I-150000J0D01*
G01*
G37*
G36*
G01*
X149269000Y-86914000D02*
X149269000Y-87114000D01*
G75*
G02*
X149169000Y-87214000I-100000J0D01*
G01*
X147894000Y-87214000D01*
G75*
G02*
X147794000Y-87114000I0J100000D01*
G01*
X147794000Y-86914000D01*
G75*
G02*
X147894000Y-86814000I100000J0D01*
G01*
X149169000Y-86814000D01*
G75*
G02*
X149269000Y-86914000I0J-100000D01*
G01*
G37*
G36*
G01*
X149269000Y-86264000D02*
X149269000Y-86464000D01*
G75*
G02*
X149169000Y-86564000I-100000J0D01*
G01*
X147894000Y-86564000D01*
G75*
G02*
X147794000Y-86464000I0J100000D01*
G01*
X147794000Y-86264000D01*
G75*
G02*
X147894000Y-86164000I100000J0D01*
G01*
X149169000Y-86164000D01*
G75*
G02*
X149269000Y-86264000I0J-100000D01*
G01*
G37*
G36*
G01*
X149269000Y-85614000D02*
X149269000Y-85814000D01*
G75*
G02*
X149169000Y-85914000I-100000J0D01*
G01*
X147894000Y-85914000D01*
G75*
G02*
X147794000Y-85814000I0J100000D01*
G01*
X147794000Y-85614000D01*
G75*
G02*
X147894000Y-85514000I100000J0D01*
G01*
X149169000Y-85514000D01*
G75*
G02*
X149269000Y-85614000I0J-100000D01*
G01*
G37*
G36*
G01*
X149269000Y-84964000D02*
X149269000Y-85164000D01*
G75*
G02*
X149169000Y-85264000I-100000J0D01*
G01*
X147894000Y-85264000D01*
G75*
G02*
X147794000Y-85164000I0J100000D01*
G01*
X147794000Y-84964000D01*
G75*
G02*
X147894000Y-84864000I100000J0D01*
G01*
X149169000Y-84864000D01*
G75*
G02*
X149269000Y-84964000I0J-100000D01*
G01*
G37*
G36*
G01*
X149269000Y-84314000D02*
X149269000Y-84514000D01*
G75*
G02*
X149169000Y-84614000I-100000J0D01*
G01*
X147894000Y-84614000D01*
G75*
G02*
X147794000Y-84514000I0J100000D01*
G01*
X147794000Y-84314000D01*
G75*
G02*
X147894000Y-84214000I100000J0D01*
G01*
X149169000Y-84214000D01*
G75*
G02*
X149269000Y-84314000I0J-100000D01*
G01*
G37*
G36*
G01*
X149269000Y-83664000D02*
X149269000Y-83864000D01*
G75*
G02*
X149169000Y-83964000I-100000J0D01*
G01*
X147894000Y-83964000D01*
G75*
G02*
X147794000Y-83864000I0J100000D01*
G01*
X147794000Y-83664000D01*
G75*
G02*
X147894000Y-83564000I100000J0D01*
G01*
X149169000Y-83564000D01*
G75*
G02*
X149269000Y-83664000I0J-100000D01*
G01*
G37*
G36*
G01*
X149269000Y-83014000D02*
X149269000Y-83214000D01*
G75*
G02*
X149169000Y-83314000I-100000J0D01*
G01*
X147894000Y-83314000D01*
G75*
G02*
X147794000Y-83214000I0J100000D01*
G01*
X147794000Y-83014000D01*
G75*
G02*
X147894000Y-82914000I100000J0D01*
G01*
X149169000Y-82914000D01*
G75*
G02*
X149269000Y-83014000I0J-100000D01*
G01*
G37*
G36*
G01*
X149269000Y-82364000D02*
X149269000Y-82564000D01*
G75*
G02*
X149169000Y-82664000I-100000J0D01*
G01*
X147894000Y-82664000D01*
G75*
G02*
X147794000Y-82564000I0J100000D01*
G01*
X147794000Y-82364000D01*
G75*
G02*
X147894000Y-82264000I100000J0D01*
G01*
X149169000Y-82264000D01*
G75*
G02*
X149269000Y-82364000I0J-100000D01*
G01*
G37*
G36*
G01*
X149269000Y-81714000D02*
X149269000Y-81914000D01*
G75*
G02*
X149169000Y-82014000I-100000J0D01*
G01*
X147894000Y-82014000D01*
G75*
G02*
X147794000Y-81914000I0J100000D01*
G01*
X147794000Y-81714000D01*
G75*
G02*
X147894000Y-81614000I100000J0D01*
G01*
X149169000Y-81614000D01*
G75*
G02*
X149269000Y-81714000I0J-100000D01*
G01*
G37*
G36*
G01*
X149269000Y-81064000D02*
X149269000Y-81264000D01*
G75*
G02*
X149169000Y-81364000I-100000J0D01*
G01*
X147894000Y-81364000D01*
G75*
G02*
X147794000Y-81264000I0J100000D01*
G01*
X147794000Y-81064000D01*
G75*
G02*
X147894000Y-80964000I100000J0D01*
G01*
X149169000Y-80964000D01*
G75*
G02*
X149269000Y-81064000I0J-100000D01*
G01*
G37*
G36*
G01*
X149269000Y-80414000D02*
X149269000Y-80614000D01*
G75*
G02*
X149169000Y-80714000I-100000J0D01*
G01*
X147894000Y-80714000D01*
G75*
G02*
X147794000Y-80614000I0J100000D01*
G01*
X147794000Y-80414000D01*
G75*
G02*
X147894000Y-80314000I100000J0D01*
G01*
X149169000Y-80314000D01*
G75*
G02*
X149269000Y-80414000I0J-100000D01*
G01*
G37*
G36*
G01*
X149269000Y-79764000D02*
X149269000Y-79964000D01*
G75*
G02*
X149169000Y-80064000I-100000J0D01*
G01*
X147894000Y-80064000D01*
G75*
G02*
X147794000Y-79964000I0J100000D01*
G01*
X147794000Y-79764000D01*
G75*
G02*
X147894000Y-79664000I100000J0D01*
G01*
X149169000Y-79664000D01*
G75*
G02*
X149269000Y-79764000I0J-100000D01*
G01*
G37*
G36*
G01*
X143544000Y-79764000D02*
X143544000Y-79964000D01*
G75*
G02*
X143444000Y-80064000I-100000J0D01*
G01*
X142169000Y-80064000D01*
G75*
G02*
X142069000Y-79964000I0J100000D01*
G01*
X142069000Y-79764000D01*
G75*
G02*
X142169000Y-79664000I100000J0D01*
G01*
X143444000Y-79664000D01*
G75*
G02*
X143544000Y-79764000I0J-100000D01*
G01*
G37*
G36*
G01*
X143544000Y-80414000D02*
X143544000Y-80614000D01*
G75*
G02*
X143444000Y-80714000I-100000J0D01*
G01*
X142169000Y-80714000D01*
G75*
G02*
X142069000Y-80614000I0J100000D01*
G01*
X142069000Y-80414000D01*
G75*
G02*
X142169000Y-80314000I100000J0D01*
G01*
X143444000Y-80314000D01*
G75*
G02*
X143544000Y-80414000I0J-100000D01*
G01*
G37*
G36*
G01*
X143544000Y-81064000D02*
X143544000Y-81264000D01*
G75*
G02*
X143444000Y-81364000I-100000J0D01*
G01*
X142169000Y-81364000D01*
G75*
G02*
X142069000Y-81264000I0J100000D01*
G01*
X142069000Y-81064000D01*
G75*
G02*
X142169000Y-80964000I100000J0D01*
G01*
X143444000Y-80964000D01*
G75*
G02*
X143544000Y-81064000I0J-100000D01*
G01*
G37*
G36*
G01*
X143544000Y-81714000D02*
X143544000Y-81914000D01*
G75*
G02*
X143444000Y-82014000I-100000J0D01*
G01*
X142169000Y-82014000D01*
G75*
G02*
X142069000Y-81914000I0J100000D01*
G01*
X142069000Y-81714000D01*
G75*
G02*
X142169000Y-81614000I100000J0D01*
G01*
X143444000Y-81614000D01*
G75*
G02*
X143544000Y-81714000I0J-100000D01*
G01*
G37*
G36*
G01*
X143544000Y-82364000D02*
X143544000Y-82564000D01*
G75*
G02*
X143444000Y-82664000I-100000J0D01*
G01*
X142169000Y-82664000D01*
G75*
G02*
X142069000Y-82564000I0J100000D01*
G01*
X142069000Y-82364000D01*
G75*
G02*
X142169000Y-82264000I100000J0D01*
G01*
X143444000Y-82264000D01*
G75*
G02*
X143544000Y-82364000I0J-100000D01*
G01*
G37*
G36*
G01*
X143544000Y-83014000D02*
X143544000Y-83214000D01*
G75*
G02*
X143444000Y-83314000I-100000J0D01*
G01*
X142169000Y-83314000D01*
G75*
G02*
X142069000Y-83214000I0J100000D01*
G01*
X142069000Y-83014000D01*
G75*
G02*
X142169000Y-82914000I100000J0D01*
G01*
X143444000Y-82914000D01*
G75*
G02*
X143544000Y-83014000I0J-100000D01*
G01*
G37*
G36*
G01*
X143544000Y-83664000D02*
X143544000Y-83864000D01*
G75*
G02*
X143444000Y-83964000I-100000J0D01*
G01*
X142169000Y-83964000D01*
G75*
G02*
X142069000Y-83864000I0J100000D01*
G01*
X142069000Y-83664000D01*
G75*
G02*
X142169000Y-83564000I100000J0D01*
G01*
X143444000Y-83564000D01*
G75*
G02*
X143544000Y-83664000I0J-100000D01*
G01*
G37*
G36*
G01*
X143544000Y-84314000D02*
X143544000Y-84514000D01*
G75*
G02*
X143444000Y-84614000I-100000J0D01*
G01*
X142169000Y-84614000D01*
G75*
G02*
X142069000Y-84514000I0J100000D01*
G01*
X142069000Y-84314000D01*
G75*
G02*
X142169000Y-84214000I100000J0D01*
G01*
X143444000Y-84214000D01*
G75*
G02*
X143544000Y-84314000I0J-100000D01*
G01*
G37*
G36*
G01*
X143544000Y-84964000D02*
X143544000Y-85164000D01*
G75*
G02*
X143444000Y-85264000I-100000J0D01*
G01*
X142169000Y-85264000D01*
G75*
G02*
X142069000Y-85164000I0J100000D01*
G01*
X142069000Y-84964000D01*
G75*
G02*
X142169000Y-84864000I100000J0D01*
G01*
X143444000Y-84864000D01*
G75*
G02*
X143544000Y-84964000I0J-100000D01*
G01*
G37*
G36*
G01*
X143544000Y-85614000D02*
X143544000Y-85814000D01*
G75*
G02*
X143444000Y-85914000I-100000J0D01*
G01*
X142169000Y-85914000D01*
G75*
G02*
X142069000Y-85814000I0J100000D01*
G01*
X142069000Y-85614000D01*
G75*
G02*
X142169000Y-85514000I100000J0D01*
G01*
X143444000Y-85514000D01*
G75*
G02*
X143544000Y-85614000I0J-100000D01*
G01*
G37*
G36*
G01*
X143544000Y-86264000D02*
X143544000Y-86464000D01*
G75*
G02*
X143444000Y-86564000I-100000J0D01*
G01*
X142169000Y-86564000D01*
G75*
G02*
X142069000Y-86464000I0J100000D01*
G01*
X142069000Y-86264000D01*
G75*
G02*
X142169000Y-86164000I100000J0D01*
G01*
X143444000Y-86164000D01*
G75*
G02*
X143544000Y-86264000I0J-100000D01*
G01*
G37*
G36*
G01*
X143544000Y-86914000D02*
X143544000Y-87114000D01*
G75*
G02*
X143444000Y-87214000I-100000J0D01*
G01*
X142169000Y-87214000D01*
G75*
G02*
X142069000Y-87114000I0J100000D01*
G01*
X142069000Y-86914000D01*
G75*
G02*
X142169000Y-86814000I100000J0D01*
G01*
X143444000Y-86814000D01*
G75*
G02*
X143544000Y-86914000I0J-100000D01*
G01*
G37*
G36*
G01*
X186911000Y-57330000D02*
X185961000Y-57330000D01*
G75*
G02*
X185711000Y-57080000I0J250000D01*
G01*
X185711000Y-56580000D01*
G75*
G02*
X185961000Y-56330000I250000J0D01*
G01*
X186911000Y-56330000D01*
G75*
G02*
X187161000Y-56580000I0J-250000D01*
G01*
X187161000Y-57080000D01*
G75*
G02*
X186911000Y-57330000I-250000J0D01*
G01*
G37*
G36*
G01*
X186911000Y-55430000D02*
X185961000Y-55430000D01*
G75*
G02*
X185711000Y-55180000I0J250000D01*
G01*
X185711000Y-54680000D01*
G75*
G02*
X185961000Y-54430000I250000J0D01*
G01*
X186911000Y-54430000D01*
G75*
G02*
X187161000Y-54680000I0J-250000D01*
G01*
X187161000Y-55180000D01*
G75*
G02*
X186911000Y-55430000I-250000J0D01*
G01*
G37*
D11*
X127786750Y-49377600D03*
X124486750Y-49377600D03*
G36*
G01*
X187226000Y-46794000D02*
X187226000Y-47694000D01*
G75*
G02*
X186976000Y-47944000I-250000J0D01*
G01*
X186451000Y-47944000D01*
G75*
G02*
X186201000Y-47694000I0J250000D01*
G01*
X186201000Y-46794000D01*
G75*
G02*
X186451000Y-46544000I250000J0D01*
G01*
X186976000Y-46544000D01*
G75*
G02*
X187226000Y-46794000I0J-250000D01*
G01*
G37*
G36*
G01*
X185401000Y-46794000D02*
X185401000Y-47694000D01*
G75*
G02*
X185151000Y-47944000I-250000J0D01*
G01*
X184626000Y-47944000D01*
G75*
G02*
X184376000Y-47694000I0J250000D01*
G01*
X184376000Y-46794000D01*
G75*
G02*
X184626000Y-46544000I250000J0D01*
G01*
X185151000Y-46544000D01*
G75*
G02*
X185401000Y-46794000I0J-250000D01*
G01*
G37*
G36*
G01*
X171605000Y-111945000D02*
X171605000Y-112845000D01*
G75*
G02*
X171355000Y-113095000I-250000J0D01*
G01*
X170830000Y-113095000D01*
G75*
G02*
X170580000Y-112845000I0J250000D01*
G01*
X170580000Y-111945000D01*
G75*
G02*
X170830000Y-111695000I250000J0D01*
G01*
X171355000Y-111695000D01*
G75*
G02*
X171605000Y-111945000I0J-250000D01*
G01*
G37*
G36*
G01*
X169780000Y-111945000D02*
X169780000Y-112845000D01*
G75*
G02*
X169530000Y-113095000I-250000J0D01*
G01*
X169005000Y-113095000D01*
G75*
G02*
X168755000Y-112845000I0J250000D01*
G01*
X168755000Y-111945000D01*
G75*
G02*
X169005000Y-111695000I250000J0D01*
G01*
X169530000Y-111695000D01*
G75*
G02*
X169780000Y-111945000I0J-250000D01*
G01*
G37*
G36*
G01*
X108988000Y-27664000D02*
X108988000Y-28914000D01*
G75*
G02*
X108838000Y-29064000I-150000J0D01*
G01*
X108538000Y-29064000D01*
G75*
G02*
X108388000Y-28914000I0J150000D01*
G01*
X108388000Y-27664000D01*
G75*
G02*
X108538000Y-27514000I150000J0D01*
G01*
X108838000Y-27514000D01*
G75*
G02*
X108988000Y-27664000I0J-150000D01*
G01*
G37*
G36*
G01*
X107988000Y-27664000D02*
X107988000Y-28914000D01*
G75*
G02*
X107838000Y-29064000I-150000J0D01*
G01*
X107538000Y-29064000D01*
G75*
G02*
X107388000Y-28914000I0J150000D01*
G01*
X107388000Y-27664000D01*
G75*
G02*
X107538000Y-27514000I150000J0D01*
G01*
X107838000Y-27514000D01*
G75*
G02*
X107988000Y-27664000I0J-150000D01*
G01*
G37*
G36*
G01*
X106988000Y-27664000D02*
X106988000Y-28914000D01*
G75*
G02*
X106838000Y-29064000I-150000J0D01*
G01*
X106538000Y-29064000D01*
G75*
G02*
X106388000Y-28914000I0J150000D01*
G01*
X106388000Y-27664000D01*
G75*
G02*
X106538000Y-27514000I150000J0D01*
G01*
X106838000Y-27514000D01*
G75*
G02*
X106988000Y-27664000I0J-150000D01*
G01*
G37*
G36*
G01*
X105988000Y-27664000D02*
X105988000Y-28914000D01*
G75*
G02*
X105838000Y-29064000I-150000J0D01*
G01*
X105538000Y-29064000D01*
G75*
G02*
X105388000Y-28914000I0J150000D01*
G01*
X105388000Y-27664000D01*
G75*
G02*
X105538000Y-27514000I150000J0D01*
G01*
X105838000Y-27514000D01*
G75*
G02*
X105988000Y-27664000I0J-150000D01*
G01*
G37*
G36*
G01*
X110588000Y-23764000D02*
X110588000Y-25064000D01*
G75*
G02*
X110338000Y-25314000I-250000J0D01*
G01*
X109638000Y-25314000D01*
G75*
G02*
X109388000Y-25064000I0J250000D01*
G01*
X109388000Y-23764000D01*
G75*
G02*
X109638000Y-23514000I250000J0D01*
G01*
X110338000Y-23514000D01*
G75*
G02*
X110588000Y-23764000I0J-250000D01*
G01*
G37*
G36*
G01*
X104988000Y-23764000D02*
X104988000Y-25064000D01*
G75*
G02*
X104738000Y-25314000I-250000J0D01*
G01*
X104038000Y-25314000D01*
G75*
G02*
X103788000Y-25064000I0J250000D01*
G01*
X103788000Y-23764000D01*
G75*
G02*
X104038000Y-23514000I250000J0D01*
G01*
X104738000Y-23514000D01*
G75*
G02*
X104988000Y-23764000I0J-250000D01*
G01*
G37*
G36*
G01*
X188272000Y-54455000D02*
X189172000Y-54455000D01*
G75*
G02*
X189422000Y-54705000I0J-250000D01*
G01*
X189422000Y-55230000D01*
G75*
G02*
X189172000Y-55480000I-250000J0D01*
G01*
X188272000Y-55480000D01*
G75*
G02*
X188022000Y-55230000I0J250000D01*
G01*
X188022000Y-54705000D01*
G75*
G02*
X188272000Y-54455000I250000J0D01*
G01*
G37*
G36*
G01*
X188272000Y-56280000D02*
X189172000Y-56280000D01*
G75*
G02*
X189422000Y-56530000I0J-250000D01*
G01*
X189422000Y-57055000D01*
G75*
G02*
X189172000Y-57305000I-250000J0D01*
G01*
X188272000Y-57305000D01*
G75*
G02*
X188022000Y-57055000I0J250000D01*
G01*
X188022000Y-56530000D01*
G75*
G02*
X188272000Y-56280000I250000J0D01*
G01*
G37*
G36*
G01*
X103914000Y-50858000D02*
X103914000Y-51758000D01*
G75*
G02*
X103664000Y-52008000I-250000J0D01*
G01*
X103139000Y-52008000D01*
G75*
G02*
X102889000Y-51758000I0J250000D01*
G01*
X102889000Y-50858000D01*
G75*
G02*
X103139000Y-50608000I250000J0D01*
G01*
X103664000Y-50608000D01*
G75*
G02*
X103914000Y-50858000I0J-250000D01*
G01*
G37*
G36*
G01*
X102089000Y-50858000D02*
X102089000Y-51758000D01*
G75*
G02*
X101839000Y-52008000I-250000J0D01*
G01*
X101314000Y-52008000D01*
G75*
G02*
X101064000Y-51758000I0J250000D01*
G01*
X101064000Y-50858000D01*
G75*
G02*
X101314000Y-50608000I250000J0D01*
G01*
X101839000Y-50608000D01*
G75*
G02*
X102089000Y-50858000I0J-250000D01*
G01*
G37*
G36*
G01*
X178788000Y-47630500D02*
X178788000Y-46730500D01*
G75*
G02*
X179038000Y-46480500I250000J0D01*
G01*
X179563000Y-46480500D01*
G75*
G02*
X179813000Y-46730500I0J-250000D01*
G01*
X179813000Y-47630500D01*
G75*
G02*
X179563000Y-47880500I-250000J0D01*
G01*
X179038000Y-47880500D01*
G75*
G02*
X178788000Y-47630500I0J250000D01*
G01*
G37*
G36*
G01*
X180613000Y-47630500D02*
X180613000Y-46730500D01*
G75*
G02*
X180863000Y-46480500I250000J0D01*
G01*
X181388000Y-46480500D01*
G75*
G02*
X181638000Y-46730500I0J-250000D01*
G01*
X181638000Y-47630500D01*
G75*
G02*
X181388000Y-47880500I-250000J0D01*
G01*
X180863000Y-47880500D01*
G75*
G02*
X180613000Y-47630500I0J250000D01*
G01*
G37*
G36*
G01*
X190558000Y-54455000D02*
X191458000Y-54455000D01*
G75*
G02*
X191708000Y-54705000I0J-250000D01*
G01*
X191708000Y-55230000D01*
G75*
G02*
X191458000Y-55480000I-250000J0D01*
G01*
X190558000Y-55480000D01*
G75*
G02*
X190308000Y-55230000I0J250000D01*
G01*
X190308000Y-54705000D01*
G75*
G02*
X190558000Y-54455000I250000J0D01*
G01*
G37*
G36*
G01*
X190558000Y-56280000D02*
X191458000Y-56280000D01*
G75*
G02*
X191708000Y-56530000I0J-250000D01*
G01*
X191708000Y-57055000D01*
G75*
G02*
X191458000Y-57305000I-250000J0D01*
G01*
X190558000Y-57305000D01*
G75*
G02*
X190308000Y-57055000I0J250000D01*
G01*
X190308000Y-56530000D01*
G75*
G02*
X190558000Y-56280000I250000J0D01*
G01*
G37*
G36*
G01*
X103914000Y-95562000D02*
X103914000Y-96462000D01*
G75*
G02*
X103664000Y-96712000I-250000J0D01*
G01*
X103139000Y-96712000D01*
G75*
G02*
X102889000Y-96462000I0J250000D01*
G01*
X102889000Y-95562000D01*
G75*
G02*
X103139000Y-95312000I250000J0D01*
G01*
X103664000Y-95312000D01*
G75*
G02*
X103914000Y-95562000I0J-250000D01*
G01*
G37*
G36*
G01*
X102089000Y-95562000D02*
X102089000Y-96462000D01*
G75*
G02*
X101839000Y-96712000I-250000J0D01*
G01*
X101314000Y-96712000D01*
G75*
G02*
X101064000Y-96462000I0J250000D01*
G01*
X101064000Y-95562000D01*
G75*
G02*
X101314000Y-95312000I250000J0D01*
G01*
X101839000Y-95312000D01*
G75*
G02*
X102089000Y-95562000I0J-250000D01*
G01*
G37*
G36*
G01*
X196055000Y-57330000D02*
X195105000Y-57330000D01*
G75*
G02*
X194855000Y-57080000I0J250000D01*
G01*
X194855000Y-56580000D01*
G75*
G02*
X195105000Y-56330000I250000J0D01*
G01*
X196055000Y-56330000D01*
G75*
G02*
X196305000Y-56580000I0J-250000D01*
G01*
X196305000Y-57080000D01*
G75*
G02*
X196055000Y-57330000I-250000J0D01*
G01*
G37*
G36*
G01*
X196055000Y-55430000D02*
X195105000Y-55430000D01*
G75*
G02*
X194855000Y-55180000I0J250000D01*
G01*
X194855000Y-54680000D01*
G75*
G02*
X195105000Y-54430000I250000J0D01*
G01*
X196055000Y-54430000D01*
G75*
G02*
X196305000Y-54680000I0J-250000D01*
G01*
X196305000Y-55180000D01*
G75*
G02*
X196055000Y-55430000I-250000J0D01*
G01*
G37*
G36*
G01*
X153190000Y-43428500D02*
X153190000Y-44328500D01*
G75*
G02*
X152940000Y-44578500I-250000J0D01*
G01*
X152415000Y-44578500D01*
G75*
G02*
X152165000Y-44328500I0J250000D01*
G01*
X152165000Y-43428500D01*
G75*
G02*
X152415000Y-43178500I250000J0D01*
G01*
X152940000Y-43178500D01*
G75*
G02*
X153190000Y-43428500I0J-250000D01*
G01*
G37*
G36*
G01*
X151365000Y-43428500D02*
X151365000Y-44328500D01*
G75*
G02*
X151115000Y-44578500I-250000J0D01*
G01*
X150590000Y-44578500D01*
G75*
G02*
X150340000Y-44328500I0J250000D01*
G01*
X150340000Y-43428500D01*
G75*
G02*
X150590000Y-43178500I250000J0D01*
G01*
X151115000Y-43178500D01*
G75*
G02*
X151365000Y-43428500I0J-250000D01*
G01*
G37*
G36*
G01*
X103914000Y-114358000D02*
X103914000Y-115258000D01*
G75*
G02*
X103664000Y-115508000I-250000J0D01*
G01*
X103139000Y-115508000D01*
G75*
G02*
X102889000Y-115258000I0J250000D01*
G01*
X102889000Y-114358000D01*
G75*
G02*
X103139000Y-114108000I250000J0D01*
G01*
X103664000Y-114108000D01*
G75*
G02*
X103914000Y-114358000I0J-250000D01*
G01*
G37*
G36*
G01*
X102089000Y-114358000D02*
X102089000Y-115258000D01*
G75*
G02*
X101839000Y-115508000I-250000J0D01*
G01*
X101314000Y-115508000D01*
G75*
G02*
X101064000Y-115258000I0J250000D01*
G01*
X101064000Y-114358000D01*
G75*
G02*
X101314000Y-114108000I250000J0D01*
G01*
X101839000Y-114108000D01*
G75*
G02*
X102089000Y-114358000I0J-250000D01*
G01*
G37*
G36*
G01*
X195806000Y-47694000D02*
X195806000Y-46794000D01*
G75*
G02*
X196056000Y-46544000I250000J0D01*
G01*
X196581000Y-46544000D01*
G75*
G02*
X196831000Y-46794000I0J-250000D01*
G01*
X196831000Y-47694000D01*
G75*
G02*
X196581000Y-47944000I-250000J0D01*
G01*
X196056000Y-47944000D01*
G75*
G02*
X195806000Y-47694000I0J250000D01*
G01*
G37*
G36*
G01*
X197631000Y-47694000D02*
X197631000Y-46794000D01*
G75*
G02*
X197881000Y-46544000I250000J0D01*
G01*
X198406000Y-46544000D01*
G75*
G02*
X198656000Y-46794000I0J-250000D01*
G01*
X198656000Y-47694000D01*
G75*
G02*
X198406000Y-47944000I-250000J0D01*
G01*
X197881000Y-47944000D01*
G75*
G02*
X197631000Y-47694000I0J250000D01*
G01*
G37*
G36*
G01*
X204746000Y-89430000D02*
X203496000Y-89430000D01*
G75*
G02*
X203346000Y-89280000I0J150000D01*
G01*
X203346000Y-88980000D01*
G75*
G02*
X203496000Y-88830000I150000J0D01*
G01*
X204746000Y-88830000D01*
G75*
G02*
X204896000Y-88980000I0J-150000D01*
G01*
X204896000Y-89280000D01*
G75*
G02*
X204746000Y-89430000I-150000J0D01*
G01*
G37*
G36*
G01*
X204746000Y-88430000D02*
X203496000Y-88430000D01*
G75*
G02*
X203346000Y-88280000I0J150000D01*
G01*
X203346000Y-87980000D01*
G75*
G02*
X203496000Y-87830000I150000J0D01*
G01*
X204746000Y-87830000D01*
G75*
G02*
X204896000Y-87980000I0J-150000D01*
G01*
X204896000Y-88280000D01*
G75*
G02*
X204746000Y-88430000I-150000J0D01*
G01*
G37*
G36*
G01*
X204746000Y-87430000D02*
X203496000Y-87430000D01*
G75*
G02*
X203346000Y-87280000I0J150000D01*
G01*
X203346000Y-86980000D01*
G75*
G02*
X203496000Y-86830000I150000J0D01*
G01*
X204746000Y-86830000D01*
G75*
G02*
X204896000Y-86980000I0J-150000D01*
G01*
X204896000Y-87280000D01*
G75*
G02*
X204746000Y-87430000I-150000J0D01*
G01*
G37*
G36*
G01*
X204746000Y-86430000D02*
X203496000Y-86430000D01*
G75*
G02*
X203346000Y-86280000I0J150000D01*
G01*
X203346000Y-85980000D01*
G75*
G02*
X203496000Y-85830000I150000J0D01*
G01*
X204746000Y-85830000D01*
G75*
G02*
X204896000Y-85980000I0J-150000D01*
G01*
X204896000Y-86280000D01*
G75*
G02*
X204746000Y-86430000I-150000J0D01*
G01*
G37*
G36*
G01*
X208646000Y-85430000D02*
X207346000Y-85430000D01*
G75*
G02*
X207096000Y-85180000I0J250000D01*
G01*
X207096000Y-84480000D01*
G75*
G02*
X207346000Y-84230000I250000J0D01*
G01*
X208646000Y-84230000D01*
G75*
G02*
X208896000Y-84480000I0J-250000D01*
G01*
X208896000Y-85180000D01*
G75*
G02*
X208646000Y-85430000I-250000J0D01*
G01*
G37*
G36*
G01*
X208646000Y-91030000D02*
X207346000Y-91030000D01*
G75*
G02*
X207096000Y-90780000I0J250000D01*
G01*
X207096000Y-90080000D01*
G75*
G02*
X207346000Y-89830000I250000J0D01*
G01*
X208646000Y-89830000D01*
G75*
G02*
X208896000Y-90080000I0J-250000D01*
G01*
X208896000Y-90780000D01*
G75*
G02*
X208646000Y-91030000I-250000J0D01*
G01*
G37*
G36*
G01*
X172281000Y-129441000D02*
X171381000Y-129441000D01*
G75*
G02*
X171131000Y-129191000I0J250000D01*
G01*
X171131000Y-128666000D01*
G75*
G02*
X171381000Y-128416000I250000J0D01*
G01*
X172281000Y-128416000D01*
G75*
G02*
X172531000Y-128666000I0J-250000D01*
G01*
X172531000Y-129191000D01*
G75*
G02*
X172281000Y-129441000I-250000J0D01*
G01*
G37*
G36*
G01*
X172281000Y-127616000D02*
X171381000Y-127616000D01*
G75*
G02*
X171131000Y-127366000I0J250000D01*
G01*
X171131000Y-126841000D01*
G75*
G02*
X171381000Y-126591000I250000J0D01*
G01*
X172281000Y-126591000D01*
G75*
G02*
X172531000Y-126841000I0J-250000D01*
G01*
X172531000Y-127366000D01*
G75*
G02*
X172281000Y-127616000I-250000J0D01*
G01*
G37*
G36*
G01*
X204746000Y-38460664D02*
X203496000Y-38460664D01*
G75*
G02*
X203346000Y-38310664I0J150000D01*
G01*
X203346000Y-38010664D01*
G75*
G02*
X203496000Y-37860664I150000J0D01*
G01*
X204746000Y-37860664D01*
G75*
G02*
X204896000Y-38010664I0J-150000D01*
G01*
X204896000Y-38310664D01*
G75*
G02*
X204746000Y-38460664I-150000J0D01*
G01*
G37*
G36*
G01*
X204746000Y-37460664D02*
X203496000Y-37460664D01*
G75*
G02*
X203346000Y-37310664I0J150000D01*
G01*
X203346000Y-37010664D01*
G75*
G02*
X203496000Y-36860664I150000J0D01*
G01*
X204746000Y-36860664D01*
G75*
G02*
X204896000Y-37010664I0J-150000D01*
G01*
X204896000Y-37310664D01*
G75*
G02*
X204746000Y-37460664I-150000J0D01*
G01*
G37*
G36*
G01*
X204746000Y-36460664D02*
X203496000Y-36460664D01*
G75*
G02*
X203346000Y-36310664I0J150000D01*
G01*
X203346000Y-36010664D01*
G75*
G02*
X203496000Y-35860664I150000J0D01*
G01*
X204746000Y-35860664D01*
G75*
G02*
X204896000Y-36010664I0J-150000D01*
G01*
X204896000Y-36310664D01*
G75*
G02*
X204746000Y-36460664I-150000J0D01*
G01*
G37*
G36*
G01*
X204746000Y-35460664D02*
X203496000Y-35460664D01*
G75*
G02*
X203346000Y-35310664I0J150000D01*
G01*
X203346000Y-35010664D01*
G75*
G02*
X203496000Y-34860664I150000J0D01*
G01*
X204746000Y-34860664D01*
G75*
G02*
X204896000Y-35010664I0J-150000D01*
G01*
X204896000Y-35310664D01*
G75*
G02*
X204746000Y-35460664I-150000J0D01*
G01*
G37*
G36*
G01*
X208646000Y-40060664D02*
X207346000Y-40060664D01*
G75*
G02*
X207096000Y-39810664I0J250000D01*
G01*
X207096000Y-39110664D01*
G75*
G02*
X207346000Y-38860664I250000J0D01*
G01*
X208646000Y-38860664D01*
G75*
G02*
X208896000Y-39110664I0J-250000D01*
G01*
X208896000Y-39810664D01*
G75*
G02*
X208646000Y-40060664I-250000J0D01*
G01*
G37*
G36*
G01*
X208646000Y-34460664D02*
X207346000Y-34460664D01*
G75*
G02*
X207096000Y-34210664I0J250000D01*
G01*
X207096000Y-33510664D01*
G75*
G02*
X207346000Y-33260664I250000J0D01*
G01*
X208646000Y-33260664D01*
G75*
G02*
X208896000Y-33510664I0J-250000D01*
G01*
X208896000Y-34210664D01*
G75*
G02*
X208646000Y-34460664I-250000J0D01*
G01*
G37*
G36*
G01*
X177127000Y-134134000D02*
X176827000Y-134134000D01*
G75*
G02*
X176677000Y-133984000I0J150000D01*
G01*
X176677000Y-132959000D01*
G75*
G02*
X176827000Y-132809000I150000J0D01*
G01*
X177127000Y-132809000D01*
G75*
G02*
X177277000Y-132959000I0J-150000D01*
G01*
X177277000Y-133984000D01*
G75*
G02*
X177127000Y-134134000I-150000J0D01*
G01*
G37*
G36*
G01*
X178077000Y-134134000D02*
X177777000Y-134134000D01*
G75*
G02*
X177627000Y-133984000I0J150000D01*
G01*
X177627000Y-132959000D01*
G75*
G02*
X177777000Y-132809000I150000J0D01*
G01*
X178077000Y-132809000D01*
G75*
G02*
X178227000Y-132959000I0J-150000D01*
G01*
X178227000Y-133984000D01*
G75*
G02*
X178077000Y-134134000I-150000J0D01*
G01*
G37*
G36*
G01*
X179027000Y-134134000D02*
X178727000Y-134134000D01*
G75*
G02*
X178577000Y-133984000I0J150000D01*
G01*
X178577000Y-132959000D01*
G75*
G02*
X178727000Y-132809000I150000J0D01*
G01*
X179027000Y-132809000D01*
G75*
G02*
X179177000Y-132959000I0J-150000D01*
G01*
X179177000Y-133984000D01*
G75*
G02*
X179027000Y-134134000I-150000J0D01*
G01*
G37*
G36*
G01*
X179027000Y-131859000D02*
X178727000Y-131859000D01*
G75*
G02*
X178577000Y-131709000I0J150000D01*
G01*
X178577000Y-130684000D01*
G75*
G02*
X178727000Y-130534000I150000J0D01*
G01*
X179027000Y-130534000D01*
G75*
G02*
X179177000Y-130684000I0J-150000D01*
G01*
X179177000Y-131709000D01*
G75*
G02*
X179027000Y-131859000I-150000J0D01*
G01*
G37*
G36*
G01*
X178077000Y-131859000D02*
X177777000Y-131859000D01*
G75*
G02*
X177627000Y-131709000I0J150000D01*
G01*
X177627000Y-130684000D01*
G75*
G02*
X177777000Y-130534000I150000J0D01*
G01*
X178077000Y-130534000D01*
G75*
G02*
X178227000Y-130684000I0J-150000D01*
G01*
X178227000Y-131709000D01*
G75*
G02*
X178077000Y-131859000I-150000J0D01*
G01*
G37*
G36*
G01*
X177127000Y-131859000D02*
X176827000Y-131859000D01*
G75*
G02*
X176677000Y-131709000I0J150000D01*
G01*
X176677000Y-130684000D01*
G75*
G02*
X176827000Y-130534000I150000J0D01*
G01*
X177127000Y-130534000D01*
G75*
G02*
X177277000Y-130684000I0J-150000D01*
G01*
X177277000Y-131709000D01*
G75*
G02*
X177127000Y-131859000I-150000J0D01*
G01*
G37*
G36*
G01*
X177066000Y-111945000D02*
X177066000Y-112845000D01*
G75*
G02*
X176816000Y-113095000I-250000J0D01*
G01*
X176291000Y-113095000D01*
G75*
G02*
X176041000Y-112845000I0J250000D01*
G01*
X176041000Y-111945000D01*
G75*
G02*
X176291000Y-111695000I250000J0D01*
G01*
X176816000Y-111695000D01*
G75*
G02*
X177066000Y-111945000I0J-250000D01*
G01*
G37*
G36*
G01*
X175241000Y-111945000D02*
X175241000Y-112845000D01*
G75*
G02*
X174991000Y-113095000I-250000J0D01*
G01*
X174466000Y-113095000D01*
G75*
G02*
X174216000Y-112845000I0J250000D01*
G01*
X174216000Y-111945000D01*
G75*
G02*
X174466000Y-111695000I250000J0D01*
G01*
X174991000Y-111695000D01*
G75*
G02*
X175241000Y-111945000I0J-250000D01*
G01*
G37*
X190118000Y-136186334D03*
X186818000Y-136186334D03*
G36*
G01*
X162454000Y-70906500D02*
X162454000Y-71206500D01*
G75*
G02*
X162304000Y-71356500I-150000J0D01*
G01*
X160854000Y-71356500D01*
G75*
G02*
X160704000Y-71206500I0J150000D01*
G01*
X160704000Y-70906500D01*
G75*
G02*
X160854000Y-70756500I150000J0D01*
G01*
X162304000Y-70756500D01*
G75*
G02*
X162454000Y-70906500I0J-150000D01*
G01*
G37*
G36*
G01*
X162454000Y-69636500D02*
X162454000Y-69936500D01*
G75*
G02*
X162304000Y-70086500I-150000J0D01*
G01*
X160854000Y-70086500D01*
G75*
G02*
X160704000Y-69936500I0J150000D01*
G01*
X160704000Y-69636500D01*
G75*
G02*
X160854000Y-69486500I150000J0D01*
G01*
X162304000Y-69486500D01*
G75*
G02*
X162454000Y-69636500I0J-150000D01*
G01*
G37*
G36*
G01*
X162454000Y-68366500D02*
X162454000Y-68666500D01*
G75*
G02*
X162304000Y-68816500I-150000J0D01*
G01*
X160854000Y-68816500D01*
G75*
G02*
X160704000Y-68666500I0J150000D01*
G01*
X160704000Y-68366500D01*
G75*
G02*
X160854000Y-68216500I150000J0D01*
G01*
X162304000Y-68216500D01*
G75*
G02*
X162454000Y-68366500I0J-150000D01*
G01*
G37*
G36*
G01*
X162454000Y-67096500D02*
X162454000Y-67396500D01*
G75*
G02*
X162304000Y-67546500I-150000J0D01*
G01*
X160854000Y-67546500D01*
G75*
G02*
X160704000Y-67396500I0J150000D01*
G01*
X160704000Y-67096500D01*
G75*
G02*
X160854000Y-66946500I150000J0D01*
G01*
X162304000Y-66946500D01*
G75*
G02*
X162454000Y-67096500I0J-150000D01*
G01*
G37*
G36*
G01*
X162454000Y-65826500D02*
X162454000Y-66126500D01*
G75*
G02*
X162304000Y-66276500I-150000J0D01*
G01*
X160854000Y-66276500D01*
G75*
G02*
X160704000Y-66126500I0J150000D01*
G01*
X160704000Y-65826500D01*
G75*
G02*
X160854000Y-65676500I150000J0D01*
G01*
X162304000Y-65676500D01*
G75*
G02*
X162454000Y-65826500I0J-150000D01*
G01*
G37*
G36*
G01*
X162454000Y-64556500D02*
X162454000Y-64856500D01*
G75*
G02*
X162304000Y-65006500I-150000J0D01*
G01*
X160854000Y-65006500D01*
G75*
G02*
X160704000Y-64856500I0J150000D01*
G01*
X160704000Y-64556500D01*
G75*
G02*
X160854000Y-64406500I150000J0D01*
G01*
X162304000Y-64406500D01*
G75*
G02*
X162454000Y-64556500I0J-150000D01*
G01*
G37*
G36*
G01*
X162454000Y-63286500D02*
X162454000Y-63586500D01*
G75*
G02*
X162304000Y-63736500I-150000J0D01*
G01*
X160854000Y-63736500D01*
G75*
G02*
X160704000Y-63586500I0J150000D01*
G01*
X160704000Y-63286500D01*
G75*
G02*
X160854000Y-63136500I150000J0D01*
G01*
X162304000Y-63136500D01*
G75*
G02*
X162454000Y-63286500I0J-150000D01*
G01*
G37*
G36*
G01*
X162454000Y-62016500D02*
X162454000Y-62316500D01*
G75*
G02*
X162304000Y-62466500I-150000J0D01*
G01*
X160854000Y-62466500D01*
G75*
G02*
X160704000Y-62316500I0J150000D01*
G01*
X160704000Y-62016500D01*
G75*
G02*
X160854000Y-61866500I150000J0D01*
G01*
X162304000Y-61866500D01*
G75*
G02*
X162454000Y-62016500I0J-150000D01*
G01*
G37*
G36*
G01*
X157304000Y-62016500D02*
X157304000Y-62316500D01*
G75*
G02*
X157154000Y-62466500I-150000J0D01*
G01*
X155704000Y-62466500D01*
G75*
G02*
X155554000Y-62316500I0J150000D01*
G01*
X155554000Y-62016500D01*
G75*
G02*
X155704000Y-61866500I150000J0D01*
G01*
X157154000Y-61866500D01*
G75*
G02*
X157304000Y-62016500I0J-150000D01*
G01*
G37*
G36*
G01*
X157304000Y-63286500D02*
X157304000Y-63586500D01*
G75*
G02*
X157154000Y-63736500I-150000J0D01*
G01*
X155704000Y-63736500D01*
G75*
G02*
X155554000Y-63586500I0J150000D01*
G01*
X155554000Y-63286500D01*
G75*
G02*
X155704000Y-63136500I150000J0D01*
G01*
X157154000Y-63136500D01*
G75*
G02*
X157304000Y-63286500I0J-150000D01*
G01*
G37*
G36*
G01*
X157304000Y-64556500D02*
X157304000Y-64856500D01*
G75*
G02*
X157154000Y-65006500I-150000J0D01*
G01*
X155704000Y-65006500D01*
G75*
G02*
X155554000Y-64856500I0J150000D01*
G01*
X155554000Y-64556500D01*
G75*
G02*
X155704000Y-64406500I150000J0D01*
G01*
X157154000Y-64406500D01*
G75*
G02*
X157304000Y-64556500I0J-150000D01*
G01*
G37*
G36*
G01*
X157304000Y-65826500D02*
X157304000Y-66126500D01*
G75*
G02*
X157154000Y-66276500I-150000J0D01*
G01*
X155704000Y-66276500D01*
G75*
G02*
X155554000Y-66126500I0J150000D01*
G01*
X155554000Y-65826500D01*
G75*
G02*
X155704000Y-65676500I150000J0D01*
G01*
X157154000Y-65676500D01*
G75*
G02*
X157304000Y-65826500I0J-150000D01*
G01*
G37*
G36*
G01*
X157304000Y-67096500D02*
X157304000Y-67396500D01*
G75*
G02*
X157154000Y-67546500I-150000J0D01*
G01*
X155704000Y-67546500D01*
G75*
G02*
X155554000Y-67396500I0J150000D01*
G01*
X155554000Y-67096500D01*
G75*
G02*
X155704000Y-66946500I150000J0D01*
G01*
X157154000Y-66946500D01*
G75*
G02*
X157304000Y-67096500I0J-150000D01*
G01*
G37*
G36*
G01*
X157304000Y-68366500D02*
X157304000Y-68666500D01*
G75*
G02*
X157154000Y-68816500I-150000J0D01*
G01*
X155704000Y-68816500D01*
G75*
G02*
X155554000Y-68666500I0J150000D01*
G01*
X155554000Y-68366500D01*
G75*
G02*
X155704000Y-68216500I150000J0D01*
G01*
X157154000Y-68216500D01*
G75*
G02*
X157304000Y-68366500I0J-150000D01*
G01*
G37*
G36*
G01*
X157304000Y-69636500D02*
X157304000Y-69936500D01*
G75*
G02*
X157154000Y-70086500I-150000J0D01*
G01*
X155704000Y-70086500D01*
G75*
G02*
X155554000Y-69936500I0J150000D01*
G01*
X155554000Y-69636500D01*
G75*
G02*
X155704000Y-69486500I150000J0D01*
G01*
X157154000Y-69486500D01*
G75*
G02*
X157304000Y-69636500I0J-150000D01*
G01*
G37*
G36*
G01*
X157304000Y-70906500D02*
X157304000Y-71206500D01*
G75*
G02*
X157154000Y-71356500I-150000J0D01*
G01*
X155704000Y-71356500D01*
G75*
G02*
X155554000Y-71206500I0J150000D01*
G01*
X155554000Y-70906500D01*
G75*
G02*
X155704000Y-70756500I150000J0D01*
G01*
X157154000Y-70756500D01*
G75*
G02*
X157304000Y-70906500I0J-150000D01*
G01*
G37*
G36*
G01*
X144346000Y-90391000D02*
X144346000Y-89441000D01*
G75*
G02*
X144596000Y-89191000I250000J0D01*
G01*
X145096000Y-89191000D01*
G75*
G02*
X145346000Y-89441000I0J-250000D01*
G01*
X145346000Y-90391000D01*
G75*
G02*
X145096000Y-90641000I-250000J0D01*
G01*
X144596000Y-90641000D01*
G75*
G02*
X144346000Y-90391000I0J250000D01*
G01*
G37*
G36*
G01*
X146246000Y-90391000D02*
X146246000Y-89441000D01*
G75*
G02*
X146496000Y-89191000I250000J0D01*
G01*
X146996000Y-89191000D01*
G75*
G02*
X147246000Y-89441000I0J-250000D01*
G01*
X147246000Y-90391000D01*
G75*
G02*
X146996000Y-90641000I-250000J0D01*
G01*
X146496000Y-90641000D01*
G75*
G02*
X146246000Y-90391000I0J250000D01*
G01*
G37*
G36*
G01*
X171254000Y-54391500D02*
X172154000Y-54391500D01*
G75*
G02*
X172404000Y-54641500I0J-250000D01*
G01*
X172404000Y-55166500D01*
G75*
G02*
X172154000Y-55416500I-250000J0D01*
G01*
X171254000Y-55416500D01*
G75*
G02*
X171004000Y-55166500I0J250000D01*
G01*
X171004000Y-54641500D01*
G75*
G02*
X171254000Y-54391500I250000J0D01*
G01*
G37*
G36*
G01*
X171254000Y-56216500D02*
X172154000Y-56216500D01*
G75*
G02*
X172404000Y-56466500I0J-250000D01*
G01*
X172404000Y-56991500D01*
G75*
G02*
X172154000Y-57241500I-250000J0D01*
G01*
X171254000Y-57241500D01*
G75*
G02*
X171004000Y-56991500I0J250000D01*
G01*
X171004000Y-56466500D01*
G75*
G02*
X171254000Y-56216500I250000J0D01*
G01*
G37*
G36*
G01*
X103914000Y-104960000D02*
X103914000Y-105860000D01*
G75*
G02*
X103664000Y-106110000I-250000J0D01*
G01*
X103139000Y-106110000D01*
G75*
G02*
X102889000Y-105860000I0J250000D01*
G01*
X102889000Y-104960000D01*
G75*
G02*
X103139000Y-104710000I250000J0D01*
G01*
X103664000Y-104710000D01*
G75*
G02*
X103914000Y-104960000I0J-250000D01*
G01*
G37*
G36*
G01*
X102089000Y-104960000D02*
X102089000Y-105860000D01*
G75*
G02*
X101839000Y-106110000I-250000J0D01*
G01*
X101314000Y-106110000D01*
G75*
G02*
X101064000Y-105860000I0J250000D01*
G01*
X101064000Y-104960000D01*
G75*
G02*
X101314000Y-104710000I250000J0D01*
G01*
X101839000Y-104710000D01*
G75*
G02*
X102089000Y-104960000I0J-250000D01*
G01*
G37*
G36*
G01*
X174023000Y-130188000D02*
X174973000Y-130188000D01*
G75*
G02*
X175223000Y-130438000I0J-250000D01*
G01*
X175223000Y-130938000D01*
G75*
G02*
X174973000Y-131188000I-250000J0D01*
G01*
X174023000Y-131188000D01*
G75*
G02*
X173773000Y-130938000I0J250000D01*
G01*
X173773000Y-130438000D01*
G75*
G02*
X174023000Y-130188000I250000J0D01*
G01*
G37*
G36*
G01*
X174023000Y-132088000D02*
X174973000Y-132088000D01*
G75*
G02*
X175223000Y-132338000I0J-250000D01*
G01*
X175223000Y-132838000D01*
G75*
G02*
X174973000Y-133088000I-250000J0D01*
G01*
X174023000Y-133088000D01*
G75*
G02*
X173773000Y-132838000I0J250000D01*
G01*
X173773000Y-132338000D01*
G75*
G02*
X174023000Y-132088000I250000J0D01*
G01*
G37*
X186818000Y-139573000D03*
X190118000Y-139573000D03*
G36*
G01*
X204746000Y-130578000D02*
X203496000Y-130578000D01*
G75*
G02*
X203346000Y-130428000I0J150000D01*
G01*
X203346000Y-130128000D01*
G75*
G02*
X203496000Y-129978000I150000J0D01*
G01*
X204746000Y-129978000D01*
G75*
G02*
X204896000Y-130128000I0J-150000D01*
G01*
X204896000Y-130428000D01*
G75*
G02*
X204746000Y-130578000I-150000J0D01*
G01*
G37*
G36*
G01*
X204746000Y-129578000D02*
X203496000Y-129578000D01*
G75*
G02*
X203346000Y-129428000I0J150000D01*
G01*
X203346000Y-129128000D01*
G75*
G02*
X203496000Y-128978000I150000J0D01*
G01*
X204746000Y-128978000D01*
G75*
G02*
X204896000Y-129128000I0J-150000D01*
G01*
X204896000Y-129428000D01*
G75*
G02*
X204746000Y-129578000I-150000J0D01*
G01*
G37*
G36*
G01*
X204746000Y-128578000D02*
X203496000Y-128578000D01*
G75*
G02*
X203346000Y-128428000I0J150000D01*
G01*
X203346000Y-128128000D01*
G75*
G02*
X203496000Y-127978000I150000J0D01*
G01*
X204746000Y-127978000D01*
G75*
G02*
X204896000Y-128128000I0J-150000D01*
G01*
X204896000Y-128428000D01*
G75*
G02*
X204746000Y-128578000I-150000J0D01*
G01*
G37*
G36*
G01*
X204746000Y-127578000D02*
X203496000Y-127578000D01*
G75*
G02*
X203346000Y-127428000I0J150000D01*
G01*
X203346000Y-127128000D01*
G75*
G02*
X203496000Y-126978000I150000J0D01*
G01*
X204746000Y-126978000D01*
G75*
G02*
X204896000Y-127128000I0J-150000D01*
G01*
X204896000Y-127428000D01*
G75*
G02*
X204746000Y-127578000I-150000J0D01*
G01*
G37*
G36*
G01*
X208646000Y-132178000D02*
X207346000Y-132178000D01*
G75*
G02*
X207096000Y-131928000I0J250000D01*
G01*
X207096000Y-131228000D01*
G75*
G02*
X207346000Y-130978000I250000J0D01*
G01*
X208646000Y-130978000D01*
G75*
G02*
X208896000Y-131228000I0J-250000D01*
G01*
X208896000Y-131928000D01*
G75*
G02*
X208646000Y-132178000I-250000J0D01*
G01*
G37*
G36*
G01*
X208646000Y-126578000D02*
X207346000Y-126578000D01*
G75*
G02*
X207096000Y-126328000I0J250000D01*
G01*
X207096000Y-125628000D01*
G75*
G02*
X207346000Y-125378000I250000J0D01*
G01*
X208646000Y-125378000D01*
G75*
G02*
X208896000Y-125628000I0J-250000D01*
G01*
X208896000Y-126328000D01*
G75*
G02*
X208646000Y-126578000I-250000J0D01*
G01*
G37*
G36*
G01*
X114939500Y-111818000D02*
X114939500Y-112718000D01*
G75*
G02*
X114689500Y-112968000I-250000J0D01*
G01*
X114164500Y-112968000D01*
G75*
G02*
X113914500Y-112718000I0J250000D01*
G01*
X113914500Y-111818000D01*
G75*
G02*
X114164500Y-111568000I250000J0D01*
G01*
X114689500Y-111568000D01*
G75*
G02*
X114939500Y-111818000I0J-250000D01*
G01*
G37*
G36*
G01*
X113114500Y-111818000D02*
X113114500Y-112718000D01*
G75*
G02*
X112864500Y-112968000I-250000J0D01*
G01*
X112339500Y-112968000D01*
G75*
G02*
X112089500Y-112718000I0J250000D01*
G01*
X112089500Y-111818000D01*
G75*
G02*
X112339500Y-111568000I250000J0D01*
G01*
X112864500Y-111568000D01*
G75*
G02*
X113114500Y-111818000I0J-250000D01*
G01*
G37*
G36*
G01*
X184747000Y-78002000D02*
X184447000Y-78002000D01*
G75*
G02*
X184297000Y-77852000I0J150000D01*
G01*
X184297000Y-76677000D01*
G75*
G02*
X184447000Y-76527000I150000J0D01*
G01*
X184747000Y-76527000D01*
G75*
G02*
X184897000Y-76677000I0J-150000D01*
G01*
X184897000Y-77852000D01*
G75*
G02*
X184747000Y-78002000I-150000J0D01*
G01*
G37*
G36*
G01*
X186647000Y-78002000D02*
X186347000Y-78002000D01*
G75*
G02*
X186197000Y-77852000I0J150000D01*
G01*
X186197000Y-76677000D01*
G75*
G02*
X186347000Y-76527000I150000J0D01*
G01*
X186647000Y-76527000D01*
G75*
G02*
X186797000Y-76677000I0J-150000D01*
G01*
X186797000Y-77852000D01*
G75*
G02*
X186647000Y-78002000I-150000J0D01*
G01*
G37*
G36*
G01*
X185697000Y-76127000D02*
X185397000Y-76127000D01*
G75*
G02*
X185247000Y-75977000I0J150000D01*
G01*
X185247000Y-74802000D01*
G75*
G02*
X185397000Y-74652000I150000J0D01*
G01*
X185697000Y-74652000D01*
G75*
G02*
X185847000Y-74802000I0J-150000D01*
G01*
X185847000Y-75977000D01*
G75*
G02*
X185697000Y-76127000I-150000J0D01*
G01*
G37*
G36*
G01*
X150315000Y-50957500D02*
X150315000Y-50007500D01*
G75*
G02*
X150565000Y-49757500I250000J0D01*
G01*
X151065000Y-49757500D01*
G75*
G02*
X151315000Y-50007500I0J-250000D01*
G01*
X151315000Y-50957500D01*
G75*
G02*
X151065000Y-51207500I-250000J0D01*
G01*
X150565000Y-51207500D01*
G75*
G02*
X150315000Y-50957500I0J250000D01*
G01*
G37*
G36*
G01*
X152215000Y-50957500D02*
X152215000Y-50007500D01*
G75*
G02*
X152465000Y-49757500I250000J0D01*
G01*
X152965000Y-49757500D01*
G75*
G02*
X153215000Y-50007500I0J-250000D01*
G01*
X153215000Y-50957500D01*
G75*
G02*
X152965000Y-51207500I-250000J0D01*
G01*
X152465000Y-51207500D01*
G75*
G02*
X152215000Y-50957500I0J250000D01*
G01*
G37*
G36*
G01*
X103914000Y-117660000D02*
X103914000Y-118560000D01*
G75*
G02*
X103664000Y-118810000I-250000J0D01*
G01*
X103139000Y-118810000D01*
G75*
G02*
X102889000Y-118560000I0J250000D01*
G01*
X102889000Y-117660000D01*
G75*
G02*
X103139000Y-117410000I250000J0D01*
G01*
X103664000Y-117410000D01*
G75*
G02*
X103914000Y-117660000I0J-250000D01*
G01*
G37*
G36*
G01*
X102089000Y-117660000D02*
X102089000Y-118560000D01*
G75*
G02*
X101839000Y-118810000I-250000J0D01*
G01*
X101314000Y-118810000D01*
G75*
G02*
X101064000Y-118560000I0J250000D01*
G01*
X101064000Y-117660000D01*
G75*
G02*
X101314000Y-117410000I250000J0D01*
G01*
X101839000Y-117410000D01*
G75*
G02*
X102089000Y-117660000I0J-250000D01*
G01*
G37*
G36*
G01*
X188140000Y-96045000D02*
X188140000Y-96995000D01*
G75*
G02*
X187890000Y-97245000I-250000J0D01*
G01*
X187390000Y-97245000D01*
G75*
G02*
X187140000Y-96995000I0J250000D01*
G01*
X187140000Y-96045000D01*
G75*
G02*
X187390000Y-95795000I250000J0D01*
G01*
X187890000Y-95795000D01*
G75*
G02*
X188140000Y-96045000I0J-250000D01*
G01*
G37*
G36*
G01*
X186240000Y-96045000D02*
X186240000Y-96995000D01*
G75*
G02*
X185990000Y-97245000I-250000J0D01*
G01*
X185490000Y-97245000D01*
G75*
G02*
X185240000Y-96995000I0J250000D01*
G01*
X185240000Y-96045000D01*
G75*
G02*
X185490000Y-95795000I250000J0D01*
G01*
X185990000Y-95795000D01*
G75*
G02*
X186240000Y-96045000I0J-250000D01*
G01*
G37*
G36*
G01*
X204746000Y-46955552D02*
X203496000Y-46955552D01*
G75*
G02*
X203346000Y-46805552I0J150000D01*
G01*
X203346000Y-46505552D01*
G75*
G02*
X203496000Y-46355552I150000J0D01*
G01*
X204746000Y-46355552D01*
G75*
G02*
X204896000Y-46505552I0J-150000D01*
G01*
X204896000Y-46805552D01*
G75*
G02*
X204746000Y-46955552I-150000J0D01*
G01*
G37*
G36*
G01*
X204746000Y-45955552D02*
X203496000Y-45955552D01*
G75*
G02*
X203346000Y-45805552I0J150000D01*
G01*
X203346000Y-45505552D01*
G75*
G02*
X203496000Y-45355552I150000J0D01*
G01*
X204746000Y-45355552D01*
G75*
G02*
X204896000Y-45505552I0J-150000D01*
G01*
X204896000Y-45805552D01*
G75*
G02*
X204746000Y-45955552I-150000J0D01*
G01*
G37*
G36*
G01*
X204746000Y-44955552D02*
X203496000Y-44955552D01*
G75*
G02*
X203346000Y-44805552I0J150000D01*
G01*
X203346000Y-44505552D01*
G75*
G02*
X203496000Y-44355552I150000J0D01*
G01*
X204746000Y-44355552D01*
G75*
G02*
X204896000Y-44505552I0J-150000D01*
G01*
X204896000Y-44805552D01*
G75*
G02*
X204746000Y-44955552I-150000J0D01*
G01*
G37*
G36*
G01*
X204746000Y-43955552D02*
X203496000Y-43955552D01*
G75*
G02*
X203346000Y-43805552I0J150000D01*
G01*
X203346000Y-43505552D01*
G75*
G02*
X203496000Y-43355552I150000J0D01*
G01*
X204746000Y-43355552D01*
G75*
G02*
X204896000Y-43505552I0J-150000D01*
G01*
X204896000Y-43805552D01*
G75*
G02*
X204746000Y-43955552I-150000J0D01*
G01*
G37*
G36*
G01*
X208646000Y-42955552D02*
X207346000Y-42955552D01*
G75*
G02*
X207096000Y-42705552I0J250000D01*
G01*
X207096000Y-42005552D01*
G75*
G02*
X207346000Y-41755552I250000J0D01*
G01*
X208646000Y-41755552D01*
G75*
G02*
X208896000Y-42005552I0J-250000D01*
G01*
X208896000Y-42705552D01*
G75*
G02*
X208646000Y-42955552I-250000J0D01*
G01*
G37*
G36*
G01*
X208646000Y-48555552D02*
X207346000Y-48555552D01*
G75*
G02*
X207096000Y-48305552I0J250000D01*
G01*
X207096000Y-47605552D01*
G75*
G02*
X207346000Y-47355552I250000J0D01*
G01*
X208646000Y-47355552D01*
G75*
G02*
X208896000Y-47605552I0J-250000D01*
G01*
X208896000Y-48305552D01*
G75*
G02*
X208646000Y-48555552I-250000J0D01*
G01*
G37*
G36*
G01*
X190669000Y-134244000D02*
X189569000Y-134244000D01*
G75*
G02*
X189319000Y-133994000I0J250000D01*
G01*
X189319000Y-130994000D01*
G75*
G02*
X189569000Y-130744000I250000J0D01*
G01*
X190669000Y-130744000D01*
G75*
G02*
X190919000Y-130994000I0J-250000D01*
G01*
X190919000Y-133994000D01*
G75*
G02*
X190669000Y-134244000I-250000J0D01*
G01*
G37*
G36*
G01*
X190669000Y-128844000D02*
X189569000Y-128844000D01*
G75*
G02*
X189319000Y-128594000I0J250000D01*
G01*
X189319000Y-125594000D01*
G75*
G02*
X189569000Y-125344000I250000J0D01*
G01*
X190669000Y-125344000D01*
G75*
G02*
X190919000Y-125594000I0J-250000D01*
G01*
X190919000Y-128594000D01*
G75*
G02*
X190669000Y-128844000I-250000J0D01*
G01*
G37*
G36*
G01*
X180398000Y-54391500D02*
X181298000Y-54391500D01*
G75*
G02*
X181548000Y-54641500I0J-250000D01*
G01*
X181548000Y-55166500D01*
G75*
G02*
X181298000Y-55416500I-250000J0D01*
G01*
X180398000Y-55416500D01*
G75*
G02*
X180148000Y-55166500I0J250000D01*
G01*
X180148000Y-54641500D01*
G75*
G02*
X180398000Y-54391500I250000J0D01*
G01*
G37*
G36*
G01*
X180398000Y-56216500D02*
X181298000Y-56216500D01*
G75*
G02*
X181548000Y-56466500I0J-250000D01*
G01*
X181548000Y-56991500D01*
G75*
G02*
X181298000Y-57241500I-250000J0D01*
G01*
X180398000Y-57241500D01*
G75*
G02*
X180148000Y-56991500I0J250000D01*
G01*
X180148000Y-56466500D01*
G75*
G02*
X180398000Y-56216500I250000J0D01*
G01*
G37*
G36*
G01*
X146108000Y-54391500D02*
X147008000Y-54391500D01*
G75*
G02*
X147258000Y-54641500I0J-250000D01*
G01*
X147258000Y-55166500D01*
G75*
G02*
X147008000Y-55416500I-250000J0D01*
G01*
X146108000Y-55416500D01*
G75*
G02*
X145858000Y-55166500I0J250000D01*
G01*
X145858000Y-54641500D01*
G75*
G02*
X146108000Y-54391500I250000J0D01*
G01*
G37*
G36*
G01*
X146108000Y-56216500D02*
X147008000Y-56216500D01*
G75*
G02*
X147258000Y-56466500I0J-250000D01*
G01*
X147258000Y-56991500D01*
G75*
G02*
X147008000Y-57241500I-250000J0D01*
G01*
X146108000Y-57241500D01*
G75*
G02*
X145858000Y-56991500I0J250000D01*
G01*
X145858000Y-56466500D01*
G75*
G02*
X146108000Y-56216500I250000J0D01*
G01*
G37*
G36*
G01*
X148140000Y-130909000D02*
X149040000Y-130909000D01*
G75*
G02*
X149290000Y-131159000I0J-250000D01*
G01*
X149290000Y-131684000D01*
G75*
G02*
X149040000Y-131934000I-250000J0D01*
G01*
X148140000Y-131934000D01*
G75*
G02*
X147890000Y-131684000I0J250000D01*
G01*
X147890000Y-131159000D01*
G75*
G02*
X148140000Y-130909000I250000J0D01*
G01*
G37*
G36*
G01*
X148140000Y-132734000D02*
X149040000Y-132734000D01*
G75*
G02*
X149290000Y-132984000I0J-250000D01*
G01*
X149290000Y-133509000D01*
G75*
G02*
X149040000Y-133759000I-250000J0D01*
G01*
X148140000Y-133759000D01*
G75*
G02*
X147890000Y-133509000I0J250000D01*
G01*
X147890000Y-132984000D01*
G75*
G02*
X148140000Y-132734000I250000J0D01*
G01*
G37*
G36*
G01*
X149065000Y-129974000D02*
X148115000Y-129974000D01*
G75*
G02*
X147865000Y-129724000I0J250000D01*
G01*
X147865000Y-129224000D01*
G75*
G02*
X148115000Y-128974000I250000J0D01*
G01*
X149065000Y-128974000D01*
G75*
G02*
X149315000Y-129224000I0J-250000D01*
G01*
X149315000Y-129724000D01*
G75*
G02*
X149065000Y-129974000I-250000J0D01*
G01*
G37*
G36*
G01*
X149065000Y-128074000D02*
X148115000Y-128074000D01*
G75*
G02*
X147865000Y-127824000I0J250000D01*
G01*
X147865000Y-127324000D01*
G75*
G02*
X148115000Y-127074000I250000J0D01*
G01*
X149065000Y-127074000D01*
G75*
G02*
X149315000Y-127324000I0J-250000D01*
G01*
X149315000Y-127824000D01*
G75*
G02*
X149065000Y-128074000I-250000J0D01*
G01*
G37*
G36*
G01*
X122302250Y-42730000D02*
X122302250Y-43630000D01*
G75*
G02*
X122052250Y-43880000I-250000J0D01*
G01*
X121527250Y-43880000D01*
G75*
G02*
X121277250Y-43630000I0J250000D01*
G01*
X121277250Y-42730000D01*
G75*
G02*
X121527250Y-42480000I250000J0D01*
G01*
X122052250Y-42480000D01*
G75*
G02*
X122302250Y-42730000I0J-250000D01*
G01*
G37*
G36*
G01*
X120477250Y-42730000D02*
X120477250Y-43630000D01*
G75*
G02*
X120227250Y-43880000I-250000J0D01*
G01*
X119702250Y-43880000D01*
G75*
G02*
X119452250Y-43630000I0J250000D01*
G01*
X119452250Y-42730000D01*
G75*
G02*
X119702250Y-42480000I250000J0D01*
G01*
X120227250Y-42480000D01*
G75*
G02*
X120477250Y-42730000I0J-250000D01*
G01*
G37*
D12*
X144947750Y-141755500D03*
X144947750Y-140485500D03*
X144947750Y-139215500D03*
X144947750Y-137945500D03*
X144947750Y-136675500D03*
X144947750Y-135405500D03*
X144947750Y-134135500D03*
X144947750Y-132865500D03*
X144947750Y-131595500D03*
X144947750Y-130325500D03*
X144947750Y-129055500D03*
X144947750Y-127785500D03*
X144947750Y-126515500D03*
X144947750Y-125245500D03*
D13*
X143182750Y-123995500D03*
X141912750Y-123995500D03*
X140642750Y-123995500D03*
X139372750Y-123995500D03*
X138102750Y-123995500D03*
X136832750Y-123995500D03*
X135562750Y-123995500D03*
X134292750Y-123995500D03*
X133022750Y-123995500D03*
X131752750Y-123995500D03*
X130482750Y-123995500D03*
X129212750Y-123995500D03*
D12*
X127447750Y-125245500D03*
X127447750Y-126515500D03*
X127447750Y-127785500D03*
X127447750Y-129055500D03*
X127447750Y-130325500D03*
X127447750Y-131595500D03*
X127447750Y-132865500D03*
X127447750Y-134135500D03*
X127447750Y-135405500D03*
X127447750Y-136675500D03*
X127447750Y-137945500D03*
X127447750Y-139215500D03*
X127447750Y-140485500D03*
X127447750Y-141755500D03*
D14*
X137697750Y-135435500D03*
X139097750Y-132635500D03*
X136297750Y-135435500D03*
X137697750Y-134035500D03*
X136297750Y-132635500D03*
X136297750Y-134035500D03*
X139097750Y-134035500D03*
X139097750Y-135435500D03*
X137697750Y-132635500D03*
G36*
G01*
X171864000Y-86561000D02*
X172814000Y-86561000D01*
G75*
G02*
X173064000Y-86811000I0J-250000D01*
G01*
X173064000Y-87311000D01*
G75*
G02*
X172814000Y-87561000I-250000J0D01*
G01*
X171864000Y-87561000D01*
G75*
G02*
X171614000Y-87311000I0J250000D01*
G01*
X171614000Y-86811000D01*
G75*
G02*
X171864000Y-86561000I250000J0D01*
G01*
G37*
G36*
G01*
X171864000Y-88461000D02*
X172814000Y-88461000D01*
G75*
G02*
X173064000Y-88711000I0J-250000D01*
G01*
X173064000Y-89211000D01*
G75*
G02*
X172814000Y-89461000I-250000J0D01*
G01*
X171864000Y-89461000D01*
G75*
G02*
X171614000Y-89211000I0J250000D01*
G01*
X171614000Y-88711000D01*
G75*
G02*
X171864000Y-88461000I250000J0D01*
G01*
G37*
G36*
G01*
X144498000Y-44328500D02*
X144498000Y-43428500D01*
G75*
G02*
X144748000Y-43178500I250000J0D01*
G01*
X145273000Y-43178500D01*
G75*
G02*
X145523000Y-43428500I0J-250000D01*
G01*
X145523000Y-44328500D01*
G75*
G02*
X145273000Y-44578500I-250000J0D01*
G01*
X144748000Y-44578500D01*
G75*
G02*
X144498000Y-44328500I0J250000D01*
G01*
G37*
G36*
G01*
X146323000Y-44328500D02*
X146323000Y-43428500D01*
G75*
G02*
X146573000Y-43178500I250000J0D01*
G01*
X147098000Y-43178500D01*
G75*
G02*
X147348000Y-43428500I0J-250000D01*
G01*
X147348000Y-44328500D01*
G75*
G02*
X147098000Y-44578500I-250000J0D01*
G01*
X146573000Y-44578500D01*
G75*
G02*
X146323000Y-44328500I0J250000D01*
G01*
G37*
D15*
X121118550Y-54635400D03*
X125715950Y-54635400D03*
D16*
X103035100Y-140756000D03*
X103035100Y-143256000D03*
X103035100Y-145756000D03*
X108546900Y-140756000D03*
X108546900Y-143256000D03*
X108546900Y-145756000D03*
D11*
X186818000Y-142908866D03*
X190118000Y-142908866D03*
G36*
G01*
X163380000Y-54391500D02*
X164280000Y-54391500D01*
G75*
G02*
X164530000Y-54641500I0J-250000D01*
G01*
X164530000Y-55166500D01*
G75*
G02*
X164280000Y-55416500I-250000J0D01*
G01*
X163380000Y-55416500D01*
G75*
G02*
X163130000Y-55166500I0J250000D01*
G01*
X163130000Y-54641500D01*
G75*
G02*
X163380000Y-54391500I250000J0D01*
G01*
G37*
G36*
G01*
X163380000Y-56216500D02*
X164280000Y-56216500D01*
G75*
G02*
X164530000Y-56466500I0J-250000D01*
G01*
X164530000Y-56991500D01*
G75*
G02*
X164280000Y-57241500I-250000J0D01*
G01*
X163380000Y-57241500D01*
G75*
G02*
X163130000Y-56991500I0J250000D01*
G01*
X163130000Y-56466500D01*
G75*
G02*
X163380000Y-56216500I250000J0D01*
G01*
G37*
G36*
G01*
X133439000Y-66762500D02*
X133139000Y-66762500D01*
G75*
G02*
X132989000Y-66612500I0J150000D01*
G01*
X132989000Y-65437500D01*
G75*
G02*
X133139000Y-65287500I150000J0D01*
G01*
X133439000Y-65287500D01*
G75*
G02*
X133589000Y-65437500I0J-150000D01*
G01*
X133589000Y-66612500D01*
G75*
G02*
X133439000Y-66762500I-150000J0D01*
G01*
G37*
G36*
G01*
X135339000Y-66762500D02*
X135039000Y-66762500D01*
G75*
G02*
X134889000Y-66612500I0J150000D01*
G01*
X134889000Y-65437500D01*
G75*
G02*
X135039000Y-65287500I150000J0D01*
G01*
X135339000Y-65287500D01*
G75*
G02*
X135489000Y-65437500I0J-150000D01*
G01*
X135489000Y-66612500D01*
G75*
G02*
X135339000Y-66762500I-150000J0D01*
G01*
G37*
G36*
G01*
X134389000Y-64887500D02*
X134089000Y-64887500D01*
G75*
G02*
X133939000Y-64737500I0J150000D01*
G01*
X133939000Y-63562500D01*
G75*
G02*
X134089000Y-63412500I150000J0D01*
G01*
X134389000Y-63412500D01*
G75*
G02*
X134539000Y-63562500I0J-150000D01*
G01*
X134539000Y-64737500D01*
G75*
G02*
X134389000Y-64887500I-150000J0D01*
G01*
G37*
G36*
G01*
X195527000Y-74262000D02*
X195527000Y-73312000D01*
G75*
G02*
X195777000Y-73062000I250000J0D01*
G01*
X196277000Y-73062000D01*
G75*
G02*
X196527000Y-73312000I0J-250000D01*
G01*
X196527000Y-74262000D01*
G75*
G02*
X196277000Y-74512000I-250000J0D01*
G01*
X195777000Y-74512000D01*
G75*
G02*
X195527000Y-74262000I0J250000D01*
G01*
G37*
G36*
G01*
X197427000Y-74262000D02*
X197427000Y-73312000D01*
G75*
G02*
X197677000Y-73062000I250000J0D01*
G01*
X198177000Y-73062000D01*
G75*
G02*
X198427000Y-73312000I0J-250000D01*
G01*
X198427000Y-74262000D01*
G75*
G02*
X198177000Y-74512000I-250000J0D01*
G01*
X197677000Y-74512000D01*
G75*
G02*
X197427000Y-74262000I0J250000D01*
G01*
G37*
G36*
G01*
X103914000Y-120962000D02*
X103914000Y-121862000D01*
G75*
G02*
X103664000Y-122112000I-250000J0D01*
G01*
X103139000Y-122112000D01*
G75*
G02*
X102889000Y-121862000I0J250000D01*
G01*
X102889000Y-120962000D01*
G75*
G02*
X103139000Y-120712000I250000J0D01*
G01*
X103664000Y-120712000D01*
G75*
G02*
X103914000Y-120962000I0J-250000D01*
G01*
G37*
G36*
G01*
X102089000Y-120962000D02*
X102089000Y-121862000D01*
G75*
G02*
X101839000Y-122112000I-250000J0D01*
G01*
X101314000Y-122112000D01*
G75*
G02*
X101064000Y-121862000I0J250000D01*
G01*
X101064000Y-120962000D01*
G75*
G02*
X101314000Y-120712000I250000J0D01*
G01*
X101839000Y-120712000D01*
G75*
G02*
X102089000Y-120962000I0J-250000D01*
G01*
G37*
G36*
G01*
X204746000Y-122069000D02*
X203496000Y-122069000D01*
G75*
G02*
X203346000Y-121919000I0J150000D01*
G01*
X203346000Y-121619000D01*
G75*
G02*
X203496000Y-121469000I150000J0D01*
G01*
X204746000Y-121469000D01*
G75*
G02*
X204896000Y-121619000I0J-150000D01*
G01*
X204896000Y-121919000D01*
G75*
G02*
X204746000Y-122069000I-150000J0D01*
G01*
G37*
G36*
G01*
X204746000Y-121069000D02*
X203496000Y-121069000D01*
G75*
G02*
X203346000Y-120919000I0J150000D01*
G01*
X203346000Y-120619000D01*
G75*
G02*
X203496000Y-120469000I150000J0D01*
G01*
X204746000Y-120469000D01*
G75*
G02*
X204896000Y-120619000I0J-150000D01*
G01*
X204896000Y-120919000D01*
G75*
G02*
X204746000Y-121069000I-150000J0D01*
G01*
G37*
G36*
G01*
X204746000Y-120069000D02*
X203496000Y-120069000D01*
G75*
G02*
X203346000Y-119919000I0J150000D01*
G01*
X203346000Y-119619000D01*
G75*
G02*
X203496000Y-119469000I150000J0D01*
G01*
X204746000Y-119469000D01*
G75*
G02*
X204896000Y-119619000I0J-150000D01*
G01*
X204896000Y-119919000D01*
G75*
G02*
X204746000Y-120069000I-150000J0D01*
G01*
G37*
G36*
G01*
X204746000Y-119069000D02*
X203496000Y-119069000D01*
G75*
G02*
X203346000Y-118919000I0J150000D01*
G01*
X203346000Y-118619000D01*
G75*
G02*
X203496000Y-118469000I150000J0D01*
G01*
X204746000Y-118469000D01*
G75*
G02*
X204896000Y-118619000I0J-150000D01*
G01*
X204896000Y-118919000D01*
G75*
G02*
X204746000Y-119069000I-150000J0D01*
G01*
G37*
G36*
G01*
X208646000Y-118069000D02*
X207346000Y-118069000D01*
G75*
G02*
X207096000Y-117819000I0J250000D01*
G01*
X207096000Y-117119000D01*
G75*
G02*
X207346000Y-116869000I250000J0D01*
G01*
X208646000Y-116869000D01*
G75*
G02*
X208896000Y-117119000I0J-250000D01*
G01*
X208896000Y-117819000D01*
G75*
G02*
X208646000Y-118069000I-250000J0D01*
G01*
G37*
G36*
G01*
X208646000Y-123669000D02*
X207346000Y-123669000D01*
G75*
G02*
X207096000Y-123419000I0J250000D01*
G01*
X207096000Y-122719000D01*
G75*
G02*
X207346000Y-122469000I250000J0D01*
G01*
X208646000Y-122469000D01*
G75*
G02*
X208896000Y-122719000I0J-250000D01*
G01*
X208896000Y-123419000D01*
G75*
G02*
X208646000Y-123669000I-250000J0D01*
G01*
G37*
G36*
G01*
X170208000Y-46730500D02*
X170208000Y-47630500D01*
G75*
G02*
X169958000Y-47880500I-250000J0D01*
G01*
X169433000Y-47880500D01*
G75*
G02*
X169183000Y-47630500I0J250000D01*
G01*
X169183000Y-46730500D01*
G75*
G02*
X169433000Y-46480500I250000J0D01*
G01*
X169958000Y-46480500D01*
G75*
G02*
X170208000Y-46730500I0J-250000D01*
G01*
G37*
G36*
G01*
X168383000Y-46730500D02*
X168383000Y-47630500D01*
G75*
G02*
X168133000Y-47880500I-250000J0D01*
G01*
X167608000Y-47880500D01*
G75*
G02*
X167358000Y-47630500I0J250000D01*
G01*
X167358000Y-46730500D01*
G75*
G02*
X167608000Y-46480500I250000J0D01*
G01*
X168133000Y-46480500D01*
G75*
G02*
X168383000Y-46730500I0J-250000D01*
G01*
G37*
G36*
G01*
X124386000Y-84361000D02*
X124386000Y-85311000D01*
G75*
G02*
X124136000Y-85561000I-250000J0D01*
G01*
X123636000Y-85561000D01*
G75*
G02*
X123386000Y-85311000I0J250000D01*
G01*
X123386000Y-84361000D01*
G75*
G02*
X123636000Y-84111000I250000J0D01*
G01*
X124136000Y-84111000D01*
G75*
G02*
X124386000Y-84361000I0J-250000D01*
G01*
G37*
G36*
G01*
X122486000Y-84361000D02*
X122486000Y-85311000D01*
G75*
G02*
X122236000Y-85561000I-250000J0D01*
G01*
X121736000Y-85561000D01*
G75*
G02*
X121486000Y-85311000I0J250000D01*
G01*
X121486000Y-84361000D01*
G75*
G02*
X121736000Y-84111000I250000J0D01*
G01*
X122236000Y-84111000D01*
G75*
G02*
X122486000Y-84361000I0J-250000D01*
G01*
G37*
G36*
G01*
X195624000Y-94280000D02*
X195624000Y-94480000D01*
G75*
G02*
X195524000Y-94580000I-100000J0D01*
G01*
X194249000Y-94580000D01*
G75*
G02*
X194149000Y-94480000I0J100000D01*
G01*
X194149000Y-94280000D01*
G75*
G02*
X194249000Y-94180000I100000J0D01*
G01*
X195524000Y-94180000D01*
G75*
G02*
X195624000Y-94280000I0J-100000D01*
G01*
G37*
G36*
G01*
X195624000Y-93630000D02*
X195624000Y-93830000D01*
G75*
G02*
X195524000Y-93930000I-100000J0D01*
G01*
X194249000Y-93930000D01*
G75*
G02*
X194149000Y-93830000I0J100000D01*
G01*
X194149000Y-93630000D01*
G75*
G02*
X194249000Y-93530000I100000J0D01*
G01*
X195524000Y-93530000D01*
G75*
G02*
X195624000Y-93630000I0J-100000D01*
G01*
G37*
G36*
G01*
X195624000Y-92980000D02*
X195624000Y-93180000D01*
G75*
G02*
X195524000Y-93280000I-100000J0D01*
G01*
X194249000Y-93280000D01*
G75*
G02*
X194149000Y-93180000I0J100000D01*
G01*
X194149000Y-92980000D01*
G75*
G02*
X194249000Y-92880000I100000J0D01*
G01*
X195524000Y-92880000D01*
G75*
G02*
X195624000Y-92980000I0J-100000D01*
G01*
G37*
G36*
G01*
X195624000Y-92330000D02*
X195624000Y-92530000D01*
G75*
G02*
X195524000Y-92630000I-100000J0D01*
G01*
X194249000Y-92630000D01*
G75*
G02*
X194149000Y-92530000I0J100000D01*
G01*
X194149000Y-92330000D01*
G75*
G02*
X194249000Y-92230000I100000J0D01*
G01*
X195524000Y-92230000D01*
G75*
G02*
X195624000Y-92330000I0J-100000D01*
G01*
G37*
G36*
G01*
X195624000Y-91680000D02*
X195624000Y-91880000D01*
G75*
G02*
X195524000Y-91980000I-100000J0D01*
G01*
X194249000Y-91980000D01*
G75*
G02*
X194149000Y-91880000I0J100000D01*
G01*
X194149000Y-91680000D01*
G75*
G02*
X194249000Y-91580000I100000J0D01*
G01*
X195524000Y-91580000D01*
G75*
G02*
X195624000Y-91680000I0J-100000D01*
G01*
G37*
G36*
G01*
X195624000Y-91030000D02*
X195624000Y-91230000D01*
G75*
G02*
X195524000Y-91330000I-100000J0D01*
G01*
X194249000Y-91330000D01*
G75*
G02*
X194149000Y-91230000I0J100000D01*
G01*
X194149000Y-91030000D01*
G75*
G02*
X194249000Y-90930000I100000J0D01*
G01*
X195524000Y-90930000D01*
G75*
G02*
X195624000Y-91030000I0J-100000D01*
G01*
G37*
G36*
G01*
X195624000Y-90380000D02*
X195624000Y-90580000D01*
G75*
G02*
X195524000Y-90680000I-100000J0D01*
G01*
X194249000Y-90680000D01*
G75*
G02*
X194149000Y-90580000I0J100000D01*
G01*
X194149000Y-90380000D01*
G75*
G02*
X194249000Y-90280000I100000J0D01*
G01*
X195524000Y-90280000D01*
G75*
G02*
X195624000Y-90380000I0J-100000D01*
G01*
G37*
G36*
G01*
X195624000Y-89730000D02*
X195624000Y-89930000D01*
G75*
G02*
X195524000Y-90030000I-100000J0D01*
G01*
X194249000Y-90030000D01*
G75*
G02*
X194149000Y-89930000I0J100000D01*
G01*
X194149000Y-89730000D01*
G75*
G02*
X194249000Y-89630000I100000J0D01*
G01*
X195524000Y-89630000D01*
G75*
G02*
X195624000Y-89730000I0J-100000D01*
G01*
G37*
G36*
G01*
X195624000Y-89080000D02*
X195624000Y-89280000D01*
G75*
G02*
X195524000Y-89380000I-100000J0D01*
G01*
X194249000Y-89380000D01*
G75*
G02*
X194149000Y-89280000I0J100000D01*
G01*
X194149000Y-89080000D01*
G75*
G02*
X194249000Y-88980000I100000J0D01*
G01*
X195524000Y-88980000D01*
G75*
G02*
X195624000Y-89080000I0J-100000D01*
G01*
G37*
G36*
G01*
X195624000Y-88430000D02*
X195624000Y-88630000D01*
G75*
G02*
X195524000Y-88730000I-100000J0D01*
G01*
X194249000Y-88730000D01*
G75*
G02*
X194149000Y-88630000I0J100000D01*
G01*
X194149000Y-88430000D01*
G75*
G02*
X194249000Y-88330000I100000J0D01*
G01*
X195524000Y-88330000D01*
G75*
G02*
X195624000Y-88430000I0J-100000D01*
G01*
G37*
G36*
G01*
X195624000Y-87780000D02*
X195624000Y-87980000D01*
G75*
G02*
X195524000Y-88080000I-100000J0D01*
G01*
X194249000Y-88080000D01*
G75*
G02*
X194149000Y-87980000I0J100000D01*
G01*
X194149000Y-87780000D01*
G75*
G02*
X194249000Y-87680000I100000J0D01*
G01*
X195524000Y-87680000D01*
G75*
G02*
X195624000Y-87780000I0J-100000D01*
G01*
G37*
G36*
G01*
X195624000Y-87130000D02*
X195624000Y-87330000D01*
G75*
G02*
X195524000Y-87430000I-100000J0D01*
G01*
X194249000Y-87430000D01*
G75*
G02*
X194149000Y-87330000I0J100000D01*
G01*
X194149000Y-87130000D01*
G75*
G02*
X194249000Y-87030000I100000J0D01*
G01*
X195524000Y-87030000D01*
G75*
G02*
X195624000Y-87130000I0J-100000D01*
G01*
G37*
G36*
G01*
X189899000Y-87130000D02*
X189899000Y-87330000D01*
G75*
G02*
X189799000Y-87430000I-100000J0D01*
G01*
X188524000Y-87430000D01*
G75*
G02*
X188424000Y-87330000I0J100000D01*
G01*
X188424000Y-87130000D01*
G75*
G02*
X188524000Y-87030000I100000J0D01*
G01*
X189799000Y-87030000D01*
G75*
G02*
X189899000Y-87130000I0J-100000D01*
G01*
G37*
G36*
G01*
X189899000Y-87780000D02*
X189899000Y-87980000D01*
G75*
G02*
X189799000Y-88080000I-100000J0D01*
G01*
X188524000Y-88080000D01*
G75*
G02*
X188424000Y-87980000I0J100000D01*
G01*
X188424000Y-87780000D01*
G75*
G02*
X188524000Y-87680000I100000J0D01*
G01*
X189799000Y-87680000D01*
G75*
G02*
X189899000Y-87780000I0J-100000D01*
G01*
G37*
G36*
G01*
X189899000Y-88430000D02*
X189899000Y-88630000D01*
G75*
G02*
X189799000Y-88730000I-100000J0D01*
G01*
X188524000Y-88730000D01*
G75*
G02*
X188424000Y-88630000I0J100000D01*
G01*
X188424000Y-88430000D01*
G75*
G02*
X188524000Y-88330000I100000J0D01*
G01*
X189799000Y-88330000D01*
G75*
G02*
X189899000Y-88430000I0J-100000D01*
G01*
G37*
G36*
G01*
X189899000Y-89080000D02*
X189899000Y-89280000D01*
G75*
G02*
X189799000Y-89380000I-100000J0D01*
G01*
X188524000Y-89380000D01*
G75*
G02*
X188424000Y-89280000I0J100000D01*
G01*
X188424000Y-89080000D01*
G75*
G02*
X188524000Y-88980000I100000J0D01*
G01*
X189799000Y-88980000D01*
G75*
G02*
X189899000Y-89080000I0J-100000D01*
G01*
G37*
G36*
G01*
X189899000Y-89730000D02*
X189899000Y-89930000D01*
G75*
G02*
X189799000Y-90030000I-100000J0D01*
G01*
X188524000Y-90030000D01*
G75*
G02*
X188424000Y-89930000I0J100000D01*
G01*
X188424000Y-89730000D01*
G75*
G02*
X188524000Y-89630000I100000J0D01*
G01*
X189799000Y-89630000D01*
G75*
G02*
X189899000Y-89730000I0J-100000D01*
G01*
G37*
G36*
G01*
X189899000Y-90380000D02*
X189899000Y-90580000D01*
G75*
G02*
X189799000Y-90680000I-100000J0D01*
G01*
X188524000Y-90680000D01*
G75*
G02*
X188424000Y-90580000I0J100000D01*
G01*
X188424000Y-90380000D01*
G75*
G02*
X188524000Y-90280000I100000J0D01*
G01*
X189799000Y-90280000D01*
G75*
G02*
X189899000Y-90380000I0J-100000D01*
G01*
G37*
G36*
G01*
X189899000Y-91030000D02*
X189899000Y-91230000D01*
G75*
G02*
X189799000Y-91330000I-100000J0D01*
G01*
X188524000Y-91330000D01*
G75*
G02*
X188424000Y-91230000I0J100000D01*
G01*
X188424000Y-91030000D01*
G75*
G02*
X188524000Y-90930000I100000J0D01*
G01*
X189799000Y-90930000D01*
G75*
G02*
X189899000Y-91030000I0J-100000D01*
G01*
G37*
G36*
G01*
X189899000Y-91680000D02*
X189899000Y-91880000D01*
G75*
G02*
X189799000Y-91980000I-100000J0D01*
G01*
X188524000Y-91980000D01*
G75*
G02*
X188424000Y-91880000I0J100000D01*
G01*
X188424000Y-91680000D01*
G75*
G02*
X188524000Y-91580000I100000J0D01*
G01*
X189799000Y-91580000D01*
G75*
G02*
X189899000Y-91680000I0J-100000D01*
G01*
G37*
G36*
G01*
X189899000Y-92330000D02*
X189899000Y-92530000D01*
G75*
G02*
X189799000Y-92630000I-100000J0D01*
G01*
X188524000Y-92630000D01*
G75*
G02*
X188424000Y-92530000I0J100000D01*
G01*
X188424000Y-92330000D01*
G75*
G02*
X188524000Y-92230000I100000J0D01*
G01*
X189799000Y-92230000D01*
G75*
G02*
X189899000Y-92330000I0J-100000D01*
G01*
G37*
G36*
G01*
X189899000Y-92980000D02*
X189899000Y-93180000D01*
G75*
G02*
X189799000Y-93280000I-100000J0D01*
G01*
X188524000Y-93280000D01*
G75*
G02*
X188424000Y-93180000I0J100000D01*
G01*
X188424000Y-92980000D01*
G75*
G02*
X188524000Y-92880000I100000J0D01*
G01*
X189799000Y-92880000D01*
G75*
G02*
X189899000Y-92980000I0J-100000D01*
G01*
G37*
G36*
G01*
X189899000Y-93630000D02*
X189899000Y-93830000D01*
G75*
G02*
X189799000Y-93930000I-100000J0D01*
G01*
X188524000Y-93930000D01*
G75*
G02*
X188424000Y-93830000I0J100000D01*
G01*
X188424000Y-93630000D01*
G75*
G02*
X188524000Y-93530000I100000J0D01*
G01*
X189799000Y-93530000D01*
G75*
G02*
X189899000Y-93630000I0J-100000D01*
G01*
G37*
G36*
G01*
X189899000Y-94280000D02*
X189899000Y-94480000D01*
G75*
G02*
X189799000Y-94580000I-100000J0D01*
G01*
X188524000Y-94580000D01*
G75*
G02*
X188424000Y-94480000I0J100000D01*
G01*
X188424000Y-94280000D01*
G75*
G02*
X188524000Y-94180000I100000J0D01*
G01*
X189799000Y-94180000D01*
G75*
G02*
X189899000Y-94280000I0J-100000D01*
G01*
G37*
G36*
G01*
X103977500Y-133662000D02*
X103977500Y-134562000D01*
G75*
G02*
X103727500Y-134812000I-250000J0D01*
G01*
X103202500Y-134812000D01*
G75*
G02*
X102952500Y-134562000I0J250000D01*
G01*
X102952500Y-133662000D01*
G75*
G02*
X103202500Y-133412000I250000J0D01*
G01*
X103727500Y-133412000D01*
G75*
G02*
X103977500Y-133662000I0J-250000D01*
G01*
G37*
G36*
G01*
X102152500Y-133662000D02*
X102152500Y-134562000D01*
G75*
G02*
X101902500Y-134812000I-250000J0D01*
G01*
X101377500Y-134812000D01*
G75*
G02*
X101127500Y-134562000I0J250000D01*
G01*
X101127500Y-133662000D01*
G75*
G02*
X101377500Y-133412000I250000J0D01*
G01*
X101902500Y-133412000D01*
G75*
G02*
X102152500Y-133662000I0J-250000D01*
G01*
G37*
G36*
G01*
X167729000Y-77938500D02*
X167429000Y-77938500D01*
G75*
G02*
X167279000Y-77788500I0J150000D01*
G01*
X167279000Y-76613500D01*
G75*
G02*
X167429000Y-76463500I150000J0D01*
G01*
X167729000Y-76463500D01*
G75*
G02*
X167879000Y-76613500I0J-150000D01*
G01*
X167879000Y-77788500D01*
G75*
G02*
X167729000Y-77938500I-150000J0D01*
G01*
G37*
G36*
G01*
X169629000Y-77938500D02*
X169329000Y-77938500D01*
G75*
G02*
X169179000Y-77788500I0J150000D01*
G01*
X169179000Y-76613500D01*
G75*
G02*
X169329000Y-76463500I150000J0D01*
G01*
X169629000Y-76463500D01*
G75*
G02*
X169779000Y-76613500I0J-150000D01*
G01*
X169779000Y-77788500D01*
G75*
G02*
X169629000Y-77938500I-150000J0D01*
G01*
G37*
G36*
G01*
X168679000Y-76063500D02*
X168379000Y-76063500D01*
G75*
G02*
X168229000Y-75913500I0J150000D01*
G01*
X168229000Y-74738500D01*
G75*
G02*
X168379000Y-74588500I150000J0D01*
G01*
X168679000Y-74588500D01*
G75*
G02*
X168829000Y-74738500I0J-150000D01*
G01*
X168829000Y-75913500D01*
G75*
G02*
X168679000Y-76063500I-150000J0D01*
G01*
G37*
G36*
G01*
X103914000Y-63558000D02*
X103914000Y-64458000D01*
G75*
G02*
X103664000Y-64708000I-250000J0D01*
G01*
X103139000Y-64708000D01*
G75*
G02*
X102889000Y-64458000I0J250000D01*
G01*
X102889000Y-63558000D01*
G75*
G02*
X103139000Y-63308000I250000J0D01*
G01*
X103664000Y-63308000D01*
G75*
G02*
X103914000Y-63558000I0J-250000D01*
G01*
G37*
G36*
G01*
X102089000Y-63558000D02*
X102089000Y-64458000D01*
G75*
G02*
X101839000Y-64708000I-250000J0D01*
G01*
X101314000Y-64708000D01*
G75*
G02*
X101064000Y-64458000I0J250000D01*
G01*
X101064000Y-63558000D01*
G75*
G02*
X101314000Y-63308000I250000J0D01*
G01*
X101839000Y-63308000D01*
G75*
G02*
X102089000Y-63558000I0J-250000D01*
G01*
G37*
G36*
G01*
X131503000Y-89634000D02*
X132403000Y-89634000D01*
G75*
G02*
X132653000Y-89884000I0J-250000D01*
G01*
X132653000Y-90409000D01*
G75*
G02*
X132403000Y-90659000I-250000J0D01*
G01*
X131503000Y-90659000D01*
G75*
G02*
X131253000Y-90409000I0J250000D01*
G01*
X131253000Y-89884000D01*
G75*
G02*
X131503000Y-89634000I250000J0D01*
G01*
G37*
G36*
G01*
X131503000Y-91459000D02*
X132403000Y-91459000D01*
G75*
G02*
X132653000Y-91709000I0J-250000D01*
G01*
X132653000Y-92234000D01*
G75*
G02*
X132403000Y-92484000I-250000J0D01*
G01*
X131503000Y-92484000D01*
G75*
G02*
X131253000Y-92234000I0J250000D01*
G01*
X131253000Y-91709000D01*
G75*
G02*
X131503000Y-91459000I250000J0D01*
G01*
G37*
G36*
G01*
X117482888Y-27664000D02*
X117482888Y-28914000D01*
G75*
G02*
X117332888Y-29064000I-150000J0D01*
G01*
X117032888Y-29064000D01*
G75*
G02*
X116882888Y-28914000I0J150000D01*
G01*
X116882888Y-27664000D01*
G75*
G02*
X117032888Y-27514000I150000J0D01*
G01*
X117332888Y-27514000D01*
G75*
G02*
X117482888Y-27664000I0J-150000D01*
G01*
G37*
G36*
G01*
X116482888Y-27664000D02*
X116482888Y-28914000D01*
G75*
G02*
X116332888Y-29064000I-150000J0D01*
G01*
X116032888Y-29064000D01*
G75*
G02*
X115882888Y-28914000I0J150000D01*
G01*
X115882888Y-27664000D01*
G75*
G02*
X116032888Y-27514000I150000J0D01*
G01*
X116332888Y-27514000D01*
G75*
G02*
X116482888Y-27664000I0J-150000D01*
G01*
G37*
G36*
G01*
X115482888Y-27664000D02*
X115482888Y-28914000D01*
G75*
G02*
X115332888Y-29064000I-150000J0D01*
G01*
X115032888Y-29064000D01*
G75*
G02*
X114882888Y-28914000I0J150000D01*
G01*
X114882888Y-27664000D01*
G75*
G02*
X115032888Y-27514000I150000J0D01*
G01*
X115332888Y-27514000D01*
G75*
G02*
X115482888Y-27664000I0J-150000D01*
G01*
G37*
G36*
G01*
X114482888Y-27664000D02*
X114482888Y-28914000D01*
G75*
G02*
X114332888Y-29064000I-150000J0D01*
G01*
X114032888Y-29064000D01*
G75*
G02*
X113882888Y-28914000I0J150000D01*
G01*
X113882888Y-27664000D01*
G75*
G02*
X114032888Y-27514000I150000J0D01*
G01*
X114332888Y-27514000D01*
G75*
G02*
X114482888Y-27664000I0J-150000D01*
G01*
G37*
G36*
G01*
X113482888Y-23764000D02*
X113482888Y-25064000D01*
G75*
G02*
X113232888Y-25314000I-250000J0D01*
G01*
X112532888Y-25314000D01*
G75*
G02*
X112282888Y-25064000I0J250000D01*
G01*
X112282888Y-23764000D01*
G75*
G02*
X112532888Y-23514000I250000J0D01*
G01*
X113232888Y-23514000D01*
G75*
G02*
X113482888Y-23764000I0J-250000D01*
G01*
G37*
G36*
G01*
X119082888Y-23764000D02*
X119082888Y-25064000D01*
G75*
G02*
X118832888Y-25314000I-250000J0D01*
G01*
X118132888Y-25314000D01*
G75*
G02*
X117882888Y-25064000I0J250000D01*
G01*
X117882888Y-23764000D01*
G75*
G02*
X118132888Y-23514000I250000J0D01*
G01*
X118832888Y-23514000D01*
G75*
G02*
X119082888Y-23764000I0J-250000D01*
G01*
G37*
G36*
G01*
X182527000Y-109659000D02*
X182527000Y-110559000D01*
G75*
G02*
X182277000Y-110809000I-250000J0D01*
G01*
X181752000Y-110809000D01*
G75*
G02*
X181502000Y-110559000I0J250000D01*
G01*
X181502000Y-109659000D01*
G75*
G02*
X181752000Y-109409000I250000J0D01*
G01*
X182277000Y-109409000D01*
G75*
G02*
X182527000Y-109659000I0J-250000D01*
G01*
G37*
G36*
G01*
X180702000Y-109659000D02*
X180702000Y-110559000D01*
G75*
G02*
X180452000Y-110809000I-250000J0D01*
G01*
X179927000Y-110809000D01*
G75*
G02*
X179677000Y-110559000I0J250000D01*
G01*
X179677000Y-109659000D01*
G75*
G02*
X179927000Y-109409000I250000J0D01*
G01*
X180452000Y-109409000D01*
G75*
G02*
X180702000Y-109659000I0J-250000D01*
G01*
G37*
G36*
G01*
X103914000Y-66860000D02*
X103914000Y-67760000D01*
G75*
G02*
X103664000Y-68010000I-250000J0D01*
G01*
X103139000Y-68010000D01*
G75*
G02*
X102889000Y-67760000I0J250000D01*
G01*
X102889000Y-66860000D01*
G75*
G02*
X103139000Y-66610000I250000J0D01*
G01*
X103664000Y-66610000D01*
G75*
G02*
X103914000Y-66860000I0J-250000D01*
G01*
G37*
G36*
G01*
X102089000Y-66860000D02*
X102089000Y-67760000D01*
G75*
G02*
X101839000Y-68010000I-250000J0D01*
G01*
X101314000Y-68010000D01*
G75*
G02*
X101064000Y-67760000I0J250000D01*
G01*
X101064000Y-66860000D01*
G75*
G02*
X101314000Y-66610000I250000J0D01*
G01*
X101839000Y-66610000D01*
G75*
G02*
X102089000Y-66860000I0J-250000D01*
G01*
G37*
G36*
G01*
X154902000Y-77938500D02*
X154602000Y-77938500D01*
G75*
G02*
X154452000Y-77788500I0J150000D01*
G01*
X154452000Y-76613500D01*
G75*
G02*
X154602000Y-76463500I150000J0D01*
G01*
X154902000Y-76463500D01*
G75*
G02*
X155052000Y-76613500I0J-150000D01*
G01*
X155052000Y-77788500D01*
G75*
G02*
X154902000Y-77938500I-150000J0D01*
G01*
G37*
G36*
G01*
X156802000Y-77938500D02*
X156502000Y-77938500D01*
G75*
G02*
X156352000Y-77788500I0J150000D01*
G01*
X156352000Y-76613500D01*
G75*
G02*
X156502000Y-76463500I150000J0D01*
G01*
X156802000Y-76463500D01*
G75*
G02*
X156952000Y-76613500I0J-150000D01*
G01*
X156952000Y-77788500D01*
G75*
G02*
X156802000Y-77938500I-150000J0D01*
G01*
G37*
G36*
G01*
X155852000Y-76063500D02*
X155552000Y-76063500D01*
G75*
G02*
X155402000Y-75913500I0J150000D01*
G01*
X155402000Y-74738500D01*
G75*
G02*
X155552000Y-74588500I150000J0D01*
G01*
X155852000Y-74588500D01*
G75*
G02*
X156002000Y-74738500I0J-150000D01*
G01*
X156002000Y-75913500D01*
G75*
G02*
X155852000Y-76063500I-150000J0D01*
G01*
G37*
G36*
G01*
X135918000Y-46730500D02*
X135918000Y-47630500D01*
G75*
G02*
X135668000Y-47880500I-250000J0D01*
G01*
X135143000Y-47880500D01*
G75*
G02*
X134893000Y-47630500I0J250000D01*
G01*
X134893000Y-46730500D01*
G75*
G02*
X135143000Y-46480500I250000J0D01*
G01*
X135668000Y-46480500D01*
G75*
G02*
X135918000Y-46730500I0J-250000D01*
G01*
G37*
G36*
G01*
X134093000Y-46730500D02*
X134093000Y-47630500D01*
G75*
G02*
X133843000Y-47880500I-250000J0D01*
G01*
X133318000Y-47880500D01*
G75*
G02*
X133068000Y-47630500I0J250000D01*
G01*
X133068000Y-46730500D01*
G75*
G02*
X133318000Y-46480500I250000J0D01*
G01*
X133843000Y-46480500D01*
G75*
G02*
X134093000Y-46730500I0J-250000D01*
G01*
G37*
G36*
G01*
X135603000Y-57266500D02*
X134653000Y-57266500D01*
G75*
G02*
X134403000Y-57016500I0J250000D01*
G01*
X134403000Y-56516500D01*
G75*
G02*
X134653000Y-56266500I250000J0D01*
G01*
X135603000Y-56266500D01*
G75*
G02*
X135853000Y-56516500I0J-250000D01*
G01*
X135853000Y-57016500D01*
G75*
G02*
X135603000Y-57266500I-250000J0D01*
G01*
G37*
G36*
G01*
X135603000Y-55366500D02*
X134653000Y-55366500D01*
G75*
G02*
X134403000Y-55116500I0J250000D01*
G01*
X134403000Y-54616500D01*
G75*
G02*
X134653000Y-54366500I250000J0D01*
G01*
X135603000Y-54366500D01*
G75*
G02*
X135853000Y-54616500I0J-250000D01*
G01*
X135853000Y-55116500D01*
G75*
G02*
X135603000Y-55366500I-250000J0D01*
G01*
G37*
G36*
G01*
X171737000Y-101293000D02*
X172687000Y-101293000D01*
G75*
G02*
X172937000Y-101543000I0J-250000D01*
G01*
X172937000Y-102043000D01*
G75*
G02*
X172687000Y-102293000I-250000J0D01*
G01*
X171737000Y-102293000D01*
G75*
G02*
X171487000Y-102043000I0J250000D01*
G01*
X171487000Y-101543000D01*
G75*
G02*
X171737000Y-101293000I250000J0D01*
G01*
G37*
G36*
G01*
X171737000Y-103193000D02*
X172687000Y-103193000D01*
G75*
G02*
X172937000Y-103443000I0J-250000D01*
G01*
X172937000Y-103943000D01*
G75*
G02*
X172687000Y-104193000I-250000J0D01*
G01*
X171737000Y-104193000D01*
G75*
G02*
X171487000Y-103943000I0J250000D01*
G01*
X171487000Y-103443000D01*
G75*
G02*
X171737000Y-103193000I250000J0D01*
G01*
G37*
G36*
G01*
X133439000Y-72350500D02*
X133139000Y-72350500D01*
G75*
G02*
X132989000Y-72200500I0J150000D01*
G01*
X132989000Y-71025500D01*
G75*
G02*
X133139000Y-70875500I150000J0D01*
G01*
X133439000Y-70875500D01*
G75*
G02*
X133589000Y-71025500I0J-150000D01*
G01*
X133589000Y-72200500D01*
G75*
G02*
X133439000Y-72350500I-150000J0D01*
G01*
G37*
G36*
G01*
X135339000Y-72350500D02*
X135039000Y-72350500D01*
G75*
G02*
X134889000Y-72200500I0J150000D01*
G01*
X134889000Y-71025500D01*
G75*
G02*
X135039000Y-70875500I150000J0D01*
G01*
X135339000Y-70875500D01*
G75*
G02*
X135489000Y-71025500I0J-150000D01*
G01*
X135489000Y-72200500D01*
G75*
G02*
X135339000Y-72350500I-150000J0D01*
G01*
G37*
G36*
G01*
X134389000Y-70475500D02*
X134089000Y-70475500D01*
G75*
G02*
X133939000Y-70325500I0J150000D01*
G01*
X133939000Y-69150500D01*
G75*
G02*
X134089000Y-69000500I150000J0D01*
G01*
X134389000Y-69000500D01*
G75*
G02*
X134539000Y-69150500I0J-150000D01*
G01*
X134539000Y-70325500D01*
G75*
G02*
X134389000Y-70475500I-150000J0D01*
G01*
G37*
G36*
G01*
X81302000Y-118375000D02*
X82502000Y-118375000D01*
G75*
G02*
X82702000Y-118575000I0J-200000D01*
G01*
X82702000Y-118975000D01*
G75*
G02*
X82502000Y-119175000I-200000J0D01*
G01*
X81302000Y-119175000D01*
G75*
G02*
X81102000Y-118975000I0J200000D01*
G01*
X81102000Y-118575000D01*
G75*
G02*
X81302000Y-118375000I200000J0D01*
G01*
G37*
G36*
G01*
X81302000Y-119625000D02*
X82502000Y-119625000D01*
G75*
G02*
X82702000Y-119825000I0J-200000D01*
G01*
X82702000Y-120225000D01*
G75*
G02*
X82502000Y-120425000I-200000J0D01*
G01*
X81302000Y-120425000D01*
G75*
G02*
X81102000Y-120225000I0J200000D01*
G01*
X81102000Y-119825000D01*
G75*
G02*
X81302000Y-119625000I200000J0D01*
G01*
G37*
G36*
G01*
X81302000Y-120875000D02*
X82502000Y-120875000D01*
G75*
G02*
X82702000Y-121075000I0J-200000D01*
G01*
X82702000Y-121475000D01*
G75*
G02*
X82502000Y-121675000I-200000J0D01*
G01*
X81302000Y-121675000D01*
G75*
G02*
X81102000Y-121475000I0J200000D01*
G01*
X81102000Y-121075000D01*
G75*
G02*
X81302000Y-120875000I200000J0D01*
G01*
G37*
G36*
G01*
X81302000Y-122125000D02*
X82502000Y-122125000D01*
G75*
G02*
X82702000Y-122325000I0J-200000D01*
G01*
X82702000Y-122725000D01*
G75*
G02*
X82502000Y-122925000I-200000J0D01*
G01*
X81302000Y-122925000D01*
G75*
G02*
X81102000Y-122725000I0J200000D01*
G01*
X81102000Y-122325000D01*
G75*
G02*
X81302000Y-122125000I200000J0D01*
G01*
G37*
G36*
G01*
X77752001Y-124025000D02*
X80251999Y-124025000D01*
G75*
G02*
X80502000Y-124275001I0J-250001D01*
G01*
X80502000Y-125874999D01*
G75*
G02*
X80251999Y-126125000I-250001J0D01*
G01*
X77752001Y-126125000D01*
G75*
G02*
X77502000Y-125874999I0J250001D01*
G01*
X77502000Y-124275001D01*
G75*
G02*
X77752001Y-124025000I250001J0D01*
G01*
G37*
G36*
G01*
X77752001Y-115175000D02*
X80251999Y-115175000D01*
G75*
G02*
X80502000Y-115425001I0J-250001D01*
G01*
X80502000Y-117024999D01*
G75*
G02*
X80251999Y-117275000I-250001J0D01*
G01*
X77752001Y-117275000D01*
G75*
G02*
X77502000Y-117024999I0J250001D01*
G01*
X77502000Y-115425001D01*
G75*
G02*
X77752001Y-115175000I250001J0D01*
G01*
G37*
D17*
X164465000Y-114299000D03*
X164465000Y-110999000D03*
G36*
G01*
X169893000Y-57266500D02*
X168943000Y-57266500D01*
G75*
G02*
X168693000Y-57016500I0J250000D01*
G01*
X168693000Y-56516500D01*
G75*
G02*
X168943000Y-56266500I250000J0D01*
G01*
X169893000Y-56266500D01*
G75*
G02*
X170143000Y-56516500I0J-250000D01*
G01*
X170143000Y-57016500D01*
G75*
G02*
X169893000Y-57266500I-250000J0D01*
G01*
G37*
G36*
G01*
X169893000Y-55366500D02*
X168943000Y-55366500D01*
G75*
G02*
X168693000Y-55116500I0J250000D01*
G01*
X168693000Y-54616500D01*
G75*
G02*
X168943000Y-54366500I250000J0D01*
G01*
X169893000Y-54366500D01*
G75*
G02*
X170143000Y-54616500I0J-250000D01*
G01*
X170143000Y-55116500D01*
G75*
G02*
X169893000Y-55366500I-250000J0D01*
G01*
G37*
G36*
G01*
X197416000Y-54455000D02*
X198316000Y-54455000D01*
G75*
G02*
X198566000Y-54705000I0J-250000D01*
G01*
X198566000Y-55230000D01*
G75*
G02*
X198316000Y-55480000I-250000J0D01*
G01*
X197416000Y-55480000D01*
G75*
G02*
X197166000Y-55230000I0J250000D01*
G01*
X197166000Y-54705000D01*
G75*
G02*
X197416000Y-54455000I250000J0D01*
G01*
G37*
G36*
G01*
X197416000Y-56280000D02*
X198316000Y-56280000D01*
G75*
G02*
X198566000Y-56530000I0J-250000D01*
G01*
X198566000Y-57055000D01*
G75*
G02*
X198316000Y-57305000I-250000J0D01*
G01*
X197416000Y-57305000D01*
G75*
G02*
X197166000Y-57055000I0J250000D01*
G01*
X197166000Y-56530000D01*
G75*
G02*
X197416000Y-56280000I250000J0D01*
G01*
G37*
D11*
X161773250Y-136423400D03*
X165073250Y-136423400D03*
G36*
G01*
X159733000Y-57266500D02*
X158783000Y-57266500D01*
G75*
G02*
X158533000Y-57016500I0J250000D01*
G01*
X158533000Y-56516500D01*
G75*
G02*
X158783000Y-56266500I250000J0D01*
G01*
X159733000Y-56266500D01*
G75*
G02*
X159983000Y-56516500I0J-250000D01*
G01*
X159983000Y-57016500D01*
G75*
G02*
X159733000Y-57266500I-250000J0D01*
G01*
G37*
G36*
G01*
X159733000Y-55366500D02*
X158783000Y-55366500D01*
G75*
G02*
X158533000Y-55116500I0J250000D01*
G01*
X158533000Y-54616500D01*
G75*
G02*
X158783000Y-54366500I250000J0D01*
G01*
X159733000Y-54366500D01*
G75*
G02*
X159983000Y-54616500I0J-250000D01*
G01*
X159983000Y-55116500D01*
G75*
G02*
X159733000Y-55366500I-250000J0D01*
G01*
G37*
D13*
X153544000Y-116369000D03*
X156844000Y-116369000D03*
X156844000Y-111469000D03*
X153544000Y-111469000D03*
G36*
G01*
X204746000Y-63945328D02*
X203496000Y-63945328D01*
G75*
G02*
X203346000Y-63795328I0J150000D01*
G01*
X203346000Y-63495328D01*
G75*
G02*
X203496000Y-63345328I150000J0D01*
G01*
X204746000Y-63345328D01*
G75*
G02*
X204896000Y-63495328I0J-150000D01*
G01*
X204896000Y-63795328D01*
G75*
G02*
X204746000Y-63945328I-150000J0D01*
G01*
G37*
G36*
G01*
X204746000Y-62945328D02*
X203496000Y-62945328D01*
G75*
G02*
X203346000Y-62795328I0J150000D01*
G01*
X203346000Y-62495328D01*
G75*
G02*
X203496000Y-62345328I150000J0D01*
G01*
X204746000Y-62345328D01*
G75*
G02*
X204896000Y-62495328I0J-150000D01*
G01*
X204896000Y-62795328D01*
G75*
G02*
X204746000Y-62945328I-150000J0D01*
G01*
G37*
G36*
G01*
X204746000Y-61945328D02*
X203496000Y-61945328D01*
G75*
G02*
X203346000Y-61795328I0J150000D01*
G01*
X203346000Y-61495328D01*
G75*
G02*
X203496000Y-61345328I150000J0D01*
G01*
X204746000Y-61345328D01*
G75*
G02*
X204896000Y-61495328I0J-150000D01*
G01*
X204896000Y-61795328D01*
G75*
G02*
X204746000Y-61945328I-150000J0D01*
G01*
G37*
G36*
G01*
X204746000Y-60945328D02*
X203496000Y-60945328D01*
G75*
G02*
X203346000Y-60795328I0J150000D01*
G01*
X203346000Y-60495328D01*
G75*
G02*
X203496000Y-60345328I150000J0D01*
G01*
X204746000Y-60345328D01*
G75*
G02*
X204896000Y-60495328I0J-150000D01*
G01*
X204896000Y-60795328D01*
G75*
G02*
X204746000Y-60945328I-150000J0D01*
G01*
G37*
G36*
G01*
X208646000Y-65545328D02*
X207346000Y-65545328D01*
G75*
G02*
X207096000Y-65295328I0J250000D01*
G01*
X207096000Y-64595328D01*
G75*
G02*
X207346000Y-64345328I250000J0D01*
G01*
X208646000Y-64345328D01*
G75*
G02*
X208896000Y-64595328I0J-250000D01*
G01*
X208896000Y-65295328D01*
G75*
G02*
X208646000Y-65545328I-250000J0D01*
G01*
G37*
G36*
G01*
X208646000Y-59945328D02*
X207346000Y-59945328D01*
G75*
G02*
X207096000Y-59695328I0J250000D01*
G01*
X207096000Y-58995328D01*
G75*
G02*
X207346000Y-58745328I250000J0D01*
G01*
X208646000Y-58745328D01*
G75*
G02*
X208896000Y-58995328I0J-250000D01*
G01*
X208896000Y-59695328D01*
G75*
G02*
X208646000Y-59945328I-250000J0D01*
G01*
G37*
D11*
X190118000Y-146193934D03*
X186818000Y-146193934D03*
G36*
G01*
X181135000Y-127582000D02*
X182085000Y-127582000D01*
G75*
G02*
X182335000Y-127832000I0J-250000D01*
G01*
X182335000Y-128332000D01*
G75*
G02*
X182085000Y-128582000I-250000J0D01*
G01*
X181135000Y-128582000D01*
G75*
G02*
X180885000Y-128332000I0J250000D01*
G01*
X180885000Y-127832000D01*
G75*
G02*
X181135000Y-127582000I250000J0D01*
G01*
G37*
G36*
G01*
X181135000Y-129482000D02*
X182085000Y-129482000D01*
G75*
G02*
X182335000Y-129732000I0J-250000D01*
G01*
X182335000Y-130232000D01*
G75*
G02*
X182085000Y-130482000I-250000J0D01*
G01*
X181135000Y-130482000D01*
G75*
G02*
X180885000Y-130232000I0J250000D01*
G01*
X180885000Y-129732000D01*
G75*
G02*
X181135000Y-129482000I250000J0D01*
G01*
G37*
G36*
G01*
X145182000Y-70906500D02*
X145182000Y-71206500D01*
G75*
G02*
X145032000Y-71356500I-150000J0D01*
G01*
X143582000Y-71356500D01*
G75*
G02*
X143432000Y-71206500I0J150000D01*
G01*
X143432000Y-70906500D01*
G75*
G02*
X143582000Y-70756500I150000J0D01*
G01*
X145032000Y-70756500D01*
G75*
G02*
X145182000Y-70906500I0J-150000D01*
G01*
G37*
G36*
G01*
X145182000Y-69636500D02*
X145182000Y-69936500D01*
G75*
G02*
X145032000Y-70086500I-150000J0D01*
G01*
X143582000Y-70086500D01*
G75*
G02*
X143432000Y-69936500I0J150000D01*
G01*
X143432000Y-69636500D01*
G75*
G02*
X143582000Y-69486500I150000J0D01*
G01*
X145032000Y-69486500D01*
G75*
G02*
X145182000Y-69636500I0J-150000D01*
G01*
G37*
G36*
G01*
X145182000Y-68366500D02*
X145182000Y-68666500D01*
G75*
G02*
X145032000Y-68816500I-150000J0D01*
G01*
X143582000Y-68816500D01*
G75*
G02*
X143432000Y-68666500I0J150000D01*
G01*
X143432000Y-68366500D01*
G75*
G02*
X143582000Y-68216500I150000J0D01*
G01*
X145032000Y-68216500D01*
G75*
G02*
X145182000Y-68366500I0J-150000D01*
G01*
G37*
G36*
G01*
X145182000Y-67096500D02*
X145182000Y-67396500D01*
G75*
G02*
X145032000Y-67546500I-150000J0D01*
G01*
X143582000Y-67546500D01*
G75*
G02*
X143432000Y-67396500I0J150000D01*
G01*
X143432000Y-67096500D01*
G75*
G02*
X143582000Y-66946500I150000J0D01*
G01*
X145032000Y-66946500D01*
G75*
G02*
X145182000Y-67096500I0J-150000D01*
G01*
G37*
G36*
G01*
X145182000Y-65826500D02*
X145182000Y-66126500D01*
G75*
G02*
X145032000Y-66276500I-150000J0D01*
G01*
X143582000Y-66276500D01*
G75*
G02*
X143432000Y-66126500I0J150000D01*
G01*
X143432000Y-65826500D01*
G75*
G02*
X143582000Y-65676500I150000J0D01*
G01*
X145032000Y-65676500D01*
G75*
G02*
X145182000Y-65826500I0J-150000D01*
G01*
G37*
G36*
G01*
X145182000Y-64556500D02*
X145182000Y-64856500D01*
G75*
G02*
X145032000Y-65006500I-150000J0D01*
G01*
X143582000Y-65006500D01*
G75*
G02*
X143432000Y-64856500I0J150000D01*
G01*
X143432000Y-64556500D01*
G75*
G02*
X143582000Y-64406500I150000J0D01*
G01*
X145032000Y-64406500D01*
G75*
G02*
X145182000Y-64556500I0J-150000D01*
G01*
G37*
G36*
G01*
X145182000Y-63286500D02*
X145182000Y-63586500D01*
G75*
G02*
X145032000Y-63736500I-150000J0D01*
G01*
X143582000Y-63736500D01*
G75*
G02*
X143432000Y-63586500I0J150000D01*
G01*
X143432000Y-63286500D01*
G75*
G02*
X143582000Y-63136500I150000J0D01*
G01*
X145032000Y-63136500D01*
G75*
G02*
X145182000Y-63286500I0J-150000D01*
G01*
G37*
G36*
G01*
X145182000Y-62016500D02*
X145182000Y-62316500D01*
G75*
G02*
X145032000Y-62466500I-150000J0D01*
G01*
X143582000Y-62466500D01*
G75*
G02*
X143432000Y-62316500I0J150000D01*
G01*
X143432000Y-62016500D01*
G75*
G02*
X143582000Y-61866500I150000J0D01*
G01*
X145032000Y-61866500D01*
G75*
G02*
X145182000Y-62016500I0J-150000D01*
G01*
G37*
G36*
G01*
X140032000Y-62016500D02*
X140032000Y-62316500D01*
G75*
G02*
X139882000Y-62466500I-150000J0D01*
G01*
X138432000Y-62466500D01*
G75*
G02*
X138282000Y-62316500I0J150000D01*
G01*
X138282000Y-62016500D01*
G75*
G02*
X138432000Y-61866500I150000J0D01*
G01*
X139882000Y-61866500D01*
G75*
G02*
X140032000Y-62016500I0J-150000D01*
G01*
G37*
G36*
G01*
X140032000Y-63286500D02*
X140032000Y-63586500D01*
G75*
G02*
X139882000Y-63736500I-150000J0D01*
G01*
X138432000Y-63736500D01*
G75*
G02*
X138282000Y-63586500I0J150000D01*
G01*
X138282000Y-63286500D01*
G75*
G02*
X138432000Y-63136500I150000J0D01*
G01*
X139882000Y-63136500D01*
G75*
G02*
X140032000Y-63286500I0J-150000D01*
G01*
G37*
G36*
G01*
X140032000Y-64556500D02*
X140032000Y-64856500D01*
G75*
G02*
X139882000Y-65006500I-150000J0D01*
G01*
X138432000Y-65006500D01*
G75*
G02*
X138282000Y-64856500I0J150000D01*
G01*
X138282000Y-64556500D01*
G75*
G02*
X138432000Y-64406500I150000J0D01*
G01*
X139882000Y-64406500D01*
G75*
G02*
X140032000Y-64556500I0J-150000D01*
G01*
G37*
G36*
G01*
X140032000Y-65826500D02*
X140032000Y-66126500D01*
G75*
G02*
X139882000Y-66276500I-150000J0D01*
G01*
X138432000Y-66276500D01*
G75*
G02*
X138282000Y-66126500I0J150000D01*
G01*
X138282000Y-65826500D01*
G75*
G02*
X138432000Y-65676500I150000J0D01*
G01*
X139882000Y-65676500D01*
G75*
G02*
X140032000Y-65826500I0J-150000D01*
G01*
G37*
G36*
G01*
X140032000Y-67096500D02*
X140032000Y-67396500D01*
G75*
G02*
X139882000Y-67546500I-150000J0D01*
G01*
X138432000Y-67546500D01*
G75*
G02*
X138282000Y-67396500I0J150000D01*
G01*
X138282000Y-67096500D01*
G75*
G02*
X138432000Y-66946500I150000J0D01*
G01*
X139882000Y-66946500D01*
G75*
G02*
X140032000Y-67096500I0J-150000D01*
G01*
G37*
G36*
G01*
X140032000Y-68366500D02*
X140032000Y-68666500D01*
G75*
G02*
X139882000Y-68816500I-150000J0D01*
G01*
X138432000Y-68816500D01*
G75*
G02*
X138282000Y-68666500I0J150000D01*
G01*
X138282000Y-68366500D01*
G75*
G02*
X138432000Y-68216500I150000J0D01*
G01*
X139882000Y-68216500D01*
G75*
G02*
X140032000Y-68366500I0J-150000D01*
G01*
G37*
G36*
G01*
X140032000Y-69636500D02*
X140032000Y-69936500D01*
G75*
G02*
X139882000Y-70086500I-150000J0D01*
G01*
X138432000Y-70086500D01*
G75*
G02*
X138282000Y-69936500I0J150000D01*
G01*
X138282000Y-69636500D01*
G75*
G02*
X138432000Y-69486500I150000J0D01*
G01*
X139882000Y-69486500D01*
G75*
G02*
X140032000Y-69636500I0J-150000D01*
G01*
G37*
G36*
G01*
X140032000Y-70906500D02*
X140032000Y-71206500D01*
G75*
G02*
X139882000Y-71356500I-150000J0D01*
G01*
X138432000Y-71356500D01*
G75*
G02*
X138282000Y-71206500I0J150000D01*
G01*
X138282000Y-70906500D01*
G75*
G02*
X138432000Y-70756500I150000J0D01*
G01*
X139882000Y-70756500D01*
G75*
G02*
X140032000Y-70906500I0J-150000D01*
G01*
G37*
G36*
G01*
X133043000Y-50957500D02*
X133043000Y-50007500D01*
G75*
G02*
X133293000Y-49757500I250000J0D01*
G01*
X133793000Y-49757500D01*
G75*
G02*
X134043000Y-50007500I0J-250000D01*
G01*
X134043000Y-50957500D01*
G75*
G02*
X133793000Y-51207500I-250000J0D01*
G01*
X133293000Y-51207500D01*
G75*
G02*
X133043000Y-50957500I0J250000D01*
G01*
G37*
G36*
G01*
X134943000Y-50957500D02*
X134943000Y-50007500D01*
G75*
G02*
X135193000Y-49757500I250000J0D01*
G01*
X135693000Y-49757500D01*
G75*
G02*
X135943000Y-50007500I0J-250000D01*
G01*
X135943000Y-50957500D01*
G75*
G02*
X135693000Y-51207500I-250000J0D01*
G01*
X135193000Y-51207500D01*
G75*
G02*
X134943000Y-50957500I0J250000D01*
G01*
G37*
G36*
G01*
X171605000Y-109659000D02*
X171605000Y-110559000D01*
G75*
G02*
X171355000Y-110809000I-250000J0D01*
G01*
X170830000Y-110809000D01*
G75*
G02*
X170580000Y-110559000I0J250000D01*
G01*
X170580000Y-109659000D01*
G75*
G02*
X170830000Y-109409000I250000J0D01*
G01*
X171355000Y-109409000D01*
G75*
G02*
X171605000Y-109659000I0J-250000D01*
G01*
G37*
G36*
G01*
X169780000Y-109659000D02*
X169780000Y-110559000D01*
G75*
G02*
X169530000Y-110809000I-250000J0D01*
G01*
X169005000Y-110809000D01*
G75*
G02*
X168755000Y-110559000I0J250000D01*
G01*
X168755000Y-109659000D01*
G75*
G02*
X169005000Y-109409000I250000J0D01*
G01*
X169530000Y-109409000D01*
G75*
G02*
X169780000Y-109659000I0J-250000D01*
G01*
G37*
G36*
G01*
X204746000Y-55450440D02*
X203496000Y-55450440D01*
G75*
G02*
X203346000Y-55300440I0J150000D01*
G01*
X203346000Y-55000440D01*
G75*
G02*
X203496000Y-54850440I150000J0D01*
G01*
X204746000Y-54850440D01*
G75*
G02*
X204896000Y-55000440I0J-150000D01*
G01*
X204896000Y-55300440D01*
G75*
G02*
X204746000Y-55450440I-150000J0D01*
G01*
G37*
G36*
G01*
X204746000Y-54450440D02*
X203496000Y-54450440D01*
G75*
G02*
X203346000Y-54300440I0J150000D01*
G01*
X203346000Y-54000440D01*
G75*
G02*
X203496000Y-53850440I150000J0D01*
G01*
X204746000Y-53850440D01*
G75*
G02*
X204896000Y-54000440I0J-150000D01*
G01*
X204896000Y-54300440D01*
G75*
G02*
X204746000Y-54450440I-150000J0D01*
G01*
G37*
G36*
G01*
X204746000Y-53450440D02*
X203496000Y-53450440D01*
G75*
G02*
X203346000Y-53300440I0J150000D01*
G01*
X203346000Y-53000440D01*
G75*
G02*
X203496000Y-52850440I150000J0D01*
G01*
X204746000Y-52850440D01*
G75*
G02*
X204896000Y-53000440I0J-150000D01*
G01*
X204896000Y-53300440D01*
G75*
G02*
X204746000Y-53450440I-150000J0D01*
G01*
G37*
G36*
G01*
X204746000Y-52450440D02*
X203496000Y-52450440D01*
G75*
G02*
X203346000Y-52300440I0J150000D01*
G01*
X203346000Y-52000440D01*
G75*
G02*
X203496000Y-51850440I150000J0D01*
G01*
X204746000Y-51850440D01*
G75*
G02*
X204896000Y-52000440I0J-150000D01*
G01*
X204896000Y-52300440D01*
G75*
G02*
X204746000Y-52450440I-150000J0D01*
G01*
G37*
G36*
G01*
X208646000Y-51450440D02*
X207346000Y-51450440D01*
G75*
G02*
X207096000Y-51200440I0J250000D01*
G01*
X207096000Y-50500440D01*
G75*
G02*
X207346000Y-50250440I250000J0D01*
G01*
X208646000Y-50250440D01*
G75*
G02*
X208896000Y-50500440I0J-250000D01*
G01*
X208896000Y-51200440D01*
G75*
G02*
X208646000Y-51450440I-250000J0D01*
G01*
G37*
G36*
G01*
X208646000Y-57050440D02*
X207346000Y-57050440D01*
G75*
G02*
X207096000Y-56800440I0J250000D01*
G01*
X207096000Y-56100440D01*
G75*
G02*
X207346000Y-55850440I250000J0D01*
G01*
X208646000Y-55850440D01*
G75*
G02*
X208896000Y-56100440I0J-250000D01*
G01*
X208896000Y-56800440D01*
G75*
G02*
X208646000Y-57050440I-250000J0D01*
G01*
G37*
G36*
G01*
X182527000Y-111945000D02*
X182527000Y-112845000D01*
G75*
G02*
X182277000Y-113095000I-250000J0D01*
G01*
X181752000Y-113095000D01*
G75*
G02*
X181502000Y-112845000I0J250000D01*
G01*
X181502000Y-111945000D01*
G75*
G02*
X181752000Y-111695000I250000J0D01*
G01*
X182277000Y-111695000D01*
G75*
G02*
X182527000Y-111945000I0J-250000D01*
G01*
G37*
G36*
G01*
X180702000Y-111945000D02*
X180702000Y-112845000D01*
G75*
G02*
X180452000Y-113095000I-250000J0D01*
G01*
X179927000Y-113095000D01*
G75*
G02*
X179677000Y-112845000I0J250000D01*
G01*
X179677000Y-111945000D01*
G75*
G02*
X179927000Y-111695000I250000J0D01*
G01*
X180452000Y-111695000D01*
G75*
G02*
X180702000Y-111945000I0J-250000D01*
G01*
G37*
G36*
G01*
X103914000Y-54160000D02*
X103914000Y-55060000D01*
G75*
G02*
X103664000Y-55310000I-250000J0D01*
G01*
X103139000Y-55310000D01*
G75*
G02*
X102889000Y-55060000I0J250000D01*
G01*
X102889000Y-54160000D01*
G75*
G02*
X103139000Y-53910000I250000J0D01*
G01*
X103664000Y-53910000D01*
G75*
G02*
X103914000Y-54160000I0J-250000D01*
G01*
G37*
G36*
G01*
X102089000Y-54160000D02*
X102089000Y-55060000D01*
G75*
G02*
X101839000Y-55310000I-250000J0D01*
G01*
X101314000Y-55310000D01*
G75*
G02*
X101064000Y-55060000I0J250000D01*
G01*
X101064000Y-54160000D01*
G75*
G02*
X101314000Y-53910000I250000J0D01*
G01*
X101839000Y-53910000D01*
G75*
G02*
X102089000Y-54160000I0J-250000D01*
G01*
G37*
G36*
G01*
X81302000Y-77227000D02*
X82502000Y-77227000D01*
G75*
G02*
X82702000Y-77427000I0J-200000D01*
G01*
X82702000Y-77827000D01*
G75*
G02*
X82502000Y-78027000I-200000J0D01*
G01*
X81302000Y-78027000D01*
G75*
G02*
X81102000Y-77827000I0J200000D01*
G01*
X81102000Y-77427000D01*
G75*
G02*
X81302000Y-77227000I200000J0D01*
G01*
G37*
G36*
G01*
X81302000Y-78477000D02*
X82502000Y-78477000D01*
G75*
G02*
X82702000Y-78677000I0J-200000D01*
G01*
X82702000Y-79077000D01*
G75*
G02*
X82502000Y-79277000I-200000J0D01*
G01*
X81302000Y-79277000D01*
G75*
G02*
X81102000Y-79077000I0J200000D01*
G01*
X81102000Y-78677000D01*
G75*
G02*
X81302000Y-78477000I200000J0D01*
G01*
G37*
G36*
G01*
X81302000Y-79727000D02*
X82502000Y-79727000D01*
G75*
G02*
X82702000Y-79927000I0J-200000D01*
G01*
X82702000Y-80327000D01*
G75*
G02*
X82502000Y-80527000I-200000J0D01*
G01*
X81302000Y-80527000D01*
G75*
G02*
X81102000Y-80327000I0J200000D01*
G01*
X81102000Y-79927000D01*
G75*
G02*
X81302000Y-79727000I200000J0D01*
G01*
G37*
G36*
G01*
X81302000Y-80977000D02*
X82502000Y-80977000D01*
G75*
G02*
X82702000Y-81177000I0J-200000D01*
G01*
X82702000Y-81577000D01*
G75*
G02*
X82502000Y-81777000I-200000J0D01*
G01*
X81302000Y-81777000D01*
G75*
G02*
X81102000Y-81577000I0J200000D01*
G01*
X81102000Y-81177000D01*
G75*
G02*
X81302000Y-80977000I200000J0D01*
G01*
G37*
G36*
G01*
X77752001Y-74027000D02*
X80251999Y-74027000D01*
G75*
G02*
X80502000Y-74277001I0J-250001D01*
G01*
X80502000Y-75876999D01*
G75*
G02*
X80251999Y-76127000I-250001J0D01*
G01*
X77752001Y-76127000D01*
G75*
G02*
X77502000Y-75876999I0J250001D01*
G01*
X77502000Y-74277001D01*
G75*
G02*
X77752001Y-74027000I250001J0D01*
G01*
G37*
G36*
G01*
X77752001Y-82877000D02*
X80251999Y-82877000D01*
G75*
G02*
X80502000Y-83127001I0J-250001D01*
G01*
X80502000Y-84726999D01*
G75*
G02*
X80251999Y-84977000I-250001J0D01*
G01*
X77752001Y-84977000D01*
G75*
G02*
X77502000Y-84726999I0J250001D01*
G01*
X77502000Y-83127001D01*
G75*
G02*
X77752001Y-82877000I250001J0D01*
G01*
G37*
G36*
G01*
X187226000Y-43492000D02*
X187226000Y-44392000D01*
G75*
G02*
X186976000Y-44642000I-250000J0D01*
G01*
X186451000Y-44642000D01*
G75*
G02*
X186201000Y-44392000I0J250000D01*
G01*
X186201000Y-43492000D01*
G75*
G02*
X186451000Y-43242000I250000J0D01*
G01*
X186976000Y-43242000D01*
G75*
G02*
X187226000Y-43492000I0J-250000D01*
G01*
G37*
G36*
G01*
X185401000Y-43492000D02*
X185401000Y-44392000D01*
G75*
G02*
X185151000Y-44642000I-250000J0D01*
G01*
X184626000Y-44642000D01*
G75*
G02*
X184376000Y-44392000I0J250000D01*
G01*
X184376000Y-43492000D01*
G75*
G02*
X184626000Y-43242000I250000J0D01*
G01*
X185151000Y-43242000D01*
G75*
G02*
X185401000Y-43492000I0J-250000D01*
G01*
G37*
G36*
G01*
X188938000Y-78002000D02*
X188638000Y-78002000D01*
G75*
G02*
X188488000Y-77852000I0J150000D01*
G01*
X188488000Y-76677000D01*
G75*
G02*
X188638000Y-76527000I150000J0D01*
G01*
X188938000Y-76527000D01*
G75*
G02*
X189088000Y-76677000I0J-150000D01*
G01*
X189088000Y-77852000D01*
G75*
G02*
X188938000Y-78002000I-150000J0D01*
G01*
G37*
G36*
G01*
X190838000Y-78002000D02*
X190538000Y-78002000D01*
G75*
G02*
X190388000Y-77852000I0J150000D01*
G01*
X190388000Y-76677000D01*
G75*
G02*
X190538000Y-76527000I150000J0D01*
G01*
X190838000Y-76527000D01*
G75*
G02*
X190988000Y-76677000I0J-150000D01*
G01*
X190988000Y-77852000D01*
G75*
G02*
X190838000Y-78002000I-150000J0D01*
G01*
G37*
G36*
G01*
X189888000Y-76127000D02*
X189588000Y-76127000D01*
G75*
G02*
X189438000Y-75977000I0J150000D01*
G01*
X189438000Y-74802000D01*
G75*
G02*
X189588000Y-74652000I150000J0D01*
G01*
X189888000Y-74652000D01*
G75*
G02*
X190038000Y-74802000I0J-150000D01*
G01*
X190038000Y-75977000D01*
G75*
G02*
X189888000Y-76127000I-150000J0D01*
G01*
G37*
G36*
G01*
X184056000Y-127582000D02*
X185006000Y-127582000D01*
G75*
G02*
X185256000Y-127832000I0J-250000D01*
G01*
X185256000Y-128332000D01*
G75*
G02*
X185006000Y-128582000I-250000J0D01*
G01*
X184056000Y-128582000D01*
G75*
G02*
X183806000Y-128332000I0J250000D01*
G01*
X183806000Y-127832000D01*
G75*
G02*
X184056000Y-127582000I250000J0D01*
G01*
G37*
G36*
G01*
X184056000Y-129482000D02*
X185006000Y-129482000D01*
G75*
G02*
X185256000Y-129732000I0J-250000D01*
G01*
X185256000Y-130232000D01*
G75*
G02*
X185006000Y-130482000I-250000J0D01*
G01*
X184056000Y-130482000D01*
G75*
G02*
X183806000Y-130232000I0J250000D01*
G01*
X183806000Y-129732000D01*
G75*
G02*
X184056000Y-129482000I250000J0D01*
G01*
G37*
G36*
G01*
X184351000Y-51021000D02*
X184351000Y-50071000D01*
G75*
G02*
X184601000Y-49821000I250000J0D01*
G01*
X185101000Y-49821000D01*
G75*
G02*
X185351000Y-50071000I0J-250000D01*
G01*
X185351000Y-51021000D01*
G75*
G02*
X185101000Y-51271000I-250000J0D01*
G01*
X184601000Y-51271000D01*
G75*
G02*
X184351000Y-51021000I0J250000D01*
G01*
G37*
G36*
G01*
X186251000Y-51021000D02*
X186251000Y-50071000D01*
G75*
G02*
X186501000Y-49821000I250000J0D01*
G01*
X187001000Y-49821000D01*
G75*
G02*
X187251000Y-50071000I0J-250000D01*
G01*
X187251000Y-51021000D01*
G75*
G02*
X187001000Y-51271000I-250000J0D01*
G01*
X186501000Y-51271000D01*
G75*
G02*
X186251000Y-51021000I0J250000D01*
G01*
G37*
G36*
G01*
X81302000Y-104659000D02*
X82502000Y-104659000D01*
G75*
G02*
X82702000Y-104859000I0J-200000D01*
G01*
X82702000Y-105259000D01*
G75*
G02*
X82502000Y-105459000I-200000J0D01*
G01*
X81302000Y-105459000D01*
G75*
G02*
X81102000Y-105259000I0J200000D01*
G01*
X81102000Y-104859000D01*
G75*
G02*
X81302000Y-104659000I200000J0D01*
G01*
G37*
G36*
G01*
X81302000Y-105909000D02*
X82502000Y-105909000D01*
G75*
G02*
X82702000Y-106109000I0J-200000D01*
G01*
X82702000Y-106509000D01*
G75*
G02*
X82502000Y-106709000I-200000J0D01*
G01*
X81302000Y-106709000D01*
G75*
G02*
X81102000Y-106509000I0J200000D01*
G01*
X81102000Y-106109000D01*
G75*
G02*
X81302000Y-105909000I200000J0D01*
G01*
G37*
G36*
G01*
X81302000Y-107159000D02*
X82502000Y-107159000D01*
G75*
G02*
X82702000Y-107359000I0J-200000D01*
G01*
X82702000Y-107759000D01*
G75*
G02*
X82502000Y-107959000I-200000J0D01*
G01*
X81302000Y-107959000D01*
G75*
G02*
X81102000Y-107759000I0J200000D01*
G01*
X81102000Y-107359000D01*
G75*
G02*
X81302000Y-107159000I200000J0D01*
G01*
G37*
G36*
G01*
X81302000Y-108409000D02*
X82502000Y-108409000D01*
G75*
G02*
X82702000Y-108609000I0J-200000D01*
G01*
X82702000Y-109009000D01*
G75*
G02*
X82502000Y-109209000I-200000J0D01*
G01*
X81302000Y-109209000D01*
G75*
G02*
X81102000Y-109009000I0J200000D01*
G01*
X81102000Y-108609000D01*
G75*
G02*
X81302000Y-108409000I200000J0D01*
G01*
G37*
G36*
G01*
X77752001Y-101459000D02*
X80251999Y-101459000D01*
G75*
G02*
X80502000Y-101709001I0J-250001D01*
G01*
X80502000Y-103308999D01*
G75*
G02*
X80251999Y-103559000I-250001J0D01*
G01*
X77752001Y-103559000D01*
G75*
G02*
X77502000Y-103308999I0J250001D01*
G01*
X77502000Y-101709001D01*
G75*
G02*
X77752001Y-101459000I250001J0D01*
G01*
G37*
G36*
G01*
X77752001Y-110309000D02*
X80251999Y-110309000D01*
G75*
G02*
X80502000Y-110559001I0J-250001D01*
G01*
X80502000Y-112158999D01*
G75*
G02*
X80251999Y-112409000I-250001J0D01*
G01*
X77752001Y-112409000D01*
G75*
G02*
X77502000Y-112158999I0J250001D01*
G01*
X77502000Y-110559001D01*
G75*
G02*
X77752001Y-110309000I250001J0D01*
G01*
G37*
G36*
G01*
X204746000Y-80935104D02*
X203496000Y-80935104D01*
G75*
G02*
X203346000Y-80785104I0J150000D01*
G01*
X203346000Y-80485104D01*
G75*
G02*
X203496000Y-80335104I150000J0D01*
G01*
X204746000Y-80335104D01*
G75*
G02*
X204896000Y-80485104I0J-150000D01*
G01*
X204896000Y-80785104D01*
G75*
G02*
X204746000Y-80935104I-150000J0D01*
G01*
G37*
G36*
G01*
X204746000Y-79935104D02*
X203496000Y-79935104D01*
G75*
G02*
X203346000Y-79785104I0J150000D01*
G01*
X203346000Y-79485104D01*
G75*
G02*
X203496000Y-79335104I150000J0D01*
G01*
X204746000Y-79335104D01*
G75*
G02*
X204896000Y-79485104I0J-150000D01*
G01*
X204896000Y-79785104D01*
G75*
G02*
X204746000Y-79935104I-150000J0D01*
G01*
G37*
G36*
G01*
X204746000Y-78935104D02*
X203496000Y-78935104D01*
G75*
G02*
X203346000Y-78785104I0J150000D01*
G01*
X203346000Y-78485104D01*
G75*
G02*
X203496000Y-78335104I150000J0D01*
G01*
X204746000Y-78335104D01*
G75*
G02*
X204896000Y-78485104I0J-150000D01*
G01*
X204896000Y-78785104D01*
G75*
G02*
X204746000Y-78935104I-150000J0D01*
G01*
G37*
G36*
G01*
X204746000Y-77935104D02*
X203496000Y-77935104D01*
G75*
G02*
X203346000Y-77785104I0J150000D01*
G01*
X203346000Y-77485104D01*
G75*
G02*
X203496000Y-77335104I150000J0D01*
G01*
X204746000Y-77335104D01*
G75*
G02*
X204896000Y-77485104I0J-150000D01*
G01*
X204896000Y-77785104D01*
G75*
G02*
X204746000Y-77935104I-150000J0D01*
G01*
G37*
G36*
G01*
X208646000Y-82535104D02*
X207346000Y-82535104D01*
G75*
G02*
X207096000Y-82285104I0J250000D01*
G01*
X207096000Y-81585104D01*
G75*
G02*
X207346000Y-81335104I250000J0D01*
G01*
X208646000Y-81335104D01*
G75*
G02*
X208896000Y-81585104I0J-250000D01*
G01*
X208896000Y-82285104D01*
G75*
G02*
X208646000Y-82535104I-250000J0D01*
G01*
G37*
G36*
G01*
X208646000Y-76935104D02*
X207346000Y-76935104D01*
G75*
G02*
X207096000Y-76685104I0J250000D01*
G01*
X207096000Y-75985104D01*
G75*
G02*
X207346000Y-75735104I250000J0D01*
G01*
X208646000Y-75735104D01*
G75*
G02*
X208896000Y-75985104I0J-250000D01*
G01*
X208896000Y-76685104D01*
G75*
G02*
X208646000Y-76935104I-250000J0D01*
G01*
G37*
G36*
G01*
X162019000Y-57266500D02*
X161069000Y-57266500D01*
G75*
G02*
X160819000Y-57016500I0J250000D01*
G01*
X160819000Y-56516500D01*
G75*
G02*
X161069000Y-56266500I250000J0D01*
G01*
X162019000Y-56266500D01*
G75*
G02*
X162269000Y-56516500I0J-250000D01*
G01*
X162269000Y-57016500D01*
G75*
G02*
X162019000Y-57266500I-250000J0D01*
G01*
G37*
G36*
G01*
X162019000Y-55366500D02*
X161069000Y-55366500D01*
G75*
G02*
X160819000Y-55116500I0J250000D01*
G01*
X160819000Y-54616500D01*
G75*
G02*
X161069000Y-54366500I250000J0D01*
G01*
X162019000Y-54366500D01*
G75*
G02*
X162269000Y-54616500I0J-250000D01*
G01*
X162269000Y-55116500D01*
G75*
G02*
X162019000Y-55366500I-250000J0D01*
G01*
G37*
G36*
G01*
X175029000Y-107844000D02*
X174729000Y-107844000D01*
G75*
G02*
X174579000Y-107694000I0J150000D01*
G01*
X174579000Y-106044000D01*
G75*
G02*
X174729000Y-105894000I150000J0D01*
G01*
X175029000Y-105894000D01*
G75*
G02*
X175179000Y-106044000I0J-150000D01*
G01*
X175179000Y-107694000D01*
G75*
G02*
X175029000Y-107844000I-150000J0D01*
G01*
G37*
G36*
G01*
X176299000Y-107844000D02*
X175999000Y-107844000D01*
G75*
G02*
X175849000Y-107694000I0J150000D01*
G01*
X175849000Y-106044000D01*
G75*
G02*
X175999000Y-105894000I150000J0D01*
G01*
X176299000Y-105894000D01*
G75*
G02*
X176449000Y-106044000I0J-150000D01*
G01*
X176449000Y-107694000D01*
G75*
G02*
X176299000Y-107844000I-150000J0D01*
G01*
G37*
G36*
G01*
X177569000Y-107844000D02*
X177269000Y-107844000D01*
G75*
G02*
X177119000Y-107694000I0J150000D01*
G01*
X177119000Y-106044000D01*
G75*
G02*
X177269000Y-105894000I150000J0D01*
G01*
X177569000Y-105894000D01*
G75*
G02*
X177719000Y-106044000I0J-150000D01*
G01*
X177719000Y-107694000D01*
G75*
G02*
X177569000Y-107844000I-150000J0D01*
G01*
G37*
G36*
G01*
X178839000Y-107844000D02*
X178539000Y-107844000D01*
G75*
G02*
X178389000Y-107694000I0J150000D01*
G01*
X178389000Y-106044000D01*
G75*
G02*
X178539000Y-105894000I150000J0D01*
G01*
X178839000Y-105894000D01*
G75*
G02*
X178989000Y-106044000I0J-150000D01*
G01*
X178989000Y-107694000D01*
G75*
G02*
X178839000Y-107844000I-150000J0D01*
G01*
G37*
G36*
G01*
X180109000Y-107844000D02*
X179809000Y-107844000D01*
G75*
G02*
X179659000Y-107694000I0J150000D01*
G01*
X179659000Y-106044000D01*
G75*
G02*
X179809000Y-105894000I150000J0D01*
G01*
X180109000Y-105894000D01*
G75*
G02*
X180259000Y-106044000I0J-150000D01*
G01*
X180259000Y-107694000D01*
G75*
G02*
X180109000Y-107844000I-150000J0D01*
G01*
G37*
G36*
G01*
X181379000Y-107844000D02*
X181079000Y-107844000D01*
G75*
G02*
X180929000Y-107694000I0J150000D01*
G01*
X180929000Y-106044000D01*
G75*
G02*
X181079000Y-105894000I150000J0D01*
G01*
X181379000Y-105894000D01*
G75*
G02*
X181529000Y-106044000I0J-150000D01*
G01*
X181529000Y-107694000D01*
G75*
G02*
X181379000Y-107844000I-150000J0D01*
G01*
G37*
G36*
G01*
X182649000Y-107844000D02*
X182349000Y-107844000D01*
G75*
G02*
X182199000Y-107694000I0J150000D01*
G01*
X182199000Y-106044000D01*
G75*
G02*
X182349000Y-105894000I150000J0D01*
G01*
X182649000Y-105894000D01*
G75*
G02*
X182799000Y-106044000I0J-150000D01*
G01*
X182799000Y-107694000D01*
G75*
G02*
X182649000Y-107844000I-150000J0D01*
G01*
G37*
G36*
G01*
X183919000Y-107844000D02*
X183619000Y-107844000D01*
G75*
G02*
X183469000Y-107694000I0J150000D01*
G01*
X183469000Y-106044000D01*
G75*
G02*
X183619000Y-105894000I150000J0D01*
G01*
X183919000Y-105894000D01*
G75*
G02*
X184069000Y-106044000I0J-150000D01*
G01*
X184069000Y-107694000D01*
G75*
G02*
X183919000Y-107844000I-150000J0D01*
G01*
G37*
G36*
G01*
X183919000Y-102894000D02*
X183619000Y-102894000D01*
G75*
G02*
X183469000Y-102744000I0J150000D01*
G01*
X183469000Y-101094000D01*
G75*
G02*
X183619000Y-100944000I150000J0D01*
G01*
X183919000Y-100944000D01*
G75*
G02*
X184069000Y-101094000I0J-150000D01*
G01*
X184069000Y-102744000D01*
G75*
G02*
X183919000Y-102894000I-150000J0D01*
G01*
G37*
G36*
G01*
X182649000Y-102894000D02*
X182349000Y-102894000D01*
G75*
G02*
X182199000Y-102744000I0J150000D01*
G01*
X182199000Y-101094000D01*
G75*
G02*
X182349000Y-100944000I150000J0D01*
G01*
X182649000Y-100944000D01*
G75*
G02*
X182799000Y-101094000I0J-150000D01*
G01*
X182799000Y-102744000D01*
G75*
G02*
X182649000Y-102894000I-150000J0D01*
G01*
G37*
G36*
G01*
X181379000Y-102894000D02*
X181079000Y-102894000D01*
G75*
G02*
X180929000Y-102744000I0J150000D01*
G01*
X180929000Y-101094000D01*
G75*
G02*
X181079000Y-100944000I150000J0D01*
G01*
X181379000Y-100944000D01*
G75*
G02*
X181529000Y-101094000I0J-150000D01*
G01*
X181529000Y-102744000D01*
G75*
G02*
X181379000Y-102894000I-150000J0D01*
G01*
G37*
G36*
G01*
X180109000Y-102894000D02*
X179809000Y-102894000D01*
G75*
G02*
X179659000Y-102744000I0J150000D01*
G01*
X179659000Y-101094000D01*
G75*
G02*
X179809000Y-100944000I150000J0D01*
G01*
X180109000Y-100944000D01*
G75*
G02*
X180259000Y-101094000I0J-150000D01*
G01*
X180259000Y-102744000D01*
G75*
G02*
X180109000Y-102894000I-150000J0D01*
G01*
G37*
G36*
G01*
X178839000Y-102894000D02*
X178539000Y-102894000D01*
G75*
G02*
X178389000Y-102744000I0J150000D01*
G01*
X178389000Y-101094000D01*
G75*
G02*
X178539000Y-100944000I150000J0D01*
G01*
X178839000Y-100944000D01*
G75*
G02*
X178989000Y-101094000I0J-150000D01*
G01*
X178989000Y-102744000D01*
G75*
G02*
X178839000Y-102894000I-150000J0D01*
G01*
G37*
G36*
G01*
X177569000Y-102894000D02*
X177269000Y-102894000D01*
G75*
G02*
X177119000Y-102744000I0J150000D01*
G01*
X177119000Y-101094000D01*
G75*
G02*
X177269000Y-100944000I150000J0D01*
G01*
X177569000Y-100944000D01*
G75*
G02*
X177719000Y-101094000I0J-150000D01*
G01*
X177719000Y-102744000D01*
G75*
G02*
X177569000Y-102894000I-150000J0D01*
G01*
G37*
G36*
G01*
X176299000Y-102894000D02*
X175999000Y-102894000D01*
G75*
G02*
X175849000Y-102744000I0J150000D01*
G01*
X175849000Y-101094000D01*
G75*
G02*
X175999000Y-100944000I150000J0D01*
G01*
X176299000Y-100944000D01*
G75*
G02*
X176449000Y-101094000I0J-150000D01*
G01*
X176449000Y-102744000D01*
G75*
G02*
X176299000Y-102894000I-150000J0D01*
G01*
G37*
G36*
G01*
X175029000Y-102894000D02*
X174729000Y-102894000D01*
G75*
G02*
X174579000Y-102744000I0J150000D01*
G01*
X174579000Y-101094000D01*
G75*
G02*
X174729000Y-100944000I150000J0D01*
G01*
X175029000Y-100944000D01*
G75*
G02*
X175179000Y-101094000I0J-150000D01*
G01*
X175179000Y-102744000D01*
G75*
G02*
X175029000Y-102894000I-150000J0D01*
G01*
G37*
G36*
G01*
X154236000Y-54391500D02*
X155136000Y-54391500D01*
G75*
G02*
X155386000Y-54641500I0J-250000D01*
G01*
X155386000Y-55166500D01*
G75*
G02*
X155136000Y-55416500I-250000J0D01*
G01*
X154236000Y-55416500D01*
G75*
G02*
X153986000Y-55166500I0J250000D01*
G01*
X153986000Y-54641500D01*
G75*
G02*
X154236000Y-54391500I250000J0D01*
G01*
G37*
G36*
G01*
X154236000Y-56216500D02*
X155136000Y-56216500D01*
G75*
G02*
X155386000Y-56466500I0J-250000D01*
G01*
X155386000Y-56991500D01*
G75*
G02*
X155136000Y-57241500I-250000J0D01*
G01*
X154236000Y-57241500D01*
G75*
G02*
X153986000Y-56991500I0J250000D01*
G01*
X153986000Y-56466500D01*
G75*
G02*
X154236000Y-56216500I250000J0D01*
G01*
G37*
G36*
G01*
X160937000Y-130487000D02*
X160937000Y-131387000D01*
G75*
G02*
X160687000Y-131637000I-250000J0D01*
G01*
X160162000Y-131637000D01*
G75*
G02*
X159912000Y-131387000I0J250000D01*
G01*
X159912000Y-130487000D01*
G75*
G02*
X160162000Y-130237000I250000J0D01*
G01*
X160687000Y-130237000D01*
G75*
G02*
X160937000Y-130487000I0J-250000D01*
G01*
G37*
G36*
G01*
X159112000Y-130487000D02*
X159112000Y-131387000D01*
G75*
G02*
X158862000Y-131637000I-250000J0D01*
G01*
X158337000Y-131637000D01*
G75*
G02*
X158087000Y-131387000I0J250000D01*
G01*
X158087000Y-130487000D01*
G75*
G02*
X158337000Y-130237000I250000J0D01*
G01*
X158862000Y-130237000D01*
G75*
G02*
X159112000Y-130487000I0J-250000D01*
G01*
G37*
G36*
G01*
X170208000Y-43428500D02*
X170208000Y-44328500D01*
G75*
G02*
X169958000Y-44578500I-250000J0D01*
G01*
X169433000Y-44578500D01*
G75*
G02*
X169183000Y-44328500I0J250000D01*
G01*
X169183000Y-43428500D01*
G75*
G02*
X169433000Y-43178500I250000J0D01*
G01*
X169958000Y-43178500D01*
G75*
G02*
X170208000Y-43428500I0J-250000D01*
G01*
G37*
G36*
G01*
X168383000Y-43428500D02*
X168383000Y-44328500D01*
G75*
G02*
X168133000Y-44578500I-250000J0D01*
G01*
X167608000Y-44578500D01*
G75*
G02*
X167358000Y-44328500I0J250000D01*
G01*
X167358000Y-43428500D01*
G75*
G02*
X167608000Y-43178500I250000J0D01*
G01*
X168133000Y-43178500D01*
G75*
G02*
X168383000Y-43428500I0J-250000D01*
G01*
G37*
G36*
G01*
X103914000Y-57462000D02*
X103914000Y-58362000D01*
G75*
G02*
X103664000Y-58612000I-250000J0D01*
G01*
X103139000Y-58612000D01*
G75*
G02*
X102889000Y-58362000I0J250000D01*
G01*
X102889000Y-57462000D01*
G75*
G02*
X103139000Y-57212000I250000J0D01*
G01*
X103664000Y-57212000D01*
G75*
G02*
X103914000Y-57462000I0J-250000D01*
G01*
G37*
G36*
G01*
X102089000Y-57462000D02*
X102089000Y-58362000D01*
G75*
G02*
X101839000Y-58612000I-250000J0D01*
G01*
X101314000Y-58612000D01*
G75*
G02*
X101064000Y-58362000I0J250000D01*
G01*
X101064000Y-57462000D01*
G75*
G02*
X101314000Y-57212000I250000J0D01*
G01*
X101839000Y-57212000D01*
G75*
G02*
X102089000Y-57462000I0J-250000D01*
G01*
G37*
G36*
G01*
X119452250Y-38931000D02*
X119452250Y-38031000D01*
G75*
G02*
X119702250Y-37781000I250000J0D01*
G01*
X120227250Y-37781000D01*
G75*
G02*
X120477250Y-38031000I0J-250000D01*
G01*
X120477250Y-38931000D01*
G75*
G02*
X120227250Y-39181000I-250000J0D01*
G01*
X119702250Y-39181000D01*
G75*
G02*
X119452250Y-38931000I0J250000D01*
G01*
G37*
G36*
G01*
X121277250Y-38931000D02*
X121277250Y-38031000D01*
G75*
G02*
X121527250Y-37781000I250000J0D01*
G01*
X122052250Y-37781000D01*
G75*
G02*
X122302250Y-38031000I0J-250000D01*
G01*
X122302250Y-38931000D01*
G75*
G02*
X122052250Y-39181000I-250000J0D01*
G01*
X121527250Y-39181000D01*
G75*
G02*
X121277250Y-38931000I0J250000D01*
G01*
G37*
D18*
X165405000Y-141622000D03*
X166205000Y-141622000D03*
X167005000Y-141622000D03*
X167805000Y-141622000D03*
X168605000Y-141622000D03*
D19*
X171455000Y-147222000D03*
X162555000Y-141722000D03*
X171455000Y-141722000D03*
X162555000Y-147222000D03*
G36*
G01*
X178788000Y-44328500D02*
X178788000Y-43428500D01*
G75*
G02*
X179038000Y-43178500I250000J0D01*
G01*
X179563000Y-43178500D01*
G75*
G02*
X179813000Y-43428500I0J-250000D01*
G01*
X179813000Y-44328500D01*
G75*
G02*
X179563000Y-44578500I-250000J0D01*
G01*
X179038000Y-44578500D01*
G75*
G02*
X178788000Y-44328500I0J250000D01*
G01*
G37*
G36*
G01*
X180613000Y-44328500D02*
X180613000Y-43428500D01*
G75*
G02*
X180863000Y-43178500I250000J0D01*
G01*
X181388000Y-43178500D01*
G75*
G02*
X181638000Y-43428500I0J-250000D01*
G01*
X181638000Y-44328500D01*
G75*
G02*
X181388000Y-44578500I-250000J0D01*
G01*
X180863000Y-44578500D01*
G75*
G02*
X180613000Y-44328500I0J250000D01*
G01*
G37*
G36*
G01*
X178631000Y-99723000D02*
X177731000Y-99723000D01*
G75*
G02*
X177481000Y-99473000I0J250000D01*
G01*
X177481000Y-98948000D01*
G75*
G02*
X177731000Y-98698000I250000J0D01*
G01*
X178631000Y-98698000D01*
G75*
G02*
X178881000Y-98948000I0J-250000D01*
G01*
X178881000Y-99473000D01*
G75*
G02*
X178631000Y-99723000I-250000J0D01*
G01*
G37*
G36*
G01*
X178631000Y-97898000D02*
X177731000Y-97898000D01*
G75*
G02*
X177481000Y-97648000I0J250000D01*
G01*
X177481000Y-97123000D01*
G75*
G02*
X177731000Y-96873000I250000J0D01*
G01*
X178631000Y-96873000D01*
G75*
G02*
X178881000Y-97123000I0J-250000D01*
G01*
X178881000Y-97648000D01*
G75*
G02*
X178631000Y-97898000I-250000J0D01*
G01*
G37*
G36*
G01*
X148115000Y-139266000D02*
X149065000Y-139266000D01*
G75*
G02*
X149315000Y-139516000I0J-250000D01*
G01*
X149315000Y-140016000D01*
G75*
G02*
X149065000Y-140266000I-250000J0D01*
G01*
X148115000Y-140266000D01*
G75*
G02*
X147865000Y-140016000I0J250000D01*
G01*
X147865000Y-139516000D01*
G75*
G02*
X148115000Y-139266000I250000J0D01*
G01*
G37*
G36*
G01*
X148115000Y-141166000D02*
X149065000Y-141166000D01*
G75*
G02*
X149315000Y-141416000I0J-250000D01*
G01*
X149315000Y-141916000D01*
G75*
G02*
X149065000Y-142166000I-250000J0D01*
G01*
X148115000Y-142166000D01*
G75*
G02*
X147865000Y-141916000I0J250000D01*
G01*
X147865000Y-141416000D01*
G75*
G02*
X148115000Y-141166000I250000J0D01*
G01*
G37*
G36*
G01*
X103914000Y-79560000D02*
X103914000Y-80460000D01*
G75*
G02*
X103664000Y-80710000I-250000J0D01*
G01*
X103139000Y-80710000D01*
G75*
G02*
X102889000Y-80460000I0J250000D01*
G01*
X102889000Y-79560000D01*
G75*
G02*
X103139000Y-79310000I250000J0D01*
G01*
X103664000Y-79310000D01*
G75*
G02*
X103914000Y-79560000I0J-250000D01*
G01*
G37*
G36*
G01*
X102089000Y-79560000D02*
X102089000Y-80460000D01*
G75*
G02*
X101839000Y-80710000I-250000J0D01*
G01*
X101314000Y-80710000D01*
G75*
G02*
X101064000Y-80460000I0J250000D01*
G01*
X101064000Y-79560000D01*
G75*
G02*
X101314000Y-79310000I250000J0D01*
G01*
X101839000Y-79310000D01*
G75*
G02*
X102089000Y-79560000I0J-250000D01*
G01*
G37*
G36*
G01*
X103914000Y-41460000D02*
X103914000Y-42360000D01*
G75*
G02*
X103664000Y-42610000I-250000J0D01*
G01*
X103139000Y-42610000D01*
G75*
G02*
X102889000Y-42360000I0J250000D01*
G01*
X102889000Y-41460000D01*
G75*
G02*
X103139000Y-41210000I250000J0D01*
G01*
X103664000Y-41210000D01*
G75*
G02*
X103914000Y-41460000I0J-250000D01*
G01*
G37*
G36*
G01*
X102089000Y-41460000D02*
X102089000Y-42360000D01*
G75*
G02*
X101839000Y-42610000I-250000J0D01*
G01*
X101314000Y-42610000D01*
G75*
G02*
X101064000Y-42360000I0J250000D01*
G01*
X101064000Y-41460000D01*
G75*
G02*
X101314000Y-41210000I250000J0D01*
G01*
X101839000Y-41210000D01*
G75*
G02*
X102089000Y-41460000I0J-250000D01*
G01*
G37*
G36*
G01*
X103977500Y-130360000D02*
X103977500Y-131260000D01*
G75*
G02*
X103727500Y-131510000I-250000J0D01*
G01*
X103202500Y-131510000D01*
G75*
G02*
X102952500Y-131260000I0J250000D01*
G01*
X102952500Y-130360000D01*
G75*
G02*
X103202500Y-130110000I250000J0D01*
G01*
X103727500Y-130110000D01*
G75*
G02*
X103977500Y-130360000I0J-250000D01*
G01*
G37*
G36*
G01*
X102152500Y-130360000D02*
X102152500Y-131260000D01*
G75*
G02*
X101902500Y-131510000I-250000J0D01*
G01*
X101377500Y-131510000D01*
G75*
G02*
X101127500Y-131260000I0J250000D01*
G01*
X101127500Y-130360000D01*
G75*
G02*
X101377500Y-130110000I250000J0D01*
G01*
X101902500Y-130110000D01*
G75*
G02*
X102152500Y-130360000I0J-250000D01*
G01*
G37*
G36*
G01*
X172287250Y-133378000D02*
X171374750Y-133378000D01*
G75*
G02*
X171131000Y-133134250I0J243750D01*
G01*
X171131000Y-132646750D01*
G75*
G02*
X171374750Y-132403000I243750J0D01*
G01*
X172287250Y-132403000D01*
G75*
G02*
X172531000Y-132646750I0J-243750D01*
G01*
X172531000Y-133134250D01*
G75*
G02*
X172287250Y-133378000I-243750J0D01*
G01*
G37*
G36*
G01*
X172287250Y-131503000D02*
X171374750Y-131503000D01*
G75*
G02*
X171131000Y-131259250I0J243750D01*
G01*
X171131000Y-130771750D01*
G75*
G02*
X171374750Y-130528000I243750J0D01*
G01*
X172287250Y-130528000D01*
G75*
G02*
X172531000Y-130771750I0J-243750D01*
G01*
X172531000Y-131259250D01*
G75*
G02*
X172287250Y-131503000I-243750J0D01*
G01*
G37*
G36*
G01*
X167333000Y-50957500D02*
X167333000Y-50007500D01*
G75*
G02*
X167583000Y-49757500I250000J0D01*
G01*
X168083000Y-49757500D01*
G75*
G02*
X168333000Y-50007500I0J-250000D01*
G01*
X168333000Y-50957500D01*
G75*
G02*
X168083000Y-51207500I-250000J0D01*
G01*
X167583000Y-51207500D01*
G75*
G02*
X167333000Y-50957500I0J250000D01*
G01*
G37*
G36*
G01*
X169233000Y-50957500D02*
X169233000Y-50007500D01*
G75*
G02*
X169483000Y-49757500I250000J0D01*
G01*
X169983000Y-49757500D01*
G75*
G02*
X170233000Y-50007500I0J-250000D01*
G01*
X170233000Y-50957500D01*
G75*
G02*
X169983000Y-51207500I-250000J0D01*
G01*
X169483000Y-51207500D01*
G75*
G02*
X169233000Y-50957500I0J250000D01*
G01*
G37*
G36*
G01*
X196490000Y-70970000D02*
X196490000Y-71270000D01*
G75*
G02*
X196340000Y-71420000I-150000J0D01*
G01*
X194890000Y-71420000D01*
G75*
G02*
X194740000Y-71270000I0J150000D01*
G01*
X194740000Y-70970000D01*
G75*
G02*
X194890000Y-70820000I150000J0D01*
G01*
X196340000Y-70820000D01*
G75*
G02*
X196490000Y-70970000I0J-150000D01*
G01*
G37*
G36*
G01*
X196490000Y-69700000D02*
X196490000Y-70000000D01*
G75*
G02*
X196340000Y-70150000I-150000J0D01*
G01*
X194890000Y-70150000D01*
G75*
G02*
X194740000Y-70000000I0J150000D01*
G01*
X194740000Y-69700000D01*
G75*
G02*
X194890000Y-69550000I150000J0D01*
G01*
X196340000Y-69550000D01*
G75*
G02*
X196490000Y-69700000I0J-150000D01*
G01*
G37*
G36*
G01*
X196490000Y-68430000D02*
X196490000Y-68730000D01*
G75*
G02*
X196340000Y-68880000I-150000J0D01*
G01*
X194890000Y-68880000D01*
G75*
G02*
X194740000Y-68730000I0J150000D01*
G01*
X194740000Y-68430000D01*
G75*
G02*
X194890000Y-68280000I150000J0D01*
G01*
X196340000Y-68280000D01*
G75*
G02*
X196490000Y-68430000I0J-150000D01*
G01*
G37*
G36*
G01*
X196490000Y-67160000D02*
X196490000Y-67460000D01*
G75*
G02*
X196340000Y-67610000I-150000J0D01*
G01*
X194890000Y-67610000D01*
G75*
G02*
X194740000Y-67460000I0J150000D01*
G01*
X194740000Y-67160000D01*
G75*
G02*
X194890000Y-67010000I150000J0D01*
G01*
X196340000Y-67010000D01*
G75*
G02*
X196490000Y-67160000I0J-150000D01*
G01*
G37*
G36*
G01*
X196490000Y-65890000D02*
X196490000Y-66190000D01*
G75*
G02*
X196340000Y-66340000I-150000J0D01*
G01*
X194890000Y-66340000D01*
G75*
G02*
X194740000Y-66190000I0J150000D01*
G01*
X194740000Y-65890000D01*
G75*
G02*
X194890000Y-65740000I150000J0D01*
G01*
X196340000Y-65740000D01*
G75*
G02*
X196490000Y-65890000I0J-150000D01*
G01*
G37*
G36*
G01*
X196490000Y-64620000D02*
X196490000Y-64920000D01*
G75*
G02*
X196340000Y-65070000I-150000J0D01*
G01*
X194890000Y-65070000D01*
G75*
G02*
X194740000Y-64920000I0J150000D01*
G01*
X194740000Y-64620000D01*
G75*
G02*
X194890000Y-64470000I150000J0D01*
G01*
X196340000Y-64470000D01*
G75*
G02*
X196490000Y-64620000I0J-150000D01*
G01*
G37*
G36*
G01*
X196490000Y-63350000D02*
X196490000Y-63650000D01*
G75*
G02*
X196340000Y-63800000I-150000J0D01*
G01*
X194890000Y-63800000D01*
G75*
G02*
X194740000Y-63650000I0J150000D01*
G01*
X194740000Y-63350000D01*
G75*
G02*
X194890000Y-63200000I150000J0D01*
G01*
X196340000Y-63200000D01*
G75*
G02*
X196490000Y-63350000I0J-150000D01*
G01*
G37*
G36*
G01*
X196490000Y-62080000D02*
X196490000Y-62380000D01*
G75*
G02*
X196340000Y-62530000I-150000J0D01*
G01*
X194890000Y-62530000D01*
G75*
G02*
X194740000Y-62380000I0J150000D01*
G01*
X194740000Y-62080000D01*
G75*
G02*
X194890000Y-61930000I150000J0D01*
G01*
X196340000Y-61930000D01*
G75*
G02*
X196490000Y-62080000I0J-150000D01*
G01*
G37*
G36*
G01*
X191340000Y-62080000D02*
X191340000Y-62380000D01*
G75*
G02*
X191190000Y-62530000I-150000J0D01*
G01*
X189740000Y-62530000D01*
G75*
G02*
X189590000Y-62380000I0J150000D01*
G01*
X189590000Y-62080000D01*
G75*
G02*
X189740000Y-61930000I150000J0D01*
G01*
X191190000Y-61930000D01*
G75*
G02*
X191340000Y-62080000I0J-150000D01*
G01*
G37*
G36*
G01*
X191340000Y-63350000D02*
X191340000Y-63650000D01*
G75*
G02*
X191190000Y-63800000I-150000J0D01*
G01*
X189740000Y-63800000D01*
G75*
G02*
X189590000Y-63650000I0J150000D01*
G01*
X189590000Y-63350000D01*
G75*
G02*
X189740000Y-63200000I150000J0D01*
G01*
X191190000Y-63200000D01*
G75*
G02*
X191340000Y-63350000I0J-150000D01*
G01*
G37*
G36*
G01*
X191340000Y-64620000D02*
X191340000Y-64920000D01*
G75*
G02*
X191190000Y-65070000I-150000J0D01*
G01*
X189740000Y-65070000D01*
G75*
G02*
X189590000Y-64920000I0J150000D01*
G01*
X189590000Y-64620000D01*
G75*
G02*
X189740000Y-64470000I150000J0D01*
G01*
X191190000Y-64470000D01*
G75*
G02*
X191340000Y-64620000I0J-150000D01*
G01*
G37*
G36*
G01*
X191340000Y-65890000D02*
X191340000Y-66190000D01*
G75*
G02*
X191190000Y-66340000I-150000J0D01*
G01*
X189740000Y-66340000D01*
G75*
G02*
X189590000Y-66190000I0J150000D01*
G01*
X189590000Y-65890000D01*
G75*
G02*
X189740000Y-65740000I150000J0D01*
G01*
X191190000Y-65740000D01*
G75*
G02*
X191340000Y-65890000I0J-150000D01*
G01*
G37*
G36*
G01*
X191340000Y-67160000D02*
X191340000Y-67460000D01*
G75*
G02*
X191190000Y-67610000I-150000J0D01*
G01*
X189740000Y-67610000D01*
G75*
G02*
X189590000Y-67460000I0J150000D01*
G01*
X189590000Y-67160000D01*
G75*
G02*
X189740000Y-67010000I150000J0D01*
G01*
X191190000Y-67010000D01*
G75*
G02*
X191340000Y-67160000I0J-150000D01*
G01*
G37*
G36*
G01*
X191340000Y-68430000D02*
X191340000Y-68730000D01*
G75*
G02*
X191190000Y-68880000I-150000J0D01*
G01*
X189740000Y-68880000D01*
G75*
G02*
X189590000Y-68730000I0J150000D01*
G01*
X189590000Y-68430000D01*
G75*
G02*
X189740000Y-68280000I150000J0D01*
G01*
X191190000Y-68280000D01*
G75*
G02*
X191340000Y-68430000I0J-150000D01*
G01*
G37*
G36*
G01*
X191340000Y-69700000D02*
X191340000Y-70000000D01*
G75*
G02*
X191190000Y-70150000I-150000J0D01*
G01*
X189740000Y-70150000D01*
G75*
G02*
X189590000Y-70000000I0J150000D01*
G01*
X189590000Y-69700000D01*
G75*
G02*
X189740000Y-69550000I150000J0D01*
G01*
X191190000Y-69550000D01*
G75*
G02*
X191340000Y-69700000I0J-150000D01*
G01*
G37*
G36*
G01*
X191340000Y-70970000D02*
X191340000Y-71270000D01*
G75*
G02*
X191190000Y-71420000I-150000J0D01*
G01*
X189740000Y-71420000D01*
G75*
G02*
X189590000Y-71270000I0J150000D01*
G01*
X189590000Y-70970000D01*
G75*
G02*
X189740000Y-70820000I150000J0D01*
G01*
X191190000Y-70820000D01*
G75*
G02*
X191340000Y-70970000I0J-150000D01*
G01*
G37*
G36*
G01*
X177066000Y-109659000D02*
X177066000Y-110559000D01*
G75*
G02*
X176816000Y-110809000I-250000J0D01*
G01*
X176291000Y-110809000D01*
G75*
G02*
X176041000Y-110559000I0J250000D01*
G01*
X176041000Y-109659000D01*
G75*
G02*
X176291000Y-109409000I250000J0D01*
G01*
X176816000Y-109409000D01*
G75*
G02*
X177066000Y-109659000I0J-250000D01*
G01*
G37*
G36*
G01*
X175241000Y-109659000D02*
X175241000Y-110559000D01*
G75*
G02*
X174991000Y-110809000I-250000J0D01*
G01*
X174466000Y-110809000D01*
G75*
G02*
X174216000Y-110559000I0J250000D01*
G01*
X174216000Y-109659000D01*
G75*
G02*
X174466000Y-109409000I250000J0D01*
G01*
X174991000Y-109409000D01*
G75*
G02*
X175241000Y-109659000I0J-250000D01*
G01*
G37*
G36*
G01*
X159751000Y-128649000D02*
X159751000Y-127545000D01*
G75*
G02*
X159889000Y-127407000I138000J0D01*
G01*
X161713000Y-127407000D01*
G75*
G02*
X161851000Y-127545000I0J-138000D01*
G01*
X161851000Y-128649000D01*
G75*
G02*
X161713000Y-128787000I-138000J0D01*
G01*
X159889000Y-128787000D01*
G75*
G02*
X159751000Y-128649000I0J138000D01*
G01*
G37*
G36*
G01*
X150651000Y-128649000D02*
X150651000Y-127545000D01*
G75*
G02*
X150789000Y-127407000I138000J0D01*
G01*
X152613000Y-127407000D01*
G75*
G02*
X152751000Y-127545000I0J-138000D01*
G01*
X152751000Y-128649000D01*
G75*
G02*
X152613000Y-128787000I-138000J0D01*
G01*
X150789000Y-128787000D01*
G75*
G02*
X150651000Y-128649000I0J138000D01*
G01*
G37*
G36*
G01*
X159751000Y-124169000D02*
X159751000Y-123065000D01*
G75*
G02*
X159889000Y-122927000I138000J0D01*
G01*
X161713000Y-122927000D01*
G75*
G02*
X161851000Y-123065000I0J-138000D01*
G01*
X161851000Y-124169000D01*
G75*
G02*
X161713000Y-124307000I-138000J0D01*
G01*
X159889000Y-124307000D01*
G75*
G02*
X159751000Y-124169000I0J138000D01*
G01*
G37*
G36*
G01*
X150651000Y-124169000D02*
X150651000Y-123065000D01*
G75*
G02*
X150789000Y-122927000I138000J0D01*
G01*
X152613000Y-122927000D01*
G75*
G02*
X152751000Y-123065000I0J-138000D01*
G01*
X152751000Y-124169000D01*
G75*
G02*
X152613000Y-124307000I-138000J0D01*
G01*
X150789000Y-124307000D01*
G75*
G02*
X150651000Y-124169000I0J138000D01*
G01*
G37*
G36*
G01*
X161770000Y-47630500D02*
X161770000Y-46730500D01*
G75*
G02*
X162020000Y-46480500I250000J0D01*
G01*
X162545000Y-46480500D01*
G75*
G02*
X162795000Y-46730500I0J-250000D01*
G01*
X162795000Y-47630500D01*
G75*
G02*
X162545000Y-47880500I-250000J0D01*
G01*
X162020000Y-47880500D01*
G75*
G02*
X161770000Y-47630500I0J250000D01*
G01*
G37*
G36*
G01*
X163595000Y-47630500D02*
X163595000Y-46730500D01*
G75*
G02*
X163845000Y-46480500I250000J0D01*
G01*
X164370000Y-46480500D01*
G75*
G02*
X164620000Y-46730500I0J-250000D01*
G01*
X164620000Y-47630500D01*
G75*
G02*
X164370000Y-47880500I-250000J0D01*
G01*
X163845000Y-47880500D01*
G75*
G02*
X163595000Y-47630500I0J250000D01*
G01*
G37*
G36*
G01*
X103977500Y-127058000D02*
X103977500Y-127958000D01*
G75*
G02*
X103727500Y-128208000I-250000J0D01*
G01*
X103202500Y-128208000D01*
G75*
G02*
X102952500Y-127958000I0J250000D01*
G01*
X102952500Y-127058000D01*
G75*
G02*
X103202500Y-126808000I250000J0D01*
G01*
X103727500Y-126808000D01*
G75*
G02*
X103977500Y-127058000I0J-250000D01*
G01*
G37*
G36*
G01*
X102152500Y-127058000D02*
X102152500Y-127958000D01*
G75*
G02*
X101902500Y-128208000I-250000J0D01*
G01*
X101377500Y-128208000D01*
G75*
G02*
X101127500Y-127958000I0J250000D01*
G01*
X101127500Y-127058000D01*
G75*
G02*
X101377500Y-126808000I250000J0D01*
G01*
X101902500Y-126808000D01*
G75*
G02*
X102152500Y-127058000I0J-250000D01*
G01*
G37*
G36*
G01*
X136964000Y-54391500D02*
X137864000Y-54391500D01*
G75*
G02*
X138114000Y-54641500I0J-250000D01*
G01*
X138114000Y-55166500D01*
G75*
G02*
X137864000Y-55416500I-250000J0D01*
G01*
X136964000Y-55416500D01*
G75*
G02*
X136714000Y-55166500I0J250000D01*
G01*
X136714000Y-54641500D01*
G75*
G02*
X136964000Y-54391500I250000J0D01*
G01*
G37*
G36*
G01*
X136964000Y-56216500D02*
X137864000Y-56216500D01*
G75*
G02*
X138114000Y-56466500I0J-250000D01*
G01*
X138114000Y-56991500D01*
G75*
G02*
X137864000Y-57241500I-250000J0D01*
G01*
X136964000Y-57241500D01*
G75*
G02*
X136714000Y-56991500I0J250000D01*
G01*
X136714000Y-56466500D01*
G75*
G02*
X136964000Y-56216500I250000J0D01*
G01*
G37*
G36*
G01*
X123455750Y-38931000D02*
X123455750Y-38031000D01*
G75*
G02*
X123705750Y-37781000I250000J0D01*
G01*
X124230750Y-37781000D01*
G75*
G02*
X124480750Y-38031000I0J-250000D01*
G01*
X124480750Y-38931000D01*
G75*
G02*
X124230750Y-39181000I-250000J0D01*
G01*
X123705750Y-39181000D01*
G75*
G02*
X123455750Y-38931000I0J250000D01*
G01*
G37*
G36*
G01*
X125280750Y-38931000D02*
X125280750Y-38031000D01*
G75*
G02*
X125530750Y-37781000I250000J0D01*
G01*
X126055750Y-37781000D01*
G75*
G02*
X126305750Y-38031000I0J-250000D01*
G01*
X126305750Y-38931000D01*
G75*
G02*
X126055750Y-39181000I-250000J0D01*
G01*
X125530750Y-39181000D01*
G75*
G02*
X125280750Y-38931000I0J250000D01*
G01*
G37*
G36*
G01*
X103914000Y-70162000D02*
X103914000Y-71062000D01*
G75*
G02*
X103664000Y-71312000I-250000J0D01*
G01*
X103139000Y-71312000D01*
G75*
G02*
X102889000Y-71062000I0J250000D01*
G01*
X102889000Y-70162000D01*
G75*
G02*
X103139000Y-69912000I250000J0D01*
G01*
X103664000Y-69912000D01*
G75*
G02*
X103914000Y-70162000I0J-250000D01*
G01*
G37*
G36*
G01*
X102089000Y-70162000D02*
X102089000Y-71062000D01*
G75*
G02*
X101839000Y-71312000I-250000J0D01*
G01*
X101314000Y-71312000D01*
G75*
G02*
X101064000Y-71062000I0J250000D01*
G01*
X101064000Y-70162000D01*
G75*
G02*
X101314000Y-69912000I250000J0D01*
G01*
X101839000Y-69912000D01*
G75*
G02*
X102089000Y-70162000I0J-250000D01*
G01*
G37*
G36*
G01*
X184747000Y-66826000D02*
X184447000Y-66826000D01*
G75*
G02*
X184297000Y-66676000I0J150000D01*
G01*
X184297000Y-65501000D01*
G75*
G02*
X184447000Y-65351000I150000J0D01*
G01*
X184747000Y-65351000D01*
G75*
G02*
X184897000Y-65501000I0J-150000D01*
G01*
X184897000Y-66676000D01*
G75*
G02*
X184747000Y-66826000I-150000J0D01*
G01*
G37*
G36*
G01*
X186647000Y-66826000D02*
X186347000Y-66826000D01*
G75*
G02*
X186197000Y-66676000I0J150000D01*
G01*
X186197000Y-65501000D01*
G75*
G02*
X186347000Y-65351000I150000J0D01*
G01*
X186647000Y-65351000D01*
G75*
G02*
X186797000Y-65501000I0J-150000D01*
G01*
X186797000Y-66676000D01*
G75*
G02*
X186647000Y-66826000I-150000J0D01*
G01*
G37*
G36*
G01*
X185697000Y-64951000D02*
X185397000Y-64951000D01*
G75*
G02*
X185247000Y-64801000I0J150000D01*
G01*
X185247000Y-63626000D01*
G75*
G02*
X185397000Y-63476000I150000J0D01*
G01*
X185697000Y-63476000D01*
G75*
G02*
X185847000Y-63626000I0J-150000D01*
G01*
X185847000Y-64801000D01*
G75*
G02*
X185697000Y-64951000I-150000J0D01*
G01*
G37*
D20*
X158852000Y-140984000D03*
D21*
X152552000Y-138684000D03*
D20*
X158852000Y-138684000D03*
X158852000Y-136384000D03*
G36*
G01*
X158087000Y-134060250D02*
X158087000Y-133147750D01*
G75*
G02*
X158330750Y-132904000I243750J0D01*
G01*
X158818250Y-132904000D01*
G75*
G02*
X159062000Y-133147750I0J-243750D01*
G01*
X159062000Y-134060250D01*
G75*
G02*
X158818250Y-134304000I-243750J0D01*
G01*
X158330750Y-134304000D01*
G75*
G02*
X158087000Y-134060250I0J243750D01*
G01*
G37*
G36*
G01*
X159962000Y-134060250D02*
X159962000Y-133147750D01*
G75*
G02*
X160205750Y-132904000I243750J0D01*
G01*
X160693250Y-132904000D01*
G75*
G02*
X160937000Y-133147750I0J-243750D01*
G01*
X160937000Y-134060250D01*
G75*
G02*
X160693250Y-134304000I-243750J0D01*
G01*
X160205750Y-134304000D01*
G75*
G02*
X159962000Y-134060250I0J243750D01*
G01*
G37*
G36*
G01*
X195782500Y-50996000D02*
X195782500Y-50096000D01*
G75*
G02*
X196032500Y-49846000I250000J0D01*
G01*
X196557500Y-49846000D01*
G75*
G02*
X196807500Y-50096000I0J-250000D01*
G01*
X196807500Y-50996000D01*
G75*
G02*
X196557500Y-51246000I-250000J0D01*
G01*
X196032500Y-51246000D01*
G75*
G02*
X195782500Y-50996000I0J250000D01*
G01*
G37*
G36*
G01*
X197607500Y-50996000D02*
X197607500Y-50096000D01*
G75*
G02*
X197857500Y-49846000I250000J0D01*
G01*
X198382500Y-49846000D01*
G75*
G02*
X198632500Y-50096000I0J-250000D01*
G01*
X198632500Y-50996000D01*
G75*
G02*
X198382500Y-51246000I-250000J0D01*
G01*
X197857500Y-51246000D01*
G75*
G02*
X197607500Y-50996000I0J250000D01*
G01*
G37*
G36*
G01*
X103914000Y-101658000D02*
X103914000Y-102558000D01*
G75*
G02*
X103664000Y-102808000I-250000J0D01*
G01*
X103139000Y-102808000D01*
G75*
G02*
X102889000Y-102558000I0J250000D01*
G01*
X102889000Y-101658000D01*
G75*
G02*
X103139000Y-101408000I250000J0D01*
G01*
X103664000Y-101408000D01*
G75*
G02*
X103914000Y-101658000I0J-250000D01*
G01*
G37*
G36*
G01*
X102089000Y-101658000D02*
X102089000Y-102558000D01*
G75*
G02*
X101839000Y-102808000I-250000J0D01*
G01*
X101314000Y-102808000D01*
G75*
G02*
X101064000Y-102558000I0J250000D01*
G01*
X101064000Y-101658000D01*
G75*
G02*
X101314000Y-101408000I250000J0D01*
G01*
X101839000Y-101408000D01*
G75*
G02*
X102089000Y-101658000I0J-250000D01*
G01*
G37*
D22*
X125863000Y-88460000D03*
X125063000Y-88460000D03*
X124263000Y-88460000D03*
X123463000Y-88460000D03*
X122663000Y-88460000D03*
X121863000Y-88460000D03*
X121063000Y-88460000D03*
X120263000Y-88460000D03*
D23*
X118813000Y-89910000D03*
X118813000Y-90710000D03*
X118813000Y-91510000D03*
X118813000Y-92310000D03*
X118813000Y-93110000D03*
X118813000Y-93910000D03*
X118813000Y-94710000D03*
X118813000Y-95510000D03*
D22*
X120263000Y-96960000D03*
X121063000Y-96960000D03*
X121863000Y-96960000D03*
X122663000Y-96960000D03*
X123463000Y-96960000D03*
X124263000Y-96960000D03*
X125063000Y-96960000D03*
X125863000Y-96960000D03*
D23*
X127313000Y-95510000D03*
X127313000Y-94710000D03*
X127313000Y-93910000D03*
X127313000Y-93110000D03*
X127313000Y-92310000D03*
X127313000Y-91510000D03*
X127313000Y-90710000D03*
X127313000Y-89910000D03*
G36*
G01*
X195806000Y-44392000D02*
X195806000Y-43492000D01*
G75*
G02*
X196056000Y-43242000I250000J0D01*
G01*
X196581000Y-43242000D01*
G75*
G02*
X196831000Y-43492000I0J-250000D01*
G01*
X196831000Y-44392000D01*
G75*
G02*
X196581000Y-44642000I-250000J0D01*
G01*
X196056000Y-44642000D01*
G75*
G02*
X195806000Y-44392000I0J250000D01*
G01*
G37*
G36*
G01*
X197631000Y-44392000D02*
X197631000Y-43492000D01*
G75*
G02*
X197881000Y-43242000I250000J0D01*
G01*
X198406000Y-43242000D01*
G75*
G02*
X198656000Y-43492000I0J-250000D01*
G01*
X198656000Y-44392000D01*
G75*
G02*
X198406000Y-44642000I-250000J0D01*
G01*
X197881000Y-44642000D01*
G75*
G02*
X197631000Y-44392000I0J250000D01*
G01*
G37*
D24*
X146558000Y-109614000D03*
X144018000Y-109614000D03*
X141478000Y-109614000D03*
X138938000Y-109614000D03*
X136398000Y-109614000D03*
X133858000Y-109614000D03*
X131318000Y-109614000D03*
X128778000Y-109614000D03*
X128778000Y-118224000D03*
X131318000Y-118224000D03*
X133858000Y-118224000D03*
X136398000Y-118224000D03*
X138938000Y-118224000D03*
X141478000Y-118224000D03*
X144018000Y-118224000D03*
X146558000Y-118224000D03*
G36*
G01*
X103914000Y-44762000D02*
X103914000Y-45662000D01*
G75*
G02*
X103664000Y-45912000I-250000J0D01*
G01*
X103139000Y-45912000D01*
G75*
G02*
X102889000Y-45662000I0J250000D01*
G01*
X102889000Y-44762000D01*
G75*
G02*
X103139000Y-44512000I250000J0D01*
G01*
X103664000Y-44512000D01*
G75*
G02*
X103914000Y-44762000I0J-250000D01*
G01*
G37*
G36*
G01*
X102089000Y-44762000D02*
X102089000Y-45662000D01*
G75*
G02*
X101839000Y-45912000I-250000J0D01*
G01*
X101314000Y-45912000D01*
G75*
G02*
X101064000Y-45662000I0J250000D01*
G01*
X101064000Y-44762000D01*
G75*
G02*
X101314000Y-44512000I250000J0D01*
G01*
X101839000Y-44512000D01*
G75*
G02*
X102089000Y-44762000I0J-250000D01*
G01*
G37*
G36*
G01*
X81302000Y-90943000D02*
X82502000Y-90943000D01*
G75*
G02*
X82702000Y-91143000I0J-200000D01*
G01*
X82702000Y-91543000D01*
G75*
G02*
X82502000Y-91743000I-200000J0D01*
G01*
X81302000Y-91743000D01*
G75*
G02*
X81102000Y-91543000I0J200000D01*
G01*
X81102000Y-91143000D01*
G75*
G02*
X81302000Y-90943000I200000J0D01*
G01*
G37*
G36*
G01*
X81302000Y-92193000D02*
X82502000Y-92193000D01*
G75*
G02*
X82702000Y-92393000I0J-200000D01*
G01*
X82702000Y-92793000D01*
G75*
G02*
X82502000Y-92993000I-200000J0D01*
G01*
X81302000Y-92993000D01*
G75*
G02*
X81102000Y-92793000I0J200000D01*
G01*
X81102000Y-92393000D01*
G75*
G02*
X81302000Y-92193000I200000J0D01*
G01*
G37*
G36*
G01*
X81302000Y-93443000D02*
X82502000Y-93443000D01*
G75*
G02*
X82702000Y-93643000I0J-200000D01*
G01*
X82702000Y-94043000D01*
G75*
G02*
X82502000Y-94243000I-200000J0D01*
G01*
X81302000Y-94243000D01*
G75*
G02*
X81102000Y-94043000I0J200000D01*
G01*
X81102000Y-93643000D01*
G75*
G02*
X81302000Y-93443000I200000J0D01*
G01*
G37*
G36*
G01*
X81302000Y-94693000D02*
X82502000Y-94693000D01*
G75*
G02*
X82702000Y-94893000I0J-200000D01*
G01*
X82702000Y-95293000D01*
G75*
G02*
X82502000Y-95493000I-200000J0D01*
G01*
X81302000Y-95493000D01*
G75*
G02*
X81102000Y-95293000I0J200000D01*
G01*
X81102000Y-94893000D01*
G75*
G02*
X81302000Y-94693000I200000J0D01*
G01*
G37*
G36*
G01*
X77752001Y-96593000D02*
X80251999Y-96593000D01*
G75*
G02*
X80502000Y-96843001I0J-250001D01*
G01*
X80502000Y-98442999D01*
G75*
G02*
X80251999Y-98693000I-250001J0D01*
G01*
X77752001Y-98693000D01*
G75*
G02*
X77502000Y-98442999I0J250001D01*
G01*
X77502000Y-96843001D01*
G75*
G02*
X77752001Y-96593000I250001J0D01*
G01*
G37*
G36*
G01*
X77752001Y-87743000D02*
X80251999Y-87743000D01*
G75*
G02*
X80502000Y-87993001I0J-250001D01*
G01*
X80502000Y-89592999D01*
G75*
G02*
X80251999Y-89843000I-250001J0D01*
G01*
X77752001Y-89843000D01*
G75*
G02*
X77502000Y-89592999I0J250001D01*
G01*
X77502000Y-87993001D01*
G75*
G02*
X77752001Y-87743000I250001J0D01*
G01*
G37*
G36*
G01*
X81302000Y-49795000D02*
X82502000Y-49795000D01*
G75*
G02*
X82702000Y-49995000I0J-200000D01*
G01*
X82702000Y-50395000D01*
G75*
G02*
X82502000Y-50595000I-200000J0D01*
G01*
X81302000Y-50595000D01*
G75*
G02*
X81102000Y-50395000I0J200000D01*
G01*
X81102000Y-49995000D01*
G75*
G02*
X81302000Y-49795000I200000J0D01*
G01*
G37*
G36*
G01*
X81302000Y-51045000D02*
X82502000Y-51045000D01*
G75*
G02*
X82702000Y-51245000I0J-200000D01*
G01*
X82702000Y-51645000D01*
G75*
G02*
X82502000Y-51845000I-200000J0D01*
G01*
X81302000Y-51845000D01*
G75*
G02*
X81102000Y-51645000I0J200000D01*
G01*
X81102000Y-51245000D01*
G75*
G02*
X81302000Y-51045000I200000J0D01*
G01*
G37*
G36*
G01*
X81302000Y-52295000D02*
X82502000Y-52295000D01*
G75*
G02*
X82702000Y-52495000I0J-200000D01*
G01*
X82702000Y-52895000D01*
G75*
G02*
X82502000Y-53095000I-200000J0D01*
G01*
X81302000Y-53095000D01*
G75*
G02*
X81102000Y-52895000I0J200000D01*
G01*
X81102000Y-52495000D01*
G75*
G02*
X81302000Y-52295000I200000J0D01*
G01*
G37*
G36*
G01*
X81302000Y-53545000D02*
X82502000Y-53545000D01*
G75*
G02*
X82702000Y-53745000I0J-200000D01*
G01*
X82702000Y-54145000D01*
G75*
G02*
X82502000Y-54345000I-200000J0D01*
G01*
X81302000Y-54345000D01*
G75*
G02*
X81102000Y-54145000I0J200000D01*
G01*
X81102000Y-53745000D01*
G75*
G02*
X81302000Y-53545000I200000J0D01*
G01*
G37*
G36*
G01*
X77752001Y-46595000D02*
X80251999Y-46595000D01*
G75*
G02*
X80502000Y-46845001I0J-250001D01*
G01*
X80502000Y-48444999D01*
G75*
G02*
X80251999Y-48695000I-250001J0D01*
G01*
X77752001Y-48695000D01*
G75*
G02*
X77502000Y-48444999I0J250001D01*
G01*
X77502000Y-46845001D01*
G75*
G02*
X77752001Y-46595000I250001J0D01*
G01*
G37*
G36*
G01*
X77752001Y-55445000D02*
X80251999Y-55445000D01*
G75*
G02*
X80502000Y-55695001I0J-250001D01*
G01*
X80502000Y-57294999D01*
G75*
G02*
X80251999Y-57545000I-250001J0D01*
G01*
X77752001Y-57545000D01*
G75*
G02*
X77502000Y-57294999I0J250001D01*
G01*
X77502000Y-55695001D01*
G75*
G02*
X77752001Y-55445000I250001J0D01*
G01*
G37*
G36*
G01*
X144219000Y-74198500D02*
X144219000Y-73248500D01*
G75*
G02*
X144469000Y-72998500I250000J0D01*
G01*
X144969000Y-72998500D01*
G75*
G02*
X145219000Y-73248500I0J-250000D01*
G01*
X145219000Y-74198500D01*
G75*
G02*
X144969000Y-74448500I-250000J0D01*
G01*
X144469000Y-74448500D01*
G75*
G02*
X144219000Y-74198500I0J250000D01*
G01*
G37*
G36*
G01*
X146119000Y-74198500D02*
X146119000Y-73248500D01*
G75*
G02*
X146369000Y-72998500I250000J0D01*
G01*
X146869000Y-72998500D01*
G75*
G02*
X147119000Y-73248500I0J-250000D01*
G01*
X147119000Y-74198500D01*
G75*
G02*
X146869000Y-74448500I-250000J0D01*
G01*
X146369000Y-74448500D01*
G75*
G02*
X146119000Y-74198500I0J250000D01*
G01*
G37*
G36*
G01*
X149065000Y-137975000D02*
X148115000Y-137975000D01*
G75*
G02*
X147865000Y-137725000I0J250000D01*
G01*
X147865000Y-137225000D01*
G75*
G02*
X148115000Y-136975000I250000J0D01*
G01*
X149065000Y-136975000D01*
G75*
G02*
X149315000Y-137225000I0J-250000D01*
G01*
X149315000Y-137725000D01*
G75*
G02*
X149065000Y-137975000I-250000J0D01*
G01*
G37*
G36*
G01*
X149065000Y-136075000D02*
X148115000Y-136075000D01*
G75*
G02*
X147865000Y-135825000I0J250000D01*
G01*
X147865000Y-135325000D01*
G75*
G02*
X148115000Y-135075000I250000J0D01*
G01*
X149065000Y-135075000D01*
G75*
G02*
X149315000Y-135325000I0J-250000D01*
G01*
X149315000Y-135825000D01*
G75*
G02*
X149065000Y-136075000I-250000J0D01*
G01*
G37*
M02*
