M48
INCH,TZ
T1C0.0120
T2C0.0299
T3C0.0394
T4C0.0433
T5C0.0472
T6C0.0512
T7C0.1260
%
G90
G05
T1
X31050Y-14300
X31050Y-15800
X31050Y-19750
X31050Y-21250
X31050Y-25150
X31050Y-26650
X31050Y-30550
X31050Y-32050
X31050Y-35950
X31050Y-37450
X31050Y-41350
X31050Y-42850
X31050Y-46750
X31050Y-48250
X31050Y-52150
X31050Y-53650
X39650Y-9650
X39650Y-10050
X39700Y-56200
X39700Y-56550
X39750Y-57400
X39750Y-57800
X40150Y-9650
X40150Y-10050
X41350Y-56200
X41350Y-56550
X41350Y-57400
X41350Y-57800
X41950Y-9650
X41950Y-56200
X41950Y-56550
X41950Y-57400
X41950Y-57800
X42450Y-9650
X43550Y-57400
X43550Y-57800
X43950Y-42100
X44350Y-42100
X44550Y-43400
X44900Y-43400
X44950Y-16500
X44950Y-16900
X44950Y-17300
X44950Y-28350
X44950Y-28750
X44950Y-29150
X45250Y-9650
X45550Y-48000
X45550Y-48450
X45550Y-48950
X45750Y-9650
X45850Y-14000
X46100Y-48000
X46100Y-48450
X46100Y-48950
X46150Y-12450
X46200Y-14000
X46450Y-38650
X46500Y-12450
X46550Y-14000
X46800Y-38100
X46850Y-12450
X46850Y-38500
X47300Y-37300
X47639Y-19310
X48050Y-37300
X48293Y-34143
X48539Y-17610
X48539Y-18110
X48607Y-37493
X48650Y-9650
X48889Y-17610
X48889Y-18110
X48950Y-37500
X49150Y-9650
X49150Y-46400
X49241Y-55809
X49500Y-12400
X49600Y-46100
X49641Y-55809
X49850Y-12400
X50000Y-45800
X50200Y-12400
X50550Y-9550
X50550Y-10050
X51124Y-16576
X51195Y-43155
X51300Y-41400
X51300Y-41850
X51300Y-42300
X52591Y-16591
X53195Y-43155
X53200Y-21025
X53224Y-25401
X53225Y-25100
X53250Y-27628
X53250Y-29828
X53250Y-52200
X53250Y-52800
X53250Y-53300
X53251Y-27327
X53251Y-29527
X53650Y-51800
X53650Y-53750
X54200Y-51800
X54200Y-53750
X54750Y-51800
X54750Y-53750
X54899Y-29826
X54900Y-29525
X55200Y-52200
X55200Y-52800
X55200Y-53300
X55245Y-43155
X56150Y-21025
X56600Y-21025
X57026Y-32924
X57026Y-33324
X57026Y-34676
X57026Y-36024
X57245Y-43155
X57450Y-24825
X57450Y-25225
X57574Y-28049
X57574Y-28401
X57809Y-15691
X57809Y-16091
X57841Y-55809
X57900Y-50200
X57900Y-50600
X58250Y-52950
X58500Y-48300
X58500Y-48650
X58600Y-35400
X58700Y-52950
X59000Y-35400
X59084Y-31437
X59241Y-55809
X59384Y-31437
X59400Y-16100
X59400Y-16500
X60000Y-21025
X60024Y-25401
X60025Y-25100
X60050Y-27628
X60050Y-29828
X60051Y-27327
X60051Y-29527
X60691Y-55809
X61450Y-54600
X61699Y-29826
X61700Y-29525
X61800Y-54600
X61894Y-55506
X62450Y-53150
X62800Y-53150
X62950Y-21025
X63300Y-46350
X63302Y-46998
X63350Y-34250
X63400Y-21025
X63850Y-34250
X64000Y-56900
X64250Y-24825
X64250Y-25225
X64340Y-50500
X64340Y-50850
X64340Y-51200
X64600Y-28098
X64600Y-28450
X64619Y-15681
X64619Y-16081
X66100Y-16100
X66100Y-16500
X66550Y-48000
X66550Y-48500
X66550Y-49000
X66700Y-21025
X66700Y-52600
X66700Y-53050
X66700Y-54650
X66724Y-25401
X66725Y-25100
X66750Y-27628
X66750Y-29828
X66751Y-27327
X66751Y-29527
X67100Y-48000
X67100Y-48500
X67100Y-49000
X67100Y-54650
X67500Y-56900
X67650Y-48000
X67650Y-48500
X67650Y-49000
X67650Y-52850
X67800Y-41250
X67800Y-41650
X67850Y-35613
X67850Y-36163
X68399Y-29826
X68400Y-29525
X68700Y-34250
X69150Y-34250
X69300Y-33300
X69550Y-53100
X69550Y-53450
X69650Y-21025
X69750Y-40850
X70050Y-40850
X70100Y-21025
X70750Y-32650
X70750Y-33100
X70800Y-41050
X70950Y-24825
X70950Y-25225
X71000Y-41350
X71250Y-28100
X71250Y-28452
X71250Y-36600
X71300Y-15700
X71300Y-16100
X71300Y-31650
X71500Y-36150
X71700Y-31250
X72050Y-50050
X72050Y-50400
X72100Y-51200
X72100Y-51650
X72100Y-52000
X72150Y-38000
X72350Y-41450
X72350Y-42700
X72550Y-38000
X72750Y-51650
X72750Y-52000
X72800Y-16100
X72800Y-16500
X72850Y-34250
X73300Y-34250
X73400Y-21050
X73424Y-25426
X73425Y-25125
X73450Y-27653
X73450Y-29853
X73451Y-27352
X73451Y-29552
X73850Y-36350
X74250Y-49750
X74250Y-50150
X74250Y-50500
X74650Y-37550
X74650Y-38000
X74650Y-40500
X74650Y-40850
X74650Y-41200
X75099Y-29851
X75100Y-29550
X75450Y-49750
X75450Y-50150
X75450Y-50500
X75550Y-9650
X75550Y-10150
X76000Y-9650
X76000Y-10150
X76100Y-34500
X76100Y-34800
X76350Y-21050
X76800Y-21050
X77650Y-24850
X77650Y-25250
X77650Y-46100
X77900Y-28048
X77900Y-28400
X78000Y-46450
X78450Y-46450
X78900Y-46450
X79791Y-50109
X79791Y-53459
X79800Y-50500
X79800Y-53850
X79900Y-48413
X79900Y-48800
X79900Y-51750
X79900Y-52137
X79900Y-55113
X79900Y-55500
X80144Y-32456
X80144Y-32806
X80144Y-33156
X80144Y-35806
X80144Y-36156
X80144Y-36506
X80150Y-29100
X80150Y-29450
X80150Y-29800
X80200Y-48413
X80200Y-48800
X80200Y-51750
X80200Y-52137
X80200Y-55113
X80200Y-55500
X80250Y-15400
X80250Y-15750
X80250Y-16100
X80250Y-18750
X80250Y-19100
X80250Y-19450
X80250Y-22150
X80250Y-22500
X80250Y-22850
X80250Y-25550
X80250Y-25900
X80250Y-26250
X80500Y-48413
X80500Y-48800
X80500Y-51750
X80500Y-52137
X80500Y-55113
X80500Y-55500
X81850Y-14150
X81850Y-14650
X81850Y-17450
X81850Y-17950
X81850Y-20800
X81850Y-21300
X81850Y-24200
X81850Y-24700
X81850Y-27500
X81850Y-28000
X81850Y-30900
X81850Y-31400
X81850Y-34200
X81850Y-34700
T2
X53300Y-16000
X53800Y-15000
X54300Y-16000
X54800Y-15000
X55300Y-16000
X55800Y-15000
X56300Y-16000
X56800Y-15000
X60086Y-16008
X60586Y-15008
X61086Y-16008
X61586Y-15008
X62086Y-16008
X62586Y-15008
X63086Y-16008
X63586Y-15008
X66786Y-16016
X67286Y-15016
X67786Y-16016
X68286Y-15016
X68786Y-16016
X69286Y-15016
X69786Y-16016
X70286Y-15016
X73486Y-16008
X73986Y-15008
X74486Y-16008
X74986Y-15008
X75486Y-16008
X75986Y-15008
X76486Y-16008
X76986Y-15008
T3
X64748Y-40106
X64748Y-41106
X64748Y-42106
X65748Y-40106
X65748Y-41106
X65748Y-42106
T4
X79850Y-37450
X79850Y-38450
X79850Y-39450
X79850Y-40450
X79850Y-41450
X79850Y-42450
X79850Y-43450
X79850Y-44450
T5
X38000Y-10200
X38000Y-11578
X38000Y-12956
X38000Y-15200
X38000Y-16578
X38000Y-17956
X38000Y-20200
X38000Y-21578
X38000Y-22956
X38000Y-25200
X38000Y-26578
X38000Y-27956
X38000Y-30200
X38000Y-31578
X38000Y-32956
X38000Y-35200
X38000Y-36578
X38000Y-37956
X38000Y-40200
X38000Y-41578
X38000Y-42956
X38000Y-45200
X38000Y-46578
X38000Y-47956
X38000Y-50200
X38000Y-51578
X38000Y-52956
X38000Y-55200
X38000Y-56578
X38000Y-57956
T6
X69666Y-56418
X71634Y-56418
T7
X31700Y-10700
X31700Y-57300
X69700Y-35800
X69700Y-46400
X80800Y-10700
X80800Y-57300
T0
M30
