G04 #@! TF.GenerationSoftware,KiCad,Pcbnew,6.0.10-86aedd382b~118~ubuntu18.04.1*
G04 #@! TF.CreationDate,2025-04-04T14:58:15-06:00*
G04 #@! TF.ProjectId,mss-xcade,6d73732d-7863-4616-9465-2e6b69636164,rev?*
G04 #@! TF.SameCoordinates,Original*
G04 #@! TF.FileFunction,Soldermask,Bot*
G04 #@! TF.FilePolarity,Negative*
%FSLAX46Y46*%
G04 Gerber Fmt 4.6, Leading zero omitted, Abs format (unit mm)*
G04 Created by KiCad (PCBNEW 6.0.10-86aedd382b~118~ubuntu18.04.1) date 2025-04-04 14:58:15*
%MOMM*%
%LPD*%
G01*
G04 APERTURE LIST*
%ADD10C,2.452400*%
%ADD11O,1.852400X1.852400*%
%ADD12C,3.352400*%
%ADD13C,1.652400*%
%ADD14C,6.552400*%
%ADD15C,5.652400*%
%ADD16C,1.143000*%
%ADD17C,2.652400*%
%ADD18C,1.052400*%
%ADD19C,2.252400*%
%ADD20C,2.152400*%
G04 APERTURE END LIST*
G36*
G01*
X95370000Y-88181800D02*
X97670000Y-88181800D01*
G75*
G02*
X97746200Y-88258000I0J-76200D01*
G01*
X97746200Y-90558000D01*
G75*
G02*
X97670000Y-90634200I-76200J0D01*
G01*
X95370000Y-90634200D01*
G75*
G02*
X95293800Y-90558000I0J76200D01*
G01*
X95293800Y-88258000D01*
G75*
G02*
X95370000Y-88181800I76200J0D01*
G01*
G37*
D10*
X96520000Y-92908000D03*
X96520000Y-96408000D03*
G36*
G01*
X95370000Y-37381800D02*
X97670000Y-37381800D01*
G75*
G02*
X97746200Y-37458000I0J-76200D01*
G01*
X97746200Y-39758000D01*
G75*
G02*
X97670000Y-39834200I-76200J0D01*
G01*
X95370000Y-39834200D01*
G75*
G02*
X95293800Y-39758000I0J76200D01*
G01*
X95293800Y-37458000D01*
G75*
G02*
X95370000Y-37381800I76200J0D01*
G01*
G37*
X96520000Y-42108000D03*
X96520000Y-45608000D03*
G36*
G01*
X95370000Y-126281800D02*
X97670000Y-126281800D01*
G75*
G02*
X97746200Y-126358000I0J-76200D01*
G01*
X97746200Y-128658000D01*
G75*
G02*
X97670000Y-128734200I-76200J0D01*
G01*
X95370000Y-128734200D01*
G75*
G02*
X95293800Y-128658000I0J76200D01*
G01*
X95293800Y-126358000D01*
G75*
G02*
X95370000Y-126281800I76200J0D01*
G01*
G37*
X96520000Y-131008000D03*
X96520000Y-134508000D03*
G36*
G01*
X163533800Y-102719000D02*
X163533800Y-101019000D01*
G75*
G02*
X163610000Y-100942800I76200J0D01*
G01*
X165310000Y-100942800D01*
G75*
G02*
X165386200Y-101019000I0J-76200D01*
G01*
X165386200Y-102719000D01*
G75*
G02*
X165310000Y-102795200I-76200J0D01*
G01*
X163610000Y-102795200D01*
G75*
G02*
X163533800Y-102719000I0J76200D01*
G01*
G37*
D11*
X167000000Y-101869000D03*
X164460000Y-104409000D03*
X167000000Y-104409000D03*
X164460000Y-106949000D03*
X167000000Y-106949000D03*
D12*
X196814500Y-31770000D03*
X185384500Y-31770000D03*
G36*
G01*
X196370700Y-37370000D02*
X196370700Y-38870000D01*
G75*
G02*
X196294500Y-38946200I-76200J0D01*
G01*
X194794500Y-38946200D01*
G75*
G02*
X194718300Y-38870000I0J76200D01*
G01*
X194718300Y-37370000D01*
G75*
G02*
X194794500Y-37293800I76200J0D01*
G01*
X196294500Y-37293800D01*
G75*
G02*
X196370700Y-37370000I0J-76200D01*
G01*
G37*
D13*
X194274500Y-40660000D03*
X193004500Y-38120000D03*
X191734500Y-40660000D03*
X190464500Y-38120000D03*
X189194500Y-40660000D03*
X187924500Y-38120000D03*
X186654500Y-40660000D03*
D12*
X145542000Y-31750000D03*
X134112000Y-31750000D03*
G36*
G01*
X145098200Y-37350000D02*
X145098200Y-38850000D01*
G75*
G02*
X145022000Y-38926200I-76200J0D01*
G01*
X143522000Y-38926200D01*
G75*
G02*
X143445800Y-38850000I0J76200D01*
G01*
X143445800Y-37350000D01*
G75*
G02*
X143522000Y-37273800I76200J0D01*
G01*
X145022000Y-37273800D01*
G75*
G02*
X145098200Y-37350000I0J-76200D01*
G01*
G37*
D13*
X143002000Y-40640000D03*
X141732000Y-38100000D03*
X140462000Y-40640000D03*
X139192000Y-38100000D03*
X137922000Y-40640000D03*
X136652000Y-38100000D03*
X135382000Y-40640000D03*
G36*
G01*
X95370000Y-24681800D02*
X97670000Y-24681800D01*
G75*
G02*
X97746200Y-24758000I0J-76200D01*
G01*
X97746200Y-27058000D01*
G75*
G02*
X97670000Y-27134200I-76200J0D01*
G01*
X95370000Y-27134200D01*
G75*
G02*
X95293800Y-27058000I0J76200D01*
G01*
X95293800Y-24758000D01*
G75*
G02*
X95370000Y-24681800I76200J0D01*
G01*
G37*
D10*
X96520000Y-29408000D03*
X96520000Y-32908000D03*
G36*
G01*
X95370000Y-62781800D02*
X97670000Y-62781800D01*
G75*
G02*
X97746200Y-62858000I0J-76200D01*
G01*
X97746200Y-65158000D01*
G75*
G02*
X97670000Y-65234200I-76200J0D01*
G01*
X95370000Y-65234200D01*
G75*
G02*
X95293800Y-65158000I0J76200D01*
G01*
X95293800Y-62858000D01*
G75*
G02*
X95370000Y-62781800I76200J0D01*
G01*
G37*
X96520000Y-67508000D03*
X96520000Y-71008000D03*
D14*
X80518000Y-145542000D03*
D15*
X177038000Y-117856000D03*
D16*
X117475000Y-99822000D03*
X119507000Y-99822000D03*
X118491000Y-104902000D03*
D14*
X205232000Y-145542000D03*
G36*
G01*
X95370000Y-138981800D02*
X97670000Y-138981800D01*
G75*
G02*
X97746200Y-139058000I0J-76200D01*
G01*
X97746200Y-141358000D01*
G75*
G02*
X97670000Y-141434200I-76200J0D01*
G01*
X95370000Y-141434200D01*
G75*
G02*
X95293800Y-141358000I0J76200D01*
G01*
X95293800Y-139058000D01*
G75*
G02*
X95370000Y-138981800I76200J0D01*
G01*
G37*
D10*
X96520000Y-143708000D03*
X96520000Y-147208000D03*
G36*
G01*
X95370000Y-100881800D02*
X97670000Y-100881800D01*
G75*
G02*
X97746200Y-100958000I0J-76200D01*
G01*
X97746200Y-103258000D01*
G75*
G02*
X97670000Y-103334200I-76200J0D01*
G01*
X95370000Y-103334200D01*
G75*
G02*
X95293800Y-103258000I0J76200D01*
G01*
X95293800Y-100958000D01*
G75*
G02*
X95370000Y-100881800I76200J0D01*
G01*
G37*
X96520000Y-105608000D03*
X96520000Y-109108000D03*
D15*
X177038000Y-90932000D03*
D14*
X205232000Y-27178000D03*
X80518000Y-27178000D03*
G36*
G01*
X95370000Y-75481800D02*
X97670000Y-75481800D01*
G75*
G02*
X97746200Y-75558000I0J-76200D01*
G01*
X97746200Y-77858000D01*
G75*
G02*
X97670000Y-77934200I-76200J0D01*
G01*
X95370000Y-77934200D01*
G75*
G02*
X95293800Y-77858000I0J76200D01*
G01*
X95293800Y-75558000D01*
G75*
G02*
X95370000Y-75481800I76200J0D01*
G01*
G37*
D10*
X96520000Y-80208000D03*
X96520000Y-83708000D03*
G36*
G01*
X175624800Y-144552000D02*
X175624800Y-142052000D01*
G75*
G02*
X175701000Y-141975800I76200J0D01*
G01*
X178201000Y-141975800D01*
G75*
G02*
X178277200Y-142052000I0J-76200D01*
G01*
X178277200Y-144552000D01*
G75*
G02*
X178201000Y-144628200I-76200J0D01*
G01*
X175701000Y-144628200D01*
G75*
G02*
X175624800Y-144552000I0J76200D01*
G01*
G37*
D17*
X181951000Y-143302000D03*
G36*
G01*
X95370000Y-113581800D02*
X97670000Y-113581800D01*
G75*
G02*
X97746200Y-113658000I0J-76200D01*
G01*
X97746200Y-115958000D01*
G75*
G02*
X97670000Y-116034200I-76200J0D01*
G01*
X95370000Y-116034200D01*
G75*
G02*
X95293800Y-115958000I0J76200D01*
G01*
X95293800Y-113658000D01*
G75*
G02*
X95370000Y-113581800I76200J0D01*
G01*
G37*
D10*
X96520000Y-118308000D03*
X96520000Y-121808000D03*
D12*
X179796500Y-31790000D03*
X168366500Y-31790000D03*
G36*
G01*
X179352700Y-37390000D02*
X179352700Y-38890000D01*
G75*
G02*
X179276500Y-38966200I-76200J0D01*
G01*
X177776500Y-38966200D01*
G75*
G02*
X177700300Y-38890000I0J76200D01*
G01*
X177700300Y-37390000D01*
G75*
G02*
X177776500Y-37313800I76200J0D01*
G01*
X179276500Y-37313800D01*
G75*
G02*
X179352700Y-37390000I0J-76200D01*
G01*
G37*
D13*
X177256500Y-40680000D03*
X175986500Y-38140000D03*
X174716500Y-40680000D03*
X173446500Y-38140000D03*
X172176500Y-40680000D03*
X170906500Y-38140000D03*
X169636500Y-40680000D03*
D18*
X169205000Y-144272000D03*
X164805000Y-144272000D03*
D12*
X162778500Y-31770000D03*
X151348500Y-31770000D03*
G36*
G01*
X162334700Y-37370000D02*
X162334700Y-38870000D01*
G75*
G02*
X162258500Y-38946200I-76200J0D01*
G01*
X160758500Y-38946200D01*
G75*
G02*
X160682300Y-38870000I0J76200D01*
G01*
X160682300Y-37370000D01*
G75*
G02*
X160758500Y-37293800I76200J0D01*
G01*
X162258500Y-37293800D01*
G75*
G02*
X162334700Y-37370000I0J-76200D01*
G01*
G37*
D13*
X160238500Y-40660000D03*
X158968500Y-38120000D03*
X157698500Y-40660000D03*
X156428500Y-38120000D03*
X155158500Y-40660000D03*
X153888500Y-38120000D03*
X152618500Y-40660000D03*
G36*
G01*
X203869000Y-114029200D02*
X201769000Y-114029200D01*
G75*
G02*
X201692800Y-113953000I0J76200D01*
G01*
X201692800Y-111853000D01*
G75*
G02*
X201769000Y-111776800I76200J0D01*
G01*
X203869000Y-111776800D01*
G75*
G02*
X203945200Y-111853000I0J-76200D01*
G01*
X203945200Y-113953000D01*
G75*
G02*
X203869000Y-114029200I-76200J0D01*
G01*
G37*
D19*
X202819000Y-110363000D03*
X202819000Y-107823000D03*
X202819000Y-105283000D03*
X202819000Y-102743000D03*
X202819000Y-100203000D03*
X202819000Y-97663000D03*
X202819000Y-95123000D03*
G36*
G01*
X95370000Y-50081800D02*
X97670000Y-50081800D01*
G75*
G02*
X97746200Y-50158000I0J-76200D01*
G01*
X97746200Y-52458000D01*
G75*
G02*
X97670000Y-52534200I-76200J0D01*
G01*
X95370000Y-52534200D01*
G75*
G02*
X95293800Y-52458000I0J76200D01*
G01*
X95293800Y-50158000D01*
G75*
G02*
X95370000Y-50081800I76200J0D01*
G01*
G37*
D10*
X96520000Y-54808000D03*
X96520000Y-58308000D03*
D20*
X91948000Y-143637000D03*
G36*
X172821020Y-36431873D02*
G01*
X172794958Y-36386732D01*
X172793800Y-36373500D01*
X172793800Y-34873500D01*
X172811627Y-34824520D01*
X172856768Y-34798458D01*
X172870000Y-34797300D01*
X173370000Y-34797300D01*
X173384334Y-34802517D01*
X173451337Y-34803745D01*
X173472664Y-34807199D01*
X173607979Y-34849474D01*
X173627480Y-34858775D01*
X173745490Y-34937330D01*
X173761596Y-34951731D01*
X173852816Y-35060250D01*
X173864233Y-35078592D01*
X173921328Y-35208351D01*
X173927138Y-35229160D01*
X173944060Y-35358568D01*
X173945042Y-35360268D01*
X173946200Y-35373500D01*
X173946200Y-35873500D01*
X173945448Y-35875566D01*
X173945256Y-35891333D01*
X173923445Y-36031410D01*
X173917128Y-36052070D01*
X173856880Y-36180395D01*
X173845018Y-36198453D01*
X173751174Y-36304711D01*
X173734721Y-36318713D01*
X173614826Y-36394361D01*
X173595105Y-36403183D01*
X173458798Y-36442140D01*
X173437392Y-36445073D01*
X173389745Y-36444782D01*
X173383232Y-36448542D01*
X173370000Y-36449700D01*
X172870000Y-36449700D01*
X172821020Y-36431873D01*
G37*
G36*
X172055919Y-36444575D02*
G01*
X171995630Y-36444207D01*
X171974262Y-36441013D01*
X171838441Y-36400394D01*
X171818828Y-36391332D01*
X171699866Y-36314225D01*
X171683585Y-36300022D01*
X171591047Y-36192625D01*
X171579408Y-36174424D01*
X171520731Y-36045372D01*
X171514667Y-36024635D01*
X171494570Y-35884302D01*
X171493800Y-35873500D01*
X171493800Y-35373500D01*
X171493806Y-35372571D01*
X171493955Y-35360355D01*
X171495005Y-35348642D01*
X171518525Y-35208841D01*
X171525094Y-35188258D01*
X171586906Y-35060679D01*
X171598987Y-35042768D01*
X171694122Y-34937664D01*
X171710745Y-34923863D01*
X171831555Y-34849686D01*
X171851383Y-34841106D01*
X171988156Y-34803817D01*
X172009596Y-34801147D01*
X172050802Y-34801902D01*
X172056768Y-34798458D01*
X172070000Y-34797300D01*
X172570000Y-34797300D01*
X172618980Y-34815127D01*
X172645042Y-34860268D01*
X172646200Y-34873500D01*
X172646200Y-36373500D01*
X172628373Y-36422480D01*
X172583232Y-36448542D01*
X172570000Y-36449700D01*
X172070000Y-36449700D01*
X172055919Y-36444575D01*
G37*
G36*
X155803020Y-36431873D02*
G01*
X155776958Y-36386732D01*
X155775800Y-36373500D01*
X155775800Y-34873500D01*
X155793627Y-34824520D01*
X155838768Y-34798458D01*
X155852000Y-34797300D01*
X156352000Y-34797300D01*
X156366334Y-34802517D01*
X156433337Y-34803745D01*
X156454664Y-34807199D01*
X156589979Y-34849474D01*
X156609480Y-34858775D01*
X156727490Y-34937330D01*
X156743596Y-34951731D01*
X156834816Y-35060250D01*
X156846233Y-35078592D01*
X156903328Y-35208351D01*
X156909138Y-35229160D01*
X156926060Y-35358568D01*
X156927042Y-35360268D01*
X156928200Y-35373500D01*
X156928200Y-35873500D01*
X156927448Y-35875566D01*
X156927256Y-35891333D01*
X156905445Y-36031410D01*
X156899128Y-36052070D01*
X156838880Y-36180395D01*
X156827018Y-36198453D01*
X156733174Y-36304711D01*
X156716721Y-36318713D01*
X156596826Y-36394361D01*
X156577105Y-36403183D01*
X156440798Y-36442140D01*
X156419392Y-36445073D01*
X156371745Y-36444782D01*
X156365232Y-36448542D01*
X156352000Y-36449700D01*
X155852000Y-36449700D01*
X155803020Y-36431873D01*
G37*
G36*
X155037919Y-36444575D02*
G01*
X154977630Y-36444207D01*
X154956262Y-36441013D01*
X154820441Y-36400394D01*
X154800828Y-36391332D01*
X154681866Y-36314225D01*
X154665585Y-36300022D01*
X154573047Y-36192625D01*
X154561408Y-36174424D01*
X154502731Y-36045372D01*
X154496667Y-36024635D01*
X154476570Y-35884302D01*
X154475800Y-35873500D01*
X154475800Y-35373500D01*
X154475806Y-35372571D01*
X154475955Y-35360355D01*
X154477005Y-35348642D01*
X154500525Y-35208841D01*
X154507094Y-35188258D01*
X154568906Y-35060679D01*
X154580987Y-35042768D01*
X154676122Y-34937664D01*
X154692745Y-34923863D01*
X154813555Y-34849686D01*
X154833383Y-34841106D01*
X154970156Y-34803817D01*
X154991596Y-34801147D01*
X155032802Y-34801902D01*
X155038768Y-34798458D01*
X155052000Y-34797300D01*
X155552000Y-34797300D01*
X155600980Y-34815127D01*
X155627042Y-34860268D01*
X155628200Y-34873500D01*
X155628200Y-36373500D01*
X155610373Y-36422480D01*
X155565232Y-36448542D01*
X155552000Y-36449700D01*
X155052000Y-36449700D01*
X155037919Y-36444575D01*
G37*
X177038000Y-147193000D03*
G36*
X189839020Y-36495373D02*
G01*
X189812958Y-36450232D01*
X189811800Y-36437000D01*
X189811800Y-34937000D01*
X189829627Y-34888020D01*
X189874768Y-34861958D01*
X189888000Y-34860800D01*
X190388000Y-34860800D01*
X190402334Y-34866017D01*
X190469337Y-34867245D01*
X190490664Y-34870699D01*
X190625979Y-34912974D01*
X190645480Y-34922275D01*
X190763490Y-35000830D01*
X190779596Y-35015231D01*
X190870816Y-35123750D01*
X190882233Y-35142092D01*
X190939328Y-35271851D01*
X190945138Y-35292660D01*
X190962060Y-35422068D01*
X190963042Y-35423768D01*
X190964200Y-35437000D01*
X190964200Y-35937000D01*
X190963448Y-35939066D01*
X190963256Y-35954833D01*
X190941445Y-36094910D01*
X190935128Y-36115570D01*
X190874880Y-36243895D01*
X190863018Y-36261953D01*
X190769174Y-36368211D01*
X190752721Y-36382213D01*
X190632826Y-36457861D01*
X190613105Y-36466683D01*
X190476798Y-36505640D01*
X190455392Y-36508573D01*
X190407745Y-36508282D01*
X190401232Y-36512042D01*
X190388000Y-36513200D01*
X189888000Y-36513200D01*
X189839020Y-36495373D01*
G37*
G36*
X189073919Y-36508075D02*
G01*
X189013630Y-36507707D01*
X188992262Y-36504513D01*
X188856441Y-36463894D01*
X188836828Y-36454832D01*
X188717866Y-36377725D01*
X188701585Y-36363522D01*
X188609047Y-36256125D01*
X188597408Y-36237924D01*
X188538731Y-36108872D01*
X188532667Y-36088135D01*
X188512570Y-35947802D01*
X188511800Y-35937000D01*
X188511800Y-35437000D01*
X188511806Y-35436071D01*
X188511955Y-35423855D01*
X188513005Y-35412142D01*
X188536525Y-35272341D01*
X188543094Y-35251758D01*
X188604906Y-35124179D01*
X188616987Y-35106268D01*
X188712122Y-35001164D01*
X188728745Y-34987363D01*
X188849555Y-34913186D01*
X188869383Y-34904606D01*
X189006156Y-34867317D01*
X189027596Y-34864647D01*
X189068802Y-34865402D01*
X189074768Y-34861958D01*
X189088000Y-34860800D01*
X189588000Y-34860800D01*
X189636980Y-34878627D01*
X189663042Y-34923768D01*
X189664200Y-34937000D01*
X189664200Y-36437000D01*
X189646373Y-36485980D01*
X189601232Y-36512042D01*
X189588000Y-36513200D01*
X189088000Y-36513200D01*
X189073919Y-36508075D01*
G37*
G36*
X138531020Y-36431873D02*
G01*
X138504958Y-36386732D01*
X138503800Y-36373500D01*
X138503800Y-34873500D01*
X138521627Y-34824520D01*
X138566768Y-34798458D01*
X138580000Y-34797300D01*
X139080000Y-34797300D01*
X139094334Y-34802517D01*
X139161337Y-34803745D01*
X139182664Y-34807199D01*
X139317979Y-34849474D01*
X139337480Y-34858775D01*
X139455490Y-34937330D01*
X139471596Y-34951731D01*
X139562816Y-35060250D01*
X139574233Y-35078592D01*
X139631328Y-35208351D01*
X139637138Y-35229160D01*
X139654060Y-35358568D01*
X139655042Y-35360268D01*
X139656200Y-35373500D01*
X139656200Y-35873500D01*
X139655448Y-35875566D01*
X139655256Y-35891333D01*
X139633445Y-36031410D01*
X139627128Y-36052070D01*
X139566880Y-36180395D01*
X139555018Y-36198453D01*
X139461174Y-36304711D01*
X139444721Y-36318713D01*
X139324826Y-36394361D01*
X139305105Y-36403183D01*
X139168798Y-36442140D01*
X139147392Y-36445073D01*
X139099745Y-36444782D01*
X139093232Y-36448542D01*
X139080000Y-36449700D01*
X138580000Y-36449700D01*
X138531020Y-36431873D01*
G37*
G36*
X137765919Y-36444575D02*
G01*
X137705630Y-36444207D01*
X137684262Y-36441013D01*
X137548441Y-36400394D01*
X137528828Y-36391332D01*
X137409866Y-36314225D01*
X137393585Y-36300022D01*
X137301047Y-36192625D01*
X137289408Y-36174424D01*
X137230731Y-36045372D01*
X137224667Y-36024635D01*
X137204570Y-35884302D01*
X137203800Y-35873500D01*
X137203800Y-35373500D01*
X137203806Y-35372571D01*
X137203955Y-35360355D01*
X137205005Y-35348642D01*
X137228525Y-35208841D01*
X137235094Y-35188258D01*
X137296906Y-35060679D01*
X137308987Y-35042768D01*
X137404122Y-34937664D01*
X137420745Y-34923863D01*
X137541555Y-34849686D01*
X137561383Y-34841106D01*
X137698156Y-34803817D01*
X137719596Y-34801147D01*
X137760802Y-34801902D01*
X137766768Y-34798458D01*
X137780000Y-34797300D01*
X138280000Y-34797300D01*
X138328980Y-34815127D01*
X138355042Y-34860268D01*
X138356200Y-34873500D01*
X138356200Y-36373500D01*
X138338373Y-36422480D01*
X138293232Y-36448542D01*
X138280000Y-36449700D01*
X137780000Y-36449700D01*
X137765919Y-36444575D01*
G37*
X181991000Y-147193000D03*
M02*
