G04 #@! TF.GenerationSoftware,KiCad,Pcbnew,6.0.10-86aedd382b~118~ubuntu18.04.1*
G04 #@! TF.CreationDate,2025-04-04T15:15:07-06:00*
G04 #@! TF.ProjectId,mss-xcade-can,6d73732d-7863-4616-9465-2d63616e2e6b,rev?*
G04 #@! TF.SameCoordinates,Original*
G04 #@! TF.FileFunction,Copper,L1,Top*
G04 #@! TF.FilePolarity,Positive*
%FSLAX46Y46*%
G04 Gerber Fmt 4.6, Leading zero omitted, Abs format (unit mm)*
G04 Created by KiCad (PCBNEW 6.0.10-86aedd382b~118~ubuntu18.04.1) date 2025-04-04 15:15:07*
%MOMM*%
%LPD*%
G01*
G04 APERTURE LIST*
G04 #@! TA.AperFunction,ComponentPad*
%ADD10R,1.500000X1.500000*%
G04 #@! TD*
G04 #@! TA.AperFunction,ComponentPad*
%ADD11C,1.500000*%
G04 #@! TD*
G04 #@! TA.AperFunction,ComponentPad*
%ADD12R,1.700000X1.700000*%
G04 #@! TD*
G04 #@! TA.AperFunction,ComponentPad*
%ADD13O,1.700000X1.700000*%
G04 #@! TD*
G04 #@! TA.AperFunction,ComponentPad*
%ADD14C,5.500000*%
G04 #@! TD*
G04 #@! TA.AperFunction,ViaPad*
%ADD15C,0.609600*%
G04 #@! TD*
G04 #@! TA.AperFunction,Conductor*
%ADD16C,1.016000*%
G04 #@! TD*
G04 #@! TA.AperFunction,Conductor*
%ADD17C,0.635000*%
G04 #@! TD*
G04 #@! TA.AperFunction,Conductor*
%ADD18C,0.508000*%
G04 #@! TD*
G04 #@! TA.AperFunction,Conductor*
%ADD19C,0.457200*%
G04 #@! TD*
G04 #@! TA.AperFunction,Conductor*
%ADD20C,0.254000*%
G04 #@! TD*
G04 APERTURE END LIST*
D10*
X99802000Y-127762000D03*
D11*
X97262000Y-126492000D03*
X99802000Y-125222000D03*
X97262000Y-123952000D03*
X99802000Y-122682000D03*
X97262000Y-121412000D03*
X99802000Y-120142000D03*
X97262000Y-118872000D03*
G04 #@! TA.AperFunction,SMDPad,CuDef*
G36*
G01*
X88735000Y-128167000D02*
X88435000Y-128167000D01*
G75*
G02*
X88285000Y-128017000I0J150000D01*
G01*
X88285000Y-126842000D01*
G75*
G02*
X88435000Y-126692000I150000J0D01*
G01*
X88735000Y-126692000D01*
G75*
G02*
X88885000Y-126842000I0J-150000D01*
G01*
X88885000Y-128017000D01*
G75*
G02*
X88735000Y-128167000I-150000J0D01*
G01*
G37*
G04 #@! TD.AperFunction*
G04 #@! TA.AperFunction,SMDPad,CuDef*
G36*
G01*
X90635000Y-128167000D02*
X90335000Y-128167000D01*
G75*
G02*
X90185000Y-128017000I0J150000D01*
G01*
X90185000Y-126842000D01*
G75*
G02*
X90335000Y-126692000I150000J0D01*
G01*
X90635000Y-126692000D01*
G75*
G02*
X90785000Y-126842000I0J-150000D01*
G01*
X90785000Y-128017000D01*
G75*
G02*
X90635000Y-128167000I-150000J0D01*
G01*
G37*
G04 #@! TD.AperFunction*
G04 #@! TA.AperFunction,SMDPad,CuDef*
G36*
G01*
X89685000Y-126292000D02*
X89385000Y-126292000D01*
G75*
G02*
X89235000Y-126142000I0J150000D01*
G01*
X89235000Y-124967000D01*
G75*
G02*
X89385000Y-124817000I150000J0D01*
G01*
X89685000Y-124817000D01*
G75*
G02*
X89835000Y-124967000I0J-150000D01*
G01*
X89835000Y-126142000D01*
G75*
G02*
X89685000Y-126292000I-150000J0D01*
G01*
G37*
G04 #@! TD.AperFunction*
D12*
X78862000Y-129555000D03*
D13*
X81402000Y-129555000D03*
X78862000Y-132095000D03*
X81402000Y-132095000D03*
X78862000Y-134635000D03*
X81402000Y-134635000D03*
G04 #@! TA.AperFunction,SMDPad,CuDef*
G36*
G01*
X79601000Y-141293000D02*
X79601000Y-140393000D01*
G75*
G02*
X79851000Y-140143000I250000J0D01*
G01*
X80376000Y-140143000D01*
G75*
G02*
X80626000Y-140393000I0J-250000D01*
G01*
X80626000Y-141293000D01*
G75*
G02*
X80376000Y-141543000I-250000J0D01*
G01*
X79851000Y-141543000D01*
G75*
G02*
X79601000Y-141293000I0J250000D01*
G01*
G37*
G04 #@! TD.AperFunction*
G04 #@! TA.AperFunction,SMDPad,CuDef*
G36*
G01*
X81426000Y-141293000D02*
X81426000Y-140393000D01*
G75*
G02*
X81676000Y-140143000I250000J0D01*
G01*
X82201000Y-140143000D01*
G75*
G02*
X82451000Y-140393000I0J-250000D01*
G01*
X82451000Y-141293000D01*
G75*
G02*
X82201000Y-141543000I-250000J0D01*
G01*
X81676000Y-141543000D01*
G75*
G02*
X81426000Y-141293000I0J250000D01*
G01*
G37*
G04 #@! TD.AperFunction*
G04 #@! TA.AperFunction,SMDPad,CuDef*
G36*
G01*
X83767000Y-139032000D02*
X83767000Y-138082000D01*
G75*
G02*
X84017000Y-137832000I250000J0D01*
G01*
X84517000Y-137832000D01*
G75*
G02*
X84767000Y-138082000I0J-250000D01*
G01*
X84767000Y-139032000D01*
G75*
G02*
X84517000Y-139282000I-250000J0D01*
G01*
X84017000Y-139282000D01*
G75*
G02*
X83767000Y-139032000I0J250000D01*
G01*
G37*
G04 #@! TD.AperFunction*
G04 #@! TA.AperFunction,SMDPad,CuDef*
G36*
G01*
X85667000Y-139032000D02*
X85667000Y-138082000D01*
G75*
G02*
X85917000Y-137832000I250000J0D01*
G01*
X86417000Y-137832000D01*
G75*
G02*
X86667000Y-138082000I0J-250000D01*
G01*
X86667000Y-139032000D01*
G75*
G02*
X86417000Y-139282000I-250000J0D01*
G01*
X85917000Y-139282000D01*
G75*
G02*
X85667000Y-139032000I0J250000D01*
G01*
G37*
G04 #@! TD.AperFunction*
D14*
X91440000Y-145542000D03*
D10*
X99802000Y-145252500D03*
D11*
X97262000Y-143982500D03*
X99802000Y-142712500D03*
X97262000Y-141442500D03*
X99802000Y-140172500D03*
X97262000Y-138902500D03*
X99802000Y-137632500D03*
X97262000Y-136362500D03*
G04 #@! TA.AperFunction,SMDPad,CuDef*
G36*
G01*
X82451000Y-142806000D02*
X82451000Y-143706000D01*
G75*
G02*
X82201000Y-143956000I-250000J0D01*
G01*
X81676000Y-143956000D01*
G75*
G02*
X81426000Y-143706000I0J250000D01*
G01*
X81426000Y-142806000D01*
G75*
G02*
X81676000Y-142556000I250000J0D01*
G01*
X82201000Y-142556000D01*
G75*
G02*
X82451000Y-142806000I0J-250000D01*
G01*
G37*
G04 #@! TD.AperFunction*
G04 #@! TA.AperFunction,SMDPad,CuDef*
G36*
G01*
X80626000Y-142806000D02*
X80626000Y-143706000D01*
G75*
G02*
X80376000Y-143956000I-250000J0D01*
G01*
X79851000Y-143956000D01*
G75*
G02*
X79601000Y-143706000I0J250000D01*
G01*
X79601000Y-142806000D01*
G75*
G02*
X79851000Y-142556000I250000J0D01*
G01*
X80376000Y-142556000D01*
G75*
G02*
X80626000Y-142806000I0J-250000D01*
G01*
G37*
G04 #@! TD.AperFunction*
G04 #@! TA.AperFunction,SMDPad,CuDef*
G36*
X86460000Y-127277000D02*
G01*
X86460000Y-127777000D01*
X86455033Y-127777000D01*
X86453568Y-127856941D01*
X86411293Y-127992256D01*
X86332738Y-128110266D01*
X86224219Y-128201486D01*
X86094460Y-128258581D01*
X85960000Y-128276164D01*
X85960000Y-128277000D01*
X85460000Y-128277000D01*
X85460000Y-128276164D01*
X85453891Y-128276963D01*
X85313814Y-128255152D01*
X85185489Y-128194904D01*
X85079231Y-128101060D01*
X85003583Y-127981165D01*
X84964626Y-127844858D01*
X84965041Y-127777000D01*
X84960000Y-127777000D01*
X84960000Y-127277000D01*
X86460000Y-127277000D01*
G37*
G04 #@! TD.AperFunction*
G04 #@! TA.AperFunction,SMDPad,CuDef*
G36*
X84965041Y-126477000D02*
G01*
X84965492Y-126403095D01*
X85006111Y-126267274D01*
X85083218Y-126148312D01*
X85190615Y-126055774D01*
X85319667Y-125997097D01*
X85460000Y-125977000D01*
X85960000Y-125977000D01*
X85972216Y-125977149D01*
X86112017Y-126000669D01*
X86239596Y-126062481D01*
X86344700Y-126157616D01*
X86418877Y-126278426D01*
X86456166Y-126415199D01*
X86455033Y-126477000D01*
X86460000Y-126477000D01*
X86460000Y-126977000D01*
X84960000Y-126977000D01*
X84960000Y-126477000D01*
X84965041Y-126477000D01*
G37*
G04 #@! TD.AperFunction*
D14*
X91440000Y-118618000D03*
G04 #@! TA.AperFunction,SMDPad,CuDef*
G36*
G01*
X90985000Y-138082000D02*
X90985000Y-139032000D01*
G75*
G02*
X90735000Y-139282000I-250000J0D01*
G01*
X90235000Y-139282000D01*
G75*
G02*
X89985000Y-139032000I0J250000D01*
G01*
X89985000Y-138082000D01*
G75*
G02*
X90235000Y-137832000I250000J0D01*
G01*
X90735000Y-137832000D01*
G75*
G02*
X90985000Y-138082000I0J-250000D01*
G01*
G37*
G04 #@! TD.AperFunction*
G04 #@! TA.AperFunction,SMDPad,CuDef*
G36*
G01*
X89085000Y-138082000D02*
X89085000Y-139032000D01*
G75*
G02*
X88835000Y-139282000I-250000J0D01*
G01*
X88335000Y-139282000D01*
G75*
G02*
X88085000Y-139032000I0J250000D01*
G01*
X88085000Y-138082000D01*
G75*
G02*
X88335000Y-137832000I250000J0D01*
G01*
X88835000Y-137832000D01*
G75*
G02*
X89085000Y-138082000I0J-250000D01*
G01*
G37*
G04 #@! TD.AperFunction*
G04 #@! TA.AperFunction,SMDPad,CuDef*
G36*
G01*
X95024000Y-124264000D02*
X95024000Y-125164000D01*
G75*
G02*
X94774000Y-125414000I-250000J0D01*
G01*
X94249000Y-125414000D01*
G75*
G02*
X93999000Y-125164000I0J250000D01*
G01*
X93999000Y-124264000D01*
G75*
G02*
X94249000Y-124014000I250000J0D01*
G01*
X94774000Y-124014000D01*
G75*
G02*
X95024000Y-124264000I0J-250000D01*
G01*
G37*
G04 #@! TD.AperFunction*
G04 #@! TA.AperFunction,SMDPad,CuDef*
G36*
G01*
X93199000Y-124264000D02*
X93199000Y-125164000D01*
G75*
G02*
X92949000Y-125414000I-250000J0D01*
G01*
X92424000Y-125414000D01*
G75*
G02*
X92174000Y-125164000I0J250000D01*
G01*
X92174000Y-124264000D01*
G75*
G02*
X92424000Y-124014000I250000J0D01*
G01*
X92949000Y-124014000D01*
G75*
G02*
X93199000Y-124264000I0J-250000D01*
G01*
G37*
G04 #@! TD.AperFunction*
G04 #@! TA.AperFunction,SMDPad,CuDef*
G36*
G01*
X79601000Y-146119000D02*
X79601000Y-145219000D01*
G75*
G02*
X79851000Y-144969000I250000J0D01*
G01*
X80376000Y-144969000D01*
G75*
G02*
X80626000Y-145219000I0J-250000D01*
G01*
X80626000Y-146119000D01*
G75*
G02*
X80376000Y-146369000I-250000J0D01*
G01*
X79851000Y-146369000D01*
G75*
G02*
X79601000Y-146119000I0J250000D01*
G01*
G37*
G04 #@! TD.AperFunction*
G04 #@! TA.AperFunction,SMDPad,CuDef*
G36*
G01*
X81426000Y-146119000D02*
X81426000Y-145219000D01*
G75*
G02*
X81676000Y-144969000I250000J0D01*
G01*
X82201000Y-144969000D01*
G75*
G02*
X82451000Y-145219000I0J-250000D01*
G01*
X82451000Y-146119000D01*
G75*
G02*
X82201000Y-146369000I-250000J0D01*
G01*
X81676000Y-146369000D01*
G75*
G02*
X81426000Y-146119000I0J250000D01*
G01*
G37*
G04 #@! TD.AperFunction*
G04 #@! TA.AperFunction,SMDPad,CuDef*
G36*
G01*
X87780000Y-136927000D02*
X87480000Y-136927000D01*
G75*
G02*
X87330000Y-136777000I0J150000D01*
G01*
X87330000Y-135127000D01*
G75*
G02*
X87480000Y-134977000I150000J0D01*
G01*
X87780000Y-134977000D01*
G75*
G02*
X87930000Y-135127000I0J-150000D01*
G01*
X87930000Y-136777000D01*
G75*
G02*
X87780000Y-136927000I-150000J0D01*
G01*
G37*
G04 #@! TD.AperFunction*
G04 #@! TA.AperFunction,SMDPad,CuDef*
G36*
G01*
X89050000Y-136927000D02*
X88750000Y-136927000D01*
G75*
G02*
X88600000Y-136777000I0J150000D01*
G01*
X88600000Y-135127000D01*
G75*
G02*
X88750000Y-134977000I150000J0D01*
G01*
X89050000Y-134977000D01*
G75*
G02*
X89200000Y-135127000I0J-150000D01*
G01*
X89200000Y-136777000D01*
G75*
G02*
X89050000Y-136927000I-150000J0D01*
G01*
G37*
G04 #@! TD.AperFunction*
G04 #@! TA.AperFunction,SMDPad,CuDef*
G36*
G01*
X90320000Y-136927000D02*
X90020000Y-136927000D01*
G75*
G02*
X89870000Y-136777000I0J150000D01*
G01*
X89870000Y-135127000D01*
G75*
G02*
X90020000Y-134977000I150000J0D01*
G01*
X90320000Y-134977000D01*
G75*
G02*
X90470000Y-135127000I0J-150000D01*
G01*
X90470000Y-136777000D01*
G75*
G02*
X90320000Y-136927000I-150000J0D01*
G01*
G37*
G04 #@! TD.AperFunction*
G04 #@! TA.AperFunction,SMDPad,CuDef*
G36*
G01*
X91590000Y-136927000D02*
X91290000Y-136927000D01*
G75*
G02*
X91140000Y-136777000I0J150000D01*
G01*
X91140000Y-135127000D01*
G75*
G02*
X91290000Y-134977000I150000J0D01*
G01*
X91590000Y-134977000D01*
G75*
G02*
X91740000Y-135127000I0J-150000D01*
G01*
X91740000Y-136777000D01*
G75*
G02*
X91590000Y-136927000I-150000J0D01*
G01*
G37*
G04 #@! TD.AperFunction*
G04 #@! TA.AperFunction,SMDPad,CuDef*
G36*
G01*
X91590000Y-131977000D02*
X91290000Y-131977000D01*
G75*
G02*
X91140000Y-131827000I0J150000D01*
G01*
X91140000Y-130177000D01*
G75*
G02*
X91290000Y-130027000I150000J0D01*
G01*
X91590000Y-130027000D01*
G75*
G02*
X91740000Y-130177000I0J-150000D01*
G01*
X91740000Y-131827000D01*
G75*
G02*
X91590000Y-131977000I-150000J0D01*
G01*
G37*
G04 #@! TD.AperFunction*
G04 #@! TA.AperFunction,SMDPad,CuDef*
G36*
G01*
X90320000Y-131977000D02*
X90020000Y-131977000D01*
G75*
G02*
X89870000Y-131827000I0J150000D01*
G01*
X89870000Y-130177000D01*
G75*
G02*
X90020000Y-130027000I150000J0D01*
G01*
X90320000Y-130027000D01*
G75*
G02*
X90470000Y-130177000I0J-150000D01*
G01*
X90470000Y-131827000D01*
G75*
G02*
X90320000Y-131977000I-150000J0D01*
G01*
G37*
G04 #@! TD.AperFunction*
G04 #@! TA.AperFunction,SMDPad,CuDef*
G36*
G01*
X89050000Y-131977000D02*
X88750000Y-131977000D01*
G75*
G02*
X88600000Y-131827000I0J150000D01*
G01*
X88600000Y-130177000D01*
G75*
G02*
X88750000Y-130027000I150000J0D01*
G01*
X89050000Y-130027000D01*
G75*
G02*
X89200000Y-130177000I0J-150000D01*
G01*
X89200000Y-131827000D01*
G75*
G02*
X89050000Y-131977000I-150000J0D01*
G01*
G37*
G04 #@! TD.AperFunction*
G04 #@! TA.AperFunction,SMDPad,CuDef*
G36*
G01*
X87780000Y-131977000D02*
X87480000Y-131977000D01*
G75*
G02*
X87330000Y-131827000I0J150000D01*
G01*
X87330000Y-130177000D01*
G75*
G02*
X87480000Y-130027000I150000J0D01*
G01*
X87780000Y-130027000D01*
G75*
G02*
X87930000Y-130177000I0J-150000D01*
G01*
X87930000Y-131827000D01*
G75*
G02*
X87780000Y-131977000I-150000J0D01*
G01*
G37*
G04 #@! TD.AperFunction*
D15*
X88519000Y-125476000D03*
X87376000Y-138557000D03*
X81915000Y-147701000D03*
X88585000Y-137348000D03*
X80899000Y-147701000D03*
X90551000Y-125476000D03*
X88900000Y-134366000D03*
X88585000Y-128585000D03*
X94869000Y-129413000D03*
X88585000Y-129352000D03*
X94869000Y-130302000D03*
D16*
X77089000Y-133858000D02*
X77089000Y-126111000D01*
X93706000Y-122428000D02*
X97262000Y-118872000D01*
X80772000Y-122428000D02*
X93706000Y-122428000D01*
X77866000Y-134635000D02*
X77089000Y-133858000D01*
X77089000Y-126111000D02*
X80772000Y-122428000D01*
X78862000Y-134635000D02*
X77866000Y-134635000D01*
D17*
X88900000Y-134366000D02*
X87630000Y-133096000D01*
X88585000Y-137221000D02*
X88585000Y-137348000D01*
X81402000Y-129555000D02*
X82692000Y-129555000D01*
X87630000Y-133096000D02*
X87630000Y-131002000D01*
X90551000Y-125476000D02*
X88519000Y-125476000D01*
X80645000Y-147701000D02*
X80113500Y-147169500D01*
X86233000Y-133096000D02*
X87630000Y-133096000D01*
X82692000Y-129555000D02*
X83693000Y-130556000D01*
X88900000Y-135952000D02*
X88900000Y-134366000D01*
X81915000Y-147701000D02*
X80645000Y-147701000D01*
X87376000Y-138557000D02*
X88585000Y-138557000D01*
X83693000Y-130556000D02*
X84645500Y-131508500D01*
X86167000Y-138557000D02*
X87376000Y-138557000D01*
X84645500Y-131508500D02*
X86233000Y-133096000D01*
X88900000Y-135952000D02*
X88900000Y-136906000D01*
X88585000Y-137348000D02*
X88585000Y-138557000D01*
X88900000Y-136906000D02*
X88585000Y-137221000D01*
X80113500Y-147169500D02*
X80113500Y-145669000D01*
X81402000Y-134635000D02*
X83708000Y-134635000D01*
X84836000Y-140081000D02*
X89662000Y-140081000D01*
X90170000Y-135952000D02*
X90170000Y-136906000D01*
X90485000Y-137221000D02*
X90485000Y-138557000D01*
X83708000Y-134635000D02*
X84267000Y-135194000D01*
X89662000Y-140081000D02*
X90485000Y-139258000D01*
X90170000Y-136906000D02*
X90485000Y-137221000D01*
X84267000Y-135194000D02*
X84267000Y-138557000D01*
X84267000Y-139512000D02*
X84836000Y-140081000D01*
X90485000Y-139258000D02*
X90485000Y-138557000D01*
X84267000Y-138557000D02*
X84267000Y-139512000D01*
X88900000Y-131002000D02*
X88900000Y-129667000D01*
X88900000Y-129667000D02*
X88585000Y-129352000D01*
X95758000Y-127762000D02*
X99802000Y-127762000D01*
X88585000Y-129352000D02*
X88585000Y-128585000D01*
X97906200Y-142737200D02*
X95874200Y-142737200D01*
D18*
X88585000Y-128585000D02*
X86518000Y-128585000D01*
D17*
X94869000Y-128651000D02*
X95758000Y-127762000D01*
X95874200Y-142737200D02*
X94869000Y-141732000D01*
X88585000Y-128585000D02*
X88585000Y-127429500D01*
D18*
X86518000Y-128585000D02*
X85710000Y-127777000D01*
D17*
X94869000Y-141732000D02*
X94869000Y-128651000D01*
X99802000Y-145252500D02*
X99802000Y-144633000D01*
X99802000Y-144633000D02*
X97906200Y-142737200D01*
X94742000Y-126492000D02*
X94107000Y-127127000D01*
D18*
X94511500Y-124714000D02*
X94511500Y-126261500D01*
X94511500Y-126261500D02*
X94742000Y-126492000D01*
D17*
X93804500Y-127429500D02*
X94107000Y-127127000D01*
X93599000Y-142113000D02*
X95468500Y-143982500D01*
X90170000Y-131002000D02*
X90170000Y-129667000D01*
X97262000Y-126492000D02*
X94742000Y-126492000D01*
X90485000Y-129352000D02*
X90485000Y-127429500D01*
X94107000Y-127127000D02*
X93599000Y-127635000D01*
X90485000Y-127429500D02*
X93804500Y-127429500D01*
X95468500Y-143982500D02*
X97262000Y-143982500D01*
X93599000Y-127635000D02*
X93599000Y-142113000D01*
X90170000Y-129667000D02*
X90485000Y-129352000D01*
X102870000Y-139065000D02*
X101727000Y-140208000D01*
X101691500Y-140172500D02*
X99802000Y-140172500D01*
X101727000Y-122682000D02*
X102870000Y-123825000D01*
X101727000Y-140208000D02*
X101691500Y-140172500D01*
X99802000Y-122682000D02*
X101727000Y-122682000D01*
X102870000Y-123825000D02*
X102870000Y-139065000D01*
D19*
X91440000Y-137033000D02*
X92202000Y-137795000D01*
X91313000Y-140970000D02*
X82065500Y-140970000D01*
X91440000Y-135952000D02*
X91440000Y-137033000D01*
X92202000Y-137795000D02*
X92202000Y-140081000D01*
X92202000Y-140081000D02*
X91313000Y-140970000D01*
X82065500Y-140970000D02*
X81938500Y-140843000D01*
X81938500Y-143256000D02*
X81938500Y-145669000D01*
D17*
X102016500Y-141442500D02*
X103886000Y-139573000D01*
X103886000Y-139573000D02*
X103886000Y-123444000D01*
X103886000Y-123444000D02*
X101829300Y-121387300D01*
X101829300Y-121387300D02*
X99211700Y-121387300D01*
X97262000Y-141442500D02*
X102016500Y-141442500D01*
X97262000Y-123337000D02*
X97262000Y-123952000D01*
X99211700Y-121387300D02*
X97262000Y-123337000D01*
D20*
X85344000Y-133604000D02*
X82550000Y-130810000D01*
X82550000Y-130810000D02*
X80147000Y-130810000D01*
X80147000Y-130810000D02*
X78862000Y-132095000D01*
X85344000Y-135509000D02*
X85344000Y-133604000D01*
X87630000Y-135952000D02*
X85787000Y-135952000D01*
X85787000Y-135952000D02*
X85344000Y-135509000D01*
X80113500Y-133383500D02*
X81402000Y-132095000D01*
D19*
X80113500Y-143256000D02*
X80113500Y-140843000D01*
D20*
X80113500Y-140843000D02*
X80113500Y-133383500D01*
D18*
X91797500Y-123825000D02*
X92686500Y-124714000D01*
X85710000Y-126477000D02*
X85710000Y-125110000D01*
X85710000Y-125110000D02*
X86995000Y-123825000D01*
X86995000Y-123825000D02*
X91797500Y-123825000D01*
M02*
