G04 #@! TF.GenerationSoftware,KiCad,Pcbnew,6.0.10-86aedd382b~118~ubuntu18.04.1*
G04 #@! TF.CreationDate,2025-04-04T15:15:07-06:00*
G04 #@! TF.ProjectId,mss-xcade-can,6d73732d-7863-4616-9465-2d63616e2e6b,rev?*
G04 #@! TF.SameCoordinates,Original*
G04 #@! TF.FileFunction,Paste,Top*
G04 #@! TF.FilePolarity,Positive*
%FSLAX46Y46*%
G04 Gerber Fmt 4.6, Leading zero omitted, Abs format (unit mm)*
G04 Created by KiCad (PCBNEW 6.0.10-86aedd382b~118~ubuntu18.04.1) date 2025-04-04 15:15:07*
%MOMM*%
%LPD*%
G01*
G04 APERTURE LIST*
G04 APERTURE END LIST*
G36*
G01*
X88735000Y-128167000D02*
X88435000Y-128167000D01*
G75*
G02*
X88285000Y-128017000I0J150000D01*
G01*
X88285000Y-126842000D01*
G75*
G02*
X88435000Y-126692000I150000J0D01*
G01*
X88735000Y-126692000D01*
G75*
G02*
X88885000Y-126842000I0J-150000D01*
G01*
X88885000Y-128017000D01*
G75*
G02*
X88735000Y-128167000I-150000J0D01*
G01*
G37*
G36*
G01*
X90635000Y-128167000D02*
X90335000Y-128167000D01*
G75*
G02*
X90185000Y-128017000I0J150000D01*
G01*
X90185000Y-126842000D01*
G75*
G02*
X90335000Y-126692000I150000J0D01*
G01*
X90635000Y-126692000D01*
G75*
G02*
X90785000Y-126842000I0J-150000D01*
G01*
X90785000Y-128017000D01*
G75*
G02*
X90635000Y-128167000I-150000J0D01*
G01*
G37*
G36*
G01*
X89685000Y-126292000D02*
X89385000Y-126292000D01*
G75*
G02*
X89235000Y-126142000I0J150000D01*
G01*
X89235000Y-124967000D01*
G75*
G02*
X89385000Y-124817000I150000J0D01*
G01*
X89685000Y-124817000D01*
G75*
G02*
X89835000Y-124967000I0J-150000D01*
G01*
X89835000Y-126142000D01*
G75*
G02*
X89685000Y-126292000I-150000J0D01*
G01*
G37*
G36*
G01*
X79601000Y-141293000D02*
X79601000Y-140393000D01*
G75*
G02*
X79851000Y-140143000I250000J0D01*
G01*
X80376000Y-140143000D01*
G75*
G02*
X80626000Y-140393000I0J-250000D01*
G01*
X80626000Y-141293000D01*
G75*
G02*
X80376000Y-141543000I-250000J0D01*
G01*
X79851000Y-141543000D01*
G75*
G02*
X79601000Y-141293000I0J250000D01*
G01*
G37*
G36*
G01*
X81426000Y-141293000D02*
X81426000Y-140393000D01*
G75*
G02*
X81676000Y-140143000I250000J0D01*
G01*
X82201000Y-140143000D01*
G75*
G02*
X82451000Y-140393000I0J-250000D01*
G01*
X82451000Y-141293000D01*
G75*
G02*
X82201000Y-141543000I-250000J0D01*
G01*
X81676000Y-141543000D01*
G75*
G02*
X81426000Y-141293000I0J250000D01*
G01*
G37*
G36*
G01*
X83767000Y-139032000D02*
X83767000Y-138082000D01*
G75*
G02*
X84017000Y-137832000I250000J0D01*
G01*
X84517000Y-137832000D01*
G75*
G02*
X84767000Y-138082000I0J-250000D01*
G01*
X84767000Y-139032000D01*
G75*
G02*
X84517000Y-139282000I-250000J0D01*
G01*
X84017000Y-139282000D01*
G75*
G02*
X83767000Y-139032000I0J250000D01*
G01*
G37*
G36*
G01*
X85667000Y-139032000D02*
X85667000Y-138082000D01*
G75*
G02*
X85917000Y-137832000I250000J0D01*
G01*
X86417000Y-137832000D01*
G75*
G02*
X86667000Y-138082000I0J-250000D01*
G01*
X86667000Y-139032000D01*
G75*
G02*
X86417000Y-139282000I-250000J0D01*
G01*
X85917000Y-139282000D01*
G75*
G02*
X85667000Y-139032000I0J250000D01*
G01*
G37*
G36*
G01*
X82451000Y-142806000D02*
X82451000Y-143706000D01*
G75*
G02*
X82201000Y-143956000I-250000J0D01*
G01*
X81676000Y-143956000D01*
G75*
G02*
X81426000Y-143706000I0J250000D01*
G01*
X81426000Y-142806000D01*
G75*
G02*
X81676000Y-142556000I250000J0D01*
G01*
X82201000Y-142556000D01*
G75*
G02*
X82451000Y-142806000I0J-250000D01*
G01*
G37*
G36*
G01*
X80626000Y-142806000D02*
X80626000Y-143706000D01*
G75*
G02*
X80376000Y-143956000I-250000J0D01*
G01*
X79851000Y-143956000D01*
G75*
G02*
X79601000Y-143706000I0J250000D01*
G01*
X79601000Y-142806000D01*
G75*
G02*
X79851000Y-142556000I250000J0D01*
G01*
X80376000Y-142556000D01*
G75*
G02*
X80626000Y-142806000I0J-250000D01*
G01*
G37*
G36*
G01*
X90985000Y-138082000D02*
X90985000Y-139032000D01*
G75*
G02*
X90735000Y-139282000I-250000J0D01*
G01*
X90235000Y-139282000D01*
G75*
G02*
X89985000Y-139032000I0J250000D01*
G01*
X89985000Y-138082000D01*
G75*
G02*
X90235000Y-137832000I250000J0D01*
G01*
X90735000Y-137832000D01*
G75*
G02*
X90985000Y-138082000I0J-250000D01*
G01*
G37*
G36*
G01*
X89085000Y-138082000D02*
X89085000Y-139032000D01*
G75*
G02*
X88835000Y-139282000I-250000J0D01*
G01*
X88335000Y-139282000D01*
G75*
G02*
X88085000Y-139032000I0J250000D01*
G01*
X88085000Y-138082000D01*
G75*
G02*
X88335000Y-137832000I250000J0D01*
G01*
X88835000Y-137832000D01*
G75*
G02*
X89085000Y-138082000I0J-250000D01*
G01*
G37*
G36*
G01*
X95024000Y-124264000D02*
X95024000Y-125164000D01*
G75*
G02*
X94774000Y-125414000I-250000J0D01*
G01*
X94249000Y-125414000D01*
G75*
G02*
X93999000Y-125164000I0J250000D01*
G01*
X93999000Y-124264000D01*
G75*
G02*
X94249000Y-124014000I250000J0D01*
G01*
X94774000Y-124014000D01*
G75*
G02*
X95024000Y-124264000I0J-250000D01*
G01*
G37*
G36*
G01*
X93199000Y-124264000D02*
X93199000Y-125164000D01*
G75*
G02*
X92949000Y-125414000I-250000J0D01*
G01*
X92424000Y-125414000D01*
G75*
G02*
X92174000Y-125164000I0J250000D01*
G01*
X92174000Y-124264000D01*
G75*
G02*
X92424000Y-124014000I250000J0D01*
G01*
X92949000Y-124014000D01*
G75*
G02*
X93199000Y-124264000I0J-250000D01*
G01*
G37*
G36*
G01*
X79601000Y-146119000D02*
X79601000Y-145219000D01*
G75*
G02*
X79851000Y-144969000I250000J0D01*
G01*
X80376000Y-144969000D01*
G75*
G02*
X80626000Y-145219000I0J-250000D01*
G01*
X80626000Y-146119000D01*
G75*
G02*
X80376000Y-146369000I-250000J0D01*
G01*
X79851000Y-146369000D01*
G75*
G02*
X79601000Y-146119000I0J250000D01*
G01*
G37*
G36*
G01*
X81426000Y-146119000D02*
X81426000Y-145219000D01*
G75*
G02*
X81676000Y-144969000I250000J0D01*
G01*
X82201000Y-144969000D01*
G75*
G02*
X82451000Y-145219000I0J-250000D01*
G01*
X82451000Y-146119000D01*
G75*
G02*
X82201000Y-146369000I-250000J0D01*
G01*
X81676000Y-146369000D01*
G75*
G02*
X81426000Y-146119000I0J250000D01*
G01*
G37*
G36*
G01*
X87780000Y-136927000D02*
X87480000Y-136927000D01*
G75*
G02*
X87330000Y-136777000I0J150000D01*
G01*
X87330000Y-135127000D01*
G75*
G02*
X87480000Y-134977000I150000J0D01*
G01*
X87780000Y-134977000D01*
G75*
G02*
X87930000Y-135127000I0J-150000D01*
G01*
X87930000Y-136777000D01*
G75*
G02*
X87780000Y-136927000I-150000J0D01*
G01*
G37*
G36*
G01*
X89050000Y-136927000D02*
X88750000Y-136927000D01*
G75*
G02*
X88600000Y-136777000I0J150000D01*
G01*
X88600000Y-135127000D01*
G75*
G02*
X88750000Y-134977000I150000J0D01*
G01*
X89050000Y-134977000D01*
G75*
G02*
X89200000Y-135127000I0J-150000D01*
G01*
X89200000Y-136777000D01*
G75*
G02*
X89050000Y-136927000I-150000J0D01*
G01*
G37*
G36*
G01*
X90320000Y-136927000D02*
X90020000Y-136927000D01*
G75*
G02*
X89870000Y-136777000I0J150000D01*
G01*
X89870000Y-135127000D01*
G75*
G02*
X90020000Y-134977000I150000J0D01*
G01*
X90320000Y-134977000D01*
G75*
G02*
X90470000Y-135127000I0J-150000D01*
G01*
X90470000Y-136777000D01*
G75*
G02*
X90320000Y-136927000I-150000J0D01*
G01*
G37*
G36*
G01*
X91590000Y-136927000D02*
X91290000Y-136927000D01*
G75*
G02*
X91140000Y-136777000I0J150000D01*
G01*
X91140000Y-135127000D01*
G75*
G02*
X91290000Y-134977000I150000J0D01*
G01*
X91590000Y-134977000D01*
G75*
G02*
X91740000Y-135127000I0J-150000D01*
G01*
X91740000Y-136777000D01*
G75*
G02*
X91590000Y-136927000I-150000J0D01*
G01*
G37*
G36*
G01*
X91590000Y-131977000D02*
X91290000Y-131977000D01*
G75*
G02*
X91140000Y-131827000I0J150000D01*
G01*
X91140000Y-130177000D01*
G75*
G02*
X91290000Y-130027000I150000J0D01*
G01*
X91590000Y-130027000D01*
G75*
G02*
X91740000Y-130177000I0J-150000D01*
G01*
X91740000Y-131827000D01*
G75*
G02*
X91590000Y-131977000I-150000J0D01*
G01*
G37*
G36*
G01*
X90320000Y-131977000D02*
X90020000Y-131977000D01*
G75*
G02*
X89870000Y-131827000I0J150000D01*
G01*
X89870000Y-130177000D01*
G75*
G02*
X90020000Y-130027000I150000J0D01*
G01*
X90320000Y-130027000D01*
G75*
G02*
X90470000Y-130177000I0J-150000D01*
G01*
X90470000Y-131827000D01*
G75*
G02*
X90320000Y-131977000I-150000J0D01*
G01*
G37*
G36*
G01*
X89050000Y-131977000D02*
X88750000Y-131977000D01*
G75*
G02*
X88600000Y-131827000I0J150000D01*
G01*
X88600000Y-130177000D01*
G75*
G02*
X88750000Y-130027000I150000J0D01*
G01*
X89050000Y-130027000D01*
G75*
G02*
X89200000Y-130177000I0J-150000D01*
G01*
X89200000Y-131827000D01*
G75*
G02*
X89050000Y-131977000I-150000J0D01*
G01*
G37*
G36*
G01*
X87780000Y-131977000D02*
X87480000Y-131977000D01*
G75*
G02*
X87330000Y-131827000I0J150000D01*
G01*
X87330000Y-130177000D01*
G75*
G02*
X87480000Y-130027000I150000J0D01*
G01*
X87780000Y-130027000D01*
G75*
G02*
X87930000Y-130177000I0J-150000D01*
G01*
X87930000Y-131827000D01*
G75*
G02*
X87780000Y-131977000I-150000J0D01*
G01*
G37*
M02*
