G04 #@! TF.GenerationSoftware,KiCad,Pcbnew,6.0.10-86aedd382b~118~ubuntu18.04.1*
G04 #@! TF.CreationDate,2025-04-04T15:15:07-06:00*
G04 #@! TF.ProjectId,mss-xcade-can,6d73732d-7863-4616-9465-2d63616e2e6b,rev?*
G04 #@! TF.SameCoordinates,Original*
G04 #@! TF.FileFunction,Soldermask,Top*
G04 #@! TF.FilePolarity,Negative*
%FSLAX46Y46*%
G04 Gerber Fmt 4.6, Leading zero omitted, Abs format (unit mm)*
G04 Created by KiCad (PCBNEW 6.0.10-86aedd382b~118~ubuntu18.04.1) date 2025-04-04 15:15:07*
%MOMM*%
%LPD*%
G01*
G04 APERTURE LIST*
%ADD10C,3.352400*%
%ADD11C,1.652400*%
%ADD12O,1.852400X1.852400*%
%ADD13C,5.652400*%
G04 APERTURE END LIST*
D10*
X106152000Y-129032000D03*
X106152000Y-117602000D03*
G36*
G01*
X100552000Y-128588200D02*
X99052000Y-128588200D01*
G75*
G02*
X98975800Y-128512000I0J76200D01*
G01*
X98975800Y-127012000D01*
G75*
G02*
X99052000Y-126935800I76200J0D01*
G01*
X100552000Y-126935800D01*
G75*
G02*
X100628200Y-127012000I0J-76200D01*
G01*
X100628200Y-128512000D01*
G75*
G02*
X100552000Y-128588200I-76200J0D01*
G01*
G37*
D11*
X97262000Y-126492000D03*
X99802000Y-125222000D03*
X97262000Y-123952000D03*
X99802000Y-122682000D03*
X97262000Y-121412000D03*
X99802000Y-120142000D03*
X97262000Y-118872000D03*
G36*
G01*
X88735000Y-128243200D02*
X88435000Y-128243200D01*
G75*
G02*
X88208800Y-128017000I0J226200D01*
G01*
X88208800Y-126842000D01*
G75*
G02*
X88435000Y-126615800I226200J0D01*
G01*
X88735000Y-126615800D01*
G75*
G02*
X88961200Y-126842000I0J-226200D01*
G01*
X88961200Y-128017000D01*
G75*
G02*
X88735000Y-128243200I-226200J0D01*
G01*
G37*
G36*
G01*
X90635000Y-128243200D02*
X90335000Y-128243200D01*
G75*
G02*
X90108800Y-128017000I0J226200D01*
G01*
X90108800Y-126842000D01*
G75*
G02*
X90335000Y-126615800I226200J0D01*
G01*
X90635000Y-126615800D01*
G75*
G02*
X90861200Y-126842000I0J-226200D01*
G01*
X90861200Y-128017000D01*
G75*
G02*
X90635000Y-128243200I-226200J0D01*
G01*
G37*
G36*
G01*
X89685000Y-126368200D02*
X89385000Y-126368200D01*
G75*
G02*
X89158800Y-126142000I0J226200D01*
G01*
X89158800Y-124967000D01*
G75*
G02*
X89385000Y-124740800I226200J0D01*
G01*
X89685000Y-124740800D01*
G75*
G02*
X89911200Y-124967000I0J-226200D01*
G01*
X89911200Y-126142000D01*
G75*
G02*
X89685000Y-126368200I-226200J0D01*
G01*
G37*
G36*
G01*
X77935800Y-130405000D02*
X77935800Y-128705000D01*
G75*
G02*
X78012000Y-128628800I76200J0D01*
G01*
X79712000Y-128628800D01*
G75*
G02*
X79788200Y-128705000I0J-76200D01*
G01*
X79788200Y-130405000D01*
G75*
G02*
X79712000Y-130481200I-76200J0D01*
G01*
X78012000Y-130481200D01*
G75*
G02*
X77935800Y-130405000I0J76200D01*
G01*
G37*
D12*
X81402000Y-129555000D03*
X78862000Y-132095000D03*
X81402000Y-132095000D03*
X78862000Y-134635000D03*
X81402000Y-134635000D03*
G36*
G01*
X79524800Y-141293000D02*
X79524800Y-140393000D01*
G75*
G02*
X79851000Y-140066800I326200J0D01*
G01*
X80376000Y-140066800D01*
G75*
G02*
X80702200Y-140393000I0J-326200D01*
G01*
X80702200Y-141293000D01*
G75*
G02*
X80376000Y-141619200I-326200J0D01*
G01*
X79851000Y-141619200D01*
G75*
G02*
X79524800Y-141293000I0J326200D01*
G01*
G37*
G36*
G01*
X81349800Y-141293000D02*
X81349800Y-140393000D01*
G75*
G02*
X81676000Y-140066800I326200J0D01*
G01*
X82201000Y-140066800D01*
G75*
G02*
X82527200Y-140393000I0J-326200D01*
G01*
X82527200Y-141293000D01*
G75*
G02*
X82201000Y-141619200I-326200J0D01*
G01*
X81676000Y-141619200D01*
G75*
G02*
X81349800Y-141293000I0J326200D01*
G01*
G37*
G36*
G01*
X83690800Y-139032000D02*
X83690800Y-138082000D01*
G75*
G02*
X84017000Y-137755800I326200J0D01*
G01*
X84517000Y-137755800D01*
G75*
G02*
X84843200Y-138082000I0J-326200D01*
G01*
X84843200Y-139032000D01*
G75*
G02*
X84517000Y-139358200I-326200J0D01*
G01*
X84017000Y-139358200D01*
G75*
G02*
X83690800Y-139032000I0J326200D01*
G01*
G37*
G36*
G01*
X85590800Y-139032000D02*
X85590800Y-138082000D01*
G75*
G02*
X85917000Y-137755800I326200J0D01*
G01*
X86417000Y-137755800D01*
G75*
G02*
X86743200Y-138082000I0J-326200D01*
G01*
X86743200Y-139032000D01*
G75*
G02*
X86417000Y-139358200I-326200J0D01*
G01*
X85917000Y-139358200D01*
G75*
G02*
X85590800Y-139032000I0J326200D01*
G01*
G37*
D13*
X91440000Y-145542000D03*
D10*
X106152000Y-146522500D03*
X106152000Y-135092500D03*
G36*
G01*
X100552000Y-146078700D02*
X99052000Y-146078700D01*
G75*
G02*
X98975800Y-146002500I0J76200D01*
G01*
X98975800Y-144502500D01*
G75*
G02*
X99052000Y-144426300I76200J0D01*
G01*
X100552000Y-144426300D01*
G75*
G02*
X100628200Y-144502500I0J-76200D01*
G01*
X100628200Y-146002500D01*
G75*
G02*
X100552000Y-146078700I-76200J0D01*
G01*
G37*
D11*
X97262000Y-143982500D03*
X99802000Y-142712500D03*
X97262000Y-141442500D03*
X99802000Y-140172500D03*
X97262000Y-138902500D03*
X99802000Y-137632500D03*
X97262000Y-136362500D03*
G36*
G01*
X82527200Y-142806000D02*
X82527200Y-143706000D01*
G75*
G02*
X82201000Y-144032200I-326200J0D01*
G01*
X81676000Y-144032200D01*
G75*
G02*
X81349800Y-143706000I0J326200D01*
G01*
X81349800Y-142806000D01*
G75*
G02*
X81676000Y-142479800I326200J0D01*
G01*
X82201000Y-142479800D01*
G75*
G02*
X82527200Y-142806000I0J-326200D01*
G01*
G37*
G36*
G01*
X80702200Y-142806000D02*
X80702200Y-143706000D01*
G75*
G02*
X80376000Y-144032200I-326200J0D01*
G01*
X79851000Y-144032200D01*
G75*
G02*
X79524800Y-143706000I0J326200D01*
G01*
X79524800Y-142806000D01*
G75*
G02*
X79851000Y-142479800I326200J0D01*
G01*
X80376000Y-142479800D01*
G75*
G02*
X80702200Y-142806000I0J-326200D01*
G01*
G37*
G36*
X84901627Y-127228020D02*
G01*
X84946768Y-127201958D01*
X84960000Y-127200800D01*
X86460000Y-127200800D01*
X86508980Y-127218627D01*
X86535042Y-127263768D01*
X86536200Y-127277000D01*
X86536200Y-127777000D01*
X86530983Y-127791334D01*
X86529755Y-127858337D01*
X86526301Y-127879664D01*
X86484026Y-128014979D01*
X86474725Y-128034480D01*
X86396170Y-128152490D01*
X86381769Y-128168596D01*
X86273250Y-128259816D01*
X86254908Y-128271233D01*
X86125149Y-128328328D01*
X86104340Y-128334138D01*
X85974932Y-128351060D01*
X85973232Y-128352042D01*
X85960000Y-128353200D01*
X85460000Y-128353200D01*
X85457934Y-128352448D01*
X85442167Y-128352256D01*
X85302090Y-128330445D01*
X85281430Y-128324128D01*
X85153105Y-128263880D01*
X85135047Y-128252018D01*
X85028789Y-128158174D01*
X85014787Y-128141721D01*
X84939139Y-128021826D01*
X84930317Y-128002105D01*
X84891360Y-127865798D01*
X84888427Y-127844392D01*
X84888718Y-127796745D01*
X84884958Y-127790232D01*
X84883800Y-127777000D01*
X84883800Y-127277000D01*
X84901627Y-127228020D01*
G37*
G36*
X84888925Y-126462919D02*
G01*
X84889293Y-126402630D01*
X84892487Y-126381262D01*
X84933106Y-126245441D01*
X84942168Y-126225828D01*
X85019275Y-126106866D01*
X85033478Y-126090585D01*
X85140875Y-125998047D01*
X85159076Y-125986408D01*
X85288128Y-125927731D01*
X85308865Y-125921667D01*
X85449198Y-125901570D01*
X85460000Y-125900800D01*
X85960000Y-125900800D01*
X85960929Y-125900806D01*
X85973145Y-125900955D01*
X85984858Y-125902005D01*
X86124659Y-125925525D01*
X86145242Y-125932094D01*
X86272821Y-125993906D01*
X86290732Y-126005987D01*
X86395836Y-126101122D01*
X86409637Y-126117745D01*
X86483814Y-126238555D01*
X86492394Y-126258383D01*
X86529683Y-126395156D01*
X86532353Y-126416596D01*
X86531598Y-126457802D01*
X86535042Y-126463768D01*
X86536200Y-126477000D01*
X86536200Y-126977000D01*
X86518373Y-127025980D01*
X86473232Y-127052042D01*
X86460000Y-127053200D01*
X84960000Y-127053200D01*
X84911020Y-127035373D01*
X84884958Y-126990232D01*
X84883800Y-126977000D01*
X84883800Y-126477000D01*
X84888925Y-126462919D01*
G37*
D13*
X91440000Y-118618000D03*
G36*
G01*
X91061200Y-138082000D02*
X91061200Y-139032000D01*
G75*
G02*
X90735000Y-139358200I-326200J0D01*
G01*
X90235000Y-139358200D01*
G75*
G02*
X89908800Y-139032000I0J326200D01*
G01*
X89908800Y-138082000D01*
G75*
G02*
X90235000Y-137755800I326200J0D01*
G01*
X90735000Y-137755800D01*
G75*
G02*
X91061200Y-138082000I0J-326200D01*
G01*
G37*
G36*
G01*
X89161200Y-138082000D02*
X89161200Y-139032000D01*
G75*
G02*
X88835000Y-139358200I-326200J0D01*
G01*
X88335000Y-139358200D01*
G75*
G02*
X88008800Y-139032000I0J326200D01*
G01*
X88008800Y-138082000D01*
G75*
G02*
X88335000Y-137755800I326200J0D01*
G01*
X88835000Y-137755800D01*
G75*
G02*
X89161200Y-138082000I0J-326200D01*
G01*
G37*
G36*
G01*
X95100200Y-124264000D02*
X95100200Y-125164000D01*
G75*
G02*
X94774000Y-125490200I-326200J0D01*
G01*
X94249000Y-125490200D01*
G75*
G02*
X93922800Y-125164000I0J326200D01*
G01*
X93922800Y-124264000D01*
G75*
G02*
X94249000Y-123937800I326200J0D01*
G01*
X94774000Y-123937800D01*
G75*
G02*
X95100200Y-124264000I0J-326200D01*
G01*
G37*
G36*
G01*
X93275200Y-124264000D02*
X93275200Y-125164000D01*
G75*
G02*
X92949000Y-125490200I-326200J0D01*
G01*
X92424000Y-125490200D01*
G75*
G02*
X92097800Y-125164000I0J326200D01*
G01*
X92097800Y-124264000D01*
G75*
G02*
X92424000Y-123937800I326200J0D01*
G01*
X92949000Y-123937800D01*
G75*
G02*
X93275200Y-124264000I0J-326200D01*
G01*
G37*
G36*
G01*
X79524800Y-146119000D02*
X79524800Y-145219000D01*
G75*
G02*
X79851000Y-144892800I326200J0D01*
G01*
X80376000Y-144892800D01*
G75*
G02*
X80702200Y-145219000I0J-326200D01*
G01*
X80702200Y-146119000D01*
G75*
G02*
X80376000Y-146445200I-326200J0D01*
G01*
X79851000Y-146445200D01*
G75*
G02*
X79524800Y-146119000I0J326200D01*
G01*
G37*
G36*
G01*
X81349800Y-146119000D02*
X81349800Y-145219000D01*
G75*
G02*
X81676000Y-144892800I326200J0D01*
G01*
X82201000Y-144892800D01*
G75*
G02*
X82527200Y-145219000I0J-326200D01*
G01*
X82527200Y-146119000D01*
G75*
G02*
X82201000Y-146445200I-326200J0D01*
G01*
X81676000Y-146445200D01*
G75*
G02*
X81349800Y-146119000I0J326200D01*
G01*
G37*
G36*
G01*
X87780000Y-137003200D02*
X87480000Y-137003200D01*
G75*
G02*
X87253800Y-136777000I0J226200D01*
G01*
X87253800Y-135127000D01*
G75*
G02*
X87480000Y-134900800I226200J0D01*
G01*
X87780000Y-134900800D01*
G75*
G02*
X88006200Y-135127000I0J-226200D01*
G01*
X88006200Y-136777000D01*
G75*
G02*
X87780000Y-137003200I-226200J0D01*
G01*
G37*
G36*
G01*
X89050000Y-137003200D02*
X88750000Y-137003200D01*
G75*
G02*
X88523800Y-136777000I0J226200D01*
G01*
X88523800Y-135127000D01*
G75*
G02*
X88750000Y-134900800I226200J0D01*
G01*
X89050000Y-134900800D01*
G75*
G02*
X89276200Y-135127000I0J-226200D01*
G01*
X89276200Y-136777000D01*
G75*
G02*
X89050000Y-137003200I-226200J0D01*
G01*
G37*
G36*
G01*
X90320000Y-137003200D02*
X90020000Y-137003200D01*
G75*
G02*
X89793800Y-136777000I0J226200D01*
G01*
X89793800Y-135127000D01*
G75*
G02*
X90020000Y-134900800I226200J0D01*
G01*
X90320000Y-134900800D01*
G75*
G02*
X90546200Y-135127000I0J-226200D01*
G01*
X90546200Y-136777000D01*
G75*
G02*
X90320000Y-137003200I-226200J0D01*
G01*
G37*
G36*
G01*
X91590000Y-137003200D02*
X91290000Y-137003200D01*
G75*
G02*
X91063800Y-136777000I0J226200D01*
G01*
X91063800Y-135127000D01*
G75*
G02*
X91290000Y-134900800I226200J0D01*
G01*
X91590000Y-134900800D01*
G75*
G02*
X91816200Y-135127000I0J-226200D01*
G01*
X91816200Y-136777000D01*
G75*
G02*
X91590000Y-137003200I-226200J0D01*
G01*
G37*
G36*
G01*
X91590000Y-132053200D02*
X91290000Y-132053200D01*
G75*
G02*
X91063800Y-131827000I0J226200D01*
G01*
X91063800Y-130177000D01*
G75*
G02*
X91290000Y-129950800I226200J0D01*
G01*
X91590000Y-129950800D01*
G75*
G02*
X91816200Y-130177000I0J-226200D01*
G01*
X91816200Y-131827000D01*
G75*
G02*
X91590000Y-132053200I-226200J0D01*
G01*
G37*
G36*
G01*
X90320000Y-132053200D02*
X90020000Y-132053200D01*
G75*
G02*
X89793800Y-131827000I0J226200D01*
G01*
X89793800Y-130177000D01*
G75*
G02*
X90020000Y-129950800I226200J0D01*
G01*
X90320000Y-129950800D01*
G75*
G02*
X90546200Y-130177000I0J-226200D01*
G01*
X90546200Y-131827000D01*
G75*
G02*
X90320000Y-132053200I-226200J0D01*
G01*
G37*
G36*
G01*
X89050000Y-132053200D02*
X88750000Y-132053200D01*
G75*
G02*
X88523800Y-131827000I0J226200D01*
G01*
X88523800Y-130177000D01*
G75*
G02*
X88750000Y-129950800I226200J0D01*
G01*
X89050000Y-129950800D01*
G75*
G02*
X89276200Y-130177000I0J-226200D01*
G01*
X89276200Y-131827000D01*
G75*
G02*
X89050000Y-132053200I-226200J0D01*
G01*
G37*
G36*
G01*
X87780000Y-132053200D02*
X87480000Y-132053200D01*
G75*
G02*
X87253800Y-131827000I0J226200D01*
G01*
X87253800Y-130177000D01*
G75*
G02*
X87480000Y-129950800I226200J0D01*
G01*
X87780000Y-129950800D01*
G75*
G02*
X88006200Y-130177000I0J-226200D01*
G01*
X88006200Y-131827000D01*
G75*
G02*
X87780000Y-132053200I-226200J0D01*
G01*
G37*
M02*
