G04 #@! TF.GenerationSoftware,KiCad,Pcbnew,6.0.10-86aedd382b~118~ubuntu18.04.1*
G04 #@! TF.CreationDate,2025-04-04T15:15:07-06:00*
G04 #@! TF.ProjectId,mss-xcade-can,6d73732d-7863-4616-9465-2d63616e2e6b,rev?*
G04 #@! TF.SameCoordinates,Original*
G04 #@! TF.FileFunction,Soldermask,Bot*
G04 #@! TF.FilePolarity,Negative*
%FSLAX46Y46*%
G04 Gerber Fmt 4.6, Leading zero omitted, Abs format (unit mm)*
G04 Created by KiCad (PCBNEW 6.0.10-86aedd382b~118~ubuntu18.04.1) date 2025-04-04 15:15:07*
%MOMM*%
%LPD*%
G01*
G04 APERTURE LIST*
%ADD10C,3.352400*%
%ADD11C,1.652400*%
%ADD12O,1.852400X1.852400*%
%ADD13C,5.652400*%
G04 APERTURE END LIST*
D10*
X106152000Y-129032000D03*
X106152000Y-117602000D03*
G36*
G01*
X100552000Y-128588200D02*
X99052000Y-128588200D01*
G75*
G02*
X98975800Y-128512000I0J76200D01*
G01*
X98975800Y-127012000D01*
G75*
G02*
X99052000Y-126935800I76200J0D01*
G01*
X100552000Y-126935800D01*
G75*
G02*
X100628200Y-127012000I0J-76200D01*
G01*
X100628200Y-128512000D01*
G75*
G02*
X100552000Y-128588200I-76200J0D01*
G01*
G37*
D11*
X97262000Y-126492000D03*
X99802000Y-125222000D03*
X97262000Y-123952000D03*
X99802000Y-122682000D03*
X97262000Y-121412000D03*
X99802000Y-120142000D03*
X97262000Y-118872000D03*
G36*
G01*
X77935800Y-130405000D02*
X77935800Y-128705000D01*
G75*
G02*
X78012000Y-128628800I76200J0D01*
G01*
X79712000Y-128628800D01*
G75*
G02*
X79788200Y-128705000I0J-76200D01*
G01*
X79788200Y-130405000D01*
G75*
G02*
X79712000Y-130481200I-76200J0D01*
G01*
X78012000Y-130481200D01*
G75*
G02*
X77935800Y-130405000I0J76200D01*
G01*
G37*
D12*
X81402000Y-129555000D03*
X78862000Y-132095000D03*
X81402000Y-132095000D03*
X78862000Y-134635000D03*
X81402000Y-134635000D03*
D13*
X91440000Y-145542000D03*
D10*
X106152000Y-146522500D03*
X106152000Y-135092500D03*
G36*
G01*
X100552000Y-146078700D02*
X99052000Y-146078700D01*
G75*
G02*
X98975800Y-146002500I0J76200D01*
G01*
X98975800Y-144502500D01*
G75*
G02*
X99052000Y-144426300I76200J0D01*
G01*
X100552000Y-144426300D01*
G75*
G02*
X100628200Y-144502500I0J-76200D01*
G01*
X100628200Y-146002500D01*
G75*
G02*
X100552000Y-146078700I-76200J0D01*
G01*
G37*
D11*
X97262000Y-143982500D03*
X99802000Y-142712500D03*
X97262000Y-141442500D03*
X99802000Y-140172500D03*
X97262000Y-138902500D03*
X99802000Y-137632500D03*
X97262000Y-136362500D03*
D13*
X91440000Y-118618000D03*
M02*
