G04 #@! TF.GenerationSoftware,KiCad,Pcbnew,6.0.10-86aedd382b~118~ubuntu18.04.1*
G04 #@! TF.CreationDate,2025-04-04T15:15:07-06:00*
G04 #@! TF.ProjectId,mss-xcade-can,6d73732d-7863-4616-9465-2d63616e2e6b,rev?*
G04 #@! TF.SameCoordinates,Original*
G04 #@! TF.FileFunction,Legend,Bot*
G04 #@! TF.FilePolarity,Positive*
%FSLAX46Y46*%
G04 Gerber Fmt 4.6, Leading zero omitted, Abs format (unit mm)*
G04 Created by KiCad (PCBNEW 6.0.10-86aedd382b~118~ubuntu18.04.1) date 2025-04-04 15:15:07*
%MOMM*%
%LPD*%
G01*
G04 APERTURE LIST*
%ADD10C,0.152400*%
G04 APERTURE END LIST*
D10*
X109440859Y-123141619D02*
X108424859Y-123141619D01*
X109440859Y-123770571D02*
X109392478Y-123673809D01*
X109344097Y-123625428D01*
X109247335Y-123577047D01*
X108957049Y-123577047D01*
X108860287Y-123625428D01*
X108811906Y-123673809D01*
X108763525Y-123770571D01*
X108763525Y-123915714D01*
X108811906Y-124012476D01*
X108860287Y-124060857D01*
X108957049Y-124109238D01*
X109247335Y-124109238D01*
X109344097Y-124060857D01*
X109392478Y-124012476D01*
X109440859Y-123915714D01*
X109440859Y-123770571D01*
X108763525Y-124447904D02*
X109440859Y-124641428D01*
X108957049Y-124834952D01*
X109440859Y-125028476D01*
X108763525Y-125222000D01*
X109440859Y-126044476D02*
X108908668Y-126044476D01*
X108811906Y-125996095D01*
X108763525Y-125899333D01*
X108763525Y-125705809D01*
X108811906Y-125609047D01*
X109392478Y-126044476D02*
X109440859Y-125947714D01*
X109440859Y-125705809D01*
X109392478Y-125609047D01*
X109295716Y-125560666D01*
X109198954Y-125560666D01*
X109102192Y-125609047D01*
X109053811Y-125705809D01*
X109053811Y-125947714D01*
X109005430Y-126044476D01*
X109392478Y-127254000D02*
X109440859Y-127399142D01*
X109440859Y-127641047D01*
X109392478Y-127737809D01*
X109344097Y-127786190D01*
X109247335Y-127834571D01*
X109150573Y-127834571D01*
X109053811Y-127786190D01*
X109005430Y-127737809D01*
X108957049Y-127641047D01*
X108908668Y-127447523D01*
X108860287Y-127350761D01*
X108811906Y-127302380D01*
X108715144Y-127254000D01*
X108618382Y-127254000D01*
X108521620Y-127302380D01*
X108473240Y-127350761D01*
X108424859Y-127447523D01*
X108424859Y-127689428D01*
X108473240Y-127834571D01*
X109392478Y-128705428D02*
X109440859Y-128608666D01*
X109440859Y-128415142D01*
X109392478Y-128318380D01*
X109344097Y-128270000D01*
X109247335Y-128221619D01*
X108957049Y-128221619D01*
X108860287Y-128270000D01*
X108811906Y-128318380D01*
X108763525Y-128415142D01*
X108763525Y-128608666D01*
X108811906Y-128705428D01*
X109440859Y-129576285D02*
X108908668Y-129576285D01*
X108811906Y-129527904D01*
X108763525Y-129431142D01*
X108763525Y-129237619D01*
X108811906Y-129140857D01*
X109392478Y-129576285D02*
X109440859Y-129479523D01*
X109440859Y-129237619D01*
X109392478Y-129140857D01*
X109295716Y-129092476D01*
X109198954Y-129092476D01*
X109102192Y-129140857D01*
X109053811Y-129237619D01*
X109053811Y-129479523D01*
X109005430Y-129576285D01*
X109440859Y-130205238D02*
X109392478Y-130108476D01*
X109295716Y-130060095D01*
X108424859Y-130060095D01*
X109392478Y-130979333D02*
X109440859Y-130882571D01*
X109440859Y-130689047D01*
X109392478Y-130592285D01*
X109295716Y-130543904D01*
X108908668Y-130543904D01*
X108811906Y-130592285D01*
X108763525Y-130689047D01*
X108763525Y-130882571D01*
X108811906Y-130979333D01*
X108908668Y-131027714D01*
X109005430Y-131027714D01*
X109102192Y-130543904D01*
X109440859Y-131898571D02*
X108424859Y-131898571D01*
X109392478Y-131898571D02*
X109440859Y-131801809D01*
X109440859Y-131608285D01*
X109392478Y-131511523D01*
X109344097Y-131463142D01*
X109247335Y-131414761D01*
X108957049Y-131414761D01*
X108860287Y-131463142D01*
X108811906Y-131511523D01*
X108763525Y-131608285D01*
X108763525Y-131801809D01*
X108811906Y-131898571D01*
X108908668Y-133156476D02*
X108908668Y-133495142D01*
X109440859Y-133640285D02*
X109440859Y-133156476D01*
X108424859Y-133156476D01*
X108424859Y-133640285D01*
X108763525Y-134075714D02*
X109440859Y-134075714D01*
X108860287Y-134075714D02*
X108811906Y-134124095D01*
X108763525Y-134220857D01*
X108763525Y-134366000D01*
X108811906Y-134462761D01*
X108908668Y-134511142D01*
X109440859Y-134511142D01*
X108763525Y-135430380D02*
X109586001Y-135430380D01*
X109682763Y-135382000D01*
X109731144Y-135333619D01*
X109779525Y-135236857D01*
X109779525Y-135091714D01*
X109731144Y-134994952D01*
X109392478Y-135430380D02*
X109440859Y-135333619D01*
X109440859Y-135140095D01*
X109392478Y-135043333D01*
X109344097Y-134994952D01*
X109247335Y-134946571D01*
X108957049Y-134946571D01*
X108860287Y-134994952D01*
X108811906Y-135043333D01*
X108763525Y-135140095D01*
X108763525Y-135333619D01*
X108811906Y-135430380D01*
X109440859Y-135914190D02*
X108763525Y-135914190D01*
X108424859Y-135914190D02*
X108473240Y-135865809D01*
X108521620Y-135914190D01*
X108473240Y-135962571D01*
X108424859Y-135914190D01*
X108521620Y-135914190D01*
X108763525Y-136398000D02*
X109440859Y-136398000D01*
X108860287Y-136398000D02*
X108811906Y-136446380D01*
X108763525Y-136543142D01*
X108763525Y-136688285D01*
X108811906Y-136785047D01*
X108908668Y-136833428D01*
X109440859Y-136833428D01*
X109392478Y-137704285D02*
X109440859Y-137607523D01*
X109440859Y-137414000D01*
X109392478Y-137317238D01*
X109295716Y-137268857D01*
X108908668Y-137268857D01*
X108811906Y-137317238D01*
X108763525Y-137414000D01*
X108763525Y-137607523D01*
X108811906Y-137704285D01*
X108908668Y-137752666D01*
X109005430Y-137752666D01*
X109102192Y-137268857D01*
X109392478Y-138575142D02*
X109440859Y-138478380D01*
X109440859Y-138284857D01*
X109392478Y-138188095D01*
X109295716Y-138139714D01*
X108908668Y-138139714D01*
X108811906Y-138188095D01*
X108763525Y-138284857D01*
X108763525Y-138478380D01*
X108811906Y-138575142D01*
X108908668Y-138623523D01*
X109005430Y-138623523D01*
X109102192Y-138139714D01*
X109440859Y-139058952D02*
X108763525Y-139058952D01*
X108957049Y-139058952D02*
X108860287Y-139107333D01*
X108811906Y-139155714D01*
X108763525Y-139252476D01*
X108763525Y-139349238D01*
X109440859Y-139687904D02*
X108763525Y-139687904D01*
X108424859Y-139687904D02*
X108473240Y-139639523D01*
X108521620Y-139687904D01*
X108473240Y-139736285D01*
X108424859Y-139687904D01*
X108521620Y-139687904D01*
X108763525Y-140171714D02*
X109440859Y-140171714D01*
X108860287Y-140171714D02*
X108811906Y-140220095D01*
X108763525Y-140316857D01*
X108763525Y-140462000D01*
X108811906Y-140558761D01*
X108908668Y-140607142D01*
X109440859Y-140607142D01*
X108763525Y-141526380D02*
X109586001Y-141526380D01*
X109682763Y-141478000D01*
X109731144Y-141429619D01*
X109779525Y-141332857D01*
X109779525Y-141187714D01*
X109731144Y-141090952D01*
X109392478Y-141526380D02*
X109440859Y-141429619D01*
X109440859Y-141236095D01*
X109392478Y-141139333D01*
X109344097Y-141090952D01*
X109247335Y-141042571D01*
X108957049Y-141042571D01*
X108860287Y-141090952D01*
X108811906Y-141139333D01*
X108763525Y-141236095D01*
X108763525Y-141429619D01*
X108811906Y-141526380D01*
X111076619Y-123964095D02*
X110060619Y-123964095D01*
X110786333Y-124302761D01*
X110060619Y-124641428D01*
X111076619Y-124641428D01*
X111028238Y-125076857D02*
X111076619Y-125222000D01*
X111076619Y-125463904D01*
X111028238Y-125560666D01*
X110979857Y-125609047D01*
X110883095Y-125657428D01*
X110786333Y-125657428D01*
X110689571Y-125609047D01*
X110641190Y-125560666D01*
X110592809Y-125463904D01*
X110544428Y-125270380D01*
X110496047Y-125173619D01*
X110447666Y-125125238D01*
X110350904Y-125076857D01*
X110254142Y-125076857D01*
X110157380Y-125125238D01*
X110109000Y-125173619D01*
X110060619Y-125270380D01*
X110060619Y-125512285D01*
X110109000Y-125657428D01*
X111028238Y-126044476D02*
X111076619Y-126189619D01*
X111076619Y-126431523D01*
X111028238Y-126528285D01*
X110979857Y-126576666D01*
X110883095Y-126625047D01*
X110786333Y-126625047D01*
X110689571Y-126576666D01*
X110641190Y-126528285D01*
X110592809Y-126431523D01*
X110544428Y-126238000D01*
X110496047Y-126141238D01*
X110447666Y-126092857D01*
X110350904Y-126044476D01*
X110254142Y-126044476D01*
X110157380Y-126092857D01*
X110109000Y-126141238D01*
X110060619Y-126238000D01*
X110060619Y-126479904D01*
X110109000Y-126625047D01*
X110689571Y-127060476D02*
X110689571Y-127834571D01*
X110060619Y-128221619D02*
X111076619Y-128898952D01*
X110060619Y-128898952D02*
X111076619Y-128221619D01*
X110979857Y-129866571D02*
X111028238Y-129818190D01*
X111076619Y-129673047D01*
X111076619Y-129576285D01*
X111028238Y-129431142D01*
X110931476Y-129334380D01*
X110834714Y-129286000D01*
X110641190Y-129237619D01*
X110496047Y-129237619D01*
X110302523Y-129286000D01*
X110205761Y-129334380D01*
X110109000Y-129431142D01*
X110060619Y-129576285D01*
X110060619Y-129673047D01*
X110109000Y-129818190D01*
X110157380Y-129866571D01*
X110786333Y-130253619D02*
X110786333Y-130737428D01*
X111076619Y-130156857D02*
X110060619Y-130495523D01*
X111076619Y-130834190D01*
X111076619Y-131172857D02*
X110060619Y-131172857D01*
X110060619Y-131414761D01*
X110109000Y-131559904D01*
X110205761Y-131656666D01*
X110302523Y-131705047D01*
X110496047Y-131753428D01*
X110641190Y-131753428D01*
X110834714Y-131705047D01*
X110931476Y-131656666D01*
X111028238Y-131559904D01*
X111076619Y-131414761D01*
X111076619Y-131172857D01*
X110544428Y-132188857D02*
X110544428Y-132527523D01*
X111076619Y-132672666D02*
X111076619Y-132188857D01*
X110060619Y-132188857D01*
X110060619Y-132672666D01*
X110689571Y-133108095D02*
X110689571Y-133882190D01*
X111076619Y-134849809D02*
X111076619Y-134366000D01*
X110060619Y-134366000D01*
X110979857Y-135769047D02*
X111028238Y-135720666D01*
X111076619Y-135575523D01*
X111076619Y-135478761D01*
X111028238Y-135333619D01*
X110931476Y-135236857D01*
X110834714Y-135188476D01*
X110641190Y-135140095D01*
X110496047Y-135140095D01*
X110302523Y-135188476D01*
X110205761Y-135236857D01*
X110109000Y-135333619D01*
X110060619Y-135478761D01*
X110060619Y-135575523D01*
X110109000Y-135720666D01*
X110157380Y-135769047D01*
X110979857Y-136785047D02*
X111028238Y-136736666D01*
X111076619Y-136591523D01*
X111076619Y-136494761D01*
X111028238Y-136349619D01*
X110931476Y-136252857D01*
X110834714Y-136204476D01*
X110641190Y-136156095D01*
X110496047Y-136156095D01*
X110302523Y-136204476D01*
X110205761Y-136252857D01*
X110109000Y-136349619D01*
X110060619Y-136494761D01*
X110060619Y-136591523D01*
X110109000Y-136736666D01*
X110157380Y-136785047D01*
X110399285Y-137897809D02*
X111076619Y-138139714D01*
X110399285Y-138381619D01*
X111076619Y-139300857D02*
X111076619Y-138720285D01*
X111076619Y-139010571D02*
X110060619Y-139010571D01*
X110205761Y-138913809D01*
X110302523Y-138817047D01*
X110350904Y-138720285D01*
X110979857Y-139736285D02*
X111028238Y-139784666D01*
X111076619Y-139736285D01*
X111028238Y-139687904D01*
X110979857Y-139736285D01*
X111076619Y-139736285D01*
X110060619Y-140413619D02*
X110060619Y-140510380D01*
X110109000Y-140607142D01*
X110157380Y-140655523D01*
X110254142Y-140703904D01*
X110447666Y-140752285D01*
X110689571Y-140752285D01*
X110883095Y-140703904D01*
X110979857Y-140655523D01*
X111028238Y-140607142D01*
X111076619Y-140510380D01*
X111076619Y-140413619D01*
X111028238Y-140316857D01*
X110979857Y-140268476D01*
X110883095Y-140220095D01*
X110689571Y-140171714D01*
X110447666Y-140171714D01*
X110254142Y-140220095D01*
X110157380Y-140268476D01*
X110109000Y-140316857D01*
X110060619Y-140413619D01*
X112035045Y-122464285D02*
X112712379Y-122657809D01*
X112228569Y-122851333D01*
X112712379Y-123044857D01*
X112035045Y-123238380D01*
X112035045Y-123528666D02*
X112712379Y-123722190D01*
X112228569Y-123915714D01*
X112712379Y-124109238D01*
X112035045Y-124302761D01*
X112035045Y-124593047D02*
X112712379Y-124786571D01*
X112228569Y-124980095D01*
X112712379Y-125173619D01*
X112035045Y-125367142D01*
X112615617Y-125754190D02*
X112663998Y-125802571D01*
X112712379Y-125754190D01*
X112663998Y-125705809D01*
X112615617Y-125754190D01*
X112712379Y-125754190D01*
X112712379Y-126238000D02*
X112035045Y-126238000D01*
X111696379Y-126238000D02*
X111744760Y-126189619D01*
X111793140Y-126238000D01*
X111744760Y-126286380D01*
X111696379Y-126238000D01*
X111793140Y-126238000D01*
X112712379Y-127157238D02*
X112180188Y-127157238D01*
X112083426Y-127108857D01*
X112035045Y-127012095D01*
X112035045Y-126818571D01*
X112083426Y-126721809D01*
X112663998Y-127157238D02*
X112712379Y-127060476D01*
X112712379Y-126818571D01*
X112663998Y-126721809D01*
X112567236Y-126673428D01*
X112470474Y-126673428D01*
X112373712Y-126721809D01*
X112325331Y-126818571D01*
X112325331Y-127060476D01*
X112276950Y-127157238D01*
X112663998Y-127592666D02*
X112712379Y-127689428D01*
X112712379Y-127882952D01*
X112663998Y-127979714D01*
X112567236Y-128028095D01*
X112518855Y-128028095D01*
X112422093Y-127979714D01*
X112373712Y-127882952D01*
X112373712Y-127737809D01*
X112325331Y-127641047D01*
X112228569Y-127592666D01*
X112180188Y-127592666D01*
X112083426Y-127641047D01*
X112035045Y-127737809D01*
X112035045Y-127882952D01*
X112083426Y-127979714D01*
X112663998Y-128898952D02*
X112712379Y-128802190D01*
X112712379Y-128608666D01*
X112663998Y-128511904D01*
X112615617Y-128463523D01*
X112518855Y-128415142D01*
X112228569Y-128415142D01*
X112131807Y-128463523D01*
X112083426Y-128511904D01*
X112035045Y-128608666D01*
X112035045Y-128802190D01*
X112083426Y-128898952D01*
X112712379Y-129769809D02*
X112180188Y-129769809D01*
X112083426Y-129721428D01*
X112035045Y-129624666D01*
X112035045Y-129431142D01*
X112083426Y-129334380D01*
X112663998Y-129769809D02*
X112712379Y-129673047D01*
X112712379Y-129431142D01*
X112663998Y-129334380D01*
X112567236Y-129286000D01*
X112470474Y-129286000D01*
X112373712Y-129334380D01*
X112325331Y-129431142D01*
X112325331Y-129673047D01*
X112276950Y-129769809D01*
X112712379Y-130398761D02*
X112663998Y-130302000D01*
X112567236Y-130253619D01*
X111696379Y-130253619D01*
X112663998Y-131172857D02*
X112712379Y-131076095D01*
X112712379Y-130882571D01*
X112663998Y-130785809D01*
X112567236Y-130737428D01*
X112180188Y-130737428D01*
X112083426Y-130785809D01*
X112035045Y-130882571D01*
X112035045Y-131076095D01*
X112083426Y-131172857D01*
X112180188Y-131221238D01*
X112276950Y-131221238D01*
X112373712Y-130737428D01*
X112712379Y-132092095D02*
X111696379Y-132092095D01*
X112663998Y-132092095D02*
X112712379Y-131995333D01*
X112712379Y-131801809D01*
X112663998Y-131705047D01*
X112615617Y-131656666D01*
X112518855Y-131608285D01*
X112228569Y-131608285D01*
X112131807Y-131656666D01*
X112083426Y-131705047D01*
X112035045Y-131801809D01*
X112035045Y-131995333D01*
X112083426Y-132092095D01*
X112615617Y-132575904D02*
X112663998Y-132624285D01*
X112712379Y-132575904D01*
X112663998Y-132527523D01*
X112615617Y-132575904D01*
X112712379Y-132575904D01*
X112663998Y-133495142D02*
X112712379Y-133398380D01*
X112712379Y-133204857D01*
X112663998Y-133108095D01*
X112615617Y-133059714D01*
X112518855Y-133011333D01*
X112228569Y-133011333D01*
X112131807Y-133059714D01*
X112083426Y-133108095D01*
X112035045Y-133204857D01*
X112035045Y-133398380D01*
X112083426Y-133495142D01*
X112712379Y-134075714D02*
X112663998Y-133978952D01*
X112615617Y-133930571D01*
X112518855Y-133882190D01*
X112228569Y-133882190D01*
X112131807Y-133930571D01*
X112083426Y-133978952D01*
X112035045Y-134075714D01*
X112035045Y-134220857D01*
X112083426Y-134317619D01*
X112131807Y-134366000D01*
X112228569Y-134414380D01*
X112518855Y-134414380D01*
X112615617Y-134366000D01*
X112663998Y-134317619D01*
X112712379Y-134220857D01*
X112712379Y-134075714D01*
X112712379Y-134849809D02*
X112035045Y-134849809D01*
X112131807Y-134849809D02*
X112083426Y-134898190D01*
X112035045Y-134994952D01*
X112035045Y-135140095D01*
X112083426Y-135236857D01*
X112180188Y-135285238D01*
X112712379Y-135285238D01*
X112180188Y-135285238D02*
X112083426Y-135333619D01*
X112035045Y-135430380D01*
X112035045Y-135575523D01*
X112083426Y-135672285D01*
X112180188Y-135720666D01*
X112712379Y-135720666D01*
X111938283Y-137801047D02*
X111889902Y-137704285D01*
X111889902Y-137510761D01*
X111938283Y-137414000D01*
X112035045Y-137317238D01*
X112131807Y-137268857D01*
X112325331Y-137268857D01*
X112422093Y-137317238D01*
X112518855Y-137414000D01*
X112567236Y-137510761D01*
X112567236Y-137704285D01*
X112518855Y-137801047D01*
X111551236Y-137607523D02*
X111599617Y-137365619D01*
X111744760Y-137123714D01*
X111986664Y-136978571D01*
X112228569Y-136930190D01*
X112470474Y-136978571D01*
X112712379Y-137123714D01*
X112857521Y-137365619D01*
X112905902Y-137607523D01*
X112857521Y-137849428D01*
X112712379Y-138091333D01*
X112470474Y-138236476D01*
X112228569Y-138284857D01*
X111986664Y-138236476D01*
X111744760Y-138091333D01*
X111599617Y-137849428D01*
X111551236Y-137607523D01*
X111793140Y-138671904D02*
X111744760Y-138720285D01*
X111696379Y-138817047D01*
X111696379Y-139058952D01*
X111744760Y-139155714D01*
X111793140Y-139204095D01*
X111889902Y-139252476D01*
X111986664Y-139252476D01*
X112131807Y-139204095D01*
X112712379Y-138623523D01*
X112712379Y-139252476D01*
X111696379Y-139881428D02*
X111696379Y-139978190D01*
X111744760Y-140074952D01*
X111793140Y-140123333D01*
X111889902Y-140171714D01*
X112083426Y-140220095D01*
X112325331Y-140220095D01*
X112518855Y-140171714D01*
X112615617Y-140123333D01*
X112663998Y-140074952D01*
X112712379Y-139978190D01*
X112712379Y-139881428D01*
X112663998Y-139784666D01*
X112615617Y-139736285D01*
X112518855Y-139687904D01*
X112325331Y-139639523D01*
X112083426Y-139639523D01*
X111889902Y-139687904D01*
X111793140Y-139736285D01*
X111744760Y-139784666D01*
X111696379Y-139881428D01*
X111793140Y-140607142D02*
X111744760Y-140655523D01*
X111696379Y-140752285D01*
X111696379Y-140994190D01*
X111744760Y-141090952D01*
X111793140Y-141139333D01*
X111889902Y-141187714D01*
X111986664Y-141187714D01*
X112131807Y-141139333D01*
X112712379Y-140558761D01*
X112712379Y-141187714D01*
X111696379Y-142106952D02*
X111696379Y-141623142D01*
X112180188Y-141574761D01*
X112131807Y-141623142D01*
X112083426Y-141719904D01*
X112083426Y-141961809D01*
X112131807Y-142058571D01*
X112180188Y-142106952D01*
X112276950Y-142155333D01*
X112518855Y-142155333D01*
X112615617Y-142106952D01*
X112663998Y-142058571D01*
X112712379Y-141961809D01*
X112712379Y-141719904D01*
X112663998Y-141623142D01*
X112615617Y-141574761D01*
M02*
