G04 #@! TF.GenerationSoftware,KiCad,Pcbnew,6.0.10-86aedd382b~118~ubuntu18.04.1*
G04 #@! TF.CreationDate,2025-04-04T15:15:07-06:00*
G04 #@! TF.ProjectId,mss-xcade-can,6d73732d-7863-4616-9465-2d63616e2e6b,rev?*
G04 #@! TF.SameCoordinates,Original*
G04 #@! TF.FileFunction,Copper,L2,Bot*
G04 #@! TF.FilePolarity,Positive*
%FSLAX46Y46*%
G04 Gerber Fmt 4.6, Leading zero omitted, Abs format (unit mm)*
G04 Created by KiCad (PCBNEW 6.0.10-86aedd382b~118~ubuntu18.04.1) date 2025-04-04 15:15:07*
%MOMM*%
%LPD*%
G01*
G04 APERTURE LIST*
G04 #@! TA.AperFunction,ComponentPad*
%ADD10R,1.500000X1.500000*%
G04 #@! TD*
G04 #@! TA.AperFunction,ComponentPad*
%ADD11C,1.500000*%
G04 #@! TD*
G04 #@! TA.AperFunction,ComponentPad*
%ADD12R,1.700000X1.700000*%
G04 #@! TD*
G04 #@! TA.AperFunction,ComponentPad*
%ADD13O,1.700000X1.700000*%
G04 #@! TD*
G04 #@! TA.AperFunction,ComponentPad*
%ADD14C,5.500000*%
G04 #@! TD*
G04 #@! TA.AperFunction,ViaPad*
%ADD15C,0.609600*%
G04 #@! TD*
G04 #@! TA.AperFunction,Conductor*
%ADD16C,1.016000*%
G04 #@! TD*
G04 #@! TA.AperFunction,Conductor*
%ADD17C,0.635000*%
G04 #@! TD*
G04 APERTURE END LIST*
D10*
X99802000Y-127762000D03*
D11*
X97262000Y-126492000D03*
X99802000Y-125222000D03*
X97262000Y-123952000D03*
X99802000Y-122682000D03*
X97262000Y-121412000D03*
X99802000Y-120142000D03*
X97262000Y-118872000D03*
D12*
X78862000Y-129555000D03*
D13*
X81402000Y-129555000D03*
X78862000Y-132095000D03*
X81402000Y-132095000D03*
X78862000Y-134635000D03*
X81402000Y-134635000D03*
D14*
X91440000Y-145542000D03*
D10*
X99802000Y-145252500D03*
D11*
X97262000Y-143982500D03*
X99802000Y-142712500D03*
X97262000Y-141442500D03*
X99802000Y-140172500D03*
X97262000Y-138902500D03*
X99802000Y-137632500D03*
X97262000Y-136362500D03*
D14*
X91440000Y-118618000D03*
D15*
X88519000Y-125476000D03*
X87376000Y-138557000D03*
X81915000Y-147701000D03*
X88585000Y-137348000D03*
X80899000Y-147701000D03*
X90551000Y-125476000D03*
X88900000Y-134366000D03*
X88585000Y-128585000D03*
X94869000Y-129413000D03*
X88585000Y-129352000D03*
X94869000Y-130302000D03*
D16*
X102362000Y-117475000D02*
X103251000Y-118364000D01*
X98659000Y-117475000D02*
X102362000Y-117475000D01*
X103251000Y-133731000D02*
X102616000Y-134366000D01*
X97262000Y-118872000D02*
X98659000Y-117475000D01*
X99258500Y-134366000D02*
X97262000Y-136362500D01*
X103251000Y-118364000D02*
X103251000Y-133731000D01*
X102616000Y-134366000D02*
X99258500Y-134366000D01*
D17*
X94869000Y-129413000D02*
X94869000Y-130302000D01*
X94168000Y-128585000D02*
X94869000Y-129286000D01*
X88585000Y-128585000D02*
X94168000Y-128585000D01*
X88585000Y-128585000D02*
X88585000Y-129352000D01*
X94869000Y-129286000D02*
X94869000Y-129413000D01*
G04 #@! TA.AperFunction,Conductor*
G36*
X113734121Y-114701002D02*
G01*
X113780614Y-114754658D01*
X113792000Y-114807000D01*
X113792000Y-149353000D01*
X113771998Y-149421121D01*
X113718342Y-149467614D01*
X113666000Y-149479000D01*
X76707000Y-149479000D01*
X76638879Y-149458998D01*
X76592386Y-149405342D01*
X76581000Y-149353000D01*
X76581000Y-145530609D01*
X88176734Y-145530609D01*
X88194591Y-145883106D01*
X88195128Y-145886461D01*
X88195129Y-145886467D01*
X88227670Y-146089626D01*
X88250412Y-146231613D01*
X88343546Y-146572053D01*
X88472903Y-146900443D01*
X88474486Y-146903458D01*
X88635384Y-147209926D01*
X88635389Y-147209934D01*
X88636968Y-147212942D01*
X88638862Y-147215760D01*
X88638867Y-147215769D01*
X88721832Y-147339233D01*
X88833824Y-147505895D01*
X89061167Y-147775873D01*
X89063627Y-147778224D01*
X89063630Y-147778227D01*
X89313875Y-148017366D01*
X89313882Y-148017372D01*
X89316338Y-148019719D01*
X89596351Y-148234581D01*
X89624484Y-148251686D01*
X89895017Y-148416173D01*
X89895022Y-148416176D01*
X89897932Y-148417945D01*
X89901020Y-148419391D01*
X89901019Y-148419391D01*
X90214468Y-148566222D01*
X90214478Y-148566226D01*
X90217552Y-148567666D01*
X90220770Y-148568768D01*
X90220773Y-148568769D01*
X90548241Y-148680887D01*
X90548245Y-148680888D01*
X90551472Y-148681993D01*
X90554802Y-148682743D01*
X90554811Y-148682746D01*
X90798164Y-148737587D01*
X90895786Y-148759587D01*
X90899171Y-148759973D01*
X90899179Y-148759974D01*
X91243083Y-148799157D01*
X91243091Y-148799157D01*
X91246466Y-148799542D01*
X91249870Y-148799560D01*
X91249873Y-148799560D01*
X91441627Y-148800564D01*
X91599411Y-148801390D01*
X91602797Y-148801040D01*
X91602799Y-148801040D01*
X91947098Y-148765461D01*
X91947107Y-148765460D01*
X91950490Y-148765110D01*
X91953823Y-148764396D01*
X91953826Y-148764395D01*
X92123692Y-148727979D01*
X92295598Y-148691125D01*
X92630697Y-148580301D01*
X92951867Y-148433936D01*
X93132428Y-148326727D01*
X93252407Y-148255489D01*
X93252412Y-148255486D01*
X93255352Y-148253740D01*
X93269802Y-148242891D01*
X93534867Y-148043874D01*
X93537600Y-148041822D01*
X93795310Y-147800661D01*
X94025468Y-147533078D01*
X94225380Y-147242203D01*
X94226992Y-147239209D01*
X94226997Y-147239201D01*
X94391087Y-146934452D01*
X94392709Y-146931440D01*
X94525498Y-146604422D01*
X94533816Y-146575223D01*
X94536817Y-146564686D01*
X104293018Y-146564686D01*
X104318579Y-146832600D01*
X104319664Y-146837034D01*
X104319665Y-146837040D01*
X104343502Y-146934452D01*
X104382547Y-147094018D01*
X104483583Y-147343463D01*
X104619569Y-147575710D01*
X104787658Y-147785895D01*
X104984327Y-147969613D01*
X105205457Y-148123016D01*
X105446416Y-148242891D01*
X105450750Y-148244312D01*
X105450753Y-148244313D01*
X105697823Y-148325307D01*
X105697829Y-148325308D01*
X105702156Y-148326727D01*
X105706647Y-148327507D01*
X105706648Y-148327507D01*
X105963538Y-148372111D01*
X105963546Y-148372112D01*
X105967319Y-148372767D01*
X105971156Y-148372958D01*
X106050777Y-148376922D01*
X106050785Y-148376922D01*
X106052348Y-148377000D01*
X106220374Y-148377000D01*
X106222642Y-148376835D01*
X106222654Y-148376835D01*
X106353457Y-148367344D01*
X106420425Y-148362485D01*
X106424880Y-148361501D01*
X106424883Y-148361501D01*
X106678770Y-148305447D01*
X106678772Y-148305446D01*
X106683226Y-148304463D01*
X106934900Y-148209113D01*
X107170172Y-148078431D01*
X107316842Y-147966496D01*
X107380491Y-147917921D01*
X107380495Y-147917917D01*
X107384116Y-147915154D01*
X107572249Y-147722703D01*
X107679242Y-147575710D01*
X107727942Y-147508804D01*
X107727947Y-147508797D01*
X107730630Y-147505110D01*
X107855941Y-147266933D01*
X107945557Y-147013162D01*
X107970688Y-146885656D01*
X107996720Y-146753583D01*
X107996721Y-146753577D01*
X107997601Y-146749111D01*
X108004967Y-146601144D01*
X108010755Y-146484883D01*
X108010755Y-146484877D01*
X108010982Y-146480314D01*
X107985421Y-146212400D01*
X107978958Y-146185984D01*
X107922539Y-145955420D01*
X107921453Y-145950982D01*
X107820417Y-145701537D01*
X107684431Y-145469290D01*
X107516342Y-145259105D01*
X107319673Y-145075387D01*
X107098543Y-144921984D01*
X106857584Y-144802109D01*
X106853250Y-144800688D01*
X106853247Y-144800687D01*
X106606177Y-144719693D01*
X106606171Y-144719692D01*
X106601844Y-144718273D01*
X106595918Y-144717244D01*
X106340462Y-144672889D01*
X106340454Y-144672888D01*
X106336681Y-144672233D01*
X106326718Y-144671737D01*
X106253223Y-144668078D01*
X106253215Y-144668078D01*
X106251652Y-144668000D01*
X106083626Y-144668000D01*
X106081358Y-144668165D01*
X106081346Y-144668165D01*
X105950543Y-144677656D01*
X105883575Y-144682515D01*
X105879120Y-144683499D01*
X105879117Y-144683499D01*
X105625230Y-144739553D01*
X105625228Y-144739554D01*
X105620774Y-144740537D01*
X105369100Y-144835887D01*
X105365114Y-144838101D01*
X105365112Y-144838102D01*
X105245692Y-144904434D01*
X105133828Y-144966569D01*
X105083057Y-145005316D01*
X104923509Y-145127079D01*
X104923505Y-145127083D01*
X104919884Y-145129846D01*
X104731751Y-145322297D01*
X104729066Y-145325986D01*
X104576058Y-145536196D01*
X104576053Y-145536203D01*
X104573370Y-145539890D01*
X104448059Y-145778067D01*
X104358443Y-146031838D01*
X104342620Y-146112120D01*
X104311846Y-146268254D01*
X104306399Y-146295889D01*
X104306172Y-146300442D01*
X104306172Y-146300445D01*
X104296991Y-146484883D01*
X104293018Y-146564686D01*
X94536817Y-146564686D01*
X94621257Y-146268254D01*
X94622191Y-146264976D01*
X94681659Y-145917073D01*
X94683945Y-145879711D01*
X94703096Y-145566580D01*
X94703206Y-145564782D01*
X94703244Y-145553997D01*
X94703280Y-145543819D01*
X94703280Y-145543806D01*
X94703286Y-145542000D01*
X94684199Y-145189567D01*
X94627161Y-144841257D01*
X94532839Y-144501145D01*
X94529849Y-144493630D01*
X94403597Y-144176372D01*
X94402338Y-144173208D01*
X94297300Y-143974826D01*
X94293901Y-143968407D01*
X96252738Y-143968407D01*
X96269222Y-144164709D01*
X96293106Y-144248000D01*
X96311493Y-144312123D01*
X96323521Y-144354070D01*
X96326336Y-144359547D01*
X96390101Y-144483620D01*
X96413566Y-144529279D01*
X96417389Y-144534103D01*
X96417392Y-144534107D01*
X96445045Y-144568996D01*
X96535927Y-144683660D01*
X96540620Y-144687654D01*
X96540621Y-144687655D01*
X96673434Y-144800687D01*
X96685945Y-144811335D01*
X96691323Y-144814341D01*
X96691325Y-144814342D01*
X96733839Y-144838102D01*
X96857904Y-144907440D01*
X97045255Y-144968314D01*
X97240862Y-144991639D01*
X97246997Y-144991167D01*
X97246999Y-144991167D01*
X97306801Y-144986565D01*
X97437274Y-144976526D01*
X97627009Y-144923550D01*
X97634132Y-144919952D01*
X97797341Y-144837510D01*
X97797343Y-144837509D01*
X97802842Y-144834731D01*
X97958074Y-144713450D01*
X97962100Y-144708786D01*
X97962103Y-144708783D01*
X98082764Y-144568996D01*
X98082765Y-144568994D01*
X98086793Y-144564328D01*
X98136156Y-144477433D01*
X98797500Y-144477433D01*
X98797501Y-146027566D01*
X98812266Y-146101801D01*
X98868516Y-146185984D01*
X98952699Y-146242234D01*
X99026933Y-146257000D01*
X99801874Y-146257000D01*
X100577066Y-146256999D01*
X100612818Y-146249888D01*
X100639126Y-146244656D01*
X100639128Y-146244655D01*
X100651301Y-146242234D01*
X100661621Y-146235339D01*
X100661622Y-146235338D01*
X100725168Y-146192877D01*
X100735484Y-146185984D01*
X100791734Y-146101801D01*
X100806500Y-146027567D01*
X100806499Y-144477434D01*
X100791734Y-144403199D01*
X100735484Y-144319016D01*
X100651301Y-144262766D01*
X100577067Y-144248000D01*
X99802126Y-144248000D01*
X99026934Y-144248001D01*
X98991182Y-144255112D01*
X98964874Y-144260344D01*
X98964872Y-144260345D01*
X98952699Y-144262766D01*
X98942379Y-144269661D01*
X98942378Y-144269662D01*
X98881985Y-144310016D01*
X98868516Y-144319016D01*
X98812266Y-144403199D01*
X98797500Y-144477433D01*
X98136156Y-144477433D01*
X98184096Y-144393044D01*
X98246277Y-144206122D01*
X98270966Y-144010683D01*
X98271360Y-143982500D01*
X98252137Y-143786448D01*
X98244955Y-143762661D01*
X99116393Y-143762661D01*
X99125687Y-143774675D01*
X99166088Y-143802964D01*
X99175584Y-143808447D01*
X99365113Y-143896826D01*
X99375405Y-143900572D01*
X99577401Y-143954696D01*
X99588196Y-143956599D01*
X99796525Y-143974826D01*
X99807475Y-143974826D01*
X100015804Y-143956599D01*
X100026599Y-143954696D01*
X100228595Y-143900572D01*
X100238887Y-143896826D01*
X100428416Y-143808447D01*
X100437912Y-143802964D01*
X100479148Y-143774090D01*
X100487523Y-143763612D01*
X100480457Y-143750168D01*
X99814811Y-143084521D01*
X99800868Y-143076908D01*
X99799034Y-143077039D01*
X99792420Y-143081290D01*
X99122820Y-143750891D01*
X99116393Y-143762661D01*
X98244955Y-143762661D01*
X98195200Y-143597863D01*
X98179864Y-143569020D01*
X98105611Y-143429371D01*
X98105609Y-143429368D01*
X98102717Y-143423929D01*
X97978212Y-143271270D01*
X97912893Y-143217234D01*
X97831177Y-143149632D01*
X97831174Y-143149630D01*
X97826427Y-143145703D01*
X97653143Y-143052008D01*
X97464960Y-142993756D01*
X97458835Y-142993112D01*
X97458834Y-142993112D01*
X97275176Y-142973809D01*
X97275174Y-142973809D01*
X97269047Y-142973165D01*
X97187018Y-142980630D01*
X97079004Y-142990460D01*
X97079001Y-142990461D01*
X97072865Y-142991019D01*
X97066959Y-142992757D01*
X97066955Y-142992758D01*
X96926775Y-143034016D01*
X96883887Y-143046638D01*
X96878427Y-143049492D01*
X96878428Y-143049492D01*
X96714772Y-143135049D01*
X96714768Y-143135052D01*
X96709312Y-143137904D01*
X96555788Y-143261340D01*
X96429163Y-143412245D01*
X96334262Y-143584871D01*
X96332398Y-143590746D01*
X96332397Y-143590749D01*
X96328269Y-143603763D01*
X96274697Y-143772642D01*
X96271296Y-143802964D01*
X96254063Y-143956599D01*
X96252738Y-143968407D01*
X94293901Y-143968407D01*
X94238777Y-143864295D01*
X94238775Y-143864292D01*
X94237182Y-143861283D01*
X94230579Y-143851530D01*
X94041211Y-143571834D01*
X94041204Y-143571825D01*
X94039305Y-143569020D01*
X94037109Y-143566430D01*
X94037104Y-143566424D01*
X93916259Y-143423929D01*
X93811021Y-143299837D01*
X93555001Y-143056883D01*
X93552294Y-143054821D01*
X93552286Y-143054814D01*
X93383591Y-142926304D01*
X93274239Y-142843000D01*
X93066984Y-142717975D01*
X98539674Y-142717975D01*
X98557901Y-142926304D01*
X98559804Y-142937099D01*
X98613928Y-143139095D01*
X98617674Y-143149387D01*
X98706054Y-143338917D01*
X98711534Y-143348407D01*
X98740411Y-143389649D01*
X98750887Y-143398023D01*
X98764334Y-143390955D01*
X99429979Y-142725311D01*
X99436356Y-142713632D01*
X100166408Y-142713632D01*
X100166539Y-142715466D01*
X100170790Y-142722080D01*
X100840391Y-143391680D01*
X100852161Y-143398107D01*
X100864176Y-143388811D01*
X100892466Y-143348407D01*
X100897946Y-143338917D01*
X100986326Y-143149387D01*
X100990072Y-143139095D01*
X101044196Y-142937099D01*
X101046099Y-142926304D01*
X101064326Y-142717975D01*
X101064326Y-142707025D01*
X101046099Y-142498696D01*
X101044196Y-142487901D01*
X100990072Y-142285905D01*
X100986326Y-142275613D01*
X100897946Y-142086083D01*
X100892466Y-142076593D01*
X100863589Y-142035351D01*
X100853113Y-142026977D01*
X100839666Y-142034045D01*
X100174021Y-142699689D01*
X100166408Y-142713632D01*
X99436356Y-142713632D01*
X99437592Y-142711368D01*
X99437461Y-142709534D01*
X99433210Y-142702920D01*
X98763609Y-142033320D01*
X98751839Y-142026893D01*
X98739824Y-142036189D01*
X98711534Y-142076593D01*
X98706054Y-142086083D01*
X98617674Y-142275613D01*
X98613928Y-142285905D01*
X98559804Y-142487901D01*
X98557901Y-142498696D01*
X98539674Y-142707025D01*
X98539674Y-142717975D01*
X93066984Y-142717975D01*
X92974941Y-142662451D01*
X92974940Y-142662450D01*
X92972020Y-142660689D01*
X92968930Y-142659255D01*
X92968925Y-142659252D01*
X92811950Y-142586387D01*
X92651879Y-142512085D01*
X92648654Y-142510993D01*
X92648648Y-142510991D01*
X92320798Y-142400020D01*
X92320793Y-142400018D01*
X92317562Y-142398925D01*
X92303832Y-142395881D01*
X92175542Y-142367440D01*
X91972979Y-142322533D01*
X91848353Y-142308774D01*
X91625543Y-142284175D01*
X91625538Y-142284175D01*
X91622162Y-142283802D01*
X91618763Y-142283796D01*
X91618762Y-142283796D01*
X91452289Y-142283506D01*
X91269213Y-142283186D01*
X91138206Y-142297187D01*
X90921646Y-142320330D01*
X90921640Y-142320331D01*
X90918262Y-142320692D01*
X90573414Y-142395881D01*
X90238704Y-142507873D01*
X89918047Y-142655359D01*
X89915113Y-142657115D01*
X89915111Y-142657116D01*
X89827527Y-142709534D01*
X89615194Y-142836613D01*
X89333687Y-143049515D01*
X89076820Y-143291574D01*
X89074608Y-143294164D01*
X89074607Y-143294165D01*
X88973757Y-143412245D01*
X88847598Y-143559959D01*
X88845670Y-143562786D01*
X88845668Y-143562788D01*
X88825453Y-143592422D01*
X88648702Y-143851530D01*
X88482458Y-144162876D01*
X88481183Y-144166048D01*
X88481181Y-144166052D01*
X88356008Y-144477433D01*
X88350813Y-144490355D01*
X88349894Y-144493623D01*
X88349892Y-144493630D01*
X88256225Y-144826858D01*
X88255304Y-144830136D01*
X88254743Y-144833489D01*
X88254742Y-144833493D01*
X88232844Y-144964351D01*
X88197051Y-145178245D01*
X88176734Y-145530609D01*
X76581000Y-145530609D01*
X76581000Y-141428407D01*
X96252738Y-141428407D01*
X96253254Y-141434551D01*
X96261116Y-141528174D01*
X96269222Y-141624709D01*
X96323521Y-141814070D01*
X96413566Y-141989279D01*
X96417389Y-141994103D01*
X96417392Y-141994107D01*
X96449047Y-142034045D01*
X96535927Y-142143660D01*
X96540620Y-142147654D01*
X96540621Y-142147655D01*
X96565447Y-142168783D01*
X96685945Y-142271335D01*
X96691323Y-142274341D01*
X96691325Y-142274342D01*
X96823051Y-142347961D01*
X96857904Y-142367440D01*
X97045255Y-142428314D01*
X97240862Y-142451639D01*
X97246997Y-142451167D01*
X97246999Y-142451167D01*
X97306801Y-142446565D01*
X97437274Y-142436526D01*
X97627009Y-142383550D01*
X97632513Y-142380770D01*
X97797341Y-142297510D01*
X97797343Y-142297509D01*
X97802842Y-142294731D01*
X97958074Y-142173450D01*
X97962100Y-142168786D01*
X97962103Y-142168783D01*
X98082764Y-142028996D01*
X98082765Y-142028994D01*
X98086793Y-142024328D01*
X98184096Y-141853044D01*
X98246277Y-141666122D01*
X98246875Y-141661387D01*
X99116477Y-141661387D01*
X99123545Y-141674834D01*
X99789189Y-142340479D01*
X99803132Y-142348092D01*
X99804966Y-142347961D01*
X99811580Y-142343710D01*
X100481180Y-141674109D01*
X100487607Y-141662339D01*
X100478313Y-141650325D01*
X100437912Y-141622036D01*
X100428416Y-141616553D01*
X100238887Y-141528174D01*
X100228595Y-141524428D01*
X100026599Y-141470304D01*
X100015804Y-141468401D01*
X99807475Y-141450174D01*
X99796525Y-141450174D01*
X99588196Y-141468401D01*
X99577401Y-141470304D01*
X99375405Y-141524428D01*
X99365113Y-141528174D01*
X99175583Y-141616554D01*
X99166093Y-141622034D01*
X99124851Y-141650911D01*
X99116477Y-141661387D01*
X98246875Y-141661387D01*
X98270966Y-141470683D01*
X98271360Y-141442500D01*
X98252137Y-141246448D01*
X98195200Y-141057863D01*
X98102717Y-140883929D01*
X97978212Y-140731270D01*
X97912894Y-140677234D01*
X97831177Y-140609632D01*
X97831174Y-140609630D01*
X97826427Y-140605703D01*
X97653143Y-140512008D01*
X97464960Y-140453756D01*
X97458835Y-140453112D01*
X97458834Y-140453112D01*
X97275176Y-140433809D01*
X97275174Y-140433809D01*
X97269047Y-140433165D01*
X97187018Y-140440630D01*
X97079004Y-140450460D01*
X97079001Y-140450461D01*
X97072865Y-140451019D01*
X97066959Y-140452757D01*
X97066955Y-140452758D01*
X96926775Y-140494016D01*
X96883887Y-140506638D01*
X96878427Y-140509492D01*
X96878428Y-140509492D01*
X96714772Y-140595049D01*
X96714768Y-140595052D01*
X96709312Y-140597904D01*
X96555788Y-140721340D01*
X96429163Y-140872245D01*
X96422740Y-140883929D01*
X96347420Y-141020937D01*
X96334262Y-141044871D01*
X96332398Y-141050746D01*
X96332397Y-141050749D01*
X96298879Y-141156410D01*
X96274697Y-141232642D01*
X96252738Y-141428407D01*
X76581000Y-141428407D01*
X76581000Y-139952661D01*
X96576393Y-139952661D01*
X96585687Y-139964675D01*
X96626088Y-139992964D01*
X96635584Y-139998447D01*
X96825113Y-140086826D01*
X96835405Y-140090572D01*
X97037401Y-140144696D01*
X97048196Y-140146599D01*
X97256525Y-140164826D01*
X97267475Y-140164826D01*
X97340842Y-140158407D01*
X98792738Y-140158407D01*
X98809222Y-140354709D01*
X98831904Y-140433809D01*
X98852289Y-140504899D01*
X98863521Y-140544070D01*
X98953566Y-140719279D01*
X98957389Y-140724103D01*
X98957392Y-140724107D01*
X98985045Y-140758996D01*
X99075927Y-140873660D01*
X99080620Y-140877654D01*
X99080621Y-140877655D01*
X99105447Y-140898783D01*
X99225945Y-141001335D01*
X99231323Y-141004341D01*
X99231325Y-141004342D01*
X99327090Y-141057863D01*
X99397904Y-141097440D01*
X99585255Y-141158314D01*
X99780862Y-141181639D01*
X99786997Y-141181167D01*
X99786999Y-141181167D01*
X99846801Y-141176565D01*
X99977274Y-141166526D01*
X100167009Y-141113550D01*
X100172513Y-141110770D01*
X100337341Y-141027510D01*
X100337343Y-141027509D01*
X100342842Y-141024731D01*
X100498074Y-140903450D01*
X100502100Y-140898786D01*
X100502103Y-140898783D01*
X100622764Y-140758996D01*
X100622765Y-140758994D01*
X100626793Y-140754328D01*
X100724096Y-140583044D01*
X100786277Y-140396122D01*
X100810966Y-140200683D01*
X100811360Y-140172500D01*
X100792137Y-139976448D01*
X100735200Y-139787863D01*
X100642717Y-139613929D01*
X100518212Y-139461270D01*
X100452893Y-139407234D01*
X100371177Y-139339632D01*
X100371174Y-139339630D01*
X100366427Y-139335703D01*
X100193143Y-139242008D01*
X100004960Y-139183756D01*
X99998835Y-139183112D01*
X99998834Y-139183112D01*
X99815176Y-139163809D01*
X99815174Y-139163809D01*
X99809047Y-139163165D01*
X99727018Y-139170630D01*
X99619004Y-139180460D01*
X99619001Y-139180461D01*
X99612865Y-139181019D01*
X99606959Y-139182757D01*
X99606955Y-139182758D01*
X99466775Y-139224016D01*
X99423887Y-139236638D01*
X99418427Y-139239492D01*
X99418428Y-139239492D01*
X99254772Y-139325049D01*
X99254768Y-139325052D01*
X99249312Y-139327904D01*
X99095788Y-139451340D01*
X98969163Y-139602245D01*
X98874262Y-139774871D01*
X98872398Y-139780746D01*
X98872397Y-139780749D01*
X98868269Y-139793763D01*
X98814697Y-139962642D01*
X98811296Y-139992964D01*
X98794063Y-140146599D01*
X98792738Y-140158407D01*
X97340842Y-140158407D01*
X97475804Y-140146599D01*
X97486599Y-140144696D01*
X97688595Y-140090572D01*
X97698887Y-140086826D01*
X97888416Y-139998447D01*
X97897912Y-139992964D01*
X97939148Y-139964090D01*
X97947523Y-139953612D01*
X97940457Y-139940168D01*
X97274811Y-139274521D01*
X97260868Y-139266908D01*
X97259034Y-139267039D01*
X97252420Y-139271290D01*
X96582820Y-139940891D01*
X96576393Y-139952661D01*
X76581000Y-139952661D01*
X76581000Y-138907975D01*
X95999674Y-138907975D01*
X96017901Y-139116304D01*
X96019804Y-139127099D01*
X96073928Y-139329095D01*
X96077674Y-139339387D01*
X96166054Y-139528917D01*
X96171534Y-139538407D01*
X96200411Y-139579649D01*
X96210887Y-139588023D01*
X96224334Y-139580955D01*
X96889979Y-138915311D01*
X96896356Y-138903632D01*
X97626408Y-138903632D01*
X97626539Y-138905466D01*
X97630790Y-138912080D01*
X98300391Y-139581680D01*
X98312161Y-139588107D01*
X98324176Y-139578811D01*
X98352466Y-139538407D01*
X98357946Y-139528917D01*
X98446326Y-139339387D01*
X98450072Y-139329095D01*
X98504196Y-139127099D01*
X98506099Y-139116304D01*
X98524326Y-138907975D01*
X98524326Y-138897025D01*
X98506099Y-138688696D01*
X98505035Y-138682661D01*
X99116393Y-138682661D01*
X99125687Y-138694675D01*
X99166088Y-138722964D01*
X99175584Y-138728447D01*
X99365113Y-138816826D01*
X99375405Y-138820572D01*
X99577401Y-138874696D01*
X99588196Y-138876599D01*
X99796525Y-138894826D01*
X99807475Y-138894826D01*
X100015804Y-138876599D01*
X100026599Y-138874696D01*
X100228595Y-138820572D01*
X100238887Y-138816826D01*
X100428416Y-138728447D01*
X100437912Y-138722964D01*
X100479148Y-138694090D01*
X100487523Y-138683612D01*
X100480457Y-138670168D01*
X99814811Y-138004521D01*
X99800868Y-137996908D01*
X99799034Y-137997039D01*
X99792420Y-138001290D01*
X99122820Y-138670891D01*
X99116393Y-138682661D01*
X98505035Y-138682661D01*
X98504196Y-138677901D01*
X98450072Y-138475905D01*
X98446326Y-138465613D01*
X98357946Y-138276083D01*
X98352466Y-138266593D01*
X98323589Y-138225351D01*
X98313113Y-138216977D01*
X98299666Y-138224045D01*
X97634021Y-138889689D01*
X97626408Y-138903632D01*
X96896356Y-138903632D01*
X96897592Y-138901368D01*
X96897461Y-138899534D01*
X96893210Y-138892920D01*
X96223609Y-138223320D01*
X96211839Y-138216893D01*
X96199824Y-138226189D01*
X96171534Y-138266593D01*
X96166054Y-138276083D01*
X96077674Y-138465613D01*
X96073928Y-138475905D01*
X96019804Y-138677901D01*
X96017901Y-138688696D01*
X95999674Y-138897025D01*
X95999674Y-138907975D01*
X76581000Y-138907975D01*
X76581000Y-137851387D01*
X96576477Y-137851387D01*
X96583545Y-137864834D01*
X97249189Y-138530479D01*
X97263132Y-138538092D01*
X97264966Y-138537961D01*
X97271580Y-138533710D01*
X97941180Y-137864109D01*
X97947607Y-137852339D01*
X97938313Y-137840325D01*
X97897912Y-137812036D01*
X97888416Y-137806553D01*
X97698887Y-137718174D01*
X97688595Y-137714428D01*
X97486599Y-137660304D01*
X97475804Y-137658401D01*
X97267475Y-137640174D01*
X97256525Y-137640174D01*
X97048196Y-137658401D01*
X97037401Y-137660304D01*
X96835405Y-137714428D01*
X96825113Y-137718174D01*
X96635583Y-137806554D01*
X96626093Y-137812034D01*
X96584851Y-137840911D01*
X96576477Y-137851387D01*
X76581000Y-137851387D01*
X76581000Y-137637975D01*
X98539674Y-137637975D01*
X98557901Y-137846304D01*
X98559804Y-137857099D01*
X98613928Y-138059095D01*
X98617674Y-138069387D01*
X98706054Y-138258917D01*
X98711534Y-138268407D01*
X98740411Y-138309649D01*
X98750887Y-138318023D01*
X98764334Y-138310955D01*
X99429979Y-137645311D01*
X99436356Y-137633632D01*
X100166408Y-137633632D01*
X100166539Y-137635466D01*
X100170790Y-137642080D01*
X100840391Y-138311680D01*
X100852161Y-138318107D01*
X100864176Y-138308811D01*
X100892466Y-138268407D01*
X100897946Y-138258917D01*
X100986326Y-138069387D01*
X100990072Y-138059095D01*
X101044196Y-137857099D01*
X101046099Y-137846304D01*
X101064326Y-137637975D01*
X101064326Y-137627025D01*
X101046099Y-137418696D01*
X101044196Y-137407901D01*
X100990072Y-137205905D01*
X100986326Y-137195613D01*
X100897946Y-137006083D01*
X100892466Y-136996593D01*
X100863589Y-136955351D01*
X100853113Y-136946977D01*
X100839666Y-136954045D01*
X100174021Y-137619689D01*
X100166408Y-137633632D01*
X99436356Y-137633632D01*
X99437592Y-137631368D01*
X99437461Y-137629534D01*
X99433210Y-137622920D01*
X98763609Y-136953320D01*
X98751839Y-136946893D01*
X98739824Y-136956189D01*
X98711534Y-136996593D01*
X98706054Y-137006083D01*
X98617674Y-137195613D01*
X98613928Y-137205905D01*
X98559804Y-137407901D01*
X98557901Y-137418696D01*
X98539674Y-137627025D01*
X98539674Y-137637975D01*
X76581000Y-137637975D01*
X76581000Y-136348407D01*
X96252738Y-136348407D01*
X96253254Y-136354551D01*
X96263841Y-136480625D01*
X96269222Y-136544709D01*
X96323521Y-136734070D01*
X96413566Y-136909279D01*
X96417389Y-136914103D01*
X96417392Y-136914107D01*
X96449047Y-136954045D01*
X96535927Y-137063660D01*
X96540620Y-137067654D01*
X96540621Y-137067655D01*
X96565447Y-137088783D01*
X96685945Y-137191335D01*
X96691323Y-137194341D01*
X96691325Y-137194342D01*
X96823051Y-137267961D01*
X96857904Y-137287440D01*
X97045255Y-137348314D01*
X97240862Y-137371639D01*
X97246997Y-137371167D01*
X97246999Y-137371167D01*
X97306801Y-137366565D01*
X97437274Y-137356526D01*
X97627009Y-137303550D01*
X97632513Y-137300770D01*
X97797341Y-137217510D01*
X97797343Y-137217509D01*
X97802842Y-137214731D01*
X97958074Y-137093450D01*
X97962100Y-137088786D01*
X97962103Y-137088783D01*
X98082764Y-136948996D01*
X98082765Y-136948994D01*
X98086793Y-136944328D01*
X98184096Y-136773044D01*
X98246277Y-136586122D01*
X98246875Y-136581387D01*
X99116477Y-136581387D01*
X99123545Y-136594834D01*
X99789189Y-137260479D01*
X99803132Y-137268092D01*
X99804966Y-137267961D01*
X99811580Y-137263710D01*
X100481180Y-136594109D01*
X100487607Y-136582339D01*
X100478313Y-136570325D01*
X100437912Y-136542036D01*
X100428416Y-136536553D01*
X100238887Y-136448174D01*
X100228595Y-136444428D01*
X100026599Y-136390304D01*
X100015804Y-136388401D01*
X99807475Y-136370174D01*
X99796525Y-136370174D01*
X99588196Y-136388401D01*
X99577401Y-136390304D01*
X99375405Y-136444428D01*
X99365113Y-136448174D01*
X99175583Y-136536554D01*
X99166093Y-136542034D01*
X99124851Y-136570911D01*
X99116477Y-136581387D01*
X98246875Y-136581387D01*
X98247049Y-136580013D01*
X98247051Y-136580003D01*
X98259605Y-136480625D01*
X98287986Y-136415549D01*
X98295516Y-136407322D01*
X99537433Y-135165405D01*
X99593689Y-135134686D01*
X104293018Y-135134686D01*
X104318579Y-135402600D01*
X104319664Y-135407034D01*
X104319665Y-135407040D01*
X104369283Y-135609812D01*
X104382547Y-135664018D01*
X104483583Y-135913463D01*
X104619569Y-136145710D01*
X104787658Y-136355895D01*
X104984327Y-136539613D01*
X105205457Y-136693016D01*
X105446416Y-136812891D01*
X105450750Y-136814312D01*
X105450753Y-136814313D01*
X105697823Y-136895307D01*
X105697829Y-136895308D01*
X105702156Y-136896727D01*
X105706647Y-136897507D01*
X105706648Y-136897507D01*
X105963538Y-136942111D01*
X105963546Y-136942112D01*
X105967319Y-136942767D01*
X105971156Y-136942958D01*
X106050777Y-136946922D01*
X106050785Y-136946922D01*
X106052348Y-136947000D01*
X106220374Y-136947000D01*
X106222642Y-136946835D01*
X106222654Y-136946835D01*
X106353457Y-136937344D01*
X106420425Y-136932485D01*
X106424880Y-136931501D01*
X106424883Y-136931501D01*
X106678770Y-136875447D01*
X106678772Y-136875446D01*
X106683226Y-136874463D01*
X106934900Y-136779113D01*
X106945827Y-136773044D01*
X107166179Y-136650649D01*
X107166180Y-136650648D01*
X107170172Y-136648431D01*
X107259834Y-136580003D01*
X107380491Y-136487921D01*
X107380495Y-136487917D01*
X107384116Y-136485154D01*
X107388544Y-136480625D01*
X107569063Y-136295962D01*
X107572249Y-136292703D01*
X107598149Y-136257121D01*
X107727942Y-136078804D01*
X107727947Y-136078797D01*
X107730630Y-136075110D01*
X107855941Y-135836933D01*
X107936146Y-135609812D01*
X107944034Y-135587475D01*
X107944034Y-135587474D01*
X107945557Y-135583162D01*
X107978719Y-135414913D01*
X107996720Y-135323583D01*
X107996721Y-135323577D01*
X107997601Y-135319111D01*
X107997828Y-135314555D01*
X108010755Y-135054883D01*
X108010755Y-135054877D01*
X108010982Y-135050314D01*
X107985421Y-134782400D01*
X107940845Y-134600229D01*
X107922539Y-134525420D01*
X107921453Y-134520982D01*
X107820417Y-134271537D01*
X107684431Y-134039290D01*
X107547166Y-133867648D01*
X107519194Y-133832671D01*
X107519193Y-133832669D01*
X107516342Y-133829105D01*
X107319673Y-133645387D01*
X107098543Y-133491984D01*
X106857584Y-133372109D01*
X106853250Y-133370688D01*
X106853247Y-133370687D01*
X106606177Y-133289693D01*
X106606171Y-133289692D01*
X106601844Y-133288273D01*
X106597352Y-133287493D01*
X106340462Y-133242889D01*
X106340454Y-133242888D01*
X106336681Y-133242233D01*
X106326718Y-133241737D01*
X106253223Y-133238078D01*
X106253215Y-133238078D01*
X106251652Y-133238000D01*
X106083626Y-133238000D01*
X106081358Y-133238165D01*
X106081346Y-133238165D01*
X105950543Y-133247656D01*
X105883575Y-133252515D01*
X105879120Y-133253499D01*
X105879117Y-133253499D01*
X105625230Y-133309553D01*
X105625228Y-133309554D01*
X105620774Y-133310537D01*
X105369100Y-133405887D01*
X105365114Y-133408101D01*
X105365112Y-133408102D01*
X105137821Y-133534351D01*
X105133828Y-133536569D01*
X105130196Y-133539341D01*
X104923509Y-133697079D01*
X104923505Y-133697083D01*
X104919884Y-133699846D01*
X104916699Y-133703104D01*
X104916698Y-133703105D01*
X104862144Y-133758911D01*
X104731751Y-133892297D01*
X104729066Y-133895986D01*
X104576058Y-134106196D01*
X104576053Y-134106203D01*
X104573370Y-134109890D01*
X104448059Y-134348067D01*
X104358443Y-134601838D01*
X104352635Y-134631305D01*
X104318843Y-134802755D01*
X104306399Y-134865889D01*
X104306172Y-134870442D01*
X104306172Y-134870445D01*
X104293255Y-135129933D01*
X104293018Y-135134686D01*
X99593689Y-135134686D01*
X99599745Y-135131379D01*
X99626528Y-135128500D01*
X102548624Y-135128500D01*
X102567574Y-135129933D01*
X102581973Y-135132124D01*
X102581979Y-135132124D01*
X102589208Y-135133224D01*
X102596500Y-135132631D01*
X102596503Y-135132631D01*
X102642183Y-135128915D01*
X102652398Y-135128500D01*
X102660525Y-135128500D01*
X102664161Y-135128076D01*
X102664163Y-135128076D01*
X102667615Y-135127673D01*
X102688924Y-135125189D01*
X102693244Y-135124762D01*
X102766426Y-135118809D01*
X102773388Y-135116553D01*
X102779376Y-135115357D01*
X102785333Y-135113949D01*
X102792607Y-135113101D01*
X102799489Y-135110603D01*
X102799493Y-135110602D01*
X102861607Y-135088055D01*
X102865711Y-135086645D01*
X102935575Y-135064013D01*
X102941838Y-135060213D01*
X102947380Y-135057675D01*
X102952856Y-135054933D01*
X102959741Y-135052434D01*
X103021132Y-135012185D01*
X103024800Y-135009870D01*
X103087581Y-134971773D01*
X103091786Y-134968059D01*
X103091789Y-134968057D01*
X103096005Y-134964333D01*
X103096031Y-134964362D01*
X103098962Y-134961762D01*
X103102316Y-134958958D01*
X103108435Y-134954946D01*
X103161989Y-134898413D01*
X103164366Y-134895972D01*
X103742528Y-134317810D01*
X103756941Y-134305423D01*
X103768665Y-134296795D01*
X103774564Y-134292454D01*
X103808979Y-134251945D01*
X103815909Y-134244429D01*
X103821653Y-134238685D01*
X103823927Y-134235811D01*
X103823933Y-134235804D01*
X103839372Y-134216289D01*
X103842163Y-134212885D01*
X103884945Y-134162528D01*
X103884948Y-134162524D01*
X103889684Y-134156949D01*
X103893012Y-134150432D01*
X103896389Y-134145368D01*
X103899616Y-134140144D01*
X103904160Y-134134400D01*
X103935242Y-134067896D01*
X103937147Y-134063999D01*
X103970543Y-133998596D01*
X103972284Y-133991482D01*
X103974416Y-133985748D01*
X103976344Y-133979952D01*
X103979444Y-133973320D01*
X103994395Y-133901440D01*
X103995365Y-133897156D01*
X103996554Y-133892297D01*
X104012804Y-133825888D01*
X104013500Y-133814670D01*
X104013537Y-133814672D01*
X104013773Y-133810773D01*
X104014163Y-133806402D01*
X104015652Y-133799243D01*
X104013546Y-133721423D01*
X104013500Y-133718014D01*
X104013500Y-129074186D01*
X104293018Y-129074186D01*
X104318579Y-129342100D01*
X104319664Y-129346534D01*
X104319665Y-129346540D01*
X104331175Y-129393578D01*
X104382547Y-129603518D01*
X104483583Y-129852963D01*
X104619569Y-130085210D01*
X104666436Y-130143814D01*
X104753101Y-130252183D01*
X104787658Y-130295395D01*
X104984327Y-130479113D01*
X105205457Y-130632516D01*
X105446416Y-130752391D01*
X105450750Y-130753812D01*
X105450753Y-130753813D01*
X105697823Y-130834807D01*
X105697829Y-130834808D01*
X105702156Y-130836227D01*
X105706647Y-130837007D01*
X105706648Y-130837007D01*
X105963538Y-130881611D01*
X105963546Y-130881612D01*
X105967319Y-130882267D01*
X105971156Y-130882458D01*
X106050777Y-130886422D01*
X106050785Y-130886422D01*
X106052348Y-130886500D01*
X106220374Y-130886500D01*
X106222642Y-130886335D01*
X106222654Y-130886335D01*
X106353457Y-130876844D01*
X106420425Y-130871985D01*
X106424880Y-130871001D01*
X106424883Y-130871001D01*
X106678770Y-130814947D01*
X106678772Y-130814946D01*
X106683226Y-130813963D01*
X106934900Y-130718613D01*
X106950488Y-130709955D01*
X107166179Y-130590149D01*
X107166180Y-130590148D01*
X107170172Y-130587931D01*
X107220943Y-130549184D01*
X107380491Y-130427421D01*
X107380495Y-130427417D01*
X107384116Y-130424654D01*
X107572249Y-130232203D01*
X107622472Y-130163204D01*
X107727942Y-130018304D01*
X107727947Y-130018297D01*
X107730630Y-130014610D01*
X107855941Y-129776433D01*
X107945557Y-129522662D01*
X107972617Y-129385370D01*
X107996720Y-129263083D01*
X107996721Y-129263077D01*
X107997601Y-129258611D01*
X108001664Y-129177002D01*
X108010755Y-128994383D01*
X108010755Y-128994377D01*
X108010982Y-128989814D01*
X107985421Y-128721900D01*
X107978958Y-128695484D01*
X107922539Y-128464920D01*
X107921453Y-128460482D01*
X107820417Y-128211037D01*
X107684431Y-127978790D01*
X107516342Y-127768605D01*
X107319673Y-127584887D01*
X107098543Y-127431484D01*
X106857584Y-127311609D01*
X106853250Y-127310188D01*
X106853247Y-127310187D01*
X106606177Y-127229193D01*
X106606171Y-127229192D01*
X106601844Y-127227773D01*
X106595918Y-127226744D01*
X106340462Y-127182389D01*
X106340454Y-127182388D01*
X106336681Y-127181733D01*
X106326718Y-127181237D01*
X106253223Y-127177578D01*
X106253215Y-127177578D01*
X106251652Y-127177500D01*
X106083626Y-127177500D01*
X106081358Y-127177665D01*
X106081346Y-127177665D01*
X105950543Y-127187156D01*
X105883575Y-127192015D01*
X105879120Y-127192999D01*
X105879117Y-127192999D01*
X105625230Y-127249053D01*
X105625228Y-127249054D01*
X105620774Y-127250037D01*
X105369100Y-127345387D01*
X105133828Y-127476069D01*
X105083057Y-127514816D01*
X104923509Y-127636579D01*
X104923505Y-127636583D01*
X104919884Y-127639346D01*
X104731751Y-127831797D01*
X104729066Y-127835486D01*
X104576058Y-128045696D01*
X104576053Y-128045703D01*
X104573370Y-128049390D01*
X104448059Y-128287567D01*
X104358443Y-128541338D01*
X104344062Y-128614304D01*
X104322855Y-128721900D01*
X104306399Y-128805389D01*
X104306172Y-128809942D01*
X104306172Y-128809945D01*
X104296991Y-128994383D01*
X104293018Y-129074186D01*
X104013500Y-129074186D01*
X104013500Y-118431376D01*
X104014933Y-118412426D01*
X104017124Y-118398027D01*
X104017124Y-118398021D01*
X104018224Y-118390792D01*
X104013915Y-118337817D01*
X104013500Y-118327602D01*
X104013500Y-118319475D01*
X104010189Y-118291076D01*
X104009760Y-118286736D01*
X104007765Y-118262203D01*
X104003809Y-118213574D01*
X104001553Y-118206612D01*
X104000357Y-118200624D01*
X103998949Y-118194667D01*
X103998101Y-118187393D01*
X103995603Y-118180511D01*
X103995602Y-118180507D01*
X103973055Y-118118393D01*
X103971645Y-118114289D01*
X103949013Y-118044425D01*
X103945213Y-118038162D01*
X103942675Y-118032620D01*
X103939933Y-118027144D01*
X103937434Y-118020259D01*
X103897185Y-117958868D01*
X103894870Y-117955200D01*
X103856773Y-117892419D01*
X103849333Y-117883995D01*
X103849362Y-117883969D01*
X103846762Y-117881038D01*
X103843958Y-117877684D01*
X103839946Y-117871565D01*
X103783413Y-117818011D01*
X103780972Y-117815634D01*
X103609524Y-117644186D01*
X104293018Y-117644186D01*
X104318579Y-117912100D01*
X104319664Y-117916534D01*
X104319665Y-117916540D01*
X104345045Y-118020259D01*
X104382547Y-118173518D01*
X104483583Y-118422963D01*
X104485892Y-118426906D01*
X104612381Y-118642933D01*
X104619569Y-118655210D01*
X104787658Y-118865395D01*
X104984327Y-119049113D01*
X105205457Y-119202516D01*
X105446416Y-119322391D01*
X105450750Y-119323812D01*
X105450753Y-119323813D01*
X105697823Y-119404807D01*
X105697829Y-119404808D01*
X105702156Y-119406227D01*
X105706647Y-119407007D01*
X105706648Y-119407007D01*
X105963538Y-119451611D01*
X105963546Y-119451612D01*
X105967319Y-119452267D01*
X105971156Y-119452458D01*
X106050777Y-119456422D01*
X106050785Y-119456422D01*
X106052348Y-119456500D01*
X106220374Y-119456500D01*
X106222642Y-119456335D01*
X106222654Y-119456335D01*
X106353457Y-119446844D01*
X106420425Y-119441985D01*
X106424880Y-119441001D01*
X106424883Y-119441001D01*
X106678770Y-119384947D01*
X106678772Y-119384946D01*
X106683226Y-119383963D01*
X106934900Y-119288613D01*
X106945827Y-119282544D01*
X107166179Y-119160149D01*
X107166180Y-119160148D01*
X107170172Y-119157931D01*
X107259834Y-119089503D01*
X107380491Y-118997421D01*
X107380495Y-118997417D01*
X107384116Y-118994654D01*
X107388544Y-118990125D01*
X107569063Y-118805462D01*
X107572249Y-118802203D01*
X107661316Y-118679838D01*
X107727942Y-118588304D01*
X107727947Y-118588297D01*
X107730630Y-118584610D01*
X107855941Y-118346433D01*
X107945557Y-118092662D01*
X107971928Y-117958868D01*
X107996720Y-117833083D01*
X107996721Y-117833077D01*
X107997601Y-117828611D01*
X108006782Y-117644186D01*
X108010755Y-117564383D01*
X108010755Y-117564377D01*
X108010982Y-117559814D01*
X107985421Y-117291900D01*
X107974975Y-117249208D01*
X107922539Y-117034920D01*
X107921453Y-117030482D01*
X107820417Y-116781037D01*
X107684431Y-116548790D01*
X107516342Y-116338605D01*
X107319673Y-116154887D01*
X107098543Y-116001484D01*
X106857584Y-115881609D01*
X106853250Y-115880188D01*
X106853247Y-115880187D01*
X106606177Y-115799193D01*
X106606171Y-115799192D01*
X106601844Y-115797773D01*
X106597352Y-115796993D01*
X106340462Y-115752389D01*
X106340454Y-115752388D01*
X106336681Y-115751733D01*
X106326718Y-115751237D01*
X106253223Y-115747578D01*
X106253215Y-115747578D01*
X106251652Y-115747500D01*
X106083626Y-115747500D01*
X106081358Y-115747665D01*
X106081346Y-115747665D01*
X105950543Y-115757156D01*
X105883575Y-115762015D01*
X105879120Y-115762999D01*
X105879117Y-115762999D01*
X105625230Y-115819053D01*
X105625228Y-115819054D01*
X105620774Y-115820037D01*
X105369100Y-115915387D01*
X105365114Y-115917601D01*
X105365112Y-115917602D01*
X105217754Y-115999452D01*
X105133828Y-116046069D01*
X105130196Y-116048841D01*
X104923509Y-116206579D01*
X104923505Y-116206583D01*
X104919884Y-116209346D01*
X104731751Y-116401797D01*
X104729066Y-116405486D01*
X104576058Y-116615696D01*
X104576053Y-116615703D01*
X104573370Y-116619390D01*
X104448059Y-116857567D01*
X104358443Y-117111338D01*
X104357560Y-117115820D01*
X104322855Y-117291900D01*
X104306399Y-117375389D01*
X104306172Y-117379942D01*
X104306172Y-117379945D01*
X104296893Y-117566355D01*
X104293018Y-117644186D01*
X103609524Y-117644186D01*
X102948810Y-116983472D01*
X102936423Y-116969059D01*
X102927795Y-116957335D01*
X102923454Y-116951436D01*
X102882945Y-116917021D01*
X102875429Y-116910091D01*
X102869685Y-116904347D01*
X102866811Y-116902073D01*
X102866804Y-116902067D01*
X102847289Y-116886628D01*
X102843885Y-116883837D01*
X102793528Y-116841055D01*
X102793524Y-116841052D01*
X102787949Y-116836316D01*
X102781432Y-116832988D01*
X102776368Y-116829611D01*
X102771144Y-116826384D01*
X102765400Y-116821840D01*
X102739109Y-116809552D01*
X102698918Y-116790768D01*
X102694967Y-116788837D01*
X102636117Y-116758787D01*
X102629596Y-116755457D01*
X102622481Y-116753716D01*
X102616735Y-116751579D01*
X102610952Y-116749655D01*
X102604321Y-116746556D01*
X102532443Y-116731606D01*
X102528171Y-116730639D01*
X102456888Y-116713196D01*
X102451289Y-116712849D01*
X102451285Y-116712848D01*
X102445670Y-116712500D01*
X102445672Y-116712461D01*
X102441771Y-116712228D01*
X102437412Y-116711839D01*
X102430244Y-116710348D01*
X102422927Y-116710546D01*
X102352423Y-116712454D01*
X102349014Y-116712500D01*
X98726368Y-116712500D01*
X98707420Y-116711067D01*
X98700033Y-116709943D01*
X98693024Y-116708877D01*
X98693022Y-116708877D01*
X98685792Y-116707777D01*
X98678500Y-116708370D01*
X98678497Y-116708370D01*
X98632825Y-116712085D01*
X98622611Y-116712500D01*
X98614475Y-116712500D01*
X98610840Y-116712924D01*
X98610837Y-116712924D01*
X98597065Y-116714530D01*
X98586084Y-116715810D01*
X98581713Y-116716243D01*
X98570701Y-116717138D01*
X98515872Y-116721597D01*
X98515869Y-116721598D01*
X98508573Y-116722191D01*
X98501611Y-116724446D01*
X98495607Y-116725646D01*
X98489660Y-116727052D01*
X98482393Y-116727899D01*
X98430995Y-116746556D01*
X98413388Y-116752947D01*
X98409227Y-116754375D01*
X98346387Y-116774732D01*
X98346382Y-116774734D01*
X98339425Y-116776988D01*
X98333173Y-116780782D01*
X98327598Y-116783334D01*
X98322135Y-116786070D01*
X98315259Y-116788566D01*
X98309140Y-116792578D01*
X98253863Y-116828819D01*
X98250159Y-116831156D01*
X98187419Y-116869228D01*
X98178994Y-116876668D01*
X98178969Y-116876640D01*
X98176044Y-116879234D01*
X98172690Y-116882039D01*
X98166565Y-116886054D01*
X98161530Y-116891369D01*
X98161529Y-116891370D01*
X98113012Y-116942586D01*
X98110634Y-116945028D01*
X97217635Y-117838027D01*
X97155323Y-117872053D01*
X97139960Y-117874413D01*
X97125205Y-117875756D01*
X97079005Y-117879960D01*
X97079003Y-117879960D01*
X97072865Y-117880519D01*
X97066959Y-117882257D01*
X97066955Y-117882258D01*
X96948039Y-117917257D01*
X96883887Y-117936138D01*
X96878427Y-117938992D01*
X96878428Y-117938992D01*
X96714772Y-118024549D01*
X96714768Y-118024552D01*
X96709312Y-118027404D01*
X96704512Y-118031264D01*
X96704511Y-118031264D01*
X96702460Y-118032913D01*
X96555788Y-118150840D01*
X96429163Y-118301745D01*
X96426195Y-118307144D01*
X96362524Y-118422963D01*
X96334262Y-118474371D01*
X96274697Y-118662142D01*
X96252738Y-118857907D01*
X96253254Y-118864051D01*
X96263841Y-118990125D01*
X96269222Y-119054209D01*
X96323521Y-119243570D01*
X96413566Y-119418779D01*
X96417389Y-119423603D01*
X96417392Y-119423607D01*
X96449047Y-119463545D01*
X96535927Y-119573160D01*
X96540620Y-119577154D01*
X96540621Y-119577155D01*
X96565447Y-119598283D01*
X96685945Y-119700835D01*
X96691323Y-119703841D01*
X96691325Y-119703842D01*
X96823051Y-119777461D01*
X96857904Y-119796940D01*
X97045255Y-119857814D01*
X97240862Y-119881139D01*
X97246997Y-119880667D01*
X97246999Y-119880667D01*
X97306801Y-119876065D01*
X97437274Y-119866026D01*
X97627009Y-119813050D01*
X97632513Y-119810270D01*
X97797341Y-119727010D01*
X97797343Y-119727009D01*
X97802842Y-119724231D01*
X97958074Y-119602950D01*
X97962100Y-119598286D01*
X97962103Y-119598283D01*
X98082764Y-119458496D01*
X98082765Y-119458494D01*
X98086793Y-119453828D01*
X98184096Y-119282544D01*
X98246277Y-119095622D01*
X98246875Y-119090887D01*
X99116477Y-119090887D01*
X99123545Y-119104334D01*
X99789189Y-119769979D01*
X99803132Y-119777592D01*
X99804966Y-119777461D01*
X99811580Y-119773210D01*
X100481180Y-119103609D01*
X100487607Y-119091839D01*
X100478313Y-119079825D01*
X100437912Y-119051536D01*
X100428416Y-119046053D01*
X100238887Y-118957674D01*
X100228595Y-118953928D01*
X100026599Y-118899804D01*
X100015804Y-118897901D01*
X99807475Y-118879674D01*
X99796525Y-118879674D01*
X99588196Y-118897901D01*
X99577401Y-118899804D01*
X99375405Y-118953928D01*
X99365113Y-118957674D01*
X99175583Y-119046054D01*
X99166093Y-119051534D01*
X99124851Y-119080411D01*
X99116477Y-119090887D01*
X98246875Y-119090887D01*
X98247049Y-119089513D01*
X98247051Y-119089503D01*
X98259605Y-118990125D01*
X98287986Y-118925049D01*
X98295516Y-118916822D01*
X98937933Y-118274405D01*
X99000245Y-118240379D01*
X99027028Y-118237500D01*
X101993972Y-118237500D01*
X102062093Y-118257502D01*
X102083067Y-118274405D01*
X102451595Y-118642933D01*
X102485621Y-118705245D01*
X102488500Y-118732028D01*
X102488500Y-133362972D01*
X102468498Y-133431093D01*
X102451595Y-133452067D01*
X102337067Y-133566595D01*
X102274755Y-133600621D01*
X102247972Y-133603500D01*
X99325868Y-133603500D01*
X99306920Y-133602067D01*
X99299533Y-133600943D01*
X99292524Y-133599877D01*
X99292522Y-133599877D01*
X99285292Y-133598777D01*
X99278000Y-133599370D01*
X99277997Y-133599370D01*
X99232325Y-133603085D01*
X99222111Y-133603500D01*
X99213975Y-133603500D01*
X99210340Y-133603924D01*
X99210337Y-133603924D01*
X99192335Y-133606023D01*
X99185584Y-133606810D01*
X99181213Y-133607243D01*
X99170201Y-133608138D01*
X99115372Y-133612597D01*
X99115369Y-133612598D01*
X99108073Y-133613191D01*
X99101111Y-133615446D01*
X99095107Y-133616646D01*
X99089160Y-133618052D01*
X99081893Y-133618899D01*
X99016092Y-133642784D01*
X99012888Y-133643947D01*
X99008727Y-133645375D01*
X98945887Y-133665732D01*
X98945882Y-133665734D01*
X98938925Y-133667988D01*
X98932673Y-133671782D01*
X98927098Y-133674334D01*
X98921635Y-133677070D01*
X98914759Y-133679566D01*
X98908640Y-133683578D01*
X98853363Y-133719819D01*
X98849659Y-133722156D01*
X98786919Y-133760228D01*
X98778494Y-133767668D01*
X98778469Y-133767640D01*
X98775544Y-133770234D01*
X98772190Y-133773039D01*
X98766065Y-133777054D01*
X98761030Y-133782369D01*
X98761029Y-133782370D01*
X98712512Y-133833586D01*
X98710134Y-133836028D01*
X97217635Y-135328527D01*
X97155323Y-135362553D01*
X97139960Y-135364913D01*
X97125205Y-135366256D01*
X97079005Y-135370460D01*
X97079003Y-135370460D01*
X97072865Y-135371019D01*
X97066959Y-135372757D01*
X97066955Y-135372758D01*
X96926775Y-135414016D01*
X96883887Y-135426638D01*
X96878427Y-135429492D01*
X96878428Y-135429492D01*
X96714772Y-135515049D01*
X96714768Y-135515052D01*
X96709312Y-135517904D01*
X96704512Y-135521764D01*
X96704511Y-135521764D01*
X96595001Y-135609812D01*
X96555788Y-135641340D01*
X96429163Y-135792245D01*
X96426195Y-135797644D01*
X96362524Y-135913463D01*
X96334262Y-135964871D01*
X96274697Y-136152642D01*
X96252738Y-136348407D01*
X76581000Y-136348407D01*
X76581000Y-134605964D01*
X77753148Y-134605964D01*
X77766424Y-134808522D01*
X77767845Y-134814118D01*
X77767846Y-134814123D01*
X77814971Y-134999674D01*
X77816392Y-135005269D01*
X77818809Y-135010512D01*
X77853898Y-135086625D01*
X77901377Y-135189616D01*
X77904710Y-135194332D01*
X77989675Y-135314555D01*
X78018533Y-135355389D01*
X78163938Y-135497035D01*
X78168742Y-135500245D01*
X78200947Y-135521764D01*
X78332720Y-135609812D01*
X78338023Y-135612090D01*
X78338026Y-135612092D01*
X78426707Y-135650192D01*
X78519228Y-135689942D01*
X78592244Y-135706464D01*
X78711579Y-135733467D01*
X78711584Y-135733468D01*
X78717216Y-135734742D01*
X78722987Y-135734969D01*
X78722989Y-135734969D01*
X78782756Y-135737317D01*
X78920053Y-135742712D01*
X79020499Y-135728148D01*
X79115231Y-135714413D01*
X79115236Y-135714412D01*
X79120945Y-135713584D01*
X79126409Y-135711729D01*
X79126414Y-135711728D01*
X79307693Y-135650192D01*
X79307698Y-135650190D01*
X79313165Y-135648334D01*
X79490276Y-135549147D01*
X79523201Y-135521764D01*
X79641913Y-135423031D01*
X79646345Y-135419345D01*
X79686538Y-135371019D01*
X79772453Y-135267718D01*
X79772455Y-135267715D01*
X79776147Y-135263276D01*
X79856720Y-135119402D01*
X79872510Y-135091208D01*
X79872511Y-135091206D01*
X79875334Y-135086165D01*
X79877190Y-135080698D01*
X79877192Y-135080693D01*
X79938728Y-134899414D01*
X79938729Y-134899409D01*
X79940584Y-134893945D01*
X79941412Y-134888236D01*
X79941413Y-134888231D01*
X79969179Y-134696727D01*
X79969712Y-134693053D01*
X79971232Y-134635000D01*
X79968564Y-134605964D01*
X80293148Y-134605964D01*
X80306424Y-134808522D01*
X80307845Y-134814118D01*
X80307846Y-134814123D01*
X80354971Y-134999674D01*
X80356392Y-135005269D01*
X80358809Y-135010512D01*
X80393898Y-135086625D01*
X80441377Y-135189616D01*
X80444710Y-135194332D01*
X80529675Y-135314555D01*
X80558533Y-135355389D01*
X80703938Y-135497035D01*
X80708742Y-135500245D01*
X80740947Y-135521764D01*
X80872720Y-135609812D01*
X80878023Y-135612090D01*
X80878026Y-135612092D01*
X80966707Y-135650192D01*
X81059228Y-135689942D01*
X81132244Y-135706464D01*
X81251579Y-135733467D01*
X81251584Y-135733468D01*
X81257216Y-135734742D01*
X81262987Y-135734969D01*
X81262989Y-135734969D01*
X81322756Y-135737317D01*
X81460053Y-135742712D01*
X81560499Y-135728148D01*
X81655231Y-135714413D01*
X81655236Y-135714412D01*
X81660945Y-135713584D01*
X81666409Y-135711729D01*
X81666414Y-135711728D01*
X81847693Y-135650192D01*
X81847698Y-135650190D01*
X81853165Y-135648334D01*
X82030276Y-135549147D01*
X82063201Y-135521764D01*
X82181913Y-135423031D01*
X82186345Y-135419345D01*
X82226538Y-135371019D01*
X82312453Y-135267718D01*
X82312455Y-135267715D01*
X82316147Y-135263276D01*
X82396720Y-135119402D01*
X82412510Y-135091208D01*
X82412511Y-135091206D01*
X82415334Y-135086165D01*
X82417190Y-135080698D01*
X82417192Y-135080693D01*
X82478728Y-134899414D01*
X82478729Y-134899409D01*
X82480584Y-134893945D01*
X82481412Y-134888236D01*
X82481413Y-134888231D01*
X82509179Y-134696727D01*
X82509712Y-134693053D01*
X82511232Y-134635000D01*
X82492658Y-134432859D01*
X82491090Y-134427299D01*
X82439125Y-134243046D01*
X82439124Y-134243044D01*
X82437557Y-134237487D01*
X82427104Y-134216289D01*
X82350331Y-134060609D01*
X82347776Y-134055428D01*
X82226320Y-133892779D01*
X82077258Y-133754987D01*
X82072375Y-133751906D01*
X82072371Y-133751903D01*
X81910464Y-133649748D01*
X81905581Y-133646667D01*
X81717039Y-133571446D01*
X81711379Y-133570320D01*
X81711375Y-133570319D01*
X81523613Y-133532971D01*
X81523610Y-133532971D01*
X81517946Y-133531844D01*
X81512171Y-133531768D01*
X81512167Y-133531768D01*
X81410793Y-133530441D01*
X81314971Y-133529187D01*
X81309274Y-133530166D01*
X81309273Y-133530166D01*
X81120607Y-133562585D01*
X81114910Y-133563564D01*
X80924463Y-133633824D01*
X80919502Y-133636776D01*
X80919501Y-133636776D01*
X80907448Y-133643947D01*
X80750010Y-133737612D01*
X80745670Y-133741418D01*
X80745666Y-133741421D01*
X80601733Y-133867648D01*
X80597392Y-133871455D01*
X80471720Y-134030869D01*
X80469031Y-134035980D01*
X80469029Y-134035983D01*
X80452231Y-134067911D01*
X80377203Y-134210515D01*
X80317007Y-134404378D01*
X80293148Y-134605964D01*
X79968564Y-134605964D01*
X79952658Y-134432859D01*
X79951090Y-134427299D01*
X79899125Y-134243046D01*
X79899124Y-134243044D01*
X79897557Y-134237487D01*
X79887104Y-134216289D01*
X79810331Y-134060609D01*
X79807776Y-134055428D01*
X79686320Y-133892779D01*
X79537258Y-133754987D01*
X79532375Y-133751906D01*
X79532371Y-133751903D01*
X79370464Y-133649748D01*
X79365581Y-133646667D01*
X79177039Y-133571446D01*
X79171379Y-133570320D01*
X79171375Y-133570319D01*
X78983613Y-133532971D01*
X78983610Y-133532971D01*
X78977946Y-133531844D01*
X78972171Y-133531768D01*
X78972167Y-133531768D01*
X78870793Y-133530441D01*
X78774971Y-133529187D01*
X78769274Y-133530166D01*
X78769273Y-133530166D01*
X78580607Y-133562585D01*
X78574910Y-133563564D01*
X78384463Y-133633824D01*
X78379502Y-133636776D01*
X78379501Y-133636776D01*
X78367448Y-133643947D01*
X78210010Y-133737612D01*
X78205670Y-133741418D01*
X78205666Y-133741421D01*
X78061733Y-133867648D01*
X78057392Y-133871455D01*
X77931720Y-134030869D01*
X77929031Y-134035980D01*
X77929029Y-134035983D01*
X77912231Y-134067911D01*
X77837203Y-134210515D01*
X77777007Y-134404378D01*
X77753148Y-134605964D01*
X76581000Y-134605964D01*
X76581000Y-132065964D01*
X77753148Y-132065964D01*
X77766424Y-132268522D01*
X77767845Y-132274118D01*
X77767846Y-132274123D01*
X77788119Y-132353945D01*
X77816392Y-132465269D01*
X77818809Y-132470512D01*
X77856010Y-132551208D01*
X77901377Y-132649616D01*
X78018533Y-132815389D01*
X78163938Y-132957035D01*
X78332720Y-133069812D01*
X78338023Y-133072090D01*
X78338026Y-133072092D01*
X78426707Y-133110192D01*
X78519228Y-133149942D01*
X78592244Y-133166464D01*
X78711579Y-133193467D01*
X78711584Y-133193468D01*
X78717216Y-133194742D01*
X78722987Y-133194969D01*
X78722989Y-133194969D01*
X78782756Y-133197317D01*
X78920053Y-133202712D01*
X79020499Y-133188148D01*
X79115231Y-133174413D01*
X79115236Y-133174412D01*
X79120945Y-133173584D01*
X79126409Y-133171729D01*
X79126414Y-133171728D01*
X79307693Y-133110192D01*
X79307698Y-133110190D01*
X79313165Y-133108334D01*
X79490276Y-133009147D01*
X79552934Y-132957035D01*
X79641913Y-132883031D01*
X79646345Y-132879345D01*
X79776147Y-132723276D01*
X79875334Y-132546165D01*
X79877190Y-132540698D01*
X79877192Y-132540693D01*
X79938728Y-132359414D01*
X79938729Y-132359409D01*
X79940584Y-132353945D01*
X79941412Y-132348236D01*
X79941413Y-132348231D01*
X79969179Y-132156727D01*
X79969712Y-132153053D01*
X79971232Y-132095000D01*
X79952658Y-131892859D01*
X79951090Y-131887299D01*
X79899125Y-131703046D01*
X79899124Y-131703044D01*
X79897557Y-131697487D01*
X79886978Y-131676033D01*
X79810331Y-131520609D01*
X79807776Y-131515428D01*
X79686320Y-131352779D01*
X79537258Y-131214987D01*
X79532375Y-131211906D01*
X79532371Y-131211903D01*
X79370464Y-131109748D01*
X79365581Y-131106667D01*
X79177039Y-131031446D01*
X79171379Y-131030320D01*
X79171375Y-131030319D01*
X78983613Y-130992971D01*
X78983610Y-130992971D01*
X78977946Y-130991844D01*
X78972171Y-130991768D01*
X78972167Y-130991768D01*
X78870793Y-130990441D01*
X78774971Y-130989187D01*
X78769274Y-130990166D01*
X78769273Y-130990166D01*
X78580607Y-131022585D01*
X78574910Y-131023564D01*
X78384463Y-131093824D01*
X78210010Y-131197612D01*
X78205670Y-131201418D01*
X78205666Y-131201421D01*
X78185723Y-131218911D01*
X78057392Y-131331455D01*
X77931720Y-131490869D01*
X77929031Y-131495980D01*
X77929029Y-131495983D01*
X77916073Y-131520609D01*
X77837203Y-131670515D01*
X77777007Y-131864378D01*
X77753148Y-132065964D01*
X76581000Y-132065964D01*
X76581000Y-128679933D01*
X77757500Y-128679933D01*
X77757501Y-130430066D01*
X77772266Y-130504301D01*
X77828516Y-130588484D01*
X77912699Y-130644734D01*
X77986933Y-130659500D01*
X78861858Y-130659500D01*
X79737066Y-130659499D01*
X79772818Y-130652388D01*
X79799126Y-130647156D01*
X79799128Y-130647155D01*
X79811301Y-130644734D01*
X79821621Y-130637839D01*
X79821622Y-130637838D01*
X79885168Y-130595377D01*
X79895484Y-130588484D01*
X79951734Y-130504301D01*
X79966500Y-130430067D01*
X79966500Y-130258428D01*
X79986502Y-130190307D01*
X80040158Y-130143814D01*
X80110432Y-130133710D01*
X80175012Y-130163204D01*
X80199933Y-130192593D01*
X80299694Y-130355388D01*
X80305777Y-130363699D01*
X80445213Y-130524667D01*
X80452580Y-130531883D01*
X80616434Y-130667916D01*
X80624881Y-130673831D01*
X80808756Y-130781279D01*
X80818042Y-130785729D01*
X80967124Y-130842657D01*
X81023627Y-130885644D01*
X81047920Y-130952355D01*
X81032290Y-131021610D01*
X80981699Y-131071421D01*
X80965785Y-131078579D01*
X80924463Y-131093824D01*
X80750010Y-131197612D01*
X80745670Y-131201418D01*
X80745666Y-131201421D01*
X80725723Y-131218911D01*
X80597392Y-131331455D01*
X80471720Y-131490869D01*
X80469031Y-131495980D01*
X80469029Y-131495983D01*
X80456073Y-131520609D01*
X80377203Y-131670515D01*
X80317007Y-131864378D01*
X80293148Y-132065964D01*
X80306424Y-132268522D01*
X80307845Y-132274118D01*
X80307846Y-132274123D01*
X80328119Y-132353945D01*
X80356392Y-132465269D01*
X80358809Y-132470512D01*
X80396010Y-132551208D01*
X80441377Y-132649616D01*
X80558533Y-132815389D01*
X80703938Y-132957035D01*
X80872720Y-133069812D01*
X80878023Y-133072090D01*
X80878026Y-133072092D01*
X80966707Y-133110192D01*
X81059228Y-133149942D01*
X81132244Y-133166464D01*
X81251579Y-133193467D01*
X81251584Y-133193468D01*
X81257216Y-133194742D01*
X81262987Y-133194969D01*
X81262989Y-133194969D01*
X81322756Y-133197317D01*
X81460053Y-133202712D01*
X81560499Y-133188148D01*
X81655231Y-133174413D01*
X81655236Y-133174412D01*
X81660945Y-133173584D01*
X81666409Y-133171729D01*
X81666414Y-133171728D01*
X81847693Y-133110192D01*
X81847698Y-133110190D01*
X81853165Y-133108334D01*
X82030276Y-133009147D01*
X82092934Y-132957035D01*
X82181913Y-132883031D01*
X82186345Y-132879345D01*
X82316147Y-132723276D01*
X82415334Y-132546165D01*
X82417190Y-132540698D01*
X82417192Y-132540693D01*
X82478728Y-132359414D01*
X82478729Y-132359409D01*
X82480584Y-132353945D01*
X82481412Y-132348236D01*
X82481413Y-132348231D01*
X82509179Y-132156727D01*
X82509712Y-132153053D01*
X82511232Y-132095000D01*
X82492658Y-131892859D01*
X82491090Y-131887299D01*
X82439125Y-131703046D01*
X82439124Y-131703044D01*
X82437557Y-131697487D01*
X82426978Y-131676033D01*
X82350331Y-131520609D01*
X82347776Y-131515428D01*
X82226320Y-131352779D01*
X82077258Y-131214987D01*
X82072375Y-131211906D01*
X82072371Y-131211903D01*
X81910464Y-131109748D01*
X81905581Y-131106667D01*
X81833614Y-131077955D01*
X81777755Y-131034134D01*
X81754455Y-130967069D01*
X81771111Y-130898054D01*
X81822436Y-130849000D01*
X81844098Y-130840239D01*
X81894252Y-130825192D01*
X81903842Y-130821433D01*
X82095095Y-130727739D01*
X82103945Y-130722464D01*
X82277328Y-130598792D01*
X82285200Y-130592139D01*
X82436052Y-130441812D01*
X82442730Y-130433965D01*
X82567003Y-130261020D01*
X82572313Y-130252183D01*
X82666670Y-130061267D01*
X82670469Y-130051672D01*
X82732377Y-129847910D01*
X82734555Y-129837837D01*
X82735986Y-129826962D01*
X82733775Y-129812778D01*
X82720617Y-129809000D01*
X81274000Y-129809000D01*
X81205879Y-129788998D01*
X81159386Y-129735342D01*
X81148000Y-129683000D01*
X81148000Y-129282885D01*
X81656000Y-129282885D01*
X81660475Y-129298124D01*
X81661865Y-129299329D01*
X81669548Y-129301000D01*
X82720344Y-129301000D01*
X82733875Y-129297027D01*
X82735180Y-129287947D01*
X82693214Y-129120875D01*
X82689894Y-129111124D01*
X82604972Y-128915814D01*
X82600105Y-128906739D01*
X82484426Y-128727926D01*
X82478136Y-128719757D01*
X82355516Y-128585000D01*
X88008064Y-128585000D01*
X88009142Y-128593188D01*
X88011922Y-128614304D01*
X88013000Y-128630751D01*
X88013000Y-129389492D01*
X88027723Y-129501322D01*
X88085359Y-129640468D01*
X88177045Y-129759955D01*
X88296532Y-129851641D01*
X88435678Y-129909277D01*
X88585000Y-129928936D01*
X88734322Y-129909277D01*
X88873468Y-129851641D01*
X88992955Y-129759955D01*
X89084641Y-129640468D01*
X89142277Y-129501322D01*
X89157000Y-129389492D01*
X89157000Y-129283000D01*
X89177002Y-129214879D01*
X89230658Y-129168386D01*
X89283000Y-129157000D01*
X93878880Y-129157000D01*
X93947001Y-129177002D01*
X93967975Y-129193905D01*
X94260095Y-129486025D01*
X94294121Y-129548337D01*
X94297000Y-129575120D01*
X94297000Y-130339492D01*
X94311723Y-130451322D01*
X94369359Y-130590468D01*
X94461045Y-130709955D01*
X94580532Y-130801641D01*
X94719678Y-130859277D01*
X94869000Y-130878936D01*
X95018322Y-130859277D01*
X95157468Y-130801641D01*
X95276955Y-130709955D01*
X95368641Y-130590468D01*
X95426277Y-130451322D01*
X95441000Y-130339492D01*
X95441000Y-129331751D01*
X95442078Y-129315304D01*
X95444858Y-129294188D01*
X95445936Y-129286000D01*
X95426277Y-129136678D01*
X95368641Y-128997532D01*
X95299976Y-128908046D01*
X95299975Y-128908045D01*
X95276955Y-128878045D01*
X95253505Y-128860051D01*
X95241114Y-128849184D01*
X94604816Y-128212886D01*
X94593949Y-128200495D01*
X94580981Y-128183595D01*
X94575955Y-128177045D01*
X94456468Y-128085359D01*
X94317322Y-128027723D01*
X94286625Y-128023682D01*
X94205503Y-128013001D01*
X94205494Y-128013000D01*
X94205491Y-128013000D01*
X94205479Y-128012999D01*
X94176189Y-128009143D01*
X94176188Y-128009143D01*
X94168000Y-128008065D01*
X94159812Y-128009143D01*
X94159811Y-128009143D01*
X94138702Y-128011922D01*
X94122256Y-128013000D01*
X88630751Y-128013000D01*
X88614304Y-128011922D01*
X88593188Y-128009142D01*
X88585000Y-128008064D01*
X88547508Y-128013000D01*
X88435678Y-128027723D01*
X88296532Y-128085359D01*
X88177045Y-128177045D01*
X88085359Y-128296532D01*
X88027723Y-128435678D01*
X88008064Y-128585000D01*
X82355516Y-128585000D01*
X82334806Y-128562240D01*
X82327273Y-128555215D01*
X82160139Y-128423222D01*
X82151552Y-128417517D01*
X81965117Y-128314599D01*
X81955705Y-128310369D01*
X81754959Y-128239280D01*
X81744988Y-128236646D01*
X81673837Y-128223972D01*
X81660540Y-128225432D01*
X81656000Y-128239989D01*
X81656000Y-129282885D01*
X81148000Y-129282885D01*
X81148000Y-128238102D01*
X81144082Y-128224758D01*
X81129806Y-128222771D01*
X81091324Y-128228660D01*
X81081288Y-128231051D01*
X80878868Y-128297212D01*
X80869359Y-128301209D01*
X80680463Y-128399542D01*
X80671738Y-128405036D01*
X80501433Y-128532905D01*
X80493726Y-128539748D01*
X80346590Y-128693717D01*
X80340104Y-128701727D01*
X80220098Y-128877649D01*
X80215000Y-128886623D01*
X80206787Y-128904316D01*
X80159963Y-128957683D01*
X80091720Y-128977264D01*
X80023724Y-128956841D01*
X79977564Y-128902899D01*
X79966499Y-128851266D01*
X79966499Y-128679934D01*
X79951734Y-128605699D01*
X79943375Y-128593188D01*
X79902377Y-128531832D01*
X79895484Y-128521516D01*
X79811301Y-128465266D01*
X79737067Y-128450500D01*
X78862142Y-128450500D01*
X77986934Y-128450501D01*
X77951182Y-128457612D01*
X77924874Y-128462844D01*
X77924872Y-128462845D01*
X77912699Y-128465266D01*
X77902379Y-128472161D01*
X77902378Y-128472162D01*
X77841985Y-128512516D01*
X77828516Y-128521516D01*
X77772266Y-128605699D01*
X77757500Y-128679933D01*
X76581000Y-128679933D01*
X76581000Y-126477907D01*
X96252738Y-126477907D01*
X96269222Y-126674209D01*
X96293106Y-126757500D01*
X96311493Y-126821623D01*
X96323521Y-126863570D01*
X96326336Y-126869047D01*
X96390101Y-126993120D01*
X96413566Y-127038779D01*
X96417389Y-127043603D01*
X96417392Y-127043607D01*
X96445045Y-127078496D01*
X96535927Y-127193160D01*
X96540620Y-127197154D01*
X96540621Y-127197155D01*
X96673434Y-127310187D01*
X96685945Y-127320835D01*
X96691323Y-127323841D01*
X96691325Y-127323842D01*
X96733839Y-127347602D01*
X96857904Y-127416940D01*
X97045255Y-127477814D01*
X97240862Y-127501139D01*
X97246997Y-127500667D01*
X97246999Y-127500667D01*
X97306801Y-127496065D01*
X97437274Y-127486026D01*
X97627009Y-127433050D01*
X97634132Y-127429452D01*
X97797341Y-127347010D01*
X97797343Y-127347009D01*
X97802842Y-127344231D01*
X97958074Y-127222950D01*
X97962100Y-127218286D01*
X97962103Y-127218283D01*
X98082764Y-127078496D01*
X98082765Y-127078494D01*
X98086793Y-127073828D01*
X98136156Y-126986933D01*
X98797500Y-126986933D01*
X98797501Y-128537066D01*
X98812266Y-128611301D01*
X98819161Y-128621620D01*
X98819162Y-128621622D01*
X98825262Y-128630751D01*
X98868516Y-128695484D01*
X98952699Y-128751734D01*
X99026933Y-128766500D01*
X99801874Y-128766500D01*
X100577066Y-128766499D01*
X100612818Y-128759388D01*
X100639126Y-128754156D01*
X100639128Y-128754155D01*
X100651301Y-128751734D01*
X100661621Y-128744839D01*
X100661622Y-128744838D01*
X100725168Y-128702377D01*
X100735484Y-128695484D01*
X100791734Y-128611301D01*
X100806500Y-128537067D01*
X100806499Y-126986934D01*
X100791734Y-126912699D01*
X100735484Y-126828516D01*
X100651301Y-126772266D01*
X100577067Y-126757500D01*
X99802126Y-126757500D01*
X99026934Y-126757501D01*
X98991182Y-126764612D01*
X98964874Y-126769844D01*
X98964872Y-126769845D01*
X98952699Y-126772266D01*
X98942379Y-126779161D01*
X98942378Y-126779162D01*
X98881985Y-126819516D01*
X98868516Y-126828516D01*
X98812266Y-126912699D01*
X98797500Y-126986933D01*
X98136156Y-126986933D01*
X98184096Y-126902544D01*
X98246277Y-126715622D01*
X98270966Y-126520183D01*
X98271360Y-126492000D01*
X98252137Y-126295948D01*
X98244955Y-126272161D01*
X99116393Y-126272161D01*
X99125687Y-126284175D01*
X99166088Y-126312464D01*
X99175584Y-126317947D01*
X99365113Y-126406326D01*
X99375405Y-126410072D01*
X99577401Y-126464196D01*
X99588196Y-126466099D01*
X99796525Y-126484326D01*
X99807475Y-126484326D01*
X100015804Y-126466099D01*
X100026599Y-126464196D01*
X100228595Y-126410072D01*
X100238887Y-126406326D01*
X100428416Y-126317947D01*
X100437912Y-126312464D01*
X100479148Y-126283590D01*
X100487523Y-126273112D01*
X100480457Y-126259668D01*
X99814811Y-125594021D01*
X99800868Y-125586408D01*
X99799034Y-125586539D01*
X99792420Y-125590790D01*
X99122820Y-126260391D01*
X99116393Y-126272161D01*
X98244955Y-126272161D01*
X98195200Y-126107363D01*
X98102717Y-125933429D01*
X97978212Y-125780770D01*
X97912894Y-125726734D01*
X97831177Y-125659132D01*
X97831174Y-125659130D01*
X97826427Y-125655203D01*
X97653143Y-125561508D01*
X97464960Y-125503256D01*
X97458835Y-125502612D01*
X97458834Y-125502612D01*
X97275176Y-125483309D01*
X97275174Y-125483309D01*
X97269047Y-125482665D01*
X97187018Y-125490130D01*
X97079004Y-125499960D01*
X97079001Y-125499961D01*
X97072865Y-125500519D01*
X97066959Y-125502257D01*
X97066955Y-125502258D01*
X96926775Y-125543516D01*
X96883887Y-125556138D01*
X96878427Y-125558992D01*
X96878428Y-125558992D01*
X96714772Y-125644549D01*
X96714768Y-125644552D01*
X96709312Y-125647404D01*
X96555788Y-125770840D01*
X96429163Y-125921745D01*
X96334262Y-126094371D01*
X96332398Y-126100246D01*
X96332397Y-126100249D01*
X96328269Y-126113263D01*
X96274697Y-126282142D01*
X96271296Y-126312464D01*
X96254063Y-126466099D01*
X96252738Y-126477907D01*
X76581000Y-126477907D01*
X76581000Y-125227475D01*
X98539674Y-125227475D01*
X98557901Y-125435804D01*
X98559804Y-125446599D01*
X98613928Y-125648595D01*
X98617674Y-125658887D01*
X98706054Y-125848417D01*
X98711534Y-125857907D01*
X98740411Y-125899149D01*
X98750887Y-125907523D01*
X98764334Y-125900455D01*
X99429979Y-125234811D01*
X99436356Y-125223132D01*
X100166408Y-125223132D01*
X100166539Y-125224966D01*
X100170790Y-125231580D01*
X100840391Y-125901180D01*
X100852161Y-125907607D01*
X100864176Y-125898311D01*
X100892466Y-125857907D01*
X100897946Y-125848417D01*
X100986326Y-125658887D01*
X100990072Y-125648595D01*
X101044196Y-125446599D01*
X101046099Y-125435804D01*
X101064326Y-125227475D01*
X101064326Y-125216525D01*
X101046099Y-125008196D01*
X101044196Y-124997401D01*
X100990072Y-124795405D01*
X100986326Y-124785113D01*
X100897946Y-124595583D01*
X100892466Y-124586093D01*
X100863589Y-124544851D01*
X100853113Y-124536477D01*
X100839666Y-124543545D01*
X100174021Y-125209189D01*
X100166408Y-125223132D01*
X99436356Y-125223132D01*
X99437592Y-125220868D01*
X99437461Y-125219034D01*
X99433210Y-125212420D01*
X98763609Y-124542820D01*
X98751839Y-124536393D01*
X98739824Y-124545689D01*
X98711534Y-124586093D01*
X98706054Y-124595583D01*
X98617674Y-124785113D01*
X98613928Y-124795405D01*
X98559804Y-124997401D01*
X98557901Y-125008196D01*
X98539674Y-125216525D01*
X98539674Y-125227475D01*
X76581000Y-125227475D01*
X76581000Y-123937907D01*
X96252738Y-123937907D01*
X96253254Y-123944051D01*
X96261116Y-124037674D01*
X96269222Y-124134209D01*
X96323521Y-124323570D01*
X96413566Y-124498779D01*
X96417389Y-124503603D01*
X96417392Y-124503607D01*
X96449047Y-124543545D01*
X96535927Y-124653160D01*
X96540620Y-124657154D01*
X96540621Y-124657155D01*
X96565447Y-124678283D01*
X96685945Y-124780835D01*
X96691323Y-124783841D01*
X96691325Y-124783842D01*
X96823051Y-124857461D01*
X96857904Y-124876940D01*
X97045255Y-124937814D01*
X97240862Y-124961139D01*
X97246997Y-124960667D01*
X97246999Y-124960667D01*
X97306801Y-124956065D01*
X97437274Y-124946026D01*
X97627009Y-124893050D01*
X97632513Y-124890270D01*
X97797341Y-124807010D01*
X97797343Y-124807009D01*
X97802842Y-124804231D01*
X97958074Y-124682950D01*
X97962100Y-124678286D01*
X97962103Y-124678283D01*
X98082764Y-124538496D01*
X98082765Y-124538494D01*
X98086793Y-124533828D01*
X98184096Y-124362544D01*
X98246277Y-124175622D01*
X98246875Y-124170887D01*
X99116477Y-124170887D01*
X99123545Y-124184334D01*
X99789189Y-124849979D01*
X99803132Y-124857592D01*
X99804966Y-124857461D01*
X99811580Y-124853210D01*
X100481180Y-124183609D01*
X100487607Y-124171839D01*
X100478313Y-124159825D01*
X100437912Y-124131536D01*
X100428416Y-124126053D01*
X100238887Y-124037674D01*
X100228595Y-124033928D01*
X100026599Y-123979804D01*
X100015804Y-123977901D01*
X99807475Y-123959674D01*
X99796525Y-123959674D01*
X99588196Y-123977901D01*
X99577401Y-123979804D01*
X99375405Y-124033928D01*
X99365113Y-124037674D01*
X99175583Y-124126054D01*
X99166093Y-124131534D01*
X99124851Y-124160411D01*
X99116477Y-124170887D01*
X98246875Y-124170887D01*
X98270966Y-123980183D01*
X98271360Y-123952000D01*
X98252137Y-123755948D01*
X98195200Y-123567363D01*
X98102717Y-123393429D01*
X97978212Y-123240770D01*
X97912894Y-123186734D01*
X97831177Y-123119132D01*
X97831174Y-123119130D01*
X97826427Y-123115203D01*
X97653143Y-123021508D01*
X97464960Y-122963256D01*
X97458835Y-122962612D01*
X97458834Y-122962612D01*
X97275176Y-122943309D01*
X97275174Y-122943309D01*
X97269047Y-122942665D01*
X97187018Y-122950130D01*
X97079004Y-122959960D01*
X97079001Y-122959961D01*
X97072865Y-122960519D01*
X97066959Y-122962257D01*
X97066955Y-122962258D01*
X96926775Y-123003516D01*
X96883887Y-123016138D01*
X96878427Y-123018992D01*
X96878428Y-123018992D01*
X96714772Y-123104549D01*
X96714768Y-123104552D01*
X96709312Y-123107404D01*
X96555788Y-123230840D01*
X96429163Y-123381745D01*
X96422740Y-123393429D01*
X96347420Y-123530437D01*
X96334262Y-123554371D01*
X96332398Y-123560246D01*
X96332397Y-123560249D01*
X96298879Y-123665910D01*
X96274697Y-123742142D01*
X96252738Y-123937907D01*
X76581000Y-123937907D01*
X76581000Y-122462161D01*
X96576393Y-122462161D01*
X96585687Y-122474175D01*
X96626088Y-122502464D01*
X96635584Y-122507947D01*
X96825113Y-122596326D01*
X96835405Y-122600072D01*
X97037401Y-122654196D01*
X97048196Y-122656099D01*
X97256525Y-122674326D01*
X97267475Y-122674326D01*
X97340842Y-122667907D01*
X98792738Y-122667907D01*
X98809222Y-122864209D01*
X98831904Y-122943309D01*
X98852289Y-123014399D01*
X98863521Y-123053570D01*
X98953566Y-123228779D01*
X98957389Y-123233603D01*
X98957392Y-123233607D01*
X98985045Y-123268496D01*
X99075927Y-123383160D01*
X99080620Y-123387154D01*
X99080621Y-123387155D01*
X99105447Y-123408283D01*
X99225945Y-123510835D01*
X99231323Y-123513841D01*
X99231325Y-123513842D01*
X99327090Y-123567363D01*
X99397904Y-123606940D01*
X99585255Y-123667814D01*
X99780862Y-123691139D01*
X99786997Y-123690667D01*
X99786999Y-123690667D01*
X99846801Y-123686065D01*
X99977274Y-123676026D01*
X100167009Y-123623050D01*
X100172513Y-123620270D01*
X100337341Y-123537010D01*
X100337343Y-123537009D01*
X100342842Y-123534231D01*
X100498074Y-123412950D01*
X100502100Y-123408286D01*
X100502103Y-123408283D01*
X100622764Y-123268496D01*
X100622765Y-123268494D01*
X100626793Y-123263828D01*
X100724096Y-123092544D01*
X100786277Y-122905622D01*
X100810966Y-122710183D01*
X100811360Y-122682000D01*
X100792137Y-122485948D01*
X100735200Y-122297363D01*
X100642717Y-122123429D01*
X100518212Y-121970770D01*
X100405313Y-121877372D01*
X100371177Y-121849132D01*
X100371174Y-121849130D01*
X100366427Y-121845203D01*
X100193143Y-121751508D01*
X100004960Y-121693256D01*
X99998835Y-121692612D01*
X99998834Y-121692612D01*
X99815176Y-121673309D01*
X99815174Y-121673309D01*
X99809047Y-121672665D01*
X99727018Y-121680130D01*
X99619004Y-121689960D01*
X99619001Y-121689961D01*
X99612865Y-121690519D01*
X99606959Y-121692257D01*
X99606955Y-121692258D01*
X99466775Y-121733516D01*
X99423887Y-121746138D01*
X99418427Y-121748992D01*
X99418428Y-121748992D01*
X99254772Y-121834549D01*
X99254768Y-121834552D01*
X99249312Y-121837404D01*
X99244512Y-121841264D01*
X99244511Y-121841264D01*
X99199602Y-121877372D01*
X99095788Y-121960840D01*
X98969163Y-122111745D01*
X98874262Y-122284371D01*
X98872398Y-122290246D01*
X98872397Y-122290249D01*
X98868269Y-122303263D01*
X98814697Y-122472142D01*
X98811296Y-122502464D01*
X98794063Y-122656099D01*
X98792738Y-122667907D01*
X97340842Y-122667907D01*
X97475804Y-122656099D01*
X97486599Y-122654196D01*
X97688595Y-122600072D01*
X97698887Y-122596326D01*
X97888416Y-122507947D01*
X97897912Y-122502464D01*
X97939148Y-122473590D01*
X97947523Y-122463112D01*
X97940457Y-122449668D01*
X97274811Y-121784021D01*
X97260868Y-121776408D01*
X97259034Y-121776539D01*
X97252420Y-121780790D01*
X96582820Y-122450391D01*
X96576393Y-122462161D01*
X76581000Y-122462161D01*
X76581000Y-118606609D01*
X88176734Y-118606609D01*
X88176906Y-118610004D01*
X88176906Y-118610005D01*
X88186808Y-118805462D01*
X88194591Y-118959106D01*
X88195128Y-118962461D01*
X88195129Y-118962467D01*
X88217736Y-119103609D01*
X88250412Y-119307613D01*
X88343546Y-119648053D01*
X88472903Y-119976443D01*
X88474486Y-119979458D01*
X88635384Y-120285926D01*
X88635389Y-120285934D01*
X88636968Y-120288942D01*
X88638862Y-120291760D01*
X88638867Y-120291769D01*
X88824887Y-120568595D01*
X88833824Y-120581895D01*
X89061167Y-120851873D01*
X89063627Y-120854224D01*
X89063630Y-120854227D01*
X89313875Y-121093366D01*
X89313882Y-121093372D01*
X89316338Y-121095719D01*
X89596351Y-121310581D01*
X89599269Y-121312355D01*
X89895017Y-121492173D01*
X89895022Y-121492176D01*
X89897932Y-121493945D01*
X89901020Y-121495391D01*
X89901019Y-121495391D01*
X90214468Y-121642222D01*
X90214478Y-121642226D01*
X90217552Y-121643666D01*
X90220770Y-121644768D01*
X90220773Y-121644769D01*
X90548241Y-121756887D01*
X90548245Y-121756888D01*
X90551472Y-121757993D01*
X90554802Y-121758743D01*
X90554811Y-121758746D01*
X90798164Y-121813587D01*
X90895786Y-121835587D01*
X90899171Y-121835973D01*
X90899179Y-121835974D01*
X91243083Y-121875157D01*
X91243091Y-121875157D01*
X91246466Y-121875542D01*
X91249870Y-121875560D01*
X91249873Y-121875560D01*
X91441627Y-121876564D01*
X91599411Y-121877390D01*
X91602797Y-121877040D01*
X91602799Y-121877040D01*
X91947098Y-121841461D01*
X91947107Y-121841460D01*
X91950490Y-121841110D01*
X91953823Y-121840396D01*
X91953826Y-121840395D01*
X92216785Y-121784021D01*
X92295598Y-121767125D01*
X92630697Y-121656301D01*
X92951867Y-121509936D01*
X93107589Y-121417475D01*
X95999674Y-121417475D01*
X96017901Y-121625804D01*
X96019804Y-121636599D01*
X96073928Y-121838595D01*
X96077674Y-121848887D01*
X96166054Y-122038417D01*
X96171534Y-122047907D01*
X96200411Y-122089149D01*
X96210887Y-122097523D01*
X96224334Y-122090455D01*
X96889979Y-121424811D01*
X96896356Y-121413132D01*
X97626408Y-121413132D01*
X97626539Y-121414966D01*
X97630790Y-121421580D01*
X98300391Y-122091180D01*
X98312161Y-122097607D01*
X98324176Y-122088311D01*
X98352466Y-122047907D01*
X98357946Y-122038417D01*
X98446326Y-121848887D01*
X98450072Y-121838595D01*
X98504196Y-121636599D01*
X98506099Y-121625804D01*
X98524326Y-121417475D01*
X98524326Y-121406525D01*
X98506099Y-121198196D01*
X98505035Y-121192161D01*
X99116393Y-121192161D01*
X99125687Y-121204175D01*
X99166088Y-121232464D01*
X99175584Y-121237947D01*
X99365113Y-121326326D01*
X99375405Y-121330072D01*
X99577401Y-121384196D01*
X99588196Y-121386099D01*
X99796525Y-121404326D01*
X99807475Y-121404326D01*
X100015804Y-121386099D01*
X100026599Y-121384196D01*
X100228595Y-121330072D01*
X100238887Y-121326326D01*
X100428416Y-121237947D01*
X100437912Y-121232464D01*
X100479148Y-121203590D01*
X100487523Y-121193112D01*
X100480457Y-121179668D01*
X99814811Y-120514021D01*
X99800868Y-120506408D01*
X99799034Y-120506539D01*
X99792420Y-120510790D01*
X99122820Y-121180391D01*
X99116393Y-121192161D01*
X98505035Y-121192161D01*
X98504196Y-121187401D01*
X98450072Y-120985405D01*
X98446326Y-120975113D01*
X98357946Y-120785583D01*
X98352466Y-120776093D01*
X98323589Y-120734851D01*
X98313113Y-120726477D01*
X98299666Y-120733545D01*
X97634021Y-121399189D01*
X97626408Y-121413132D01*
X96896356Y-121413132D01*
X96897592Y-121410868D01*
X96897461Y-121409034D01*
X96893210Y-121402420D01*
X96223609Y-120732820D01*
X96211839Y-120726393D01*
X96199824Y-120735689D01*
X96171534Y-120776093D01*
X96166054Y-120785583D01*
X96077674Y-120975113D01*
X96073928Y-120985405D01*
X96019804Y-121187401D01*
X96017901Y-121198196D01*
X95999674Y-121406525D01*
X95999674Y-121417475D01*
X93107589Y-121417475D01*
X93132945Y-121402420D01*
X93252407Y-121331489D01*
X93252412Y-121331486D01*
X93255352Y-121329740D01*
X93280870Y-121310581D01*
X93534867Y-121119874D01*
X93537600Y-121117822D01*
X93795310Y-120876661D01*
X94025468Y-120609078D01*
X94196044Y-120360887D01*
X96576477Y-120360887D01*
X96583545Y-120374334D01*
X97249189Y-121039979D01*
X97263132Y-121047592D01*
X97264966Y-121047461D01*
X97271580Y-121043210D01*
X97941180Y-120373609D01*
X97947607Y-120361839D01*
X97938313Y-120349825D01*
X97897912Y-120321536D01*
X97888416Y-120316053D01*
X97698887Y-120227674D01*
X97688595Y-120223928D01*
X97486599Y-120169804D01*
X97475804Y-120167901D01*
X97267475Y-120149674D01*
X97256525Y-120149674D01*
X97048196Y-120167901D01*
X97037401Y-120169804D01*
X96835405Y-120223928D01*
X96825113Y-120227674D01*
X96635583Y-120316054D01*
X96626093Y-120321534D01*
X96584851Y-120350411D01*
X96576477Y-120360887D01*
X94196044Y-120360887D01*
X94225380Y-120318203D01*
X94226992Y-120315209D01*
X94226997Y-120315201D01*
X94317308Y-120147475D01*
X98539674Y-120147475D01*
X98557901Y-120355804D01*
X98559804Y-120366599D01*
X98613928Y-120568595D01*
X98617674Y-120578887D01*
X98706054Y-120768417D01*
X98711534Y-120777907D01*
X98740411Y-120819149D01*
X98750887Y-120827523D01*
X98764334Y-120820455D01*
X99429979Y-120154811D01*
X99436356Y-120143132D01*
X100166408Y-120143132D01*
X100166539Y-120144966D01*
X100170790Y-120151580D01*
X100840391Y-120821180D01*
X100852161Y-120827607D01*
X100864176Y-120818311D01*
X100892466Y-120777907D01*
X100897946Y-120768417D01*
X100986326Y-120578887D01*
X100990072Y-120568595D01*
X101044196Y-120366599D01*
X101046099Y-120355804D01*
X101064326Y-120147475D01*
X101064326Y-120136525D01*
X101046099Y-119928196D01*
X101044196Y-119917401D01*
X100990072Y-119715405D01*
X100986326Y-119705113D01*
X100897946Y-119515583D01*
X100892466Y-119506093D01*
X100863589Y-119464851D01*
X100853113Y-119456477D01*
X100839666Y-119463545D01*
X100174021Y-120129189D01*
X100166408Y-120143132D01*
X99436356Y-120143132D01*
X99437592Y-120140868D01*
X99437461Y-120139034D01*
X99433210Y-120132420D01*
X98763609Y-119462820D01*
X98751839Y-119456393D01*
X98739824Y-119465689D01*
X98711534Y-119506093D01*
X98706054Y-119515583D01*
X98617674Y-119705113D01*
X98613928Y-119715405D01*
X98559804Y-119917401D01*
X98557901Y-119928196D01*
X98539674Y-120136525D01*
X98539674Y-120147475D01*
X94317308Y-120147475D01*
X94391087Y-120010452D01*
X94392709Y-120007440D01*
X94525498Y-119680422D01*
X94533816Y-119651223D01*
X94586666Y-119465689D01*
X94622191Y-119340976D01*
X94681659Y-118993073D01*
X94683825Y-118957674D01*
X94703096Y-118642580D01*
X94703206Y-118640782D01*
X94703286Y-118618000D01*
X94684199Y-118265567D01*
X94627161Y-117917257D01*
X94532839Y-117577145D01*
X94529849Y-117569630D01*
X94403597Y-117252372D01*
X94402338Y-117249208D01*
X94331713Y-117115820D01*
X94238777Y-116940295D01*
X94238775Y-116940292D01*
X94237182Y-116937283D01*
X94230579Y-116927530D01*
X94041211Y-116647834D01*
X94041204Y-116647825D01*
X94039305Y-116645020D01*
X94037109Y-116642430D01*
X94037104Y-116642424D01*
X93948715Y-116538201D01*
X93811021Y-116375837D01*
X93555001Y-116132883D01*
X93552294Y-116130821D01*
X93552286Y-116130814D01*
X93382515Y-116001484D01*
X93274239Y-115919000D01*
X92972020Y-115736689D01*
X92968930Y-115735255D01*
X92968925Y-115735252D01*
X92811949Y-115662387D01*
X92651879Y-115588085D01*
X92648654Y-115586993D01*
X92648648Y-115586991D01*
X92320798Y-115476020D01*
X92320793Y-115476018D01*
X92317562Y-115474925D01*
X92303832Y-115471881D01*
X92234730Y-115456562D01*
X91972979Y-115398533D01*
X91848353Y-115384774D01*
X91625543Y-115360175D01*
X91625538Y-115360175D01*
X91622162Y-115359802D01*
X91618763Y-115359796D01*
X91618762Y-115359796D01*
X91452289Y-115359506D01*
X91269213Y-115359186D01*
X91138206Y-115373187D01*
X90921646Y-115396330D01*
X90921640Y-115396331D01*
X90918262Y-115396692D01*
X90573414Y-115471881D01*
X90238704Y-115583873D01*
X89918047Y-115731359D01*
X89915113Y-115733115D01*
X89915111Y-115733116D01*
X89865180Y-115762999D01*
X89615194Y-115912613D01*
X89333687Y-116125515D01*
X89076820Y-116367574D01*
X88847598Y-116635959D01*
X88648702Y-116927530D01*
X88482458Y-117238876D01*
X88481183Y-117242048D01*
X88481181Y-117242052D01*
X88459313Y-117296452D01*
X88350813Y-117566355D01*
X88349894Y-117569623D01*
X88349892Y-117569630D01*
X88257812Y-117897212D01*
X88255304Y-117906136D01*
X88254743Y-117909489D01*
X88254742Y-117909493D01*
X88199853Y-118237500D01*
X88197051Y-118254245D01*
X88176734Y-118606609D01*
X76581000Y-118606609D01*
X76581000Y-114807000D01*
X76601002Y-114738879D01*
X76654658Y-114692386D01*
X76707000Y-114681000D01*
X113666000Y-114681000D01*
X113734121Y-114701002D01*
G37*
G04 #@! TD.AperFunction*
M02*
