M48
INCH,TZ
T1C0.0120
T2C0.0299
T3C0.0394
T4C0.1260
%
G90
G05
T1
X31850Y-58150
X32250Y-58150
X34400Y-54550
X34850Y-49400
X34876Y-50624
X34876Y-50926
X34876Y-54074
X35000Y-52900
X35650Y-49400
X37350Y-50950
X37350Y-51300
T2
X38292Y-46800
X38292Y-47800
X38292Y-48800
X38292Y-49800
X38292Y-53686
X38292Y-54686
X38292Y-55686
X38292Y-56686
X39292Y-47300
X39292Y-48300
X39292Y-49300
X39292Y-50300
X39292Y-54186
X39292Y-55186
X39292Y-56186
X39292Y-57186
T3
X31048Y-51006
X31048Y-52006
X31048Y-53006
X32048Y-51006
X32048Y-52006
X32048Y-53006
T4
X36000Y-46700
X36000Y-57300
T0
M30
